G04 #@! TF.GenerationSoftware,KiCad,Pcbnew,9.0.7*
G04 #@! TF.CreationDate,2026-02-28T23:28:59+02:00*
G04 #@! TF.ProjectId,S-PCBASSY-001-01,532d5043-4241-4535-9359-2d3030312d30,rev?*
G04 #@! TF.SameCoordinates,Original*
G04 #@! TF.FileFunction,OtherDrawing,Comment*
%FSLAX46Y46*%
G04 Gerber Fmt 4.6, Leading zero omitted, Abs format (unit mm)*
G04 Created by KiCad (PCBNEW 9.0.7) date 2026-02-28 23:28:59*
%MOMM*%
%LPD*%
G01*
G04 APERTURE LIST*
%ADD10C,0.100000*%
%ADD11C,0.150000*%
G04 APERTURE END LIST*
D10*
X162000000Y-43500000D02*
X103000000Y-43500000D01*
X166000000Y-81825000D02*
X187000000Y-81825000D01*
X187000000Y-97675000D01*
X166000000Y-97675000D01*
X166000000Y-81825000D01*
X165000000Y-47000000D02*
X165000000Y-46500000D01*
X169900000Y-64450000D02*
X187000000Y-64450000D01*
X187000000Y-77550000D01*
X169900000Y-77550000D01*
X169900000Y-64450000D01*
X100000000Y-46500000D02*
G75*
G02*
X103000000Y-43500000I3000000J0D01*
G01*
X100000000Y-63000000D02*
X100000000Y-81000000D01*
X100000000Y-47000000D02*
X100000000Y-46500000D01*
X169900000Y-46355925D02*
X187000000Y-46355925D01*
X187000000Y-59455925D01*
X169900000Y-59455925D01*
X169900000Y-46355925D01*
X162000000Y-43500000D02*
G75*
G02*
X165000000Y-46500000I0J-3000000D01*
G01*
D11*
X175200190Y-70469438D02*
X175200190Y-72088485D01*
X175200190Y-72088485D02*
X175295428Y-72278961D01*
X175295428Y-72278961D02*
X175390666Y-72374200D01*
X175390666Y-72374200D02*
X175581142Y-72469438D01*
X175581142Y-72469438D02*
X175962095Y-72469438D01*
X175962095Y-72469438D02*
X176152571Y-72374200D01*
X176152571Y-72374200D02*
X176247809Y-72278961D01*
X176247809Y-72278961D02*
X176343047Y-72088485D01*
X176343047Y-72088485D02*
X176343047Y-70469438D01*
X177200190Y-72374200D02*
X177485904Y-72469438D01*
X177485904Y-72469438D02*
X177962095Y-72469438D01*
X177962095Y-72469438D02*
X178152571Y-72374200D01*
X178152571Y-72374200D02*
X178247809Y-72278961D01*
X178247809Y-72278961D02*
X178343047Y-72088485D01*
X178343047Y-72088485D02*
X178343047Y-71898009D01*
X178343047Y-71898009D02*
X178247809Y-71707533D01*
X178247809Y-71707533D02*
X178152571Y-71612295D01*
X178152571Y-71612295D02*
X177962095Y-71517057D01*
X177962095Y-71517057D02*
X177581142Y-71421819D01*
X177581142Y-71421819D02*
X177390666Y-71326580D01*
X177390666Y-71326580D02*
X177295428Y-71231342D01*
X177295428Y-71231342D02*
X177200190Y-71040866D01*
X177200190Y-71040866D02*
X177200190Y-70850390D01*
X177200190Y-70850390D02*
X177295428Y-70659914D01*
X177295428Y-70659914D02*
X177390666Y-70564676D01*
X177390666Y-70564676D02*
X177581142Y-70469438D01*
X177581142Y-70469438D02*
X178057333Y-70469438D01*
X178057333Y-70469438D02*
X178343047Y-70564676D01*
X179866857Y-71421819D02*
X180152571Y-71517057D01*
X180152571Y-71517057D02*
X180247809Y-71612295D01*
X180247809Y-71612295D02*
X180343047Y-71802771D01*
X180343047Y-71802771D02*
X180343047Y-72088485D01*
X180343047Y-72088485D02*
X180247809Y-72278961D01*
X180247809Y-72278961D02*
X180152571Y-72374200D01*
X180152571Y-72374200D02*
X179962095Y-72469438D01*
X179962095Y-72469438D02*
X179200190Y-72469438D01*
X179200190Y-72469438D02*
X179200190Y-70469438D01*
X179200190Y-70469438D02*
X179866857Y-70469438D01*
X179866857Y-70469438D02*
X180057333Y-70564676D01*
X180057333Y-70564676D02*
X180152571Y-70659914D01*
X180152571Y-70659914D02*
X180247809Y-70850390D01*
X180247809Y-70850390D02*
X180247809Y-71040866D01*
X180247809Y-71040866D02*
X180152571Y-71231342D01*
X180152571Y-71231342D02*
X180057333Y-71326580D01*
X180057333Y-71326580D02*
X179866857Y-71421819D01*
X179866857Y-71421819D02*
X179200190Y-71421819D01*
X174152380Y-90757438D02*
X173485713Y-89805057D01*
X173009523Y-90757438D02*
X173009523Y-88757438D01*
X173009523Y-88757438D02*
X173771428Y-88757438D01*
X173771428Y-88757438D02*
X173961904Y-88852676D01*
X173961904Y-88852676D02*
X174057142Y-88947914D01*
X174057142Y-88947914D02*
X174152380Y-89138390D01*
X174152380Y-89138390D02*
X174152380Y-89424104D01*
X174152380Y-89424104D02*
X174057142Y-89614580D01*
X174057142Y-89614580D02*
X173961904Y-89709819D01*
X173961904Y-89709819D02*
X173771428Y-89805057D01*
X173771428Y-89805057D02*
X173009523Y-89805057D01*
X175580952Y-88757438D02*
X175580952Y-90186009D01*
X175580952Y-90186009D02*
X175485713Y-90471723D01*
X175485713Y-90471723D02*
X175295237Y-90662200D01*
X175295237Y-90662200D02*
X175009523Y-90757438D01*
X175009523Y-90757438D02*
X174819047Y-90757438D01*
X177390476Y-89424104D02*
X177390476Y-90757438D01*
X176914285Y-88662200D02*
X176438095Y-90090771D01*
X176438095Y-90090771D02*
X177676190Y-90090771D01*
X179390476Y-88757438D02*
X178438095Y-88757438D01*
X178438095Y-88757438D02*
X178342857Y-89709819D01*
X178342857Y-89709819D02*
X178438095Y-89614580D01*
X178438095Y-89614580D02*
X178628571Y-89519342D01*
X178628571Y-89519342D02*
X179104762Y-89519342D01*
X179104762Y-89519342D02*
X179295238Y-89614580D01*
X179295238Y-89614580D02*
X179390476Y-89709819D01*
X179390476Y-89709819D02*
X179485714Y-89900295D01*
X179485714Y-89900295D02*
X179485714Y-90376485D01*
X179485714Y-90376485D02*
X179390476Y-90566961D01*
X179390476Y-90566961D02*
X179295238Y-90662200D01*
X179295238Y-90662200D02*
X179104762Y-90757438D01*
X179104762Y-90757438D02*
X178628571Y-90757438D01*
X178628571Y-90757438D02*
X178438095Y-90662200D01*
X178438095Y-90662200D02*
X178342857Y-90566961D01*
X102954819Y-79309523D02*
X101954819Y-79309523D01*
X101954819Y-79309523D02*
X101954819Y-79071428D01*
X101954819Y-79071428D02*
X102002438Y-78928571D01*
X102002438Y-78928571D02*
X102097676Y-78833333D01*
X102097676Y-78833333D02*
X102192914Y-78785714D01*
X102192914Y-78785714D02*
X102383390Y-78738095D01*
X102383390Y-78738095D02*
X102526247Y-78738095D01*
X102526247Y-78738095D02*
X102716723Y-78785714D01*
X102716723Y-78785714D02*
X102811961Y-78833333D01*
X102811961Y-78833333D02*
X102907200Y-78928571D01*
X102907200Y-78928571D02*
X102954819Y-79071428D01*
X102954819Y-79071428D02*
X102954819Y-79309523D01*
X102954819Y-78309523D02*
X101954819Y-78309523D01*
X102907200Y-77880952D02*
X102954819Y-77738095D01*
X102954819Y-77738095D02*
X102954819Y-77500000D01*
X102954819Y-77500000D02*
X102907200Y-77404762D01*
X102907200Y-77404762D02*
X102859580Y-77357143D01*
X102859580Y-77357143D02*
X102764342Y-77309524D01*
X102764342Y-77309524D02*
X102669104Y-77309524D01*
X102669104Y-77309524D02*
X102573866Y-77357143D01*
X102573866Y-77357143D02*
X102526247Y-77404762D01*
X102526247Y-77404762D02*
X102478628Y-77500000D01*
X102478628Y-77500000D02*
X102431009Y-77690476D01*
X102431009Y-77690476D02*
X102383390Y-77785714D01*
X102383390Y-77785714D02*
X102335771Y-77833333D01*
X102335771Y-77833333D02*
X102240533Y-77880952D01*
X102240533Y-77880952D02*
X102145295Y-77880952D01*
X102145295Y-77880952D02*
X102050057Y-77833333D01*
X102050057Y-77833333D02*
X102002438Y-77785714D01*
X102002438Y-77785714D02*
X101954819Y-77690476D01*
X101954819Y-77690476D02*
X101954819Y-77452381D01*
X101954819Y-77452381D02*
X102002438Y-77309524D01*
X102954819Y-76880952D02*
X101954819Y-76880952D01*
X101954819Y-76880952D02*
X101954819Y-76500000D01*
X101954819Y-76500000D02*
X102002438Y-76404762D01*
X102002438Y-76404762D02*
X102050057Y-76357143D01*
X102050057Y-76357143D02*
X102145295Y-76309524D01*
X102145295Y-76309524D02*
X102288152Y-76309524D01*
X102288152Y-76309524D02*
X102383390Y-76357143D01*
X102383390Y-76357143D02*
X102431009Y-76404762D01*
X102431009Y-76404762D02*
X102478628Y-76500000D01*
X102478628Y-76500000D02*
X102478628Y-76880952D01*
X102954819Y-75404762D02*
X102954819Y-75880952D01*
X102954819Y-75880952D02*
X101954819Y-75880952D01*
X102669104Y-75119047D02*
X102669104Y-74642857D01*
X102954819Y-75214285D02*
X101954819Y-74880952D01*
X101954819Y-74880952D02*
X102954819Y-74547619D01*
X102478628Y-74023809D02*
X102954819Y-74023809D01*
X101954819Y-74357142D02*
X102478628Y-74023809D01*
X102478628Y-74023809D02*
X101954819Y-73690476D01*
X103335771Y-72309523D02*
X103288152Y-72357142D01*
X103288152Y-72357142D02*
X103145295Y-72452380D01*
X103145295Y-72452380D02*
X103050057Y-72499999D01*
X103050057Y-72499999D02*
X102907200Y-72547618D01*
X102907200Y-72547618D02*
X102669104Y-72595237D01*
X102669104Y-72595237D02*
X102478628Y-72595237D01*
X102478628Y-72595237D02*
X102240533Y-72547618D01*
X102240533Y-72547618D02*
X102097676Y-72499999D01*
X102097676Y-72499999D02*
X102002438Y-72452380D01*
X102002438Y-72452380D02*
X101859580Y-72357142D01*
X101859580Y-72357142D02*
X101811961Y-72309523D01*
X101954819Y-71738094D02*
X101954819Y-71547618D01*
X101954819Y-71547618D02*
X102002438Y-71452380D01*
X102002438Y-71452380D02*
X102097676Y-71357142D01*
X102097676Y-71357142D02*
X102288152Y-71309523D01*
X102288152Y-71309523D02*
X102621485Y-71309523D01*
X102621485Y-71309523D02*
X102811961Y-71357142D01*
X102811961Y-71357142D02*
X102907200Y-71452380D01*
X102907200Y-71452380D02*
X102954819Y-71547618D01*
X102954819Y-71547618D02*
X102954819Y-71738094D01*
X102954819Y-71738094D02*
X102907200Y-71833332D01*
X102907200Y-71833332D02*
X102811961Y-71928570D01*
X102811961Y-71928570D02*
X102621485Y-71976189D01*
X102621485Y-71976189D02*
X102288152Y-71976189D01*
X102288152Y-71976189D02*
X102097676Y-71928570D01*
X102097676Y-71928570D02*
X102002438Y-71833332D01*
X102002438Y-71833332D02*
X101954819Y-71738094D01*
X102954819Y-70880951D02*
X101954819Y-70880951D01*
X101954819Y-70880951D02*
X101954819Y-70499999D01*
X101954819Y-70499999D02*
X102002438Y-70404761D01*
X102002438Y-70404761D02*
X102050057Y-70357142D01*
X102050057Y-70357142D02*
X102145295Y-70309523D01*
X102145295Y-70309523D02*
X102288152Y-70309523D01*
X102288152Y-70309523D02*
X102383390Y-70357142D01*
X102383390Y-70357142D02*
X102431009Y-70404761D01*
X102431009Y-70404761D02*
X102478628Y-70499999D01*
X102478628Y-70499999D02*
X102478628Y-70880951D01*
X101954819Y-70023808D02*
X101954819Y-69452380D01*
X102954819Y-69738094D02*
X101954819Y-69738094D01*
X102954819Y-69119046D02*
X101954819Y-69119046D01*
X101954819Y-68452380D02*
X101954819Y-68261904D01*
X101954819Y-68261904D02*
X102002438Y-68166666D01*
X102002438Y-68166666D02*
X102097676Y-68071428D01*
X102097676Y-68071428D02*
X102288152Y-68023809D01*
X102288152Y-68023809D02*
X102621485Y-68023809D01*
X102621485Y-68023809D02*
X102811961Y-68071428D01*
X102811961Y-68071428D02*
X102907200Y-68166666D01*
X102907200Y-68166666D02*
X102954819Y-68261904D01*
X102954819Y-68261904D02*
X102954819Y-68452380D01*
X102954819Y-68452380D02*
X102907200Y-68547618D01*
X102907200Y-68547618D02*
X102811961Y-68642856D01*
X102811961Y-68642856D02*
X102621485Y-68690475D01*
X102621485Y-68690475D02*
X102288152Y-68690475D01*
X102288152Y-68690475D02*
X102097676Y-68642856D01*
X102097676Y-68642856D02*
X102002438Y-68547618D01*
X102002438Y-68547618D02*
X101954819Y-68452380D01*
X102954819Y-67595237D02*
X101954819Y-67595237D01*
X101954819Y-67595237D02*
X102954819Y-67023809D01*
X102954819Y-67023809D02*
X101954819Y-67023809D01*
X102669104Y-66595237D02*
X102669104Y-66119047D01*
X102954819Y-66690475D02*
X101954819Y-66357142D01*
X101954819Y-66357142D02*
X102954819Y-66023809D01*
X102954819Y-65214285D02*
X102954819Y-65690475D01*
X102954819Y-65690475D02*
X101954819Y-65690475D01*
X103335771Y-64976189D02*
X103288152Y-64928570D01*
X103288152Y-64928570D02*
X103145295Y-64833332D01*
X103145295Y-64833332D02*
X103050057Y-64785713D01*
X103050057Y-64785713D02*
X102907200Y-64738094D01*
X102907200Y-64738094D02*
X102669104Y-64690475D01*
X102669104Y-64690475D02*
X102478628Y-64690475D01*
X102478628Y-64690475D02*
X102240533Y-64738094D01*
X102240533Y-64738094D02*
X102097676Y-64785713D01*
X102097676Y-64785713D02*
X102002438Y-64833332D01*
X102002438Y-64833332D02*
X101859580Y-64928570D01*
X101859580Y-64928570D02*
X101811961Y-64976189D01*
X145359580Y-95142857D02*
X145407200Y-95190476D01*
X145407200Y-95190476D02*
X145454819Y-95333333D01*
X145454819Y-95333333D02*
X145454819Y-95428571D01*
X145454819Y-95428571D02*
X145407200Y-95571428D01*
X145407200Y-95571428D02*
X145311961Y-95666666D01*
X145311961Y-95666666D02*
X145216723Y-95714285D01*
X145216723Y-95714285D02*
X145026247Y-95761904D01*
X145026247Y-95761904D02*
X144883390Y-95761904D01*
X144883390Y-95761904D02*
X144692914Y-95714285D01*
X144692914Y-95714285D02*
X144597676Y-95666666D01*
X144597676Y-95666666D02*
X144502438Y-95571428D01*
X144502438Y-95571428D02*
X144454819Y-95428571D01*
X144454819Y-95428571D02*
X144454819Y-95333333D01*
X144454819Y-95333333D02*
X144502438Y-95190476D01*
X144502438Y-95190476D02*
X144550057Y-95142857D01*
X145169104Y-94761904D02*
X145169104Y-94285714D01*
X145454819Y-94857142D02*
X144454819Y-94523809D01*
X144454819Y-94523809D02*
X145454819Y-94190476D01*
X145454819Y-93857142D02*
X144454819Y-93857142D01*
X144454819Y-93857142D02*
X145169104Y-93523809D01*
X145169104Y-93523809D02*
X144454819Y-93190476D01*
X144454819Y-93190476D02*
X145454819Y-93190476D01*
X144931009Y-92714285D02*
X144931009Y-92380952D01*
X145454819Y-92238095D02*
X145454819Y-92714285D01*
X145454819Y-92714285D02*
X144454819Y-92714285D01*
X144454819Y-92714285D02*
X144454819Y-92238095D01*
X145454819Y-91238095D02*
X144978628Y-91571428D01*
X145454819Y-91809523D02*
X144454819Y-91809523D01*
X144454819Y-91809523D02*
X144454819Y-91428571D01*
X144454819Y-91428571D02*
X144502438Y-91333333D01*
X144502438Y-91333333D02*
X144550057Y-91285714D01*
X144550057Y-91285714D02*
X144645295Y-91238095D01*
X144645295Y-91238095D02*
X144788152Y-91238095D01*
X144788152Y-91238095D02*
X144883390Y-91285714D01*
X144883390Y-91285714D02*
X144931009Y-91333333D01*
X144931009Y-91333333D02*
X144978628Y-91428571D01*
X144978628Y-91428571D02*
X144978628Y-91809523D01*
X145169104Y-90857142D02*
X145169104Y-90380952D01*
X145454819Y-90952380D02*
X144454819Y-90619047D01*
X144454819Y-90619047D02*
X145454819Y-90285714D01*
X145835771Y-88904761D02*
X145788152Y-88952380D01*
X145788152Y-88952380D02*
X145645295Y-89047618D01*
X145645295Y-89047618D02*
X145550057Y-89095237D01*
X145550057Y-89095237D02*
X145407200Y-89142856D01*
X145407200Y-89142856D02*
X145169104Y-89190475D01*
X145169104Y-89190475D02*
X144978628Y-89190475D01*
X144978628Y-89190475D02*
X144740533Y-89142856D01*
X144740533Y-89142856D02*
X144597676Y-89095237D01*
X144597676Y-89095237D02*
X144502438Y-89047618D01*
X144502438Y-89047618D02*
X144359580Y-88952380D01*
X144359580Y-88952380D02*
X144311961Y-88904761D01*
X144454819Y-88333332D02*
X144454819Y-88142856D01*
X144454819Y-88142856D02*
X144502438Y-88047618D01*
X144502438Y-88047618D02*
X144597676Y-87952380D01*
X144597676Y-87952380D02*
X144788152Y-87904761D01*
X144788152Y-87904761D02*
X145121485Y-87904761D01*
X145121485Y-87904761D02*
X145311961Y-87952380D01*
X145311961Y-87952380D02*
X145407200Y-88047618D01*
X145407200Y-88047618D02*
X145454819Y-88142856D01*
X145454819Y-88142856D02*
X145454819Y-88333332D01*
X145454819Y-88333332D02*
X145407200Y-88428570D01*
X145407200Y-88428570D02*
X145311961Y-88523808D01*
X145311961Y-88523808D02*
X145121485Y-88571427D01*
X145121485Y-88571427D02*
X144788152Y-88571427D01*
X144788152Y-88571427D02*
X144597676Y-88523808D01*
X144597676Y-88523808D02*
X144502438Y-88428570D01*
X144502438Y-88428570D02*
X144454819Y-88333332D01*
X145454819Y-87476189D02*
X144454819Y-87476189D01*
X144454819Y-87476189D02*
X144454819Y-87095237D01*
X144454819Y-87095237D02*
X144502438Y-86999999D01*
X144502438Y-86999999D02*
X144550057Y-86952380D01*
X144550057Y-86952380D02*
X144645295Y-86904761D01*
X144645295Y-86904761D02*
X144788152Y-86904761D01*
X144788152Y-86904761D02*
X144883390Y-86952380D01*
X144883390Y-86952380D02*
X144931009Y-86999999D01*
X144931009Y-86999999D02*
X144978628Y-87095237D01*
X144978628Y-87095237D02*
X144978628Y-87476189D01*
X144454819Y-86619046D02*
X144454819Y-86047618D01*
X145454819Y-86333332D02*
X144454819Y-86333332D01*
X145454819Y-85714284D02*
X144454819Y-85714284D01*
X144454819Y-85047618D02*
X144454819Y-84857142D01*
X144454819Y-84857142D02*
X144502438Y-84761904D01*
X144502438Y-84761904D02*
X144597676Y-84666666D01*
X144597676Y-84666666D02*
X144788152Y-84619047D01*
X144788152Y-84619047D02*
X145121485Y-84619047D01*
X145121485Y-84619047D02*
X145311961Y-84666666D01*
X145311961Y-84666666D02*
X145407200Y-84761904D01*
X145407200Y-84761904D02*
X145454819Y-84857142D01*
X145454819Y-84857142D02*
X145454819Y-85047618D01*
X145454819Y-85047618D02*
X145407200Y-85142856D01*
X145407200Y-85142856D02*
X145311961Y-85238094D01*
X145311961Y-85238094D02*
X145121485Y-85285713D01*
X145121485Y-85285713D02*
X144788152Y-85285713D01*
X144788152Y-85285713D02*
X144597676Y-85238094D01*
X144597676Y-85238094D02*
X144502438Y-85142856D01*
X144502438Y-85142856D02*
X144454819Y-85047618D01*
X145454819Y-84190475D02*
X144454819Y-84190475D01*
X144454819Y-84190475D02*
X145454819Y-83619047D01*
X145454819Y-83619047D02*
X144454819Y-83619047D01*
X145169104Y-83190475D02*
X145169104Y-82714285D01*
X145454819Y-83285713D02*
X144454819Y-82952380D01*
X144454819Y-82952380D02*
X145454819Y-82619047D01*
X145454819Y-81809523D02*
X145454819Y-82285713D01*
X145454819Y-82285713D02*
X144454819Y-82285713D01*
X145835771Y-81571427D02*
X145788152Y-81523808D01*
X145788152Y-81523808D02*
X145645295Y-81428570D01*
X145645295Y-81428570D02*
X145550057Y-81380951D01*
X145550057Y-81380951D02*
X145407200Y-81333332D01*
X145407200Y-81333332D02*
X145169104Y-81285713D01*
X145169104Y-81285713D02*
X144978628Y-81285713D01*
X144978628Y-81285713D02*
X144740533Y-81333332D01*
X144740533Y-81333332D02*
X144597676Y-81380951D01*
X144597676Y-81380951D02*
X144502438Y-81428570D01*
X144502438Y-81428570D02*
X144359580Y-81523808D01*
X144359580Y-81523808D02*
X144311961Y-81571427D01*
X175708190Y-51165438D02*
X175708190Y-52784485D01*
X175708190Y-52784485D02*
X175803428Y-52974961D01*
X175803428Y-52974961D02*
X175898666Y-53070200D01*
X175898666Y-53070200D02*
X176089142Y-53165438D01*
X176089142Y-53165438D02*
X176470095Y-53165438D01*
X176470095Y-53165438D02*
X176660571Y-53070200D01*
X176660571Y-53070200D02*
X176755809Y-52974961D01*
X176755809Y-52974961D02*
X176851047Y-52784485D01*
X176851047Y-52784485D02*
X176851047Y-51165438D01*
X177708190Y-53070200D02*
X177993904Y-53165438D01*
X177993904Y-53165438D02*
X178470095Y-53165438D01*
X178470095Y-53165438D02*
X178660571Y-53070200D01*
X178660571Y-53070200D02*
X178755809Y-52974961D01*
X178755809Y-52974961D02*
X178851047Y-52784485D01*
X178851047Y-52784485D02*
X178851047Y-52594009D01*
X178851047Y-52594009D02*
X178755809Y-52403533D01*
X178755809Y-52403533D02*
X178660571Y-52308295D01*
X178660571Y-52308295D02*
X178470095Y-52213057D01*
X178470095Y-52213057D02*
X178089142Y-52117819D01*
X178089142Y-52117819D02*
X177898666Y-52022580D01*
X177898666Y-52022580D02*
X177803428Y-51927342D01*
X177803428Y-51927342D02*
X177708190Y-51736866D01*
X177708190Y-51736866D02*
X177708190Y-51546390D01*
X177708190Y-51546390D02*
X177803428Y-51355914D01*
X177803428Y-51355914D02*
X177898666Y-51260676D01*
X177898666Y-51260676D02*
X178089142Y-51165438D01*
X178089142Y-51165438D02*
X178565333Y-51165438D01*
X178565333Y-51165438D02*
X178851047Y-51260676D01*
X180374857Y-52117819D02*
X180660571Y-52213057D01*
X180660571Y-52213057D02*
X180755809Y-52308295D01*
X180755809Y-52308295D02*
X180851047Y-52498771D01*
X180851047Y-52498771D02*
X180851047Y-52784485D01*
X180851047Y-52784485D02*
X180755809Y-52974961D01*
X180755809Y-52974961D02*
X180660571Y-53070200D01*
X180660571Y-53070200D02*
X180470095Y-53165438D01*
X180470095Y-53165438D02*
X179708190Y-53165438D01*
X179708190Y-53165438D02*
X179708190Y-51165438D01*
X179708190Y-51165438D02*
X180374857Y-51165438D01*
X180374857Y-51165438D02*
X180565333Y-51260676D01*
X180565333Y-51260676D02*
X180660571Y-51355914D01*
X180660571Y-51355914D02*
X180755809Y-51546390D01*
X180755809Y-51546390D02*
X180755809Y-51736866D01*
X180755809Y-51736866D02*
X180660571Y-51927342D01*
X180660571Y-51927342D02*
X180565333Y-52022580D01*
X180565333Y-52022580D02*
X180374857Y-52117819D01*
X180374857Y-52117819D02*
X179708190Y-52117819D01*
X103336779Y-42431009D02*
X103670112Y-42431009D01*
X103812969Y-42954819D02*
X103336779Y-42954819D01*
X103336779Y-42954819D02*
X103336779Y-41954819D01*
X103336779Y-41954819D02*
X103812969Y-41954819D01*
X104146303Y-42954819D02*
X104670112Y-42288152D01*
X104146303Y-42288152D02*
X104670112Y-42954819D01*
X104908208Y-42288152D02*
X105289160Y-42288152D01*
X105051065Y-41954819D02*
X105051065Y-42811961D01*
X105051065Y-42811961D02*
X105098684Y-42907200D01*
X105098684Y-42907200D02*
X105193922Y-42954819D01*
X105193922Y-42954819D02*
X105289160Y-42954819D01*
X106003446Y-42907200D02*
X105908208Y-42954819D01*
X105908208Y-42954819D02*
X105717732Y-42954819D01*
X105717732Y-42954819D02*
X105622494Y-42907200D01*
X105622494Y-42907200D02*
X105574875Y-42811961D01*
X105574875Y-42811961D02*
X105574875Y-42431009D01*
X105574875Y-42431009D02*
X105622494Y-42335771D01*
X105622494Y-42335771D02*
X105717732Y-42288152D01*
X105717732Y-42288152D02*
X105908208Y-42288152D01*
X105908208Y-42288152D02*
X106003446Y-42335771D01*
X106003446Y-42335771D02*
X106051065Y-42431009D01*
X106051065Y-42431009D02*
X106051065Y-42526247D01*
X106051065Y-42526247D02*
X105574875Y-42621485D01*
X106479637Y-42288152D02*
X106479637Y-42954819D01*
X106479637Y-42383390D02*
X106527256Y-42335771D01*
X106527256Y-42335771D02*
X106622494Y-42288152D01*
X106622494Y-42288152D02*
X106765351Y-42288152D01*
X106765351Y-42288152D02*
X106860589Y-42335771D01*
X106860589Y-42335771D02*
X106908208Y-42431009D01*
X106908208Y-42431009D02*
X106908208Y-42954819D01*
X107812970Y-42954819D02*
X107812970Y-41954819D01*
X107812970Y-42907200D02*
X107717732Y-42954819D01*
X107717732Y-42954819D02*
X107527256Y-42954819D01*
X107527256Y-42954819D02*
X107432018Y-42907200D01*
X107432018Y-42907200D02*
X107384399Y-42859580D01*
X107384399Y-42859580D02*
X107336780Y-42764342D01*
X107336780Y-42764342D02*
X107336780Y-42478628D01*
X107336780Y-42478628D02*
X107384399Y-42383390D01*
X107384399Y-42383390D02*
X107432018Y-42335771D01*
X107432018Y-42335771D02*
X107527256Y-42288152D01*
X107527256Y-42288152D02*
X107717732Y-42288152D01*
X107717732Y-42288152D02*
X107812970Y-42335771D01*
X109051066Y-42954819D02*
X109051066Y-41954819D01*
X109051066Y-41954819D02*
X109432018Y-41954819D01*
X109432018Y-41954819D02*
X109527256Y-42002438D01*
X109527256Y-42002438D02*
X109574875Y-42050057D01*
X109574875Y-42050057D02*
X109622494Y-42145295D01*
X109622494Y-42145295D02*
X109622494Y-42288152D01*
X109622494Y-42288152D02*
X109574875Y-42383390D01*
X109574875Y-42383390D02*
X109527256Y-42431009D01*
X109527256Y-42431009D02*
X109432018Y-42478628D01*
X109432018Y-42478628D02*
X109051066Y-42478628D01*
X110622494Y-42859580D02*
X110574875Y-42907200D01*
X110574875Y-42907200D02*
X110432018Y-42954819D01*
X110432018Y-42954819D02*
X110336780Y-42954819D01*
X110336780Y-42954819D02*
X110193923Y-42907200D01*
X110193923Y-42907200D02*
X110098685Y-42811961D01*
X110098685Y-42811961D02*
X110051066Y-42716723D01*
X110051066Y-42716723D02*
X110003447Y-42526247D01*
X110003447Y-42526247D02*
X110003447Y-42383390D01*
X110003447Y-42383390D02*
X110051066Y-42192914D01*
X110051066Y-42192914D02*
X110098685Y-42097676D01*
X110098685Y-42097676D02*
X110193923Y-42002438D01*
X110193923Y-42002438D02*
X110336780Y-41954819D01*
X110336780Y-41954819D02*
X110432018Y-41954819D01*
X110432018Y-41954819D02*
X110574875Y-42002438D01*
X110574875Y-42002438D02*
X110622494Y-42050057D01*
X111384399Y-42431009D02*
X111527256Y-42478628D01*
X111527256Y-42478628D02*
X111574875Y-42526247D01*
X111574875Y-42526247D02*
X111622494Y-42621485D01*
X111622494Y-42621485D02*
X111622494Y-42764342D01*
X111622494Y-42764342D02*
X111574875Y-42859580D01*
X111574875Y-42859580D02*
X111527256Y-42907200D01*
X111527256Y-42907200D02*
X111432018Y-42954819D01*
X111432018Y-42954819D02*
X111051066Y-42954819D01*
X111051066Y-42954819D02*
X111051066Y-41954819D01*
X111051066Y-41954819D02*
X111384399Y-41954819D01*
X111384399Y-41954819D02*
X111479637Y-42002438D01*
X111479637Y-42002438D02*
X111527256Y-42050057D01*
X111527256Y-42050057D02*
X111574875Y-42145295D01*
X111574875Y-42145295D02*
X111574875Y-42240533D01*
X111574875Y-42240533D02*
X111527256Y-42335771D01*
X111527256Y-42335771D02*
X111479637Y-42383390D01*
X111479637Y-42383390D02*
X111384399Y-42431009D01*
X111384399Y-42431009D02*
X111051066Y-42431009D01*
X113193923Y-42907200D02*
X113098685Y-42954819D01*
X113098685Y-42954819D02*
X112908209Y-42954819D01*
X112908209Y-42954819D02*
X112812971Y-42907200D01*
X112812971Y-42907200D02*
X112765352Y-42811961D01*
X112765352Y-42811961D02*
X112765352Y-42431009D01*
X112765352Y-42431009D02*
X112812971Y-42335771D01*
X112812971Y-42335771D02*
X112908209Y-42288152D01*
X112908209Y-42288152D02*
X113098685Y-42288152D01*
X113098685Y-42288152D02*
X113193923Y-42335771D01*
X113193923Y-42335771D02*
X113241542Y-42431009D01*
X113241542Y-42431009D02*
X113241542Y-42526247D01*
X113241542Y-42526247D02*
X112765352Y-42621485D01*
X114098685Y-42954819D02*
X114098685Y-41954819D01*
X114098685Y-42907200D02*
X114003447Y-42954819D01*
X114003447Y-42954819D02*
X113812971Y-42954819D01*
X113812971Y-42954819D02*
X113717733Y-42907200D01*
X113717733Y-42907200D02*
X113670114Y-42859580D01*
X113670114Y-42859580D02*
X113622495Y-42764342D01*
X113622495Y-42764342D02*
X113622495Y-42478628D01*
X113622495Y-42478628D02*
X113670114Y-42383390D01*
X113670114Y-42383390D02*
X113717733Y-42335771D01*
X113717733Y-42335771D02*
X113812971Y-42288152D01*
X113812971Y-42288152D02*
X114003447Y-42288152D01*
X114003447Y-42288152D02*
X114098685Y-42335771D01*
X115003447Y-42288152D02*
X115003447Y-43097676D01*
X115003447Y-43097676D02*
X114955828Y-43192914D01*
X114955828Y-43192914D02*
X114908209Y-43240533D01*
X114908209Y-43240533D02*
X114812971Y-43288152D01*
X114812971Y-43288152D02*
X114670114Y-43288152D01*
X114670114Y-43288152D02*
X114574876Y-43240533D01*
X115003447Y-42907200D02*
X114908209Y-42954819D01*
X114908209Y-42954819D02*
X114717733Y-42954819D01*
X114717733Y-42954819D02*
X114622495Y-42907200D01*
X114622495Y-42907200D02*
X114574876Y-42859580D01*
X114574876Y-42859580D02*
X114527257Y-42764342D01*
X114527257Y-42764342D02*
X114527257Y-42478628D01*
X114527257Y-42478628D02*
X114574876Y-42383390D01*
X114574876Y-42383390D02*
X114622495Y-42335771D01*
X114622495Y-42335771D02*
X114717733Y-42288152D01*
X114717733Y-42288152D02*
X114908209Y-42288152D01*
X114908209Y-42288152D02*
X115003447Y-42335771D01*
X115860590Y-42907200D02*
X115765352Y-42954819D01*
X115765352Y-42954819D02*
X115574876Y-42954819D01*
X115574876Y-42954819D02*
X115479638Y-42907200D01*
X115479638Y-42907200D02*
X115432019Y-42811961D01*
X115432019Y-42811961D02*
X115432019Y-42431009D01*
X115432019Y-42431009D02*
X115479638Y-42335771D01*
X115479638Y-42335771D02*
X115574876Y-42288152D01*
X115574876Y-42288152D02*
X115765352Y-42288152D01*
X115765352Y-42288152D02*
X115860590Y-42335771D01*
X115860590Y-42335771D02*
X115908209Y-42431009D01*
X115908209Y-42431009D02*
X115908209Y-42526247D01*
X115908209Y-42526247D02*
X115432019Y-42621485D01*
X117289162Y-41954819D02*
X117384400Y-41954819D01*
X117384400Y-41954819D02*
X117479638Y-42002438D01*
X117479638Y-42002438D02*
X117527257Y-42050057D01*
X117527257Y-42050057D02*
X117574876Y-42145295D01*
X117574876Y-42145295D02*
X117622495Y-42335771D01*
X117622495Y-42335771D02*
X117622495Y-42573866D01*
X117622495Y-42573866D02*
X117574876Y-42764342D01*
X117574876Y-42764342D02*
X117527257Y-42859580D01*
X117527257Y-42859580D02*
X117479638Y-42907200D01*
X117479638Y-42907200D02*
X117384400Y-42954819D01*
X117384400Y-42954819D02*
X117289162Y-42954819D01*
X117289162Y-42954819D02*
X117193924Y-42907200D01*
X117193924Y-42907200D02*
X117146305Y-42859580D01*
X117146305Y-42859580D02*
X117098686Y-42764342D01*
X117098686Y-42764342D02*
X117051067Y-42573866D01*
X117051067Y-42573866D02*
X117051067Y-42335771D01*
X117051067Y-42335771D02*
X117098686Y-42145295D01*
X117098686Y-42145295D02*
X117146305Y-42050057D01*
X117146305Y-42050057D02*
X117193924Y-42002438D01*
X117193924Y-42002438D02*
X117289162Y-41954819D01*
X118051067Y-42859580D02*
X118098686Y-42907200D01*
X118098686Y-42907200D02*
X118051067Y-42954819D01*
X118051067Y-42954819D02*
X118003448Y-42907200D01*
X118003448Y-42907200D02*
X118051067Y-42859580D01*
X118051067Y-42859580D02*
X118051067Y-42954819D01*
X119003447Y-41954819D02*
X118527257Y-41954819D01*
X118527257Y-41954819D02*
X118479638Y-42431009D01*
X118479638Y-42431009D02*
X118527257Y-42383390D01*
X118527257Y-42383390D02*
X118622495Y-42335771D01*
X118622495Y-42335771D02*
X118860590Y-42335771D01*
X118860590Y-42335771D02*
X118955828Y-42383390D01*
X118955828Y-42383390D02*
X119003447Y-42431009D01*
X119003447Y-42431009D02*
X119051066Y-42526247D01*
X119051066Y-42526247D02*
X119051066Y-42764342D01*
X119051066Y-42764342D02*
X119003447Y-42859580D01*
X119003447Y-42859580D02*
X118955828Y-42907200D01*
X118955828Y-42907200D02*
X118860590Y-42954819D01*
X118860590Y-42954819D02*
X118622495Y-42954819D01*
X118622495Y-42954819D02*
X118527257Y-42907200D01*
X118527257Y-42907200D02*
X118479638Y-42859580D01*
X119479638Y-42954819D02*
X119479638Y-42288152D01*
X119479638Y-42383390D02*
X119527257Y-42335771D01*
X119527257Y-42335771D02*
X119622495Y-42288152D01*
X119622495Y-42288152D02*
X119765352Y-42288152D01*
X119765352Y-42288152D02*
X119860590Y-42335771D01*
X119860590Y-42335771D02*
X119908209Y-42431009D01*
X119908209Y-42431009D02*
X119908209Y-42954819D01*
X119908209Y-42431009D02*
X119955828Y-42335771D01*
X119955828Y-42335771D02*
X120051066Y-42288152D01*
X120051066Y-42288152D02*
X120193923Y-42288152D01*
X120193923Y-42288152D02*
X120289162Y-42335771D01*
X120289162Y-42335771D02*
X120336781Y-42431009D01*
X120336781Y-42431009D02*
X120336781Y-42954819D01*
X120812971Y-42954819D02*
X120812971Y-42288152D01*
X120812971Y-42383390D02*
X120860590Y-42335771D01*
X120860590Y-42335771D02*
X120955828Y-42288152D01*
X120955828Y-42288152D02*
X121098685Y-42288152D01*
X121098685Y-42288152D02*
X121193923Y-42335771D01*
X121193923Y-42335771D02*
X121241542Y-42431009D01*
X121241542Y-42431009D02*
X121241542Y-42954819D01*
X121241542Y-42431009D02*
X121289161Y-42335771D01*
X121289161Y-42335771D02*
X121384399Y-42288152D01*
X121384399Y-42288152D02*
X121527256Y-42288152D01*
X121527256Y-42288152D02*
X121622495Y-42335771D01*
X121622495Y-42335771D02*
X121670114Y-42431009D01*
X121670114Y-42431009D02*
X121670114Y-42954819D01*
X122908209Y-42954819D02*
X122908209Y-42288152D01*
X122908209Y-41954819D02*
X122860590Y-42002438D01*
X122860590Y-42002438D02*
X122908209Y-42050057D01*
X122908209Y-42050057D02*
X122955828Y-42002438D01*
X122955828Y-42002438D02*
X122908209Y-41954819D01*
X122908209Y-41954819D02*
X122908209Y-42050057D01*
X123241542Y-42288152D02*
X123622494Y-42288152D01*
X123384399Y-42954819D02*
X123384399Y-42097676D01*
X123384399Y-42097676D02*
X123432018Y-42002438D01*
X123432018Y-42002438D02*
X123527256Y-41954819D01*
X123527256Y-41954819D02*
X123622494Y-41954819D01*
X125146304Y-42288152D02*
X125146304Y-42954819D01*
X124717733Y-42288152D02*
X124717733Y-42811961D01*
X124717733Y-42811961D02*
X124765352Y-42907200D01*
X124765352Y-42907200D02*
X124860590Y-42954819D01*
X124860590Y-42954819D02*
X125003447Y-42954819D01*
X125003447Y-42954819D02*
X125098685Y-42907200D01*
X125098685Y-42907200D02*
X125146304Y-42859580D01*
X125574876Y-42907200D02*
X125670114Y-42954819D01*
X125670114Y-42954819D02*
X125860590Y-42954819D01*
X125860590Y-42954819D02*
X125955828Y-42907200D01*
X125955828Y-42907200D02*
X126003447Y-42811961D01*
X126003447Y-42811961D02*
X126003447Y-42764342D01*
X126003447Y-42764342D02*
X125955828Y-42669104D01*
X125955828Y-42669104D02*
X125860590Y-42621485D01*
X125860590Y-42621485D02*
X125717733Y-42621485D01*
X125717733Y-42621485D02*
X125622495Y-42573866D01*
X125622495Y-42573866D02*
X125574876Y-42478628D01*
X125574876Y-42478628D02*
X125574876Y-42431009D01*
X125574876Y-42431009D02*
X125622495Y-42335771D01*
X125622495Y-42335771D02*
X125717733Y-42288152D01*
X125717733Y-42288152D02*
X125860590Y-42288152D01*
X125860590Y-42288152D02*
X125955828Y-42335771D01*
X126432019Y-42954819D02*
X126432019Y-42288152D01*
X126432019Y-41954819D02*
X126384400Y-42002438D01*
X126384400Y-42002438D02*
X126432019Y-42050057D01*
X126432019Y-42050057D02*
X126479638Y-42002438D01*
X126479638Y-42002438D02*
X126432019Y-41954819D01*
X126432019Y-41954819D02*
X126432019Y-42050057D01*
X126908209Y-42288152D02*
X126908209Y-42954819D01*
X126908209Y-42383390D02*
X126955828Y-42335771D01*
X126955828Y-42335771D02*
X127051066Y-42288152D01*
X127051066Y-42288152D02*
X127193923Y-42288152D01*
X127193923Y-42288152D02*
X127289161Y-42335771D01*
X127289161Y-42335771D02*
X127336780Y-42431009D01*
X127336780Y-42431009D02*
X127336780Y-42954819D01*
X128241542Y-42288152D02*
X128241542Y-43097676D01*
X128241542Y-43097676D02*
X128193923Y-43192914D01*
X128193923Y-43192914D02*
X128146304Y-43240533D01*
X128146304Y-43240533D02*
X128051066Y-43288152D01*
X128051066Y-43288152D02*
X127908209Y-43288152D01*
X127908209Y-43288152D02*
X127812971Y-43240533D01*
X128241542Y-42907200D02*
X128146304Y-42954819D01*
X128146304Y-42954819D02*
X127955828Y-42954819D01*
X127955828Y-42954819D02*
X127860590Y-42907200D01*
X127860590Y-42907200D02*
X127812971Y-42859580D01*
X127812971Y-42859580D02*
X127765352Y-42764342D01*
X127765352Y-42764342D02*
X127765352Y-42478628D01*
X127765352Y-42478628D02*
X127812971Y-42383390D01*
X127812971Y-42383390D02*
X127860590Y-42335771D01*
X127860590Y-42335771D02*
X127955828Y-42288152D01*
X127955828Y-42288152D02*
X128146304Y-42288152D01*
X128146304Y-42288152D02*
X128241542Y-42335771D01*
X129432019Y-42907200D02*
X129574876Y-42954819D01*
X129574876Y-42954819D02*
X129812971Y-42954819D01*
X129812971Y-42954819D02*
X129908209Y-42907200D01*
X129908209Y-42907200D02*
X129955828Y-42859580D01*
X129955828Y-42859580D02*
X130003447Y-42764342D01*
X130003447Y-42764342D02*
X130003447Y-42669104D01*
X130003447Y-42669104D02*
X129955828Y-42573866D01*
X129955828Y-42573866D02*
X129908209Y-42526247D01*
X129908209Y-42526247D02*
X129812971Y-42478628D01*
X129812971Y-42478628D02*
X129622495Y-42431009D01*
X129622495Y-42431009D02*
X129527257Y-42383390D01*
X129527257Y-42383390D02*
X129479638Y-42335771D01*
X129479638Y-42335771D02*
X129432019Y-42240533D01*
X129432019Y-42240533D02*
X129432019Y-42145295D01*
X129432019Y-42145295D02*
X129479638Y-42050057D01*
X129479638Y-42050057D02*
X129527257Y-42002438D01*
X129527257Y-42002438D02*
X129622495Y-41954819D01*
X129622495Y-41954819D02*
X129860590Y-41954819D01*
X129860590Y-41954819D02*
X130003447Y-42002438D01*
X130432019Y-42954819D02*
X130432019Y-41954819D01*
X130432019Y-41954819D02*
X130765352Y-42669104D01*
X130765352Y-42669104D02*
X131098685Y-41954819D01*
X131098685Y-41954819D02*
X131098685Y-42954819D01*
X131432019Y-41954819D02*
X132003447Y-41954819D01*
X131717733Y-42954819D02*
X131717733Y-41954819D01*
X133098686Y-42954819D02*
X133098686Y-41954819D01*
X133527257Y-42954819D02*
X133527257Y-42431009D01*
X133527257Y-42431009D02*
X133479638Y-42335771D01*
X133479638Y-42335771D02*
X133384400Y-42288152D01*
X133384400Y-42288152D02*
X133241543Y-42288152D01*
X133241543Y-42288152D02*
X133146305Y-42335771D01*
X133146305Y-42335771D02*
X133098686Y-42383390D01*
X134384400Y-42907200D02*
X134289162Y-42954819D01*
X134289162Y-42954819D02*
X134098686Y-42954819D01*
X134098686Y-42954819D02*
X134003448Y-42907200D01*
X134003448Y-42907200D02*
X133955829Y-42811961D01*
X133955829Y-42811961D02*
X133955829Y-42431009D01*
X133955829Y-42431009D02*
X134003448Y-42335771D01*
X134003448Y-42335771D02*
X134098686Y-42288152D01*
X134098686Y-42288152D02*
X134289162Y-42288152D01*
X134289162Y-42288152D02*
X134384400Y-42335771D01*
X134384400Y-42335771D02*
X134432019Y-42431009D01*
X134432019Y-42431009D02*
X134432019Y-42526247D01*
X134432019Y-42526247D02*
X133955829Y-42621485D01*
X135289162Y-42954819D02*
X135289162Y-42431009D01*
X135289162Y-42431009D02*
X135241543Y-42335771D01*
X135241543Y-42335771D02*
X135146305Y-42288152D01*
X135146305Y-42288152D02*
X134955829Y-42288152D01*
X134955829Y-42288152D02*
X134860591Y-42335771D01*
X135289162Y-42907200D02*
X135193924Y-42954819D01*
X135193924Y-42954819D02*
X134955829Y-42954819D01*
X134955829Y-42954819D02*
X134860591Y-42907200D01*
X134860591Y-42907200D02*
X134812972Y-42811961D01*
X134812972Y-42811961D02*
X134812972Y-42716723D01*
X134812972Y-42716723D02*
X134860591Y-42621485D01*
X134860591Y-42621485D02*
X134955829Y-42573866D01*
X134955829Y-42573866D02*
X135193924Y-42573866D01*
X135193924Y-42573866D02*
X135289162Y-42526247D01*
X136193924Y-42954819D02*
X136193924Y-41954819D01*
X136193924Y-42907200D02*
X136098686Y-42954819D01*
X136098686Y-42954819D02*
X135908210Y-42954819D01*
X135908210Y-42954819D02*
X135812972Y-42907200D01*
X135812972Y-42907200D02*
X135765353Y-42859580D01*
X135765353Y-42859580D02*
X135717734Y-42764342D01*
X135717734Y-42764342D02*
X135717734Y-42478628D01*
X135717734Y-42478628D02*
X135765353Y-42383390D01*
X135765353Y-42383390D02*
X135812972Y-42335771D01*
X135812972Y-42335771D02*
X135908210Y-42288152D01*
X135908210Y-42288152D02*
X136098686Y-42288152D01*
X136098686Y-42288152D02*
X136193924Y-42335771D01*
X137051067Y-42907200D02*
X136955829Y-42954819D01*
X136955829Y-42954819D02*
X136765353Y-42954819D01*
X136765353Y-42954819D02*
X136670115Y-42907200D01*
X136670115Y-42907200D02*
X136622496Y-42811961D01*
X136622496Y-42811961D02*
X136622496Y-42431009D01*
X136622496Y-42431009D02*
X136670115Y-42335771D01*
X136670115Y-42335771D02*
X136765353Y-42288152D01*
X136765353Y-42288152D02*
X136955829Y-42288152D01*
X136955829Y-42288152D02*
X137051067Y-42335771D01*
X137051067Y-42335771D02*
X137098686Y-42431009D01*
X137098686Y-42431009D02*
X137098686Y-42526247D01*
X137098686Y-42526247D02*
X136622496Y-42621485D01*
X137527258Y-42954819D02*
X137527258Y-42288152D01*
X137527258Y-42478628D02*
X137574877Y-42383390D01*
X137574877Y-42383390D02*
X137622496Y-42335771D01*
X137622496Y-42335771D02*
X137717734Y-42288152D01*
X137717734Y-42288152D02*
X137812972Y-42288152D01*
X160333333Y-54094819D02*
X160333333Y-53094819D01*
X160333333Y-53094819D02*
X160714285Y-53094819D01*
X160714285Y-53094819D02*
X160809523Y-53142438D01*
X160809523Y-53142438D02*
X160857142Y-53190057D01*
X160857142Y-53190057D02*
X160904761Y-53285295D01*
X160904761Y-53285295D02*
X160904761Y-53428152D01*
X160904761Y-53428152D02*
X160857142Y-53523390D01*
X160857142Y-53523390D02*
X160809523Y-53571009D01*
X160809523Y-53571009D02*
X160714285Y-53618628D01*
X160714285Y-53618628D02*
X160333333Y-53618628D01*
X161476190Y-54094819D02*
X161380952Y-54047200D01*
X161380952Y-54047200D02*
X161333333Y-53999580D01*
X161333333Y-53999580D02*
X161285714Y-53904342D01*
X161285714Y-53904342D02*
X161285714Y-53618628D01*
X161285714Y-53618628D02*
X161333333Y-53523390D01*
X161333333Y-53523390D02*
X161380952Y-53475771D01*
X161380952Y-53475771D02*
X161476190Y-53428152D01*
X161476190Y-53428152D02*
X161619047Y-53428152D01*
X161619047Y-53428152D02*
X161714285Y-53475771D01*
X161714285Y-53475771D02*
X161761904Y-53523390D01*
X161761904Y-53523390D02*
X161809523Y-53618628D01*
X161809523Y-53618628D02*
X161809523Y-53904342D01*
X161809523Y-53904342D02*
X161761904Y-53999580D01*
X161761904Y-53999580D02*
X161714285Y-54047200D01*
X161714285Y-54047200D02*
X161619047Y-54094819D01*
X161619047Y-54094819D02*
X161476190Y-54094819D01*
X162238095Y-53571009D02*
X162571428Y-53571009D01*
X162714285Y-54094819D02*
X162238095Y-54094819D01*
X162238095Y-54094819D02*
X162238095Y-53094819D01*
X162238095Y-53094819D02*
X162714285Y-53094819D01*
M02*
