G04 #@! TF.GenerationSoftware,KiCad,Pcbnew,9.0.7*
G04 #@! TF.CreationDate,2026-02-28T23:28:59+02:00*
G04 #@! TF.ProjectId,S-PCBASSY-001-01,532d5043-4241-4535-9359-2d3030312d30,rev?*
G04 #@! TF.SameCoordinates,Original*
G04 #@! TF.FileFunction,Copper,L2,Bot*
G04 #@! TF.FilePolarity,Positive*
%FSLAX46Y46*%
G04 Gerber Fmt 4.6, Leading zero omitted, Abs format (unit mm)*
G04 Created by KiCad (PCBNEW 9.0.7) date 2026-02-28 23:28:59*
%MOMM*%
%LPD*%
G01*
G04 APERTURE LIST*
G04 #@! TA.AperFunction,ComponentPad*
%ADD10R,1.520000X1.520000*%
G04 #@! TD*
G04 #@! TA.AperFunction,ComponentPad*
%ADD11C,1.520000*%
G04 #@! TD*
G04 #@! TA.AperFunction,ComponentPad*
%ADD12C,1.700000*%
G04 #@! TD*
G04 #@! TA.AperFunction,ComponentPad*
%ADD13R,1.700000X1.700000*%
G04 #@! TD*
G04 #@! TA.AperFunction,ViaPad*
%ADD14C,0.600000*%
G04 #@! TD*
G04 #@! TA.AperFunction,ViaPad*
%ADD15C,1.000000*%
G04 #@! TD*
G04 #@! TA.AperFunction,Conductor*
%ADD16C,0.300000*%
G04 #@! TD*
G04 #@! TA.AperFunction,Conductor*
%ADD17C,0.500000*%
G04 #@! TD*
G04 APERTURE END LIST*
D10*
X159500000Y-71500000D03*
D11*
X159500000Y-68500000D03*
X159500000Y-65500000D03*
X159500000Y-62500000D03*
D12*
X156630000Y-46230000D03*
X156630000Y-48770000D03*
X154090000Y-46230000D03*
X154090000Y-48770000D03*
X151550000Y-46230000D03*
X151550000Y-48770000D03*
X149010000Y-46230000D03*
X149010000Y-48770000D03*
X146470000Y-46230000D03*
X146470000Y-48770000D03*
X143930000Y-46230000D03*
X143930000Y-48770000D03*
X141390000Y-46230000D03*
X141390000Y-48770000D03*
X138850000Y-46230000D03*
X138850000Y-48770000D03*
X136310000Y-46230000D03*
X136310000Y-48770000D03*
X133770000Y-46230000D03*
X133770000Y-48770000D03*
X131230000Y-46230000D03*
X131230000Y-48770000D03*
X128690000Y-46230000D03*
X128690000Y-48770000D03*
X126150000Y-46230000D03*
X126150000Y-48770000D03*
X123610000Y-46230000D03*
X123610000Y-48770000D03*
X121070000Y-46230000D03*
X121070000Y-48770000D03*
X118530000Y-46230000D03*
X118530000Y-48770000D03*
X115990000Y-46230000D03*
X115990000Y-48770000D03*
X113450000Y-46230000D03*
X113450000Y-48770000D03*
X110910000Y-46230000D03*
X110910000Y-48770000D03*
X108370000Y-46230000D03*
D13*
X108370000Y-48770000D03*
D14*
X153500000Y-69500000D03*
X153500000Y-63500000D03*
X153500000Y-66500000D03*
X148000000Y-55000000D03*
X144000000Y-54000000D03*
X142500000Y-59500000D03*
X140000000Y-59500000D03*
X144000000Y-61000000D03*
X148000000Y-62000000D03*
X140000000Y-67000000D03*
X144000000Y-67000000D03*
X148500000Y-69500000D03*
X144000000Y-68500000D03*
X143000000Y-74500000D03*
X140500000Y-74000000D03*
X134000000Y-61000000D03*
X121500000Y-66500000D03*
X110500000Y-70500000D03*
X106000000Y-70000000D03*
X120500000Y-63000000D03*
X120000000Y-58000000D03*
X119000000Y-56000000D03*
X116500000Y-53000000D03*
X106000000Y-62000000D03*
X106000000Y-58000000D03*
X109500000Y-56000000D03*
X108000000Y-53000000D03*
D15*
X119500000Y-51500000D03*
D14*
X113500000Y-66500000D03*
X118500000Y-64000000D03*
X132305000Y-53711770D03*
X142500000Y-53000000D03*
X141500000Y-50500000D03*
X131500000Y-50500000D03*
D15*
X138000000Y-71500000D03*
X128000000Y-71500000D03*
X118000000Y-71500000D03*
D14*
X155000000Y-58000000D03*
X150500000Y-58000000D03*
X155000000Y-64500000D03*
X150000000Y-65000000D03*
X155000000Y-72500000D03*
X150500000Y-72500000D03*
X135500000Y-54500000D03*
X137000000Y-53000000D03*
X138500000Y-51500000D03*
D16*
X128000000Y-71500000D02*
X118000000Y-71500000D01*
X107000000Y-63000000D02*
X120500000Y-63000000D01*
X106000000Y-62000000D02*
X106000000Y-70000000D01*
X106000000Y-62000000D02*
X107000000Y-63000000D01*
X119000000Y-56000000D02*
X109500000Y-56000000D01*
X106000000Y-58000000D02*
X120000000Y-58000000D01*
X108000000Y-53000000D02*
X116500000Y-53000000D01*
D17*
X111100000Y-51500000D02*
X119500000Y-51500000D01*
X108370000Y-48770000D02*
X111100000Y-51500000D01*
D16*
X115500000Y-64000000D02*
X118500000Y-64000000D01*
X113500000Y-66000000D02*
X115500000Y-64000000D01*
X113500000Y-66500000D02*
X113500000Y-66000000D01*
X141788230Y-53711770D02*
X132305000Y-53711770D01*
X142500000Y-53000000D02*
X141788230Y-53711770D01*
X141500000Y-50500000D02*
X131500000Y-50500000D01*
D17*
X138000000Y-71500000D02*
X159500000Y-71500000D01*
D16*
X155000000Y-64500000D02*
X154500000Y-65000000D01*
X154500000Y-65000000D02*
X150000000Y-65000000D01*
X150500000Y-58000000D02*
X155000000Y-58000000D01*
X150500000Y-72500000D02*
X155000000Y-72500000D01*
X121070000Y-53570000D02*
X121070000Y-48770000D01*
X122000000Y-54500000D02*
X121070000Y-53570000D01*
X135500000Y-54500000D02*
X122000000Y-54500000D01*
X124500000Y-53000000D02*
X123610000Y-52110000D01*
X123610000Y-52110000D02*
X123610000Y-48770000D01*
X137000000Y-53000000D02*
X124500000Y-53000000D01*
X126150000Y-51150000D02*
X126150000Y-48770000D01*
X138500000Y-51500000D02*
X126500000Y-51500000D01*
X126500000Y-51500000D02*
X126150000Y-51150000D01*
G04 #@! TA.AperFunction,Conductor*
G36*
X139965270Y-49531717D02*
G01*
X139965270Y-49531716D01*
X140004622Y-49477554D01*
X140101095Y-49288217D01*
X140158343Y-49112026D01*
X140197780Y-49054351D01*
X140262139Y-49027152D01*
X140330985Y-49039066D01*
X140382461Y-49086310D01*
X140390833Y-49102887D01*
X140394619Y-49112026D01*
X140445939Y-49235925D01*
X140459059Y-49267598D01*
X140472836Y-49288217D01*
X140574024Y-49439657D01*
X140720342Y-49585975D01*
X140720345Y-49585977D01*
X140892402Y-49700941D01*
X141083580Y-49780130D01*
X141228052Y-49808867D01*
X141253018Y-49813833D01*
X141273131Y-49824353D01*
X141294966Y-49830561D01*
X141303497Y-49840237D01*
X141314929Y-49846217D01*
X141326160Y-49865941D01*
X141341174Y-49882969D01*
X141343119Y-49895723D01*
X141349503Y-49906933D01*
X141348288Y-49929599D01*
X141351712Y-49952040D01*
X141346454Y-49963820D01*
X141345764Y-49976702D01*
X141332487Y-49995113D01*
X141323236Y-50015843D01*
X141308973Y-50027722D01*
X141304898Y-50033375D01*
X141296762Y-50039184D01*
X141293827Y-50041105D01*
X141192686Y-50099500D01*
X141169960Y-50122225D01*
X141159259Y-50129234D01*
X141137571Y-50135805D01*
X141117682Y-50146666D01*
X141092953Y-50149324D01*
X141092392Y-50149495D01*
X141092111Y-50149415D01*
X141091324Y-50149500D01*
X139629671Y-50149500D01*
X139562632Y-50129815D01*
X139516877Y-50077011D01*
X139506933Y-50007853D01*
X139535958Y-49944297D01*
X139556785Y-49925182D01*
X139611716Y-49885270D01*
X139611717Y-49885270D01*
X138979408Y-49252962D01*
X139042993Y-49235925D01*
X139157007Y-49170099D01*
X139250099Y-49077007D01*
X139315925Y-48962993D01*
X139332962Y-48899408D01*
X139965270Y-49531717D01*
G37*
G04 #@! TD.AperFunction*
G04 #@! TA.AperFunction,Conductor*
G36*
X162003736Y-44500726D02*
G01*
X162293796Y-44518271D01*
X162308659Y-44520076D01*
X162590798Y-44571780D01*
X162605335Y-44575363D01*
X162879172Y-44660695D01*
X162893163Y-44666000D01*
X163154743Y-44783727D01*
X163167989Y-44790680D01*
X163413465Y-44939075D01*
X163425776Y-44947573D01*
X163588904Y-45075375D01*
X163651573Y-45124473D01*
X163662781Y-45134403D01*
X163865596Y-45337218D01*
X163875526Y-45348426D01*
X164041551Y-45560342D01*
X164052422Y-45574217D01*
X164060926Y-45586537D01*
X164201633Y-45819295D01*
X164209316Y-45832004D01*
X164216275Y-45845263D01*
X164333997Y-46106831D01*
X164339306Y-46120832D01*
X164424635Y-46394663D01*
X164428219Y-46409201D01*
X164479923Y-46691340D01*
X164481728Y-46706205D01*
X164499274Y-46996263D01*
X164499500Y-47003750D01*
X164499500Y-96996249D01*
X164499274Y-97003736D01*
X164481728Y-97293794D01*
X164479923Y-97308659D01*
X164428219Y-97590798D01*
X164424635Y-97605336D01*
X164339306Y-97879167D01*
X164333997Y-97893168D01*
X164216275Y-98154736D01*
X164209316Y-98167995D01*
X164060928Y-98413459D01*
X164052422Y-98425782D01*
X163875526Y-98651573D01*
X163865596Y-98662781D01*
X163662781Y-98865596D01*
X163651573Y-98875526D01*
X163425782Y-99052422D01*
X163413459Y-99060928D01*
X163167995Y-99209316D01*
X163154736Y-99216275D01*
X162893168Y-99333997D01*
X162879167Y-99339306D01*
X162605336Y-99424635D01*
X162590798Y-99428219D01*
X162308659Y-99479923D01*
X162293794Y-99481728D01*
X162003736Y-99499274D01*
X161996249Y-99499500D01*
X103003751Y-99499500D01*
X102996264Y-99499274D01*
X102706205Y-99481728D01*
X102691340Y-99479923D01*
X102409201Y-99428219D01*
X102394663Y-99424635D01*
X102120832Y-99339306D01*
X102106831Y-99333997D01*
X101845263Y-99216275D01*
X101832004Y-99209316D01*
X101586540Y-99060928D01*
X101574217Y-99052422D01*
X101348426Y-98875526D01*
X101337218Y-98865596D01*
X101134403Y-98662781D01*
X101124473Y-98651573D01*
X100947573Y-98425776D01*
X100939075Y-98413465D01*
X100790680Y-98167989D01*
X100783727Y-98154743D01*
X100666000Y-97893163D01*
X100660693Y-97879167D01*
X100575364Y-97605336D01*
X100571780Y-97590798D01*
X100520076Y-97308659D01*
X100518271Y-97293794D01*
X100500726Y-97003736D01*
X100500500Y-96996249D01*
X100500500Y-96370097D01*
X101849500Y-96370097D01*
X101849500Y-96629902D01*
X101890140Y-96886493D01*
X101970422Y-97133576D01*
X101989985Y-97171969D01*
X102088366Y-97365051D01*
X102241069Y-97575229D01*
X102424771Y-97758931D01*
X102634949Y-97911634D01*
X102782445Y-97986787D01*
X102866423Y-98029577D01*
X102866425Y-98029577D01*
X102866428Y-98029579D01*
X103113507Y-98109860D01*
X103245706Y-98130797D01*
X103370098Y-98150500D01*
X103370103Y-98150500D01*
X103629902Y-98150500D01*
X103743298Y-98132539D01*
X103886493Y-98109860D01*
X104133572Y-98029579D01*
X104365051Y-97911634D01*
X104575229Y-97758931D01*
X104758931Y-97575229D01*
X104911634Y-97365051D01*
X105029579Y-97133572D01*
X105109860Y-96886493D01*
X105132539Y-96743298D01*
X105150500Y-96629902D01*
X105150500Y-96370097D01*
X105128947Y-96234021D01*
X105109860Y-96113507D01*
X105029579Y-95866428D01*
X105029577Y-95866425D01*
X105029577Y-95866423D01*
X104986787Y-95782445D01*
X104911634Y-95634949D01*
X104758931Y-95424771D01*
X104575229Y-95241069D01*
X104365051Y-95088366D01*
X104292764Y-95051534D01*
X104133576Y-94970422D01*
X103886493Y-94890140D01*
X103629902Y-94849500D01*
X103629897Y-94849500D01*
X103370103Y-94849500D01*
X103370098Y-94849500D01*
X103113506Y-94890140D01*
X102866423Y-94970422D01*
X102634945Y-95088368D01*
X102424774Y-95241066D01*
X102424768Y-95241071D01*
X102241071Y-95424768D01*
X102241066Y-95424774D01*
X102088368Y-95634945D01*
X101970422Y-95866423D01*
X101890140Y-96113506D01*
X101849500Y-96370097D01*
X100500500Y-96370097D01*
X100500500Y-81124500D01*
X100520185Y-81057461D01*
X100572989Y-81011706D01*
X100624500Y-81000500D01*
X104587528Y-81000500D01*
X104587532Y-81000500D01*
X104759938Y-80970101D01*
X104924445Y-80910225D01*
X104973501Y-80881902D01*
X143499500Y-80881902D01*
X143499500Y-96118097D01*
X143536446Y-96351368D01*
X143609433Y-96575996D01*
X143716657Y-96786433D01*
X143855483Y-96977510D01*
X144022490Y-97144517D01*
X144213567Y-97283343D01*
X144312991Y-97334002D01*
X144424003Y-97390566D01*
X144424005Y-97390566D01*
X144424008Y-97390568D01*
X144544412Y-97429689D01*
X144648631Y-97463553D01*
X144881903Y-97500500D01*
X144881908Y-97500500D01*
X145118097Y-97500500D01*
X145351368Y-97463553D01*
X145575992Y-97390568D01*
X145786433Y-97283343D01*
X145977510Y-97144517D01*
X146144517Y-96977510D01*
X146283343Y-96786433D01*
X146390568Y-96575992D01*
X146457468Y-96370097D01*
X159849500Y-96370097D01*
X159849500Y-96629902D01*
X159890140Y-96886493D01*
X159970422Y-97133576D01*
X159989985Y-97171969D01*
X160088366Y-97365051D01*
X160241069Y-97575229D01*
X160424771Y-97758931D01*
X160634949Y-97911634D01*
X160782445Y-97986787D01*
X160866423Y-98029577D01*
X160866425Y-98029577D01*
X160866428Y-98029579D01*
X161113507Y-98109860D01*
X161245706Y-98130797D01*
X161370098Y-98150500D01*
X161370103Y-98150500D01*
X161629902Y-98150500D01*
X161743298Y-98132539D01*
X161886493Y-98109860D01*
X162133572Y-98029579D01*
X162365051Y-97911634D01*
X162575229Y-97758931D01*
X162758931Y-97575229D01*
X162911634Y-97365051D01*
X163029579Y-97133572D01*
X163109860Y-96886493D01*
X163132539Y-96743298D01*
X163150500Y-96629902D01*
X163150500Y-96370097D01*
X163128947Y-96234021D01*
X163109860Y-96113507D01*
X163029579Y-95866428D01*
X163029577Y-95866425D01*
X163029577Y-95866423D01*
X162986787Y-95782445D01*
X162911634Y-95634949D01*
X162758931Y-95424771D01*
X162575229Y-95241069D01*
X162365051Y-95088366D01*
X162292764Y-95051534D01*
X162133576Y-94970422D01*
X161886493Y-94890140D01*
X161629902Y-94849500D01*
X161629897Y-94849500D01*
X161370103Y-94849500D01*
X161370098Y-94849500D01*
X161113506Y-94890140D01*
X160866423Y-94970422D01*
X160634945Y-95088368D01*
X160424774Y-95241066D01*
X160424768Y-95241071D01*
X160241071Y-95424768D01*
X160241066Y-95424774D01*
X160088368Y-95634945D01*
X159970422Y-95866423D01*
X159890140Y-96113506D01*
X159849500Y-96370097D01*
X146457468Y-96370097D01*
X146463553Y-96351368D01*
X146479648Y-96249750D01*
X146500500Y-96118097D01*
X146500500Y-80881902D01*
X146463553Y-80648631D01*
X146415422Y-80500500D01*
X146390568Y-80424008D01*
X146390566Y-80424005D01*
X146390566Y-80424003D01*
X146306970Y-80259938D01*
X146283343Y-80213567D01*
X146144517Y-80022490D01*
X145977510Y-79855483D01*
X145786433Y-79716657D01*
X145575996Y-79609433D01*
X145351368Y-79536446D01*
X145118097Y-79499500D01*
X145118092Y-79499500D01*
X144881908Y-79499500D01*
X144881903Y-79499500D01*
X144648631Y-79536446D01*
X144424003Y-79609433D01*
X144213566Y-79716657D01*
X144104550Y-79795862D01*
X144022490Y-79855483D01*
X144022488Y-79855485D01*
X144022487Y-79855485D01*
X143855485Y-80022487D01*
X143855485Y-80022488D01*
X143855483Y-80022490D01*
X143849824Y-80030279D01*
X143716657Y-80213566D01*
X143609433Y-80424003D01*
X143536446Y-80648631D01*
X143499500Y-80881902D01*
X104973501Y-80881902D01*
X105076055Y-80822692D01*
X105095653Y-80806247D01*
X105124496Y-80782046D01*
X105210163Y-80710163D01*
X105322690Y-80576057D01*
X105322692Y-80576055D01*
X105410225Y-80424445D01*
X105470101Y-80259938D01*
X105500500Y-80087532D01*
X105500500Y-80000000D01*
X105500500Y-79934108D01*
X105500500Y-74592141D01*
X156604499Y-74592141D01*
X156640449Y-74772869D01*
X156640451Y-74772875D01*
X156710969Y-74943122D01*
X156710974Y-74943131D01*
X156813349Y-75096345D01*
X156813352Y-75096349D01*
X156943650Y-75226647D01*
X156943654Y-75226650D01*
X157096868Y-75329025D01*
X157096874Y-75329028D01*
X157096875Y-75329029D01*
X157267125Y-75399549D01*
X157267129Y-75399549D01*
X157267130Y-75399550D01*
X157447858Y-75435500D01*
X157447861Y-75435500D01*
X157632141Y-75435500D01*
X157753732Y-75411313D01*
X157812875Y-75399549D01*
X157983125Y-75329029D01*
X158136346Y-75226650D01*
X158266650Y-75096346D01*
X158369029Y-74943125D01*
X158439549Y-74772875D01*
X158475500Y-74592139D01*
X158475500Y-74407861D01*
X158475500Y-74407858D01*
X158439550Y-74227130D01*
X158439549Y-74227129D01*
X158439549Y-74227125D01*
X158369029Y-74056875D01*
X158369028Y-74056874D01*
X158369025Y-74056868D01*
X158266650Y-73903654D01*
X158266647Y-73903650D01*
X158136349Y-73773352D01*
X158136345Y-73773349D01*
X157983131Y-73670974D01*
X157983122Y-73670969D01*
X157812875Y-73600451D01*
X157812869Y-73600449D01*
X157632141Y-73564500D01*
X157632139Y-73564500D01*
X157447861Y-73564500D01*
X157447859Y-73564500D01*
X157267130Y-73600449D01*
X157267124Y-73600451D01*
X157096877Y-73670969D01*
X157096868Y-73670974D01*
X156943654Y-73773349D01*
X156943650Y-73773352D01*
X156813352Y-73903650D01*
X156813349Y-73903654D01*
X156710974Y-74056868D01*
X156710969Y-74056877D01*
X156640451Y-74227124D01*
X156640449Y-74227130D01*
X156604500Y-74407858D01*
X156604500Y-74407861D01*
X156604500Y-74592139D01*
X156604500Y-74592141D01*
X156604499Y-74592141D01*
X105500500Y-74592141D01*
X105500500Y-71568995D01*
X117299499Y-71568995D01*
X117326418Y-71704322D01*
X117326421Y-71704332D01*
X117379221Y-71831804D01*
X117379228Y-71831817D01*
X117455885Y-71946541D01*
X117455888Y-71946545D01*
X117553454Y-72044111D01*
X117553458Y-72044114D01*
X117668182Y-72120771D01*
X117668195Y-72120778D01*
X117768152Y-72162181D01*
X117795672Y-72173580D01*
X117795676Y-72173580D01*
X117795677Y-72173581D01*
X117931004Y-72200500D01*
X117931007Y-72200500D01*
X118068995Y-72200500D01*
X118160041Y-72182389D01*
X118204328Y-72173580D01*
X118331811Y-72120775D01*
X118446542Y-72044114D01*
X118544114Y-71946542D01*
X118559309Y-71923799D01*
X118571465Y-71905609D01*
X118625077Y-71860804D01*
X118674567Y-71850500D01*
X127325433Y-71850500D01*
X127392472Y-71870185D01*
X127428535Y-71905609D01*
X127455885Y-71946541D01*
X127455888Y-71946545D01*
X127553454Y-72044111D01*
X127553458Y-72044114D01*
X127668182Y-72120771D01*
X127668195Y-72120778D01*
X127768152Y-72162181D01*
X127795672Y-72173580D01*
X127795676Y-72173580D01*
X127795677Y-72173581D01*
X127931004Y-72200500D01*
X127931007Y-72200500D01*
X128068995Y-72200500D01*
X128160041Y-72182389D01*
X128204328Y-72173580D01*
X128331811Y-72120775D01*
X128446542Y-72044114D01*
X128544114Y-71946542D01*
X128620775Y-71831811D01*
X128673580Y-71704328D01*
X128700500Y-71568995D01*
X137299499Y-71568995D01*
X137326418Y-71704322D01*
X137326421Y-71704332D01*
X137379221Y-71831804D01*
X137379228Y-71831817D01*
X137455885Y-71946541D01*
X137455888Y-71946545D01*
X137553454Y-72044111D01*
X137553458Y-72044114D01*
X137668182Y-72120771D01*
X137668195Y-72120778D01*
X137768152Y-72162181D01*
X137795672Y-72173580D01*
X137795676Y-72173580D01*
X137795677Y-72173581D01*
X137931004Y-72200500D01*
X137931007Y-72200500D01*
X138068995Y-72200500D01*
X138160041Y-72182389D01*
X138204328Y-72173580D01*
X138331811Y-72120775D01*
X138446542Y-72044114D01*
X138503838Y-71986817D01*
X138565159Y-71953334D01*
X138591518Y-71950500D01*
X150042324Y-71950500D01*
X150109363Y-71970185D01*
X150155118Y-72022989D01*
X150165062Y-72092147D01*
X150136037Y-72155703D01*
X150130005Y-72162181D01*
X150099502Y-72192683D01*
X150099500Y-72192686D01*
X150033608Y-72306812D01*
X149999500Y-72434108D01*
X149999500Y-72565891D01*
X150033608Y-72693187D01*
X150066554Y-72750250D01*
X150099500Y-72807314D01*
X150192686Y-72900500D01*
X150306814Y-72966392D01*
X150434108Y-73000500D01*
X150434110Y-73000500D01*
X150565890Y-73000500D01*
X150565892Y-73000500D01*
X150693186Y-72966392D01*
X150807314Y-72900500D01*
X150820995Y-72886819D01*
X150882318Y-72853334D01*
X150908676Y-72850500D01*
X154591324Y-72850500D01*
X154658363Y-72870185D01*
X154679005Y-72886819D01*
X154692686Y-72900500D01*
X154806814Y-72966392D01*
X154934108Y-73000500D01*
X154934110Y-73000500D01*
X155065890Y-73000500D01*
X155065892Y-73000500D01*
X155193186Y-72966392D01*
X155307314Y-72900500D01*
X155400500Y-72807314D01*
X155466392Y-72693186D01*
X155500500Y-72565892D01*
X155500500Y-72434108D01*
X155466392Y-72306814D01*
X155400500Y-72192686D01*
X155369995Y-72162181D01*
X155336510Y-72100858D01*
X155341494Y-72031166D01*
X155383366Y-71975233D01*
X155448830Y-71950816D01*
X155457676Y-71950500D01*
X158415500Y-71950500D01*
X158482539Y-71970185D01*
X158528294Y-72022989D01*
X158539500Y-72074500D01*
X158539500Y-72279752D01*
X158551131Y-72338229D01*
X158551132Y-72338230D01*
X158595447Y-72404552D01*
X158661769Y-72448867D01*
X158661770Y-72448868D01*
X158720247Y-72460499D01*
X158720250Y-72460500D01*
X158720252Y-72460500D01*
X160279750Y-72460500D01*
X160279751Y-72460499D01*
X160294568Y-72457552D01*
X160338229Y-72448868D01*
X160338229Y-72448867D01*
X160338231Y-72448867D01*
X160404552Y-72404552D01*
X160448867Y-72338231D01*
X160448867Y-72338229D01*
X160448868Y-72338229D01*
X160460499Y-72279752D01*
X160460500Y-72279750D01*
X160460500Y-70720249D01*
X160460499Y-70720247D01*
X160448868Y-70661770D01*
X160448867Y-70661769D01*
X160404552Y-70595447D01*
X160338230Y-70551132D01*
X160338229Y-70551131D01*
X160279752Y-70539500D01*
X160279748Y-70539500D01*
X158720252Y-70539500D01*
X158720247Y-70539500D01*
X158661770Y-70551131D01*
X158661769Y-70551132D01*
X158595447Y-70595447D01*
X158551132Y-70661769D01*
X158551131Y-70661770D01*
X158539500Y-70720247D01*
X158539500Y-70925500D01*
X158519815Y-70992539D01*
X158467011Y-71038294D01*
X158415500Y-71049500D01*
X138591518Y-71049500D01*
X138524479Y-71029815D01*
X138503841Y-71013185D01*
X138446542Y-70955886D01*
X138446541Y-70955885D01*
X138446540Y-70955884D01*
X138331817Y-70879228D01*
X138331804Y-70879221D01*
X138204332Y-70826421D01*
X138204322Y-70826418D01*
X138068995Y-70799500D01*
X138068993Y-70799500D01*
X137931007Y-70799500D01*
X137931005Y-70799500D01*
X137795677Y-70826418D01*
X137795667Y-70826421D01*
X137668195Y-70879221D01*
X137668182Y-70879228D01*
X137553458Y-70955885D01*
X137553454Y-70955888D01*
X137455888Y-71053454D01*
X137455885Y-71053458D01*
X137379228Y-71168182D01*
X137379221Y-71168195D01*
X137326421Y-71295667D01*
X137326418Y-71295677D01*
X137299500Y-71431004D01*
X137299500Y-71431007D01*
X137299500Y-71568993D01*
X137299500Y-71568995D01*
X137299499Y-71568995D01*
X128700500Y-71568995D01*
X128700500Y-71568993D01*
X128700500Y-71431007D01*
X128700500Y-71431004D01*
X128673581Y-71295677D01*
X128673580Y-71295676D01*
X128673580Y-71295672D01*
X128673578Y-71295667D01*
X128620778Y-71168195D01*
X128620771Y-71168182D01*
X128544114Y-71053458D01*
X128544111Y-71053454D01*
X128446545Y-70955888D01*
X128446541Y-70955885D01*
X128331817Y-70879228D01*
X128331804Y-70879221D01*
X128204332Y-70826421D01*
X128204322Y-70826418D01*
X128068995Y-70799500D01*
X128068993Y-70799500D01*
X127931007Y-70799500D01*
X127931005Y-70799500D01*
X127795677Y-70826418D01*
X127795667Y-70826421D01*
X127668195Y-70879221D01*
X127668182Y-70879228D01*
X127553458Y-70955885D01*
X127553454Y-70955888D01*
X127455888Y-71053454D01*
X127455885Y-71053458D01*
X127428535Y-71094391D01*
X127374923Y-71139196D01*
X127325433Y-71149500D01*
X118674567Y-71149500D01*
X118607528Y-71129815D01*
X118571465Y-71094391D01*
X118544114Y-71053458D01*
X118544111Y-71053454D01*
X118446545Y-70955888D01*
X118446541Y-70955885D01*
X118331817Y-70879228D01*
X118331804Y-70879221D01*
X118204332Y-70826421D01*
X118204322Y-70826418D01*
X118068995Y-70799500D01*
X118068993Y-70799500D01*
X117931007Y-70799500D01*
X117931005Y-70799500D01*
X117795677Y-70826418D01*
X117795667Y-70826421D01*
X117668195Y-70879221D01*
X117668182Y-70879228D01*
X117553458Y-70955885D01*
X117553454Y-70955888D01*
X117455888Y-71053454D01*
X117455885Y-71053458D01*
X117379228Y-71168182D01*
X117379221Y-71168195D01*
X117326421Y-71295667D01*
X117326418Y-71295677D01*
X117299500Y-71431004D01*
X117299500Y-71431007D01*
X117299500Y-71568993D01*
X117299500Y-71568995D01*
X117299499Y-71568995D01*
X105500500Y-71568995D01*
X105500500Y-68594603D01*
X158539499Y-68594603D01*
X158576410Y-68780161D01*
X158576413Y-68780171D01*
X158648814Y-68954965D01*
X158648816Y-68954968D01*
X158753927Y-69112278D01*
X158753933Y-69112286D01*
X158887713Y-69246066D01*
X158887721Y-69246072D01*
X159045031Y-69351183D01*
X159045034Y-69351185D01*
X159219828Y-69423586D01*
X159219833Y-69423588D01*
X159219837Y-69423588D01*
X159219838Y-69423589D01*
X159405396Y-69460500D01*
X159405399Y-69460500D01*
X159594603Y-69460500D01*
X159719442Y-69435667D01*
X159780167Y-69423588D01*
X159954967Y-69351184D01*
X160112283Y-69246069D01*
X160246069Y-69112283D01*
X160351184Y-68954967D01*
X160423588Y-68780167D01*
X160460500Y-68594601D01*
X160460500Y-68405399D01*
X160460500Y-68405396D01*
X160423589Y-68219838D01*
X160423588Y-68219837D01*
X160423588Y-68219833D01*
X160423586Y-68219828D01*
X160351185Y-68045034D01*
X160351183Y-68045031D01*
X160246072Y-67887721D01*
X160246066Y-67887713D01*
X160112286Y-67753933D01*
X160112278Y-67753927D01*
X159954968Y-67648816D01*
X159954965Y-67648814D01*
X159780171Y-67576413D01*
X159780161Y-67576410D01*
X159594603Y-67539500D01*
X159594601Y-67539500D01*
X159405399Y-67539500D01*
X159405397Y-67539500D01*
X159219838Y-67576410D01*
X159219828Y-67576413D01*
X159045034Y-67648814D01*
X159045031Y-67648816D01*
X158887721Y-67753927D01*
X158887713Y-67753933D01*
X158753933Y-67887713D01*
X158753927Y-67887721D01*
X158648816Y-68045031D01*
X158648814Y-68045034D01*
X158576413Y-68219828D01*
X158576410Y-68219838D01*
X158539500Y-68405396D01*
X158539500Y-68405399D01*
X158539500Y-68594601D01*
X158539500Y-68594603D01*
X158539499Y-68594603D01*
X105500500Y-68594603D01*
X105500500Y-66434108D01*
X112999500Y-66434108D01*
X112999500Y-66565891D01*
X113033608Y-66693187D01*
X113066554Y-66750250D01*
X113099500Y-66807314D01*
X113192686Y-66900500D01*
X113306814Y-66966392D01*
X113434108Y-67000500D01*
X113434110Y-67000500D01*
X113565890Y-67000500D01*
X113565892Y-67000500D01*
X113693186Y-66966392D01*
X113807314Y-66900500D01*
X113900500Y-66807314D01*
X113966392Y-66693186D01*
X114000500Y-66565892D01*
X114000500Y-66434108D01*
X113966392Y-66306814D01*
X113912385Y-66213271D01*
X113895912Y-66145371D01*
X113918764Y-66079344D01*
X113932085Y-66063596D01*
X114401078Y-65594603D01*
X158539499Y-65594603D01*
X158576410Y-65780161D01*
X158576413Y-65780171D01*
X158648814Y-65954965D01*
X158648816Y-65954968D01*
X158753927Y-66112278D01*
X158753933Y-66112286D01*
X158887713Y-66246066D01*
X158887721Y-66246072D01*
X159045031Y-66351183D01*
X159045034Y-66351185D01*
X159219828Y-66423586D01*
X159219833Y-66423588D01*
X159219837Y-66423588D01*
X159219838Y-66423589D01*
X159405396Y-66460500D01*
X159405399Y-66460500D01*
X159594603Y-66460500D01*
X159727280Y-66434108D01*
X159780167Y-66423588D01*
X159954967Y-66351184D01*
X160112283Y-66246069D01*
X160246069Y-66112283D01*
X160351184Y-65954967D01*
X160423588Y-65780167D01*
X160460500Y-65594601D01*
X160460500Y-65405399D01*
X160460500Y-65405396D01*
X160423589Y-65219838D01*
X160423588Y-65219837D01*
X160423588Y-65219833D01*
X160412551Y-65193186D01*
X160351185Y-65045034D01*
X160351183Y-65045031D01*
X160246072Y-64887721D01*
X160246066Y-64887713D01*
X160112286Y-64753933D01*
X160112278Y-64753927D01*
X159954968Y-64648816D01*
X159954965Y-64648814D01*
X159780171Y-64576413D01*
X159780161Y-64576410D01*
X159594603Y-64539500D01*
X159594601Y-64539500D01*
X159405399Y-64539500D01*
X159405397Y-64539500D01*
X159219838Y-64576410D01*
X159219828Y-64576413D01*
X159045034Y-64648814D01*
X159045031Y-64648816D01*
X158887721Y-64753927D01*
X158887713Y-64753933D01*
X158753933Y-64887713D01*
X158753927Y-64887721D01*
X158648816Y-65045031D01*
X158648814Y-65045034D01*
X158576413Y-65219828D01*
X158576410Y-65219838D01*
X158539500Y-65405396D01*
X158539500Y-65405399D01*
X158539500Y-65594601D01*
X158539500Y-65594603D01*
X158539499Y-65594603D01*
X114401078Y-65594603D01*
X115061574Y-64934108D01*
X149499500Y-64934108D01*
X149499500Y-65065891D01*
X149533608Y-65193187D01*
X149566554Y-65250250D01*
X149599500Y-65307314D01*
X149692686Y-65400500D01*
X149806814Y-65466392D01*
X149934108Y-65500500D01*
X149934110Y-65500500D01*
X150065890Y-65500500D01*
X150065892Y-65500500D01*
X150193186Y-65466392D01*
X150307314Y-65400500D01*
X150320995Y-65386819D01*
X150382318Y-65353334D01*
X150408676Y-65350500D01*
X154546142Y-65350500D01*
X154546144Y-65350500D01*
X154635288Y-65326614D01*
X154715212Y-65280470D01*
X154958863Y-65036819D01*
X155020186Y-65003334D01*
X155046544Y-65000500D01*
X155065890Y-65000500D01*
X155065892Y-65000500D01*
X155193186Y-64966392D01*
X155307314Y-64900500D01*
X155400500Y-64807314D01*
X155466392Y-64693186D01*
X155500500Y-64565892D01*
X155500500Y-64434108D01*
X155466392Y-64306814D01*
X155400500Y-64192686D01*
X155307314Y-64099500D01*
X155249100Y-64065890D01*
X155193187Y-64033608D01*
X155129539Y-64016554D01*
X155065892Y-63999500D01*
X154934108Y-63999500D01*
X154806812Y-64033608D01*
X154692686Y-64099500D01*
X154692683Y-64099502D01*
X154599502Y-64192683D01*
X154599500Y-64192686D01*
X154533608Y-64306812D01*
X154499500Y-64434108D01*
X154499500Y-64453456D01*
X154490855Y-64482896D01*
X154484332Y-64512883D01*
X154480577Y-64517898D01*
X154479815Y-64520495D01*
X154463181Y-64541137D01*
X154391137Y-64613181D01*
X154329814Y-64646666D01*
X154303456Y-64649500D01*
X150408676Y-64649500D01*
X150341637Y-64629815D01*
X150320995Y-64613181D01*
X150307316Y-64599502D01*
X150307314Y-64599500D01*
X150206227Y-64541137D01*
X150193187Y-64533608D01*
X150129539Y-64516554D01*
X150065892Y-64499500D01*
X149934108Y-64499500D01*
X149806812Y-64533608D01*
X149692686Y-64599500D01*
X149692683Y-64599502D01*
X149599502Y-64692683D01*
X149599500Y-64692686D01*
X149533608Y-64806812D01*
X149499500Y-64934108D01*
X115061574Y-64934108D01*
X115608863Y-64386819D01*
X115670186Y-64353334D01*
X115696544Y-64350500D01*
X118091324Y-64350500D01*
X118158363Y-64370185D01*
X118179005Y-64386819D01*
X118192686Y-64400500D01*
X118306814Y-64466392D01*
X118434108Y-64500500D01*
X118434110Y-64500500D01*
X118565890Y-64500500D01*
X118565892Y-64500500D01*
X118693186Y-64466392D01*
X118807314Y-64400500D01*
X118900500Y-64307314D01*
X118966392Y-64193186D01*
X119000500Y-64065892D01*
X119000500Y-63934108D01*
X118966392Y-63806814D01*
X118900500Y-63692686D01*
X118807314Y-63599500D01*
X118750250Y-63566554D01*
X118693187Y-63533608D01*
X118629539Y-63516554D01*
X118565892Y-63499500D01*
X118434108Y-63499500D01*
X118306812Y-63533608D01*
X118192686Y-63599500D01*
X118192683Y-63599502D01*
X118179005Y-63613181D01*
X118117682Y-63646666D01*
X118091324Y-63649500D01*
X115453856Y-63649500D01*
X115364712Y-63673386D01*
X115364709Y-63673387D01*
X115284791Y-63719527D01*
X115284786Y-63719531D01*
X113219531Y-65784786D01*
X113219527Y-65784791D01*
X113173387Y-65864709D01*
X113173386Y-65864712D01*
X113149500Y-65953856D01*
X113149500Y-66091324D01*
X113129815Y-66158363D01*
X113113181Y-66179005D01*
X113099502Y-66192683D01*
X113099500Y-66192686D01*
X113033608Y-66306812D01*
X112999500Y-66434108D01*
X105500500Y-66434108D01*
X105500500Y-63934108D01*
X105500500Y-63912468D01*
X105470101Y-63740062D01*
X105410225Y-63575555D01*
X105322692Y-63423945D01*
X105322691Y-63423943D01*
X105322690Y-63423942D01*
X105210163Y-63289836D01*
X105076057Y-63177309D01*
X104924446Y-63089775D01*
X104759937Y-63029898D01*
X104587534Y-62999500D01*
X104587532Y-62999500D01*
X104565892Y-62999500D01*
X100624500Y-62999500D01*
X100557461Y-62979815D01*
X100511706Y-62927011D01*
X100500500Y-62875500D01*
X100500500Y-62594603D01*
X158539499Y-62594603D01*
X158576410Y-62780161D01*
X158576413Y-62780171D01*
X158648814Y-62954965D01*
X158648816Y-62954968D01*
X158753927Y-63112278D01*
X158753933Y-63112286D01*
X158887713Y-63246066D01*
X158887721Y-63246072D01*
X159045031Y-63351183D01*
X159045034Y-63351185D01*
X159219828Y-63423586D01*
X159219833Y-63423588D01*
X159219837Y-63423588D01*
X159219838Y-63423589D01*
X159405396Y-63460500D01*
X159405399Y-63460500D01*
X159594603Y-63460500D01*
X159719442Y-63435667D01*
X159780167Y-63423588D01*
X159954967Y-63351184D01*
X160112283Y-63246069D01*
X160246069Y-63112283D01*
X160351184Y-62954967D01*
X160423588Y-62780167D01*
X160460500Y-62594601D01*
X160460500Y-62405399D01*
X160460500Y-62405396D01*
X160423589Y-62219838D01*
X160423588Y-62219837D01*
X160423588Y-62219833D01*
X160423586Y-62219828D01*
X160351185Y-62045034D01*
X160351183Y-62045031D01*
X160246072Y-61887721D01*
X160246066Y-61887713D01*
X160112286Y-61753933D01*
X160112278Y-61753927D01*
X159954968Y-61648816D01*
X159954965Y-61648814D01*
X159780171Y-61576413D01*
X159780161Y-61576410D01*
X159594603Y-61539500D01*
X159594601Y-61539500D01*
X159405399Y-61539500D01*
X159405397Y-61539500D01*
X159219838Y-61576410D01*
X159219828Y-61576413D01*
X159045034Y-61648814D01*
X159045031Y-61648816D01*
X158887721Y-61753927D01*
X158887713Y-61753933D01*
X158753933Y-61887713D01*
X158753927Y-61887721D01*
X158648816Y-62045031D01*
X158648814Y-62045034D01*
X158576413Y-62219828D01*
X158576410Y-62219838D01*
X158539500Y-62405396D01*
X158539500Y-62405399D01*
X158539500Y-62594601D01*
X158539500Y-62594603D01*
X158539499Y-62594603D01*
X100500500Y-62594603D01*
X100500500Y-59592141D01*
X156604499Y-59592141D01*
X156640449Y-59772869D01*
X156640451Y-59772875D01*
X156710969Y-59943122D01*
X156710974Y-59943131D01*
X156813349Y-60096345D01*
X156813352Y-60096349D01*
X156943650Y-60226647D01*
X156943654Y-60226650D01*
X157096868Y-60329025D01*
X157096874Y-60329028D01*
X157096875Y-60329029D01*
X157267125Y-60399549D01*
X157267129Y-60399549D01*
X157267130Y-60399550D01*
X157447858Y-60435500D01*
X157447861Y-60435500D01*
X157632141Y-60435500D01*
X157753732Y-60411313D01*
X157812875Y-60399549D01*
X157983125Y-60329029D01*
X158136346Y-60226650D01*
X158266650Y-60096346D01*
X158369029Y-59943125D01*
X158439549Y-59772875D01*
X158475500Y-59592139D01*
X158475500Y-59407861D01*
X158475500Y-59407858D01*
X158439550Y-59227130D01*
X158439549Y-59227129D01*
X158439549Y-59227125D01*
X158369029Y-59056875D01*
X158369028Y-59056874D01*
X158369025Y-59056868D01*
X158266650Y-58903654D01*
X158266647Y-58903650D01*
X158136349Y-58773352D01*
X158136345Y-58773349D01*
X157983131Y-58670974D01*
X157983122Y-58670969D01*
X157812875Y-58600451D01*
X157812869Y-58600449D01*
X157632141Y-58564500D01*
X157632139Y-58564500D01*
X157447861Y-58564500D01*
X157447859Y-58564500D01*
X157267130Y-58600449D01*
X157267124Y-58600451D01*
X157096877Y-58670969D01*
X157096868Y-58670974D01*
X156943654Y-58773349D01*
X156943650Y-58773352D01*
X156813352Y-58903650D01*
X156813349Y-58903654D01*
X156710974Y-59056868D01*
X156710969Y-59056877D01*
X156640451Y-59227124D01*
X156640449Y-59227130D01*
X156604500Y-59407858D01*
X156604500Y-59407861D01*
X156604500Y-59592139D01*
X156604500Y-59592141D01*
X156604499Y-59592141D01*
X100500500Y-59592141D01*
X100500500Y-57934108D01*
X149999500Y-57934108D01*
X149999500Y-58065891D01*
X150033608Y-58193187D01*
X150066554Y-58250250D01*
X150099500Y-58307314D01*
X150192686Y-58400500D01*
X150306814Y-58466392D01*
X150434108Y-58500500D01*
X150434110Y-58500500D01*
X150565890Y-58500500D01*
X150565892Y-58500500D01*
X150693186Y-58466392D01*
X150807314Y-58400500D01*
X150820995Y-58386819D01*
X150882318Y-58353334D01*
X150908676Y-58350500D01*
X154591324Y-58350500D01*
X154658363Y-58370185D01*
X154679005Y-58386819D01*
X154692686Y-58400500D01*
X154806814Y-58466392D01*
X154934108Y-58500500D01*
X154934110Y-58500500D01*
X155065890Y-58500500D01*
X155065892Y-58500500D01*
X155193186Y-58466392D01*
X155307314Y-58400500D01*
X155400500Y-58307314D01*
X155466392Y-58193186D01*
X155500500Y-58065892D01*
X155500500Y-57934108D01*
X155466392Y-57806814D01*
X155400500Y-57692686D01*
X155307314Y-57599500D01*
X155250250Y-57566554D01*
X155193187Y-57533608D01*
X155129539Y-57516554D01*
X155065892Y-57499500D01*
X154934108Y-57499500D01*
X154806812Y-57533608D01*
X154692686Y-57599500D01*
X154692683Y-57599502D01*
X154679005Y-57613181D01*
X154617682Y-57646666D01*
X154591324Y-57649500D01*
X150908676Y-57649500D01*
X150841637Y-57629815D01*
X150820995Y-57613181D01*
X150807316Y-57599502D01*
X150807314Y-57599500D01*
X150750250Y-57566554D01*
X150693187Y-57533608D01*
X150629539Y-57516554D01*
X150565892Y-57499500D01*
X150434108Y-57499500D01*
X150306812Y-57533608D01*
X150192686Y-57599500D01*
X150192683Y-57599502D01*
X150099502Y-57692683D01*
X150099500Y-57692686D01*
X150033608Y-57806812D01*
X149999500Y-57934108D01*
X100500500Y-57934108D01*
X100500500Y-47370097D01*
X101849500Y-47370097D01*
X101849500Y-47629902D01*
X101890140Y-47886493D01*
X101970422Y-48133576D01*
X102088368Y-48365054D01*
X102241066Y-48575225D01*
X102241069Y-48575229D01*
X102424771Y-48758931D01*
X102634949Y-48911634D01*
X102782445Y-48986787D01*
X102866423Y-49029577D01*
X102866425Y-49029577D01*
X102866428Y-49029579D01*
X103113507Y-49109860D01*
X103245706Y-49130797D01*
X103370098Y-49150500D01*
X103370103Y-49150500D01*
X103629902Y-49150500D01*
X103746483Y-49132035D01*
X103886493Y-49109860D01*
X104133572Y-49029579D01*
X104365051Y-48911634D01*
X104575229Y-48758931D01*
X104758931Y-48575229D01*
X104911634Y-48365051D01*
X105029579Y-48133572D01*
X105105391Y-47900247D01*
X107319500Y-47900247D01*
X107319500Y-49639752D01*
X107331131Y-49698229D01*
X107331132Y-49698230D01*
X107375447Y-49764552D01*
X107441769Y-49808867D01*
X107441770Y-49808868D01*
X107500247Y-49820499D01*
X107500250Y-49820500D01*
X107500252Y-49820500D01*
X108732035Y-49820500D01*
X108799074Y-49840185D01*
X108819716Y-49856819D01*
X110823386Y-51860489D01*
X110926113Y-51919799D01*
X110950321Y-51926284D01*
X110950324Y-51926286D01*
X110950325Y-51926286D01*
X110980447Y-51934357D01*
X111040691Y-51950500D01*
X118908482Y-51950500D01*
X118975521Y-51970185D01*
X118996158Y-51986814D01*
X119053455Y-52044111D01*
X119053459Y-52044115D01*
X119168182Y-52120771D01*
X119168195Y-52120778D01*
X119295667Y-52173578D01*
X119295672Y-52173580D01*
X119295676Y-52173580D01*
X119295677Y-52173581D01*
X119431004Y-52200500D01*
X119431007Y-52200500D01*
X119568995Y-52200500D01*
X119660041Y-52182389D01*
X119704328Y-52173580D01*
X119831811Y-52120775D01*
X119946542Y-52044114D01*
X120044114Y-51946542D01*
X120120775Y-51831811D01*
X120122929Y-51826612D01*
X120173578Y-51704332D01*
X120173580Y-51704328D01*
X120200500Y-51568993D01*
X120200500Y-51431007D01*
X120200500Y-51431004D01*
X120173581Y-51295677D01*
X120173580Y-51295676D01*
X120173580Y-51295672D01*
X120143613Y-51223324D01*
X120120778Y-51168195D01*
X120120771Y-51168182D01*
X120044114Y-51053458D01*
X120044111Y-51053454D01*
X119946545Y-50955888D01*
X119946541Y-50955885D01*
X119831817Y-50879228D01*
X119831804Y-50879221D01*
X119704332Y-50826421D01*
X119704322Y-50826418D01*
X119568995Y-50799500D01*
X119568993Y-50799500D01*
X119431007Y-50799500D01*
X119431005Y-50799500D01*
X119295677Y-50826418D01*
X119295667Y-50826421D01*
X119168195Y-50879221D01*
X119168182Y-50879228D01*
X119053459Y-50955884D01*
X119029530Y-50979814D01*
X118996161Y-51013182D01*
X118934841Y-51046666D01*
X118908482Y-51049500D01*
X111337965Y-51049500D01*
X111270926Y-51029815D01*
X111250284Y-51013181D01*
X109456819Y-49219716D01*
X109423334Y-49158393D01*
X109420500Y-49132035D01*
X109420500Y-48666530D01*
X109859500Y-48666530D01*
X109859500Y-48873469D01*
X109899868Y-49076412D01*
X109899870Y-49076420D01*
X109965939Y-49235925D01*
X109979059Y-49267598D01*
X109992836Y-49288217D01*
X110094024Y-49439657D01*
X110240342Y-49585975D01*
X110240345Y-49585977D01*
X110412402Y-49700941D01*
X110603580Y-49780130D01*
X110748052Y-49808867D01*
X110806530Y-49820499D01*
X110806534Y-49820500D01*
X110806535Y-49820500D01*
X111013466Y-49820500D01*
X111013467Y-49820499D01*
X111216420Y-49780130D01*
X111407598Y-49700941D01*
X111579655Y-49585977D01*
X111725977Y-49439655D01*
X111840941Y-49267598D01*
X111920130Y-49076420D01*
X111960500Y-48873465D01*
X111960500Y-48666535D01*
X111920130Y-48463580D01*
X111840941Y-48272402D01*
X111725977Y-48100345D01*
X111725975Y-48100342D01*
X111579657Y-47954024D01*
X111411655Y-47841770D01*
X111407598Y-47839059D01*
X111407593Y-47839057D01*
X111216420Y-47759870D01*
X111216412Y-47759868D01*
X111013469Y-47719500D01*
X111013465Y-47719500D01*
X110806535Y-47719500D01*
X110806530Y-47719500D01*
X110603587Y-47759868D01*
X110603579Y-47759870D01*
X110412403Y-47839058D01*
X110240342Y-47954024D01*
X110094024Y-48100342D01*
X109979058Y-48272403D01*
X109899870Y-48463579D01*
X109899868Y-48463587D01*
X109859500Y-48666530D01*
X109420500Y-48666530D01*
X109420500Y-47900249D01*
X109420499Y-47900247D01*
X109408868Y-47841770D01*
X109408867Y-47841769D01*
X109364552Y-47775447D01*
X109298230Y-47731132D01*
X109298229Y-47731131D01*
X109239752Y-47719500D01*
X109239748Y-47719500D01*
X107500252Y-47719500D01*
X107500247Y-47719500D01*
X107441770Y-47731131D01*
X107441769Y-47731132D01*
X107375447Y-47775447D01*
X107331132Y-47841769D01*
X107331131Y-47841770D01*
X107319500Y-47900247D01*
X105105391Y-47900247D01*
X105109860Y-47886493D01*
X105122045Y-47809554D01*
X105150500Y-47629902D01*
X105150500Y-47370097D01*
X105128178Y-47229164D01*
X105109860Y-47113507D01*
X105029579Y-46866428D01*
X105029577Y-46866425D01*
X105029577Y-46866423D01*
X104969347Y-46748217D01*
X104911634Y-46634949D01*
X104758931Y-46424771D01*
X104575229Y-46241069D01*
X104417579Y-46126530D01*
X107319500Y-46126530D01*
X107319500Y-46333469D01*
X107359868Y-46536412D01*
X107359870Y-46536420D01*
X107425939Y-46695925D01*
X107439059Y-46727598D01*
X107452836Y-46748217D01*
X107554024Y-46899657D01*
X107700342Y-47045975D01*
X107700345Y-47045977D01*
X107872402Y-47160941D01*
X108063580Y-47240130D01*
X108228855Y-47273005D01*
X108266530Y-47280499D01*
X108266534Y-47280500D01*
X108266535Y-47280500D01*
X108473466Y-47280500D01*
X108473467Y-47280499D01*
X108676420Y-47240130D01*
X108867598Y-47160941D01*
X109039655Y-47045977D01*
X109185977Y-46899655D01*
X109300941Y-46727598D01*
X109380130Y-46536420D01*
X109420500Y-46333465D01*
X109420500Y-46126535D01*
X109420499Y-46126530D01*
X109859500Y-46126530D01*
X109859500Y-46333469D01*
X109899868Y-46536412D01*
X109899870Y-46536420D01*
X109965939Y-46695925D01*
X109979059Y-46727598D01*
X109992836Y-46748217D01*
X110094024Y-46899657D01*
X110240342Y-47045975D01*
X110240345Y-47045977D01*
X110412402Y-47160941D01*
X110603580Y-47240130D01*
X110768855Y-47273005D01*
X110806530Y-47280499D01*
X110806534Y-47280500D01*
X110806535Y-47280500D01*
X111013466Y-47280500D01*
X111013467Y-47280499D01*
X111216420Y-47240130D01*
X111407598Y-47160941D01*
X111579655Y-47045977D01*
X111725977Y-46899655D01*
X111840941Y-46727598D01*
X111909165Y-46562889D01*
X111953004Y-46508488D01*
X112019298Y-46486423D01*
X112086998Y-46503702D01*
X112134609Y-46554839D01*
X112141656Y-46572026D01*
X112198904Y-46748216D01*
X112295375Y-46937550D01*
X112334728Y-46991716D01*
X112967037Y-46359408D01*
X112984075Y-46422993D01*
X113049901Y-46537007D01*
X113142993Y-46630099D01*
X113257007Y-46695925D01*
X113320590Y-46712962D01*
X112688282Y-47345269D01*
X112688282Y-47345270D01*
X112742449Y-47384624D01*
X112931782Y-47481095D01*
X113107973Y-47538343D01*
X113165648Y-47577780D01*
X113192847Y-47642139D01*
X113180932Y-47710985D01*
X113133688Y-47762461D01*
X113117108Y-47770835D01*
X112952403Y-47839057D01*
X112780342Y-47954024D01*
X112634024Y-48100342D01*
X112519058Y-48272403D01*
X112439870Y-48463579D01*
X112439868Y-48463587D01*
X112399500Y-48666530D01*
X112399500Y-48873469D01*
X112439868Y-49076412D01*
X112439870Y-49076420D01*
X112505939Y-49235925D01*
X112519059Y-49267598D01*
X112532836Y-49288217D01*
X112634024Y-49439657D01*
X112780342Y-49585975D01*
X112780345Y-49585977D01*
X112952402Y-49700941D01*
X113143580Y-49780130D01*
X113288052Y-49808867D01*
X113346530Y-49820499D01*
X113346534Y-49820500D01*
X113346535Y-49820500D01*
X113553466Y-49820500D01*
X113553467Y-49820499D01*
X113756420Y-49780130D01*
X113947598Y-49700941D01*
X114119655Y-49585977D01*
X114265977Y-49439655D01*
X114380941Y-49267598D01*
X114460130Y-49076420D01*
X114500500Y-48873465D01*
X114500500Y-48666535D01*
X114500499Y-48666530D01*
X114939500Y-48666530D01*
X114939500Y-48873469D01*
X114979868Y-49076412D01*
X114979870Y-49076420D01*
X115045939Y-49235925D01*
X115059059Y-49267598D01*
X115072836Y-49288217D01*
X115174024Y-49439657D01*
X115320342Y-49585975D01*
X115320345Y-49585977D01*
X115492402Y-49700941D01*
X115683580Y-49780130D01*
X115828052Y-49808867D01*
X115886530Y-49820499D01*
X115886534Y-49820500D01*
X115886535Y-49820500D01*
X116093466Y-49820500D01*
X116093467Y-49820499D01*
X116296420Y-49780130D01*
X116487598Y-49700941D01*
X116659655Y-49585977D01*
X116805977Y-49439655D01*
X116920941Y-49267598D01*
X116989165Y-49102889D01*
X117033004Y-49048488D01*
X117099298Y-49026423D01*
X117166998Y-49043702D01*
X117214609Y-49094839D01*
X117221656Y-49112026D01*
X117278904Y-49288216D01*
X117375375Y-49477550D01*
X117414728Y-49531716D01*
X118047037Y-48899408D01*
X118064075Y-48962993D01*
X118129901Y-49077007D01*
X118222993Y-49170099D01*
X118337007Y-49235925D01*
X118400590Y-49252962D01*
X117768282Y-49885269D01*
X117768282Y-49885270D01*
X117822449Y-49924624D01*
X118011782Y-50021095D01*
X118213870Y-50086757D01*
X118423754Y-50120000D01*
X118636246Y-50120000D01*
X118846127Y-50086757D01*
X118846130Y-50086757D01*
X119048217Y-50021095D01*
X119237554Y-49924622D01*
X119291716Y-49885270D01*
X119291717Y-49885270D01*
X118659408Y-49252962D01*
X118722993Y-49235925D01*
X118837007Y-49170099D01*
X118930099Y-49077007D01*
X118995925Y-48962993D01*
X119012962Y-48899408D01*
X119645270Y-49531717D01*
X119645270Y-49531716D01*
X119684622Y-49477554D01*
X119781095Y-49288217D01*
X119838343Y-49112026D01*
X119877780Y-49054351D01*
X119942139Y-49027152D01*
X120010985Y-49039066D01*
X120062461Y-49086310D01*
X120070833Y-49102887D01*
X120074619Y-49112026D01*
X120125939Y-49235925D01*
X120139059Y-49267598D01*
X120152836Y-49288217D01*
X120254024Y-49439657D01*
X120400342Y-49585975D01*
X120572405Y-49700943D01*
X120642952Y-49730164D01*
X120697356Y-49774005D01*
X120719421Y-49840299D01*
X120719500Y-49844725D01*
X120719500Y-53616144D01*
X120732759Y-53665627D01*
X120743385Y-53705286D01*
X120789527Y-53785208D01*
X120789529Y-53785211D01*
X120789530Y-53785212D01*
X121784788Y-54780470D01*
X121864712Y-54826614D01*
X121953856Y-54850500D01*
X121953857Y-54850500D01*
X122046144Y-54850500D01*
X135091324Y-54850500D01*
X135158363Y-54870185D01*
X135179005Y-54886819D01*
X135192686Y-54900500D01*
X135306814Y-54966392D01*
X135434108Y-55000500D01*
X135434110Y-55000500D01*
X135565890Y-55000500D01*
X135565892Y-55000500D01*
X135693186Y-54966392D01*
X135807314Y-54900500D01*
X135900500Y-54807314D01*
X135966392Y-54693186D01*
X136000500Y-54565892D01*
X136000500Y-54434108D01*
X135966392Y-54306814D01*
X135932592Y-54248270D01*
X135916119Y-54180370D01*
X135938971Y-54114343D01*
X135993893Y-54071152D01*
X136039979Y-54062270D01*
X141834372Y-54062270D01*
X141834374Y-54062270D01*
X141923518Y-54038384D01*
X141931790Y-54033608D01*
X142003442Y-53992240D01*
X142458863Y-53536819D01*
X142520186Y-53503334D01*
X142546544Y-53500500D01*
X142565890Y-53500500D01*
X142565892Y-53500500D01*
X142693186Y-53466392D01*
X142807314Y-53400500D01*
X142900500Y-53307314D01*
X142966392Y-53193186D01*
X143000500Y-53065892D01*
X143000500Y-52934108D01*
X142966392Y-52806814D01*
X142900500Y-52692686D01*
X142807314Y-52599500D01*
X142750250Y-52566554D01*
X142693187Y-52533608D01*
X142629539Y-52516554D01*
X142565892Y-52499500D01*
X142434108Y-52499500D01*
X142306812Y-52533608D01*
X142192686Y-52599500D01*
X142192683Y-52599502D01*
X142099502Y-52692683D01*
X142099500Y-52692686D01*
X142033608Y-52806812D01*
X141999500Y-52934108D01*
X141999500Y-52953456D01*
X141979815Y-53020495D01*
X141963181Y-53041137D01*
X141679367Y-53324951D01*
X141618044Y-53358436D01*
X141591686Y-53361270D01*
X137582348Y-53361270D01*
X137515309Y-53341585D01*
X137469554Y-53288781D01*
X137459610Y-53219623D01*
X137464680Y-53201142D01*
X137464288Y-53201037D01*
X137466392Y-53193186D01*
X137500500Y-53065892D01*
X137500500Y-52934108D01*
X137466392Y-52806814D01*
X137400500Y-52692686D01*
X137307314Y-52599500D01*
X137250250Y-52566554D01*
X137193187Y-52533608D01*
X137129539Y-52516554D01*
X137065892Y-52499500D01*
X136934108Y-52499500D01*
X136806812Y-52533608D01*
X136692686Y-52599500D01*
X136692683Y-52599502D01*
X136679005Y-52613181D01*
X136617682Y-52646666D01*
X136591324Y-52649500D01*
X124696544Y-52649500D01*
X124629505Y-52629815D01*
X124608863Y-52613181D01*
X123996819Y-52001137D01*
X123963334Y-51939814D01*
X123960500Y-51913456D01*
X123960500Y-49844725D01*
X123980185Y-49777686D01*
X124032989Y-49731931D01*
X124037048Y-49730164D01*
X124107594Y-49700943D01*
X124107595Y-49700942D01*
X124107598Y-49700941D01*
X124279655Y-49585977D01*
X124425977Y-49439655D01*
X124540941Y-49267598D01*
X124620130Y-49076420D01*
X124660500Y-48873465D01*
X124660500Y-48666535D01*
X124660499Y-48666530D01*
X125099500Y-48666530D01*
X125099500Y-48873469D01*
X125139868Y-49076412D01*
X125139870Y-49076420D01*
X125205939Y-49235925D01*
X125219059Y-49267598D01*
X125232836Y-49288217D01*
X125334024Y-49439657D01*
X125480342Y-49585975D01*
X125652405Y-49700943D01*
X125722952Y-49730164D01*
X125777356Y-49774005D01*
X125799421Y-49840299D01*
X125799500Y-49844725D01*
X125799500Y-51196146D01*
X125806782Y-51223324D01*
X125806800Y-51223387D01*
X125823386Y-51285289D01*
X125823387Y-51285290D01*
X125869527Y-51365208D01*
X125869529Y-51365211D01*
X125869530Y-51365212D01*
X126284788Y-51780470D01*
X126364712Y-51826614D01*
X126453856Y-51850500D01*
X126453857Y-51850500D01*
X126546144Y-51850500D01*
X138091324Y-51850500D01*
X138158363Y-51870185D01*
X138179005Y-51886819D01*
X138192686Y-51900500D01*
X138306814Y-51966392D01*
X138434108Y-52000500D01*
X138434110Y-52000500D01*
X138565890Y-52000500D01*
X138565892Y-52000500D01*
X138693186Y-51966392D01*
X138807314Y-51900500D01*
X138900500Y-51807314D01*
X138966392Y-51693186D01*
X139000500Y-51565892D01*
X139000500Y-51434108D01*
X138966392Y-51306814D01*
X138900500Y-51192686D01*
X138807314Y-51099500D01*
X138776806Y-51081886D01*
X138728592Y-51031319D01*
X138715370Y-50962712D01*
X138741338Y-50897848D01*
X138798252Y-50857320D01*
X138838808Y-50850500D01*
X141091324Y-50850500D01*
X141158363Y-50870185D01*
X141179005Y-50886819D01*
X141192686Y-50900500D01*
X141306814Y-50966392D01*
X141434108Y-51000500D01*
X141434110Y-51000500D01*
X141565890Y-51000500D01*
X141565892Y-51000500D01*
X141693186Y-50966392D01*
X141807314Y-50900500D01*
X141900500Y-50807314D01*
X141966392Y-50693186D01*
X142000500Y-50565892D01*
X142000500Y-50434108D01*
X141966392Y-50306814D01*
X141900500Y-50192686D01*
X141807314Y-50099500D01*
X141724846Y-50051887D01*
X141693185Y-50033607D01*
X141665306Y-50026137D01*
X141605646Y-49989771D01*
X141575118Y-49926924D01*
X141583415Y-49857548D01*
X141627901Y-49803671D01*
X141673211Y-49784746D01*
X141696420Y-49780130D01*
X141887598Y-49700941D01*
X142059655Y-49585977D01*
X142205977Y-49439655D01*
X142320941Y-49267598D01*
X142400130Y-49076420D01*
X142440500Y-48873465D01*
X142440500Y-48666535D01*
X142400130Y-48463580D01*
X142320941Y-48272402D01*
X142205977Y-48100345D01*
X142205975Y-48100342D01*
X142059657Y-47954024D01*
X141891655Y-47841770D01*
X141887598Y-47839059D01*
X141887593Y-47839057D01*
X141696420Y-47759870D01*
X141696412Y-47759868D01*
X141493469Y-47719500D01*
X141493465Y-47719500D01*
X141286535Y-47719500D01*
X141286530Y-47719500D01*
X141083587Y-47759868D01*
X141083579Y-47759870D01*
X140892403Y-47839058D01*
X140720342Y-47954024D01*
X140574024Y-48100342D01*
X140459057Y-48272403D01*
X140390835Y-48437108D01*
X140346994Y-48491511D01*
X140280700Y-48513576D01*
X140213000Y-48496297D01*
X140165390Y-48445159D01*
X140158343Y-48427973D01*
X140101095Y-48251782D01*
X140004624Y-48062449D01*
X139965270Y-48008282D01*
X139965269Y-48008282D01*
X139332962Y-48640590D01*
X139315925Y-48577007D01*
X139250099Y-48462993D01*
X139157007Y-48369901D01*
X139042993Y-48304075D01*
X138979409Y-48287037D01*
X139611716Y-47654728D01*
X139557550Y-47615375D01*
X139368216Y-47518904D01*
X139192026Y-47461656D01*
X139134350Y-47422218D01*
X139107152Y-47357860D01*
X139119067Y-47289013D01*
X139166311Y-47237538D01*
X139182882Y-47229168D01*
X139347598Y-47160941D01*
X139519655Y-47045977D01*
X139665977Y-46899655D01*
X139780941Y-46727598D01*
X139860130Y-46536420D01*
X139900500Y-46333465D01*
X139900500Y-46126535D01*
X139900499Y-46126530D01*
X140339500Y-46126530D01*
X140339500Y-46333469D01*
X140379868Y-46536412D01*
X140379870Y-46536420D01*
X140445939Y-46695925D01*
X140459059Y-46727598D01*
X140472836Y-46748217D01*
X140574024Y-46899657D01*
X140720342Y-47045975D01*
X140720345Y-47045977D01*
X140892402Y-47160941D01*
X141083580Y-47240130D01*
X141248855Y-47273005D01*
X141286530Y-47280499D01*
X141286534Y-47280500D01*
X141286535Y-47280500D01*
X141493466Y-47280500D01*
X141493467Y-47280499D01*
X141696420Y-47240130D01*
X141887598Y-47160941D01*
X142059655Y-47045977D01*
X142205977Y-46899655D01*
X142320941Y-46727598D01*
X142389165Y-46562889D01*
X142433004Y-46508488D01*
X142499298Y-46486423D01*
X142566998Y-46503702D01*
X142614609Y-46554839D01*
X142621656Y-46572026D01*
X142678904Y-46748216D01*
X142775375Y-46937550D01*
X142814728Y-46991716D01*
X143447037Y-46359408D01*
X143464075Y-46422993D01*
X143529901Y-46537007D01*
X143622993Y-46630099D01*
X143737007Y-46695925D01*
X143800590Y-46712962D01*
X143168282Y-47345269D01*
X143168282Y-47345270D01*
X143222449Y-47384624D01*
X143411782Y-47481095D01*
X143587973Y-47538343D01*
X143645648Y-47577780D01*
X143672847Y-47642139D01*
X143660932Y-47710985D01*
X143613688Y-47762461D01*
X143597108Y-47770835D01*
X143432403Y-47839057D01*
X143260342Y-47954024D01*
X143114024Y-48100342D01*
X142999058Y-48272403D01*
X142919870Y-48463579D01*
X142919868Y-48463587D01*
X142879500Y-48666530D01*
X142879500Y-48873469D01*
X142919868Y-49076412D01*
X142919870Y-49076420D01*
X142985939Y-49235925D01*
X142999059Y-49267598D01*
X143012836Y-49288217D01*
X143114024Y-49439657D01*
X143260342Y-49585975D01*
X143260345Y-49585977D01*
X143432402Y-49700941D01*
X143623580Y-49780130D01*
X143768052Y-49808867D01*
X143826530Y-49820499D01*
X143826534Y-49820500D01*
X143826535Y-49820500D01*
X144033466Y-49820500D01*
X144033467Y-49820499D01*
X144236420Y-49780130D01*
X144427598Y-49700941D01*
X144599655Y-49585977D01*
X144745977Y-49439655D01*
X144860941Y-49267598D01*
X144940130Y-49076420D01*
X144980500Y-48873465D01*
X144980500Y-48666535D01*
X144980499Y-48666530D01*
X145419500Y-48666530D01*
X145419500Y-48873469D01*
X145459868Y-49076412D01*
X145459870Y-49076420D01*
X145525939Y-49235925D01*
X145539059Y-49267598D01*
X145552836Y-49288217D01*
X145654024Y-49439657D01*
X145800342Y-49585975D01*
X145800345Y-49585977D01*
X145972402Y-49700941D01*
X146163580Y-49780130D01*
X146308052Y-49808867D01*
X146366530Y-49820499D01*
X146366534Y-49820500D01*
X146366535Y-49820500D01*
X146573466Y-49820500D01*
X146573467Y-49820499D01*
X146776420Y-49780130D01*
X146967598Y-49700941D01*
X147139655Y-49585977D01*
X147285977Y-49439655D01*
X147400941Y-49267598D01*
X147480130Y-49076420D01*
X147520500Y-48873465D01*
X147520500Y-48666535D01*
X147480130Y-48463580D01*
X147400941Y-48272402D01*
X147285977Y-48100345D01*
X147285975Y-48100342D01*
X147139657Y-47954024D01*
X146971655Y-47841770D01*
X146967598Y-47839059D01*
X146967593Y-47839057D01*
X146776420Y-47759870D01*
X146776412Y-47759868D01*
X146573469Y-47719500D01*
X146573465Y-47719500D01*
X146366535Y-47719500D01*
X146366530Y-47719500D01*
X146163587Y-47759868D01*
X146163579Y-47759870D01*
X145972403Y-47839058D01*
X145800342Y-47954024D01*
X145654024Y-48100342D01*
X145539058Y-48272403D01*
X145459870Y-48463579D01*
X145459868Y-48463587D01*
X145419500Y-48666530D01*
X144980499Y-48666530D01*
X144940130Y-48463580D01*
X144860941Y-48272402D01*
X144745977Y-48100345D01*
X144745975Y-48100342D01*
X144599657Y-47954024D01*
X144431655Y-47841770D01*
X144427598Y-47839059D01*
X144427593Y-47839057D01*
X144274028Y-47775448D01*
X144262890Y-47770834D01*
X144208488Y-47726994D01*
X144186423Y-47660700D01*
X144203702Y-47593001D01*
X144254839Y-47545390D01*
X144272026Y-47538343D01*
X144448217Y-47481095D01*
X144637554Y-47384622D01*
X144691716Y-47345270D01*
X144691717Y-47345270D01*
X144059408Y-46712962D01*
X144122993Y-46695925D01*
X144237007Y-46630099D01*
X144330099Y-46537007D01*
X144395925Y-46422993D01*
X144412962Y-46359408D01*
X145045270Y-46991717D01*
X145045270Y-46991716D01*
X145084622Y-46937554D01*
X145181095Y-46748217D01*
X145238343Y-46572026D01*
X145277780Y-46514351D01*
X145342139Y-46487152D01*
X145410985Y-46499066D01*
X145462461Y-46546310D01*
X145470835Y-46562891D01*
X145525939Y-46695925D01*
X145539059Y-46727598D01*
X145552836Y-46748217D01*
X145654024Y-46899657D01*
X145800342Y-47045975D01*
X145800345Y-47045977D01*
X145972402Y-47160941D01*
X146163580Y-47240130D01*
X146328855Y-47273005D01*
X146366530Y-47280499D01*
X146366534Y-47280500D01*
X146366535Y-47280500D01*
X146573466Y-47280500D01*
X146573467Y-47280499D01*
X146776420Y-47240130D01*
X146967598Y-47160941D01*
X147139655Y-47045977D01*
X147285977Y-46899655D01*
X147400941Y-46727598D01*
X147469165Y-46562889D01*
X147513004Y-46508488D01*
X147579298Y-46486423D01*
X147646998Y-46503702D01*
X147694609Y-46554839D01*
X147701656Y-46572026D01*
X147758904Y-46748216D01*
X147855375Y-46937550D01*
X147894728Y-46991716D01*
X148527037Y-46359408D01*
X148544075Y-46422993D01*
X148609901Y-46537007D01*
X148702993Y-46630099D01*
X148817007Y-46695925D01*
X148880590Y-46712962D01*
X148248282Y-47345269D01*
X148248282Y-47345270D01*
X148302449Y-47384624D01*
X148491782Y-47481095D01*
X148667973Y-47538343D01*
X148725648Y-47577780D01*
X148752847Y-47642139D01*
X148740932Y-47710985D01*
X148693688Y-47762461D01*
X148677108Y-47770835D01*
X148512403Y-47839057D01*
X148340342Y-47954024D01*
X148194024Y-48100342D01*
X148079058Y-48272403D01*
X147999870Y-48463579D01*
X147999868Y-48463587D01*
X147959500Y-48666530D01*
X147959500Y-48873469D01*
X147999868Y-49076412D01*
X147999870Y-49076420D01*
X148065939Y-49235925D01*
X148079059Y-49267598D01*
X148092836Y-49288217D01*
X148194024Y-49439657D01*
X148340342Y-49585975D01*
X148340345Y-49585977D01*
X148512402Y-49700941D01*
X148703580Y-49780130D01*
X148848052Y-49808867D01*
X148906530Y-49820499D01*
X148906534Y-49820500D01*
X148906535Y-49820500D01*
X149113466Y-49820500D01*
X149113467Y-49820499D01*
X149316420Y-49780130D01*
X149507598Y-49700941D01*
X149679655Y-49585977D01*
X149825977Y-49439655D01*
X149940941Y-49267598D01*
X150020130Y-49076420D01*
X150060500Y-48873465D01*
X150060500Y-48666535D01*
X150060499Y-48666530D01*
X150499500Y-48666530D01*
X150499500Y-48873469D01*
X150539868Y-49076412D01*
X150539870Y-49076420D01*
X150605939Y-49235925D01*
X150619059Y-49267598D01*
X150632836Y-49288217D01*
X150734024Y-49439657D01*
X150880342Y-49585975D01*
X150880345Y-49585977D01*
X151052402Y-49700941D01*
X151243580Y-49780130D01*
X151388052Y-49808867D01*
X151446530Y-49820499D01*
X151446534Y-49820500D01*
X151446535Y-49820500D01*
X151653466Y-49820500D01*
X151653467Y-49820499D01*
X151856420Y-49780130D01*
X152047598Y-49700941D01*
X152219655Y-49585977D01*
X152365977Y-49439655D01*
X152480941Y-49267598D01*
X152560130Y-49076420D01*
X152600500Y-48873465D01*
X152600500Y-48666535D01*
X152600499Y-48666530D01*
X153039500Y-48666530D01*
X153039500Y-48873469D01*
X153079868Y-49076412D01*
X153079870Y-49076420D01*
X153145939Y-49235925D01*
X153159059Y-49267598D01*
X153172836Y-49288217D01*
X153274024Y-49439657D01*
X153420342Y-49585975D01*
X153420345Y-49585977D01*
X153592402Y-49700941D01*
X153783580Y-49780130D01*
X153928052Y-49808867D01*
X153986530Y-49820499D01*
X153986534Y-49820500D01*
X153986535Y-49820500D01*
X154193466Y-49820500D01*
X154193467Y-49820499D01*
X154396420Y-49780130D01*
X154587598Y-49700941D01*
X154759655Y-49585977D01*
X154905977Y-49439655D01*
X155020941Y-49267598D01*
X155089165Y-49102889D01*
X155133004Y-49048488D01*
X155199298Y-49026423D01*
X155266998Y-49043702D01*
X155314609Y-49094839D01*
X155321656Y-49112026D01*
X155378904Y-49288216D01*
X155475375Y-49477550D01*
X155514728Y-49531716D01*
X156147037Y-48899408D01*
X156164075Y-48962993D01*
X156229901Y-49077007D01*
X156322993Y-49170099D01*
X156437007Y-49235925D01*
X156500590Y-49252962D01*
X155868282Y-49885269D01*
X155868282Y-49885270D01*
X155922449Y-49924624D01*
X156111782Y-50021095D01*
X156313870Y-50086757D01*
X156523754Y-50120000D01*
X156736246Y-50120000D01*
X156946127Y-50086757D01*
X156946130Y-50086757D01*
X157148217Y-50021095D01*
X157337554Y-49924622D01*
X157391716Y-49885270D01*
X157391717Y-49885270D01*
X156759408Y-49252962D01*
X156822993Y-49235925D01*
X156937007Y-49170099D01*
X157030099Y-49077007D01*
X157095925Y-48962993D01*
X157112962Y-48899408D01*
X157745270Y-49531717D01*
X157745270Y-49531716D01*
X157784622Y-49477554D01*
X157881095Y-49288217D01*
X157946757Y-49086130D01*
X157946757Y-49086127D01*
X157980000Y-48876246D01*
X157980000Y-48663753D01*
X157946757Y-48453872D01*
X157946757Y-48453869D01*
X157881095Y-48251782D01*
X157784624Y-48062449D01*
X157745270Y-48008282D01*
X157745269Y-48008282D01*
X157112962Y-48640590D01*
X157095925Y-48577007D01*
X157030099Y-48462993D01*
X156937007Y-48369901D01*
X156822993Y-48304075D01*
X156759409Y-48287037D01*
X157391716Y-47654728D01*
X157337550Y-47615375D01*
X157148216Y-47518904D01*
X157038214Y-47483162D01*
X156972026Y-47461656D01*
X156914350Y-47422218D01*
X156892323Y-47370097D01*
X159849500Y-47370097D01*
X159849500Y-47629902D01*
X159890140Y-47886493D01*
X159970422Y-48133576D01*
X160088368Y-48365054D01*
X160241066Y-48575225D01*
X160241069Y-48575229D01*
X160424771Y-48758931D01*
X160634949Y-48911634D01*
X160782445Y-48986787D01*
X160866423Y-49029577D01*
X160866425Y-49029577D01*
X160866428Y-49029579D01*
X161113507Y-49109860D01*
X161245706Y-49130797D01*
X161370098Y-49150500D01*
X161370103Y-49150500D01*
X161629902Y-49150500D01*
X161746483Y-49132035D01*
X161886493Y-49109860D01*
X162133572Y-49029579D01*
X162365051Y-48911634D01*
X162575229Y-48758931D01*
X162758931Y-48575229D01*
X162911634Y-48365051D01*
X163029579Y-48133572D01*
X163109860Y-47886493D01*
X163134466Y-47731132D01*
X163150500Y-47629902D01*
X163150500Y-47370097D01*
X163128178Y-47229164D01*
X163109860Y-47113507D01*
X163029579Y-46866428D01*
X163029577Y-46866425D01*
X163029577Y-46866423D01*
X162969347Y-46748217D01*
X162911634Y-46634949D01*
X162758931Y-46424771D01*
X162575229Y-46241069D01*
X162559994Y-46230000D01*
X162365054Y-46088368D01*
X162365053Y-46088367D01*
X162365051Y-46088366D01*
X162264254Y-46037007D01*
X162133576Y-45970422D01*
X161886493Y-45890140D01*
X161629902Y-45849500D01*
X161629897Y-45849500D01*
X161370103Y-45849500D01*
X161370098Y-45849500D01*
X161113506Y-45890140D01*
X160866423Y-45970422D01*
X160634945Y-46088368D01*
X160424774Y-46241066D01*
X160424768Y-46241071D01*
X160241071Y-46424768D01*
X160241066Y-46424774D01*
X160088368Y-46634945D01*
X159970422Y-46866423D01*
X159890140Y-47113506D01*
X159849500Y-47370097D01*
X156892323Y-47370097D01*
X156887152Y-47357860D01*
X156899067Y-47289013D01*
X156946311Y-47237538D01*
X156962882Y-47229168D01*
X157127598Y-47160941D01*
X157299655Y-47045977D01*
X157445977Y-46899655D01*
X157560941Y-46727598D01*
X157640130Y-46536420D01*
X157680500Y-46333465D01*
X157680500Y-46126535D01*
X157640130Y-45923580D01*
X157560941Y-45732402D01*
X157445977Y-45560345D01*
X157445975Y-45560342D01*
X157299657Y-45414024D01*
X157184707Y-45337218D01*
X157127598Y-45299059D01*
X156936420Y-45219870D01*
X156936412Y-45219868D01*
X156733469Y-45179500D01*
X156733465Y-45179500D01*
X156526535Y-45179500D01*
X156526530Y-45179500D01*
X156323587Y-45219868D01*
X156323579Y-45219870D01*
X156132403Y-45299058D01*
X155960342Y-45414024D01*
X155814024Y-45560342D01*
X155699058Y-45732403D01*
X155619870Y-45923579D01*
X155619868Y-45923587D01*
X155579500Y-46126530D01*
X155579500Y-46333469D01*
X155619868Y-46536412D01*
X155619870Y-46536420D01*
X155685939Y-46695925D01*
X155699059Y-46727598D01*
X155712836Y-46748217D01*
X155814024Y-46899657D01*
X155960342Y-47045975D01*
X156132405Y-47160943D01*
X156235043Y-47203456D01*
X156297108Y-47229164D01*
X156351511Y-47273005D01*
X156373576Y-47339299D01*
X156356297Y-47406998D01*
X156305160Y-47454609D01*
X156287974Y-47461656D01*
X156111781Y-47518905D01*
X155922439Y-47615380D01*
X155868282Y-47654727D01*
X155868282Y-47654728D01*
X156500591Y-48287037D01*
X156437007Y-48304075D01*
X156322993Y-48369901D01*
X156229901Y-48462993D01*
X156164075Y-48577007D01*
X156147037Y-48640591D01*
X155514728Y-48008282D01*
X155514727Y-48008282D01*
X155475380Y-48062439D01*
X155378905Y-48251781D01*
X155321656Y-48427974D01*
X155282218Y-48485649D01*
X155217859Y-48512847D01*
X155149013Y-48500932D01*
X155097537Y-48453688D01*
X155089164Y-48437107D01*
X155020943Y-48272405D01*
X154905975Y-48100342D01*
X154759657Y-47954024D01*
X154591655Y-47841770D01*
X154587598Y-47839059D01*
X154587593Y-47839057D01*
X154396420Y-47759870D01*
X154396412Y-47759868D01*
X154193469Y-47719500D01*
X154193465Y-47719500D01*
X153986535Y-47719500D01*
X153986530Y-47719500D01*
X153783587Y-47759868D01*
X153783579Y-47759870D01*
X153592403Y-47839058D01*
X153420342Y-47954024D01*
X153274024Y-48100342D01*
X153159058Y-48272403D01*
X153079870Y-48463579D01*
X153079868Y-48463587D01*
X153039500Y-48666530D01*
X152600499Y-48666530D01*
X152560130Y-48463580D01*
X152480941Y-48272402D01*
X152365977Y-48100345D01*
X152365975Y-48100342D01*
X152219657Y-47954024D01*
X152051655Y-47841770D01*
X152047598Y-47839059D01*
X152047593Y-47839057D01*
X151856420Y-47759870D01*
X151856412Y-47759868D01*
X151653469Y-47719500D01*
X151653465Y-47719500D01*
X151446535Y-47719500D01*
X151446530Y-47719500D01*
X151243587Y-47759868D01*
X151243579Y-47759870D01*
X151052403Y-47839058D01*
X150880342Y-47954024D01*
X150734024Y-48100342D01*
X150619058Y-48272403D01*
X150539870Y-48463579D01*
X150539868Y-48463587D01*
X150499500Y-48666530D01*
X150060499Y-48666530D01*
X150020130Y-48463580D01*
X149940941Y-48272402D01*
X149825977Y-48100345D01*
X149825975Y-48100342D01*
X149679657Y-47954024D01*
X149511655Y-47841770D01*
X149507598Y-47839059D01*
X149507593Y-47839057D01*
X149354028Y-47775448D01*
X149342890Y-47770834D01*
X149288488Y-47726994D01*
X149266423Y-47660700D01*
X149283702Y-47593001D01*
X149334839Y-47545390D01*
X149352026Y-47538343D01*
X149528217Y-47481095D01*
X149717554Y-47384622D01*
X149771716Y-47345270D01*
X149771717Y-47345270D01*
X149139408Y-46712962D01*
X149202993Y-46695925D01*
X149317007Y-46630099D01*
X149410099Y-46537007D01*
X149475925Y-46422993D01*
X149492962Y-46359408D01*
X150125270Y-46991717D01*
X150125270Y-46991716D01*
X150164622Y-46937554D01*
X150261095Y-46748217D01*
X150318343Y-46572026D01*
X150357780Y-46514351D01*
X150422139Y-46487152D01*
X150490985Y-46499066D01*
X150542461Y-46546310D01*
X150550835Y-46562891D01*
X150605939Y-46695925D01*
X150619059Y-46727598D01*
X150632836Y-46748217D01*
X150734024Y-46899657D01*
X150880342Y-47045975D01*
X150880345Y-47045977D01*
X151052402Y-47160941D01*
X151243580Y-47240130D01*
X151408855Y-47273005D01*
X151446530Y-47280499D01*
X151446534Y-47280500D01*
X151446535Y-47280500D01*
X151653466Y-47280500D01*
X151653467Y-47280499D01*
X151856420Y-47240130D01*
X152047598Y-47160941D01*
X152219655Y-47045977D01*
X152365977Y-46899655D01*
X152480941Y-46727598D01*
X152560130Y-46536420D01*
X152600500Y-46333465D01*
X152600500Y-46126535D01*
X152600499Y-46126530D01*
X153039500Y-46126530D01*
X153039500Y-46333469D01*
X153079868Y-46536412D01*
X153079870Y-46536420D01*
X153145939Y-46695925D01*
X153159059Y-46727598D01*
X153172836Y-46748217D01*
X153274024Y-46899657D01*
X153420342Y-47045975D01*
X153420345Y-47045977D01*
X153592402Y-47160941D01*
X153783580Y-47240130D01*
X153948855Y-47273005D01*
X153986530Y-47280499D01*
X153986534Y-47280500D01*
X153986535Y-47280500D01*
X154193466Y-47280500D01*
X154193467Y-47280499D01*
X154396420Y-47240130D01*
X154587598Y-47160941D01*
X154759655Y-47045977D01*
X154905977Y-46899655D01*
X155020941Y-46727598D01*
X155100130Y-46536420D01*
X155140500Y-46333465D01*
X155140500Y-46126535D01*
X155100130Y-45923580D01*
X155020941Y-45732402D01*
X154905977Y-45560345D01*
X154905975Y-45560342D01*
X154759657Y-45414024D01*
X154644707Y-45337218D01*
X154587598Y-45299059D01*
X154396420Y-45219870D01*
X154396412Y-45219868D01*
X154193469Y-45179500D01*
X154193465Y-45179500D01*
X153986535Y-45179500D01*
X153986530Y-45179500D01*
X153783587Y-45219868D01*
X153783579Y-45219870D01*
X153592403Y-45299058D01*
X153420342Y-45414024D01*
X153274024Y-45560342D01*
X153159058Y-45732403D01*
X153079870Y-45923579D01*
X153079868Y-45923587D01*
X153039500Y-46126530D01*
X152600499Y-46126530D01*
X152560130Y-45923580D01*
X152480941Y-45732402D01*
X152365977Y-45560345D01*
X152365975Y-45560342D01*
X152219657Y-45414024D01*
X152104707Y-45337218D01*
X152047598Y-45299059D01*
X151856420Y-45219870D01*
X151856412Y-45219868D01*
X151653469Y-45179500D01*
X151653465Y-45179500D01*
X151446535Y-45179500D01*
X151446530Y-45179500D01*
X151243587Y-45219868D01*
X151243579Y-45219870D01*
X151052403Y-45299058D01*
X150880342Y-45414024D01*
X150734024Y-45560342D01*
X150619057Y-45732403D01*
X150550835Y-45897108D01*
X150506994Y-45951511D01*
X150440700Y-45973576D01*
X150373000Y-45956297D01*
X150325390Y-45905159D01*
X150318343Y-45887973D01*
X150261095Y-45711782D01*
X150164624Y-45522449D01*
X150125270Y-45468282D01*
X150125269Y-45468282D01*
X149492962Y-46100590D01*
X149475925Y-46037007D01*
X149410099Y-45922993D01*
X149317007Y-45829901D01*
X149202993Y-45764075D01*
X149139409Y-45747037D01*
X149771716Y-45114728D01*
X149717550Y-45075375D01*
X149528217Y-44978904D01*
X149326129Y-44913242D01*
X149116246Y-44880000D01*
X148903754Y-44880000D01*
X148693872Y-44913242D01*
X148693869Y-44913242D01*
X148491782Y-44978904D01*
X148302439Y-45075380D01*
X148248282Y-45114727D01*
X148248282Y-45114728D01*
X148880591Y-45747037D01*
X148817007Y-45764075D01*
X148702993Y-45829901D01*
X148609901Y-45922993D01*
X148544075Y-46037007D01*
X148527037Y-46100591D01*
X147894728Y-45468282D01*
X147894727Y-45468282D01*
X147855380Y-45522439D01*
X147758905Y-45711781D01*
X147701656Y-45887974D01*
X147662218Y-45945649D01*
X147597859Y-45972847D01*
X147529013Y-45960932D01*
X147477537Y-45913688D01*
X147469164Y-45897107D01*
X147466278Y-45890140D01*
X147441327Y-45829901D01*
X147400943Y-45732405D01*
X147285975Y-45560342D01*
X147139657Y-45414024D01*
X147024707Y-45337218D01*
X146967598Y-45299059D01*
X146776420Y-45219870D01*
X146776412Y-45219868D01*
X146573469Y-45179500D01*
X146573465Y-45179500D01*
X146366535Y-45179500D01*
X146366530Y-45179500D01*
X146163587Y-45219868D01*
X146163579Y-45219870D01*
X145972403Y-45299058D01*
X145800342Y-45414024D01*
X145654024Y-45560342D01*
X145539057Y-45732403D01*
X145470835Y-45897108D01*
X145426994Y-45951511D01*
X145360700Y-45973576D01*
X145293000Y-45956297D01*
X145245390Y-45905159D01*
X145238343Y-45887973D01*
X145181095Y-45711782D01*
X145084624Y-45522449D01*
X145045270Y-45468282D01*
X145045269Y-45468282D01*
X144412962Y-46100590D01*
X144395925Y-46037007D01*
X144330099Y-45922993D01*
X144237007Y-45829901D01*
X144122993Y-45764075D01*
X144059409Y-45747037D01*
X144691716Y-45114728D01*
X144637550Y-45075375D01*
X144448217Y-44978904D01*
X144246129Y-44913242D01*
X144036246Y-44880000D01*
X143823754Y-44880000D01*
X143613872Y-44913242D01*
X143613869Y-44913242D01*
X143411782Y-44978904D01*
X143222439Y-45075380D01*
X143168282Y-45114727D01*
X143168282Y-45114728D01*
X143800591Y-45747037D01*
X143737007Y-45764075D01*
X143622993Y-45829901D01*
X143529901Y-45922993D01*
X143464075Y-46037007D01*
X143447037Y-46100591D01*
X142814728Y-45468282D01*
X142814727Y-45468282D01*
X142775380Y-45522439D01*
X142678905Y-45711781D01*
X142621656Y-45887974D01*
X142582218Y-45945649D01*
X142517859Y-45972847D01*
X142449013Y-45960932D01*
X142397537Y-45913688D01*
X142389164Y-45897107D01*
X142386278Y-45890140D01*
X142361327Y-45829901D01*
X142320943Y-45732405D01*
X142205975Y-45560342D01*
X142059657Y-45414024D01*
X141944707Y-45337218D01*
X141887598Y-45299059D01*
X141696420Y-45219870D01*
X141696412Y-45219868D01*
X141493469Y-45179500D01*
X141493465Y-45179500D01*
X141286535Y-45179500D01*
X141286530Y-45179500D01*
X141083587Y-45219868D01*
X141083579Y-45219870D01*
X140892403Y-45299058D01*
X140720342Y-45414024D01*
X140574024Y-45560342D01*
X140459058Y-45732403D01*
X140379870Y-45923579D01*
X140379868Y-45923587D01*
X140339500Y-46126530D01*
X139900499Y-46126530D01*
X139860130Y-45923580D01*
X139780941Y-45732402D01*
X139665977Y-45560345D01*
X139665975Y-45560342D01*
X139519657Y-45414024D01*
X139404707Y-45337218D01*
X139347598Y-45299059D01*
X139156420Y-45219870D01*
X139156412Y-45219868D01*
X138953469Y-45179500D01*
X138953465Y-45179500D01*
X138746535Y-45179500D01*
X138746530Y-45179500D01*
X138543587Y-45219868D01*
X138543579Y-45219870D01*
X138352403Y-45299058D01*
X138180342Y-45414024D01*
X138034024Y-45560342D01*
X137919058Y-45732403D01*
X137839870Y-45923579D01*
X137839868Y-45923587D01*
X137799500Y-46126530D01*
X137799500Y-46333469D01*
X137839868Y-46536412D01*
X137839870Y-46536420D01*
X137905939Y-46695925D01*
X137919059Y-46727598D01*
X137932836Y-46748217D01*
X138034024Y-46899657D01*
X138180342Y-47045975D01*
X138352405Y-47160943D01*
X138455043Y-47203456D01*
X138517108Y-47229164D01*
X138571511Y-47273005D01*
X138593576Y-47339299D01*
X138576297Y-47406998D01*
X138525160Y-47454609D01*
X138507974Y-47461656D01*
X138331781Y-47518905D01*
X138142439Y-47615380D01*
X138088282Y-47654727D01*
X138088282Y-47654728D01*
X138720591Y-48287037D01*
X138657007Y-48304075D01*
X138542993Y-48369901D01*
X138449901Y-48462993D01*
X138384075Y-48577007D01*
X138367037Y-48640591D01*
X137734728Y-48008282D01*
X137734727Y-48008282D01*
X137695380Y-48062439D01*
X137598905Y-48251781D01*
X137541656Y-48427974D01*
X137502218Y-48485649D01*
X137437859Y-48512847D01*
X137369013Y-48500932D01*
X137317537Y-48453688D01*
X137309164Y-48437107D01*
X137240943Y-48272405D01*
X137125975Y-48100342D01*
X136979657Y-47954024D01*
X136811655Y-47841770D01*
X136807598Y-47839059D01*
X136807593Y-47839057D01*
X136616420Y-47759870D01*
X136616412Y-47759868D01*
X136413469Y-47719500D01*
X136413465Y-47719500D01*
X136206535Y-47719500D01*
X136206530Y-47719500D01*
X136003587Y-47759868D01*
X136003579Y-47759870D01*
X135812403Y-47839058D01*
X135640342Y-47954024D01*
X135494024Y-48100342D01*
X135379058Y-48272403D01*
X135299870Y-48463579D01*
X135299868Y-48463587D01*
X135259500Y-48666530D01*
X135259500Y-48873469D01*
X135299868Y-49076412D01*
X135299870Y-49076420D01*
X135365939Y-49235925D01*
X135379059Y-49267598D01*
X135392836Y-49288217D01*
X135494024Y-49439657D01*
X135640342Y-49585975D01*
X135640345Y-49585977D01*
X135812402Y-49700941D01*
X136003580Y-49780130D01*
X136148052Y-49808867D01*
X136206530Y-49820499D01*
X136206534Y-49820500D01*
X136206535Y-49820500D01*
X136413466Y-49820500D01*
X136413467Y-49820499D01*
X136616420Y-49780130D01*
X136807598Y-49700941D01*
X136979655Y-49585977D01*
X137125977Y-49439655D01*
X137240941Y-49267598D01*
X137309165Y-49102889D01*
X137353004Y-49048488D01*
X137419298Y-49026423D01*
X137486998Y-49043702D01*
X137534609Y-49094839D01*
X137541656Y-49112026D01*
X137598904Y-49288216D01*
X137695375Y-49477550D01*
X137734728Y-49531716D01*
X138367037Y-48899408D01*
X138384075Y-48962993D01*
X138449901Y-49077007D01*
X138542993Y-49170099D01*
X138657007Y-49235925D01*
X138720590Y-49252962D01*
X138088282Y-49885269D01*
X138088282Y-49885271D01*
X138143215Y-49925182D01*
X138185881Y-49980511D01*
X138191860Y-50050125D01*
X138159255Y-50111920D01*
X138098416Y-50146277D01*
X138070330Y-50149500D01*
X131908676Y-50149500D01*
X131841637Y-50129815D01*
X131820995Y-50113181D01*
X131807316Y-50099502D01*
X131807314Y-50099500D01*
X131693186Y-50033608D01*
X131579259Y-50003081D01*
X131519600Y-49966717D01*
X131489071Y-49903870D01*
X131497366Y-49834494D01*
X131541851Y-49780616D01*
X131563897Y-49768748D01*
X131673257Y-49723450D01*
X131727594Y-49700943D01*
X131727595Y-49700942D01*
X131727598Y-49700941D01*
X131899655Y-49585977D01*
X132045977Y-49439655D01*
X132160941Y-49267598D01*
X132240130Y-49076420D01*
X132280500Y-48873465D01*
X132280500Y-48666535D01*
X132280499Y-48666530D01*
X132719500Y-48666530D01*
X132719500Y-48873469D01*
X132759868Y-49076412D01*
X132759870Y-49076420D01*
X132825939Y-49235925D01*
X132839059Y-49267598D01*
X132852836Y-49288217D01*
X132954024Y-49439657D01*
X133100342Y-49585975D01*
X133100345Y-49585977D01*
X133272402Y-49700941D01*
X133463580Y-49780130D01*
X133608052Y-49808867D01*
X133666530Y-49820499D01*
X133666534Y-49820500D01*
X133666535Y-49820500D01*
X133873466Y-49820500D01*
X133873467Y-49820499D01*
X134076420Y-49780130D01*
X134267598Y-49700941D01*
X134439655Y-49585977D01*
X134585977Y-49439655D01*
X134700941Y-49267598D01*
X134780130Y-49076420D01*
X134820500Y-48873465D01*
X134820500Y-48666535D01*
X134780130Y-48463580D01*
X134700941Y-48272402D01*
X134585977Y-48100345D01*
X134585975Y-48100342D01*
X134439657Y-47954024D01*
X134271655Y-47841770D01*
X134267598Y-47839059D01*
X134267593Y-47839057D01*
X134076420Y-47759870D01*
X134076412Y-47759868D01*
X133873469Y-47719500D01*
X133873465Y-47719500D01*
X133666535Y-47719500D01*
X133666530Y-47719500D01*
X133463587Y-47759868D01*
X133463579Y-47759870D01*
X133272403Y-47839058D01*
X133100342Y-47954024D01*
X132954024Y-48100342D01*
X132839058Y-48272403D01*
X132759870Y-48463579D01*
X132759868Y-48463587D01*
X132719500Y-48666530D01*
X132280499Y-48666530D01*
X132240130Y-48463580D01*
X132160941Y-48272402D01*
X132045977Y-48100345D01*
X132045975Y-48100342D01*
X131899657Y-47954024D01*
X131731655Y-47841770D01*
X131727598Y-47839059D01*
X131727593Y-47839057D01*
X131574028Y-47775448D01*
X131562890Y-47770834D01*
X131508488Y-47726994D01*
X131486423Y-47660700D01*
X131503702Y-47593001D01*
X131554839Y-47545390D01*
X131572026Y-47538343D01*
X131748217Y-47481095D01*
X131937554Y-47384622D01*
X131991716Y-47345270D01*
X131991717Y-47345270D01*
X131359408Y-46712962D01*
X131422993Y-46695925D01*
X131537007Y-46630099D01*
X131630099Y-46537007D01*
X131695925Y-46422993D01*
X131712962Y-46359408D01*
X132345270Y-46991717D01*
X132345270Y-46991716D01*
X132384622Y-46937554D01*
X132481095Y-46748217D01*
X132538343Y-46572026D01*
X132577780Y-46514351D01*
X132642139Y-46487152D01*
X132710985Y-46499066D01*
X132762461Y-46546310D01*
X132770835Y-46562891D01*
X132825939Y-46695925D01*
X132839059Y-46727598D01*
X132852836Y-46748217D01*
X132954024Y-46899657D01*
X133100342Y-47045975D01*
X133100345Y-47045977D01*
X133272402Y-47160941D01*
X133463580Y-47240130D01*
X133628855Y-47273005D01*
X133666530Y-47280499D01*
X133666534Y-47280500D01*
X133666535Y-47280500D01*
X133873466Y-47280500D01*
X133873467Y-47280499D01*
X134076420Y-47240130D01*
X134267598Y-47160941D01*
X134439655Y-47045977D01*
X134585977Y-46899655D01*
X134700941Y-46727598D01*
X134780130Y-46536420D01*
X134820500Y-46333465D01*
X134820500Y-46126535D01*
X134820499Y-46126530D01*
X135259500Y-46126530D01*
X135259500Y-46333469D01*
X135299868Y-46536412D01*
X135299870Y-46536420D01*
X135365939Y-46695925D01*
X135379059Y-46727598D01*
X135392836Y-46748217D01*
X135494024Y-46899657D01*
X135640342Y-47045975D01*
X135640345Y-47045977D01*
X135812402Y-47160941D01*
X136003580Y-47240130D01*
X136168855Y-47273005D01*
X136206530Y-47280499D01*
X136206534Y-47280500D01*
X136206535Y-47280500D01*
X136413466Y-47280500D01*
X136413467Y-47280499D01*
X136616420Y-47240130D01*
X136807598Y-47160941D01*
X136979655Y-47045977D01*
X137125977Y-46899655D01*
X137240941Y-46727598D01*
X137320130Y-46536420D01*
X137360500Y-46333465D01*
X137360500Y-46126535D01*
X137320130Y-45923580D01*
X137240941Y-45732402D01*
X137125977Y-45560345D01*
X137125975Y-45560342D01*
X136979657Y-45414024D01*
X136864707Y-45337218D01*
X136807598Y-45299059D01*
X136616420Y-45219870D01*
X136616412Y-45219868D01*
X136413469Y-45179500D01*
X136413465Y-45179500D01*
X136206535Y-45179500D01*
X136206530Y-45179500D01*
X136003587Y-45219868D01*
X136003579Y-45219870D01*
X135812403Y-45299058D01*
X135640342Y-45414024D01*
X135494024Y-45560342D01*
X135379058Y-45732403D01*
X135299870Y-45923579D01*
X135299868Y-45923587D01*
X135259500Y-46126530D01*
X134820499Y-46126530D01*
X134780130Y-45923580D01*
X134700941Y-45732402D01*
X134585977Y-45560345D01*
X134585975Y-45560342D01*
X134439657Y-45414024D01*
X134324707Y-45337218D01*
X134267598Y-45299059D01*
X134076420Y-45219870D01*
X134076412Y-45219868D01*
X133873469Y-45179500D01*
X133873465Y-45179500D01*
X133666535Y-45179500D01*
X133666530Y-45179500D01*
X133463587Y-45219868D01*
X133463579Y-45219870D01*
X133272403Y-45299058D01*
X133100342Y-45414024D01*
X132954024Y-45560342D01*
X132839057Y-45732403D01*
X132770835Y-45897108D01*
X132726994Y-45951511D01*
X132660700Y-45973576D01*
X132593000Y-45956297D01*
X132545390Y-45905159D01*
X132538343Y-45887973D01*
X132481095Y-45711782D01*
X132384624Y-45522449D01*
X132345270Y-45468282D01*
X132345269Y-45468282D01*
X131712962Y-46100590D01*
X131695925Y-46037007D01*
X131630099Y-45922993D01*
X131537007Y-45829901D01*
X131422993Y-45764075D01*
X131359409Y-45747037D01*
X131991716Y-45114728D01*
X131937550Y-45075375D01*
X131748217Y-44978904D01*
X131546129Y-44913242D01*
X131336246Y-44880000D01*
X131123754Y-44880000D01*
X130913872Y-44913242D01*
X130913869Y-44913242D01*
X130711782Y-44978904D01*
X130522439Y-45075380D01*
X130468282Y-45114727D01*
X130468282Y-45114728D01*
X131100591Y-45747037D01*
X131037007Y-45764075D01*
X130922993Y-45829901D01*
X130829901Y-45922993D01*
X130764075Y-46037007D01*
X130747037Y-46100591D01*
X130114728Y-45468282D01*
X130114727Y-45468282D01*
X130075380Y-45522439D01*
X129978905Y-45711781D01*
X129921656Y-45887974D01*
X129882218Y-45945649D01*
X129817859Y-45972847D01*
X129749013Y-45960932D01*
X129697537Y-45913688D01*
X129689164Y-45897107D01*
X129686278Y-45890140D01*
X129661327Y-45829901D01*
X129620943Y-45732405D01*
X129505975Y-45560342D01*
X129359657Y-45414024D01*
X129244707Y-45337218D01*
X129187598Y-45299059D01*
X128996420Y-45219870D01*
X128996412Y-45219868D01*
X128793469Y-45179500D01*
X128793465Y-45179500D01*
X128586535Y-45179500D01*
X128586530Y-45179500D01*
X128383587Y-45219868D01*
X128383579Y-45219870D01*
X128192403Y-45299058D01*
X128020342Y-45414024D01*
X127874024Y-45560342D01*
X127759058Y-45732403D01*
X127679870Y-45923579D01*
X127679868Y-45923587D01*
X127639500Y-46126530D01*
X127639500Y-46333469D01*
X127679868Y-46536412D01*
X127679870Y-46536420D01*
X127745939Y-46695925D01*
X127759059Y-46727598D01*
X127772836Y-46748217D01*
X127874024Y-46899657D01*
X128020342Y-47045975D01*
X128020345Y-47045977D01*
X128192402Y-47160941D01*
X128383580Y-47240130D01*
X128548855Y-47273005D01*
X128586530Y-47280499D01*
X128586534Y-47280500D01*
X128586535Y-47280500D01*
X128793466Y-47280500D01*
X128793467Y-47280499D01*
X128996420Y-47240130D01*
X129187598Y-47160941D01*
X129359655Y-47045977D01*
X129505977Y-46899655D01*
X129620941Y-46727598D01*
X129689165Y-46562889D01*
X129733004Y-46508488D01*
X129799298Y-46486423D01*
X129866998Y-46503702D01*
X129914609Y-46554839D01*
X129921656Y-46572026D01*
X129978904Y-46748216D01*
X130075375Y-46937550D01*
X130114728Y-46991716D01*
X130747037Y-46359408D01*
X130764075Y-46422993D01*
X130829901Y-46537007D01*
X130922993Y-46630099D01*
X131037007Y-46695925D01*
X131100590Y-46712962D01*
X130468282Y-47345269D01*
X130468282Y-47345270D01*
X130522449Y-47384624D01*
X130711782Y-47481095D01*
X130887973Y-47538343D01*
X130945648Y-47577780D01*
X130972847Y-47642139D01*
X130960932Y-47710985D01*
X130913688Y-47762461D01*
X130897108Y-47770835D01*
X130732403Y-47839057D01*
X130560342Y-47954024D01*
X130414024Y-48100342D01*
X130299058Y-48272403D01*
X130219870Y-48463579D01*
X130219868Y-48463587D01*
X130179500Y-48666530D01*
X130179500Y-48873469D01*
X130219868Y-49076412D01*
X130219870Y-49076420D01*
X130285939Y-49235925D01*
X130299059Y-49267598D01*
X130312836Y-49288217D01*
X130414024Y-49439657D01*
X130560342Y-49585975D01*
X130560345Y-49585977D01*
X130732402Y-49700941D01*
X130923580Y-49780130D01*
X131068052Y-49808867D01*
X131126530Y-49820499D01*
X131126534Y-49820500D01*
X131213153Y-49820500D01*
X131280192Y-49840185D01*
X131325947Y-49892989D01*
X131335891Y-49962147D01*
X131306866Y-50025703D01*
X131275154Y-50051887D01*
X131192686Y-50099500D01*
X131192683Y-50099502D01*
X131099502Y-50192683D01*
X131099500Y-50192686D01*
X131033608Y-50306812D01*
X130999500Y-50434108D01*
X130999500Y-50565891D01*
X131033608Y-50693187D01*
X131066554Y-50750250D01*
X131099500Y-50807314D01*
X131192686Y-50900500D01*
X131223193Y-50918113D01*
X131271408Y-50968681D01*
X131284630Y-51037288D01*
X131258662Y-51102152D01*
X131201748Y-51142680D01*
X131161192Y-51149500D01*
X126696544Y-51149500D01*
X126667103Y-51140855D01*
X126637117Y-51134332D01*
X126632101Y-51130577D01*
X126629505Y-51129815D01*
X126608863Y-51113181D01*
X126536819Y-51041137D01*
X126503334Y-50979814D01*
X126500500Y-50953456D01*
X126500500Y-49844725D01*
X126520185Y-49777686D01*
X126572989Y-49731931D01*
X126577048Y-49730164D01*
X126647594Y-49700943D01*
X126647595Y-49700942D01*
X126647598Y-49700941D01*
X126819655Y-49585977D01*
X126965977Y-49439655D01*
X127080941Y-49267598D01*
X127160130Y-49076420D01*
X127200500Y-48873465D01*
X127200500Y-48666535D01*
X127200499Y-48666530D01*
X127639500Y-48666530D01*
X127639500Y-48873469D01*
X127679868Y-49076412D01*
X127679870Y-49076420D01*
X127745939Y-49235925D01*
X127759059Y-49267598D01*
X127772836Y-49288217D01*
X127874024Y-49439657D01*
X128020342Y-49585975D01*
X128020345Y-49585977D01*
X128192402Y-49700941D01*
X128383580Y-49780130D01*
X128528052Y-49808867D01*
X128586530Y-49820499D01*
X128586534Y-49820500D01*
X128586535Y-49820500D01*
X128793466Y-49820500D01*
X128793467Y-49820499D01*
X128996420Y-49780130D01*
X129187598Y-49700941D01*
X129359655Y-49585977D01*
X129505977Y-49439655D01*
X129620941Y-49267598D01*
X129700130Y-49076420D01*
X129740500Y-48873465D01*
X129740500Y-48666535D01*
X129700130Y-48463580D01*
X129620941Y-48272402D01*
X129505977Y-48100345D01*
X129505975Y-48100342D01*
X129359657Y-47954024D01*
X129191655Y-47841770D01*
X129187598Y-47839059D01*
X129187593Y-47839057D01*
X128996420Y-47759870D01*
X128996412Y-47759868D01*
X128793469Y-47719500D01*
X128793465Y-47719500D01*
X128586535Y-47719500D01*
X128586530Y-47719500D01*
X128383587Y-47759868D01*
X128383579Y-47759870D01*
X128192403Y-47839058D01*
X128020342Y-47954024D01*
X127874024Y-48100342D01*
X127759058Y-48272403D01*
X127679870Y-48463579D01*
X127679868Y-48463587D01*
X127639500Y-48666530D01*
X127200499Y-48666530D01*
X127160130Y-48463580D01*
X127080941Y-48272402D01*
X126965977Y-48100345D01*
X126965975Y-48100342D01*
X126819657Y-47954024D01*
X126651655Y-47841770D01*
X126647598Y-47839059D01*
X126647593Y-47839057D01*
X126456420Y-47759870D01*
X126456412Y-47759868D01*
X126253469Y-47719500D01*
X126253465Y-47719500D01*
X126046535Y-47719500D01*
X126046530Y-47719500D01*
X125843587Y-47759868D01*
X125843579Y-47759870D01*
X125652403Y-47839058D01*
X125480342Y-47954024D01*
X125334024Y-48100342D01*
X125219058Y-48272403D01*
X125139870Y-48463579D01*
X125139868Y-48463587D01*
X125099500Y-48666530D01*
X124660499Y-48666530D01*
X124620130Y-48463580D01*
X124540941Y-48272402D01*
X124425977Y-48100345D01*
X124425975Y-48100342D01*
X124279657Y-47954024D01*
X124111655Y-47841770D01*
X124107598Y-47839059D01*
X124107593Y-47839057D01*
X123954028Y-47775448D01*
X123942890Y-47770834D01*
X123888488Y-47726994D01*
X123866423Y-47660700D01*
X123883702Y-47593001D01*
X123934839Y-47545390D01*
X123952026Y-47538343D01*
X124128217Y-47481095D01*
X124317554Y-47384622D01*
X124371716Y-47345270D01*
X124371717Y-47345270D01*
X123739408Y-46712962D01*
X123802993Y-46695925D01*
X123917007Y-46630099D01*
X124010099Y-46537007D01*
X124075925Y-46422993D01*
X124092962Y-46359409D01*
X124725270Y-46991717D01*
X124725270Y-46991716D01*
X124764622Y-46937554D01*
X124861095Y-46748217D01*
X124918343Y-46572026D01*
X124957780Y-46514351D01*
X125022139Y-46487152D01*
X125090985Y-46499066D01*
X125142461Y-46546310D01*
X125150835Y-46562891D01*
X125205939Y-46695925D01*
X125219059Y-46727598D01*
X125232836Y-46748217D01*
X125334024Y-46899657D01*
X125480342Y-47045975D01*
X125480345Y-47045977D01*
X125652402Y-47160941D01*
X125843580Y-47240130D01*
X126008855Y-47273005D01*
X126046530Y-47280499D01*
X126046534Y-47280500D01*
X126046535Y-47280500D01*
X126253466Y-47280500D01*
X126253467Y-47280499D01*
X126456420Y-47240130D01*
X126647598Y-47160941D01*
X126819655Y-47045977D01*
X126965977Y-46899655D01*
X127080941Y-46727598D01*
X127160130Y-46536420D01*
X127200500Y-46333465D01*
X127200500Y-46126535D01*
X127160130Y-45923580D01*
X127080941Y-45732402D01*
X126965977Y-45560345D01*
X126965975Y-45560342D01*
X126819657Y-45414024D01*
X126704707Y-45337218D01*
X126647598Y-45299059D01*
X126456420Y-45219870D01*
X126456412Y-45219868D01*
X126253469Y-45179500D01*
X126253465Y-45179500D01*
X126046535Y-45179500D01*
X126046530Y-45179500D01*
X125843587Y-45219868D01*
X125843579Y-45219870D01*
X125652403Y-45299058D01*
X125480342Y-45414024D01*
X125334024Y-45560342D01*
X125219057Y-45732403D01*
X125150835Y-45897108D01*
X125106994Y-45951511D01*
X125040700Y-45973576D01*
X124973000Y-45956297D01*
X124925390Y-45905159D01*
X124918343Y-45887973D01*
X124861095Y-45711782D01*
X124764624Y-45522449D01*
X124725270Y-45468282D01*
X124725269Y-45468282D01*
X124092962Y-46100590D01*
X124075925Y-46037007D01*
X124010099Y-45922993D01*
X123917007Y-45829901D01*
X123802993Y-45764075D01*
X123739409Y-45747037D01*
X124371716Y-45114728D01*
X124317550Y-45075375D01*
X124128217Y-44978904D01*
X123926129Y-44913242D01*
X123716246Y-44880000D01*
X123503754Y-44880000D01*
X123293872Y-44913242D01*
X123293869Y-44913242D01*
X123091782Y-44978904D01*
X122902439Y-45075380D01*
X122848282Y-45114727D01*
X122848282Y-45114728D01*
X123480591Y-45747037D01*
X123417007Y-45764075D01*
X123302993Y-45829901D01*
X123209901Y-45922993D01*
X123144075Y-46037007D01*
X123127037Y-46100591D01*
X122494728Y-45468282D01*
X122494727Y-45468282D01*
X122455380Y-45522439D01*
X122358905Y-45711781D01*
X122301656Y-45887974D01*
X122262218Y-45945649D01*
X122197859Y-45972847D01*
X122129013Y-45960932D01*
X122077537Y-45913688D01*
X122069164Y-45897107D01*
X122066278Y-45890140D01*
X122041327Y-45829901D01*
X122000943Y-45732405D01*
X121885975Y-45560342D01*
X121739657Y-45414024D01*
X121624707Y-45337218D01*
X121567598Y-45299059D01*
X121376420Y-45219870D01*
X121376412Y-45219868D01*
X121173469Y-45179500D01*
X121173465Y-45179500D01*
X120966535Y-45179500D01*
X120966530Y-45179500D01*
X120763587Y-45219868D01*
X120763579Y-45219870D01*
X120572403Y-45299058D01*
X120400342Y-45414024D01*
X120254024Y-45560342D01*
X120139058Y-45732403D01*
X120059870Y-45923579D01*
X120059868Y-45923587D01*
X120019500Y-46126530D01*
X120019500Y-46333469D01*
X120059868Y-46536412D01*
X120059870Y-46536420D01*
X120125939Y-46695925D01*
X120139059Y-46727598D01*
X120152836Y-46748217D01*
X120254024Y-46899657D01*
X120400342Y-47045975D01*
X120400345Y-47045977D01*
X120572402Y-47160941D01*
X120763580Y-47240130D01*
X120928855Y-47273005D01*
X120966530Y-47280499D01*
X120966534Y-47280500D01*
X120966535Y-47280500D01*
X121173466Y-47280500D01*
X121173467Y-47280499D01*
X121376420Y-47240130D01*
X121567598Y-47160941D01*
X121739655Y-47045977D01*
X121885977Y-46899655D01*
X122000941Y-46727598D01*
X122069165Y-46562889D01*
X122113004Y-46508488D01*
X122179298Y-46486423D01*
X122246998Y-46503702D01*
X122294609Y-46554839D01*
X122301656Y-46572026D01*
X122358904Y-46748216D01*
X122455375Y-46937550D01*
X122494728Y-46991716D01*
X123127037Y-46359408D01*
X123144075Y-46422993D01*
X123209901Y-46537007D01*
X123302993Y-46630099D01*
X123417007Y-46695925D01*
X123480590Y-46712962D01*
X122848282Y-47345269D01*
X122848282Y-47345270D01*
X122902449Y-47384624D01*
X123091782Y-47481095D01*
X123267973Y-47538343D01*
X123325648Y-47577780D01*
X123352847Y-47642139D01*
X123340932Y-47710985D01*
X123293688Y-47762461D01*
X123277108Y-47770835D01*
X123112403Y-47839057D01*
X122940342Y-47954024D01*
X122794024Y-48100342D01*
X122679058Y-48272403D01*
X122599870Y-48463579D01*
X122599868Y-48463587D01*
X122559500Y-48666530D01*
X122559500Y-48873469D01*
X122599868Y-49076412D01*
X122599870Y-49076420D01*
X122665939Y-49235925D01*
X122679059Y-49267598D01*
X122692836Y-49288217D01*
X122794024Y-49439657D01*
X122940342Y-49585975D01*
X123112405Y-49700943D01*
X123182952Y-49730164D01*
X123237356Y-49774005D01*
X123259421Y-49840299D01*
X123259500Y-49844725D01*
X123259500Y-52156144D01*
X123264172Y-52173578D01*
X123283386Y-52245287D01*
X123283387Y-52245290D01*
X123329527Y-52325208D01*
X123329529Y-52325211D01*
X123329530Y-52325212D01*
X124284788Y-53280470D01*
X124364712Y-53326614D01*
X124453856Y-53350500D01*
X131722652Y-53350500D01*
X131789691Y-53370185D01*
X131835446Y-53422989D01*
X131845390Y-53492147D01*
X131840319Y-53510627D01*
X131840712Y-53510733D01*
X131838608Y-53518582D01*
X131838608Y-53518584D01*
X131804500Y-53645878D01*
X131804500Y-53777662D01*
X131806523Y-53785213D01*
X131838609Y-53904958D01*
X131838609Y-53904959D01*
X131872408Y-53963500D01*
X131888881Y-54031400D01*
X131866029Y-54097427D01*
X131811107Y-54140618D01*
X131765021Y-54149500D01*
X122196544Y-54149500D01*
X122129505Y-54129815D01*
X122108863Y-54113181D01*
X121456819Y-53461137D01*
X121423334Y-53399814D01*
X121420500Y-53373456D01*
X121420500Y-49844725D01*
X121440185Y-49777686D01*
X121492989Y-49731931D01*
X121497048Y-49730164D01*
X121567594Y-49700943D01*
X121567595Y-49700942D01*
X121567598Y-49700941D01*
X121739655Y-49585977D01*
X121885977Y-49439655D01*
X122000941Y-49267598D01*
X122080130Y-49076420D01*
X122120500Y-48873465D01*
X122120500Y-48666535D01*
X122080130Y-48463580D01*
X122000941Y-48272402D01*
X121885977Y-48100345D01*
X121885975Y-48100342D01*
X121739657Y-47954024D01*
X121571655Y-47841770D01*
X121567598Y-47839059D01*
X121567593Y-47839057D01*
X121376420Y-47759870D01*
X121376412Y-47759868D01*
X121173469Y-47719500D01*
X121173465Y-47719500D01*
X120966535Y-47719500D01*
X120966530Y-47719500D01*
X120763587Y-47759868D01*
X120763579Y-47759870D01*
X120572403Y-47839058D01*
X120400342Y-47954024D01*
X120254024Y-48100342D01*
X120139057Y-48272403D01*
X120070835Y-48437108D01*
X120026994Y-48491511D01*
X119960700Y-48513576D01*
X119893000Y-48496297D01*
X119845390Y-48445159D01*
X119838343Y-48427973D01*
X119781095Y-48251782D01*
X119684624Y-48062449D01*
X119645270Y-48008282D01*
X119645269Y-48008282D01*
X119012962Y-48640590D01*
X118995925Y-48577007D01*
X118930099Y-48462993D01*
X118837007Y-48369901D01*
X118722993Y-48304075D01*
X118659409Y-48287037D01*
X119291716Y-47654728D01*
X119237550Y-47615375D01*
X119048216Y-47518904D01*
X118872026Y-47461656D01*
X118814350Y-47422218D01*
X118787152Y-47357860D01*
X118799067Y-47289013D01*
X118846311Y-47237538D01*
X118862882Y-47229168D01*
X119027598Y-47160941D01*
X119199655Y-47045977D01*
X119345977Y-46899655D01*
X119460941Y-46727598D01*
X119540130Y-46536420D01*
X119580500Y-46333465D01*
X119580500Y-46126535D01*
X119540130Y-45923580D01*
X119460941Y-45732402D01*
X119345977Y-45560345D01*
X119345975Y-45560342D01*
X119199657Y-45414024D01*
X119084707Y-45337218D01*
X119027598Y-45299059D01*
X118836420Y-45219870D01*
X118836412Y-45219868D01*
X118633469Y-45179500D01*
X118633465Y-45179500D01*
X118426535Y-45179500D01*
X118426530Y-45179500D01*
X118223587Y-45219868D01*
X118223579Y-45219870D01*
X118032403Y-45299058D01*
X117860342Y-45414024D01*
X117714024Y-45560342D01*
X117599058Y-45732403D01*
X117519870Y-45923579D01*
X117519868Y-45923587D01*
X117479500Y-46126530D01*
X117479500Y-46333469D01*
X117519868Y-46536412D01*
X117519870Y-46536420D01*
X117585939Y-46695925D01*
X117599059Y-46727598D01*
X117612836Y-46748217D01*
X117714024Y-46899657D01*
X117860342Y-47045975D01*
X118032405Y-47160943D01*
X118135043Y-47203456D01*
X118197108Y-47229164D01*
X118251511Y-47273005D01*
X118273576Y-47339299D01*
X118256297Y-47406998D01*
X118205160Y-47454609D01*
X118187974Y-47461656D01*
X118011781Y-47518905D01*
X117822439Y-47615380D01*
X117768282Y-47654727D01*
X117768282Y-47654728D01*
X118400591Y-48287037D01*
X118337007Y-48304075D01*
X118222993Y-48369901D01*
X118129901Y-48462993D01*
X118064075Y-48577007D01*
X118047037Y-48640591D01*
X117414728Y-48008282D01*
X117414727Y-48008282D01*
X117375380Y-48062439D01*
X117278905Y-48251781D01*
X117221656Y-48427974D01*
X117182218Y-48485649D01*
X117117859Y-48512847D01*
X117049013Y-48500932D01*
X116997537Y-48453688D01*
X116989164Y-48437107D01*
X116920943Y-48272405D01*
X116805975Y-48100342D01*
X116659657Y-47954024D01*
X116491655Y-47841770D01*
X116487598Y-47839059D01*
X116487593Y-47839057D01*
X116296420Y-47759870D01*
X116296412Y-47759868D01*
X116093469Y-47719500D01*
X116093465Y-47719500D01*
X115886535Y-47719500D01*
X115886530Y-47719500D01*
X115683587Y-47759868D01*
X115683579Y-47759870D01*
X115492403Y-47839058D01*
X115320342Y-47954024D01*
X115174024Y-48100342D01*
X115059058Y-48272403D01*
X114979870Y-48463579D01*
X114979868Y-48463587D01*
X114939500Y-48666530D01*
X114500499Y-48666530D01*
X114460130Y-48463580D01*
X114380941Y-48272402D01*
X114265977Y-48100345D01*
X114265975Y-48100342D01*
X114119657Y-47954024D01*
X113951655Y-47841770D01*
X113947598Y-47839059D01*
X113947593Y-47839057D01*
X113794028Y-47775448D01*
X113782890Y-47770834D01*
X113728488Y-47726994D01*
X113706423Y-47660700D01*
X113723702Y-47593001D01*
X113774839Y-47545390D01*
X113792026Y-47538343D01*
X113968217Y-47481095D01*
X114157554Y-47384622D01*
X114211716Y-47345270D01*
X114211717Y-47345270D01*
X113579408Y-46712962D01*
X113642993Y-46695925D01*
X113757007Y-46630099D01*
X113850099Y-46537007D01*
X113915925Y-46422993D01*
X113932962Y-46359408D01*
X114565270Y-46991717D01*
X114565270Y-46991716D01*
X114604622Y-46937554D01*
X114701095Y-46748217D01*
X114758343Y-46572026D01*
X114797780Y-46514351D01*
X114862139Y-46487152D01*
X114930985Y-46499066D01*
X114982461Y-46546310D01*
X114990835Y-46562891D01*
X115045939Y-46695925D01*
X115059059Y-46727598D01*
X115072836Y-46748217D01*
X115174024Y-46899657D01*
X115320342Y-47045975D01*
X115320345Y-47045977D01*
X115492402Y-47160941D01*
X115683580Y-47240130D01*
X115848855Y-47273005D01*
X115886530Y-47280499D01*
X115886534Y-47280500D01*
X115886535Y-47280500D01*
X116093466Y-47280500D01*
X116093467Y-47280499D01*
X116296420Y-47240130D01*
X116487598Y-47160941D01*
X116659655Y-47045977D01*
X116805977Y-46899655D01*
X116920941Y-46727598D01*
X117000130Y-46536420D01*
X117040500Y-46333465D01*
X117040500Y-46126535D01*
X117000130Y-45923580D01*
X116920941Y-45732402D01*
X116805977Y-45560345D01*
X116805975Y-45560342D01*
X116659657Y-45414024D01*
X116544707Y-45337218D01*
X116487598Y-45299059D01*
X116296420Y-45219870D01*
X116296412Y-45219868D01*
X116093469Y-45179500D01*
X116093465Y-45179500D01*
X115886535Y-45179500D01*
X115886530Y-45179500D01*
X115683587Y-45219868D01*
X115683579Y-45219870D01*
X115492403Y-45299058D01*
X115320342Y-45414024D01*
X115174024Y-45560342D01*
X115059057Y-45732403D01*
X114990835Y-45897108D01*
X114946994Y-45951511D01*
X114880700Y-45973576D01*
X114813000Y-45956297D01*
X114765390Y-45905159D01*
X114758343Y-45887973D01*
X114701095Y-45711782D01*
X114604624Y-45522449D01*
X114565270Y-45468282D01*
X114565269Y-45468282D01*
X113932962Y-46100590D01*
X113915925Y-46037007D01*
X113850099Y-45922993D01*
X113757007Y-45829901D01*
X113642993Y-45764075D01*
X113579409Y-45747037D01*
X114211716Y-45114728D01*
X114157550Y-45075375D01*
X113968217Y-44978904D01*
X113766129Y-44913242D01*
X113556246Y-44880000D01*
X113343754Y-44880000D01*
X113133872Y-44913242D01*
X113133869Y-44913242D01*
X112931782Y-44978904D01*
X112742439Y-45075380D01*
X112688282Y-45114727D01*
X112688282Y-45114728D01*
X113320591Y-45747037D01*
X113257007Y-45764075D01*
X113142993Y-45829901D01*
X113049901Y-45922993D01*
X112984075Y-46037007D01*
X112967037Y-46100591D01*
X112334728Y-45468282D01*
X112334727Y-45468282D01*
X112295380Y-45522439D01*
X112198905Y-45711781D01*
X112141656Y-45887974D01*
X112102218Y-45945649D01*
X112037859Y-45972847D01*
X111969013Y-45960932D01*
X111917537Y-45913688D01*
X111909164Y-45897107D01*
X111906278Y-45890140D01*
X111881327Y-45829901D01*
X111840943Y-45732405D01*
X111725975Y-45560342D01*
X111579657Y-45414024D01*
X111464707Y-45337218D01*
X111407598Y-45299059D01*
X111216420Y-45219870D01*
X111216412Y-45219868D01*
X111013469Y-45179500D01*
X111013465Y-45179500D01*
X110806535Y-45179500D01*
X110806530Y-45179500D01*
X110603587Y-45219868D01*
X110603579Y-45219870D01*
X110412403Y-45299058D01*
X110240342Y-45414024D01*
X110094024Y-45560342D01*
X109979058Y-45732403D01*
X109899870Y-45923579D01*
X109899868Y-45923587D01*
X109859500Y-46126530D01*
X109420499Y-46126530D01*
X109380130Y-45923580D01*
X109300941Y-45732402D01*
X109185977Y-45560345D01*
X109185975Y-45560342D01*
X109039657Y-45414024D01*
X108924707Y-45337218D01*
X108867598Y-45299059D01*
X108676420Y-45219870D01*
X108676412Y-45219868D01*
X108473469Y-45179500D01*
X108473465Y-45179500D01*
X108266535Y-45179500D01*
X108266530Y-45179500D01*
X108063587Y-45219868D01*
X108063579Y-45219870D01*
X107872403Y-45299058D01*
X107700342Y-45414024D01*
X107554024Y-45560342D01*
X107439058Y-45732403D01*
X107359870Y-45923579D01*
X107359868Y-45923587D01*
X107319500Y-46126530D01*
X104417579Y-46126530D01*
X104365054Y-46088368D01*
X104365053Y-46088367D01*
X104365051Y-46088366D01*
X104264254Y-46037007D01*
X104133576Y-45970422D01*
X103886493Y-45890140D01*
X103629902Y-45849500D01*
X103629897Y-45849500D01*
X103370103Y-45849500D01*
X103370098Y-45849500D01*
X103113506Y-45890140D01*
X102866423Y-45970422D01*
X102634945Y-46088368D01*
X102424774Y-46241066D01*
X102424768Y-46241071D01*
X102241071Y-46424768D01*
X102241066Y-46424774D01*
X102088368Y-46634945D01*
X101970422Y-46866423D01*
X101890140Y-47113506D01*
X101849500Y-47370097D01*
X100500500Y-47370097D01*
X100500500Y-47003750D01*
X100500726Y-46996263D01*
X100504486Y-46934108D01*
X100518271Y-46706201D01*
X100520076Y-46691340D01*
X100571780Y-46409201D01*
X100575364Y-46394663D01*
X100606163Y-46295826D01*
X100660696Y-46120822D01*
X100665998Y-46106841D01*
X100783731Y-45845249D01*
X100790676Y-45832016D01*
X100939080Y-45586526D01*
X100947567Y-45574230D01*
X101124480Y-45348417D01*
X101134395Y-45337226D01*
X101337226Y-45134395D01*
X101348417Y-45124480D01*
X101574230Y-44947567D01*
X101586526Y-44939080D01*
X101832016Y-44790676D01*
X101845249Y-44783731D01*
X102106841Y-44665998D01*
X102120822Y-44660696D01*
X102394668Y-44575362D01*
X102409197Y-44571780D01*
X102691344Y-44520075D01*
X102706201Y-44518271D01*
X102996264Y-44500726D01*
X103003751Y-44500500D01*
X103065892Y-44500500D01*
X161934108Y-44500500D01*
X161996249Y-44500500D01*
X162003736Y-44500726D01*
G37*
G04 #@! TD.AperFunction*
M02*
