G04 #@! TF.GenerationSoftware,KiCad,Pcbnew,9.0.7*
G04 #@! TF.CreationDate,2026-02-28T23:28:59+02:00*
G04 #@! TF.ProjectId,S-PCBASSY-001-01,532d5043-4241-4535-9359-2d3030312d30,rev?*
G04 #@! TF.SameCoordinates,Original*
G04 #@! TF.FileFunction,Soldermask,Bot*
G04 #@! TF.FilePolarity,Negative*
%FSLAX46Y46*%
G04 Gerber Fmt 4.6, Leading zero omitted, Abs format (unit mm)*
G04 Created by KiCad (PCBNEW 9.0.7) date 2026-02-28 23:28:59*
%MOMM*%
%LPD*%
G01*
G04 APERTURE LIST*
%ADD10C,1.270000*%
%ADD11R,1.520000X1.520000*%
%ADD12C,1.520000*%
%ADD13C,2.700000*%
%ADD14C,1.700000*%
%ADD15R,1.700000X1.700000*%
G04 APERTURE END LIST*
D10*
X157540000Y-59500000D03*
X157540000Y-74500000D03*
D11*
X159500000Y-71500000D03*
D12*
X159500000Y-68500000D03*
X159500000Y-65500000D03*
X159500000Y-62500000D03*
D13*
X161500000Y-47500000D03*
X103500000Y-96500000D03*
X103500000Y-47500000D03*
X161500000Y-96500000D03*
D14*
X156630000Y-46230000D03*
X156630000Y-48770000D03*
X154090000Y-46230000D03*
X154090000Y-48770000D03*
X151550000Y-46230000D03*
X151550000Y-48770000D03*
X149010000Y-46230000D03*
X149010000Y-48770000D03*
X146470000Y-46230000D03*
X146470000Y-48770000D03*
X143930000Y-46230000D03*
X143930000Y-48770000D03*
X141390000Y-46230000D03*
X141390000Y-48770000D03*
X138850000Y-46230000D03*
X138850000Y-48770000D03*
X136310000Y-46230000D03*
X136310000Y-48770000D03*
X133770000Y-46230000D03*
X133770000Y-48770000D03*
X131230000Y-46230000D03*
X131230000Y-48770000D03*
X128690000Y-46230000D03*
X128690000Y-48770000D03*
X126150000Y-46230000D03*
X126150000Y-48770000D03*
X123610000Y-46230000D03*
X123610000Y-48770000D03*
X121070000Y-46230000D03*
X121070000Y-48770000D03*
X118530000Y-46230000D03*
X118530000Y-48770000D03*
X115990000Y-46230000D03*
X115990000Y-48770000D03*
X113450000Y-46230000D03*
X113450000Y-48770000D03*
X110910000Y-46230000D03*
X110910000Y-48770000D03*
X108370000Y-46230000D03*
D15*
X108370000Y-48770000D03*
M02*
