G04 #@! TF.GenerationSoftware,KiCad,Pcbnew,9.0.7*
G04 #@! TF.CreationDate,2026-02-28T23:28:59+02:00*
G04 #@! TF.ProjectId,S-PCBASSY-001-01,532d5043-4241-4535-9359-2d3030312d30,rev?*
G04 #@! TF.SameCoordinates,Original*
G04 #@! TF.FileFunction,AssemblyDrawing,Bot*
%FSLAX46Y46*%
G04 Gerber Fmt 4.6, Leading zero omitted, Abs format (unit mm)*
G04 Created by KiCad (PCBNEW 9.0.7) date 2026-02-28 23:28:59*
%MOMM*%
%LPD*%
G01*
G04 APERTURE LIST*
%ADD10C,0.150000*%
%ADD11C,0.100000*%
G04 APERTURE END LIST*
D10*
X158902438Y-46500000D02*
X158854819Y-46404762D01*
X158854819Y-46404762D02*
X158854819Y-46261905D01*
X158854819Y-46261905D02*
X158902438Y-46119048D01*
X158902438Y-46119048D02*
X158997676Y-46023810D01*
X158997676Y-46023810D02*
X159092914Y-45976191D01*
X159092914Y-45976191D02*
X159283390Y-45928572D01*
X159283390Y-45928572D02*
X159426247Y-45928572D01*
X159426247Y-45928572D02*
X159616723Y-45976191D01*
X159616723Y-45976191D02*
X159711961Y-46023810D01*
X159711961Y-46023810D02*
X159807200Y-46119048D01*
X159807200Y-46119048D02*
X159854819Y-46261905D01*
X159854819Y-46261905D02*
X159854819Y-46357143D01*
X159854819Y-46357143D02*
X159807200Y-46500000D01*
X159807200Y-46500000D02*
X159759580Y-46547619D01*
X159759580Y-46547619D02*
X159426247Y-46547619D01*
X159426247Y-46547619D02*
X159426247Y-46357143D01*
X159854819Y-46976191D02*
X158854819Y-46976191D01*
X158854819Y-46976191D02*
X158854819Y-47357143D01*
X158854819Y-47357143D02*
X158902438Y-47452381D01*
X158902438Y-47452381D02*
X158950057Y-47500000D01*
X158950057Y-47500000D02*
X159045295Y-47547619D01*
X159045295Y-47547619D02*
X159188152Y-47547619D01*
X159188152Y-47547619D02*
X159283390Y-47500000D01*
X159283390Y-47500000D02*
X159331009Y-47452381D01*
X159331009Y-47452381D02*
X159378628Y-47357143D01*
X159378628Y-47357143D02*
X159378628Y-46976191D01*
X159854819Y-47976191D02*
X158854819Y-47976191D01*
X158854819Y-48642857D02*
X158854819Y-48833333D01*
X158854819Y-48833333D02*
X158902438Y-48928571D01*
X158902438Y-48928571D02*
X158997676Y-49023809D01*
X158997676Y-49023809D02*
X159188152Y-49071428D01*
X159188152Y-49071428D02*
X159521485Y-49071428D01*
X159521485Y-49071428D02*
X159711961Y-49023809D01*
X159711961Y-49023809D02*
X159807200Y-48928571D01*
X159807200Y-48928571D02*
X159854819Y-48833333D01*
X159854819Y-48833333D02*
X159854819Y-48642857D01*
X159854819Y-48642857D02*
X159807200Y-48547619D01*
X159807200Y-48547619D02*
X159711961Y-48452381D01*
X159711961Y-48452381D02*
X159521485Y-48404762D01*
X159521485Y-48404762D02*
X159188152Y-48404762D01*
X159188152Y-48404762D02*
X158997676Y-48452381D01*
X158997676Y-48452381D02*
X158902438Y-48547619D01*
X158902438Y-48547619D02*
X158854819Y-48642857D01*
X132833333Y-46954819D02*
X132833333Y-47669104D01*
X132833333Y-47669104D02*
X132880952Y-47811961D01*
X132880952Y-47811961D02*
X132976190Y-47907200D01*
X132976190Y-47907200D02*
X133119047Y-47954819D01*
X133119047Y-47954819D02*
X133214285Y-47954819D01*
X131833333Y-47954819D02*
X132404761Y-47954819D01*
X132119047Y-47954819D02*
X132119047Y-46954819D01*
X132119047Y-46954819D02*
X132214285Y-47097676D01*
X132214285Y-47097676D02*
X132309523Y-47192914D01*
X132309523Y-47192914D02*
X132404761Y-47240533D01*
D11*
X157900000Y-50040000D02*
X157900000Y-44960000D01*
X108100000Y-50040000D02*
X157900000Y-50040000D01*
X107100000Y-49040000D02*
X108100000Y-50040000D01*
X157900000Y-44960000D02*
X107100000Y-44960000D01*
X107100000Y-44960000D02*
X107100000Y-49040000D01*
M02*
