G04 #@! TF.GenerationSoftware,KiCad,Pcbnew,9.0.7*
G04 #@! TF.CreationDate,2026-02-28T23:28:59+02:00*
G04 #@! TF.ProjectId,S-PCBASSY-001-01,532d5043-4241-4535-9359-2d3030312d30,rev?*
G04 #@! TF.SameCoordinates,Original*
G04 #@! TF.FileFunction,Paste,Top*
G04 #@! TF.FilePolarity,Positive*
%FSLAX46Y46*%
G04 Gerber Fmt 4.6, Leading zero omitted, Abs format (unit mm)*
G04 Created by KiCad (PCBNEW 9.0.7) date 2026-02-28 23:28:59*
%MOMM*%
%LPD*%
G01*
G04 APERTURE LIST*
G04 Aperture macros list*
%AMRoundRect*
0 Rectangle with rounded corners*
0 $1 Rounding radius*
0 $2 $3 $4 $5 $6 $7 $8 $9 X,Y pos of 4 corners*
0 Add a 4 corners polygon primitive as box body*
4,1,4,$2,$3,$4,$5,$6,$7,$8,$9,$2,$3,0*
0 Add four circle primitives for the rounded corners*
1,1,$1+$1,$2,$3*
1,1,$1+$1,$4,$5*
1,1,$1+$1,$6,$7*
1,1,$1+$1,$8,$9*
0 Add four rect primitives between the rounded corners*
20,1,$1+$1,$2,$3,$4,$5,0*
20,1,$1+$1,$4,$5,$6,$7,0*
20,1,$1+$1,$6,$7,$8,$9,0*
20,1,$1+$1,$8,$9,$2,$3,0*%
G04 Aperture macros list end*
%ADD10RoundRect,0.225000X-0.225000X-0.250000X0.225000X-0.250000X0.225000X0.250000X-0.225000X0.250000X0*%
%ADD11RoundRect,0.250000X1.000000X0.650000X-1.000000X0.650000X-1.000000X-0.650000X1.000000X-0.650000X0*%
%ADD12RoundRect,0.150000X-0.150000X0.587500X-0.150000X-0.587500X0.150000X-0.587500X0.150000X0.587500X0*%
%ADD13RoundRect,0.237500X-0.250000X-0.237500X0.250000X-0.237500X0.250000X0.237500X-0.250000X0.237500X0*%
%ADD14RoundRect,0.075000X0.225000X-0.075000X0.225000X0.075000X-0.225000X0.075000X-0.225000X-0.075000X0*%
%ADD15RoundRect,0.050000X0.100000X0.250000X-0.100000X0.250000X-0.100000X-0.250000X0.100000X-0.250000X0*%
%ADD16RoundRect,0.225000X0.250000X-0.225000X0.250000X0.225000X-0.250000X0.225000X-0.250000X-0.225000X0*%
%ADD17RoundRect,0.050000X0.250000X-0.100000X0.250000X0.100000X-0.250000X0.100000X-0.250000X-0.100000X0*%
%ADD18RoundRect,0.225000X0.225000X0.250000X-0.225000X0.250000X-0.225000X-0.250000X0.225000X-0.250000X0*%
%ADD19RoundRect,0.218750X-0.218750X-0.256250X0.218750X-0.256250X0.218750X0.256250X-0.218750X0.256250X0*%
%ADD20R,2.510000X1.000000*%
%ADD21RoundRect,0.237500X0.250000X0.237500X-0.250000X0.237500X-0.250000X-0.237500X0.250000X-0.237500X0*%
%ADD22RoundRect,0.250000X-0.650000X1.000000X-0.650000X-1.000000X0.650000X-1.000000X0.650000X1.000000X0*%
%ADD23RoundRect,0.150000X-0.587500X-0.150000X0.587500X-0.150000X0.587500X0.150000X-0.587500X0.150000X0*%
%ADD24RoundRect,0.250000X0.250000X0.475000X-0.250000X0.475000X-0.250000X-0.475000X0.250000X-0.475000X0*%
%ADD25RoundRect,0.150000X0.150000X-0.825000X0.150000X0.825000X-0.150000X0.825000X-0.150000X-0.825000X0*%
%ADD26RoundRect,0.250000X0.457500X0.445000X-0.457500X0.445000X-0.457500X-0.445000X0.457500X-0.445000X0*%
G04 APERTURE END LIST*
D10*
X147662500Y-72450000D03*
X149212500Y-72450000D03*
D11*
X111500000Y-59500000D03*
X107500000Y-59500000D03*
D12*
X116500000Y-66500000D03*
X114600000Y-66500000D03*
X115550000Y-68375000D03*
D10*
X147500000Y-65000000D03*
X149050000Y-65000000D03*
D13*
X118587500Y-66500000D03*
X120412500Y-66500000D03*
D14*
X143275000Y-55400000D03*
X143275000Y-54700000D03*
D15*
X155000000Y-62500000D03*
X154300000Y-62500000D03*
D16*
X140775000Y-65775000D03*
X140775000Y-64225000D03*
D14*
X143275000Y-62350000D03*
X143275000Y-61650000D03*
D17*
X143437500Y-69950000D03*
X143437500Y-69250000D03*
D18*
X127775000Y-55500000D03*
X126225000Y-55500000D03*
D17*
X147275000Y-63350000D03*
X147275000Y-62650000D03*
D15*
X155000000Y-65500000D03*
X154300000Y-65500000D03*
D19*
X111212500Y-71500000D03*
X112787500Y-71500000D03*
D10*
X139000000Y-62500000D03*
X140550000Y-62500000D03*
D16*
X140937500Y-73225000D03*
X140937500Y-71675000D03*
D15*
X155000000Y-68500000D03*
X154300000Y-68500000D03*
D19*
X114212500Y-64000000D03*
X115787500Y-64000000D03*
D10*
X147500000Y-57950000D03*
X149050000Y-57950000D03*
D20*
X125810000Y-61540000D03*
X122500000Y-59000000D03*
D21*
X116412500Y-71500000D03*
X114587500Y-71500000D03*
D13*
X138862500Y-55450000D03*
X140687500Y-55450000D03*
D16*
X140775000Y-58725000D03*
X140775000Y-57175000D03*
D22*
X116000000Y-57000000D03*
X116000000Y-61000000D03*
D10*
X129725000Y-51500000D03*
X131275000Y-51500000D03*
D23*
X143500000Y-71500000D03*
X143500000Y-73400000D03*
X145375000Y-72450000D03*
D10*
X139162500Y-69950000D03*
X140712500Y-69950000D03*
D23*
X143337500Y-57000000D03*
X143337500Y-58900000D03*
X145212500Y-57950000D03*
X143337500Y-64050000D03*
X143337500Y-65950000D03*
X145212500Y-65000000D03*
D24*
X112295000Y-56050000D03*
X110395000Y-56050000D03*
D25*
X129095000Y-60975000D03*
X130365000Y-60975000D03*
X131635000Y-60975000D03*
X132905000Y-60975000D03*
X132905000Y-56025000D03*
X131635000Y-56025000D03*
X130365000Y-56025000D03*
X129095000Y-56025000D03*
D17*
X147437500Y-70800000D03*
X147437500Y-70100000D03*
D11*
X111500000Y-64050000D03*
X107500000Y-64050000D03*
D10*
X129725000Y-53500000D03*
X131275000Y-53500000D03*
D26*
X112042500Y-53050000D03*
X109337500Y-53050000D03*
D17*
X147275000Y-56450000D03*
X147275000Y-55750000D03*
M02*
