  0
SECTION
  2
HEADER
  9
$ANGBASE
  50
0.0
  9
$ANGDIR
  70
1
  9
$MEASUREMENT
  70
0
  0
ENDSEC
  0
SECTION
  2
TABLES
  0
TABLE
  2
LTYPE
  70
4
  0
LTYPE
  5
40F
  2
CONTINUOUS
  70
0
  3
Solid line
  72
65
  73
0
  40
0.0
  0
LTYPE
  5
410
  2
DASHDOT
 70
0
  3
Dash Dot ____ _ ____ _
 72
65
 73
4
 40
2.0
 49
1.25
 49
-0.25
 49
0.25
 49
-0.25
  0
LTYPE
  5
411
  2
DASHED
 70
0
  3
Dashed __ __ __ __ __
 72
65
 73
2
 40
0.75
 49
0.5
 49
-0.25
  0
LTYPE
  5
43B
  2
DOTTED
 70
0
  3
Dotted .  .  .  .
 72
65
 73
2
 40
0.2
 49
0.0
 49
-0.2
  0
ENDTAB
  0
TABLE
  2
STYLE
  70
4
  0
STYLE
  2
KICAD
  70
0
  40
0
  41
1
  42
1
  50
0
  71
0
  3
isocp.shx
  0
STYLE
  2
KICADB
  70
0
  40
0
  41
1
  42
1
  50
0
  71
0
  3
isocp.shx
  0
STYLE
  2
KICADI
  70
0
  40
0
  41
1
  42
1
  50
15
  71
0
  3
isocp.shx
  0
STYLE
  2
KICADBI
  70
0
  40
0
  41
1
  42
1
  50
15
  71
0
  3
isocp.shx
  0
ENDTAB
  0
TABLE
  2
LAYER
  70
1
  0
LAYER
  2
BLACK
  70
0
  62
7
  6
CONTINUOUS
  0
ENDTAB
  0
ENDSEC
  0
SECTION
  2
ENTITIES
0
LINE
8
BLACK
6
CONTINUOUS
10
11.810590551181102
20
-9.96071653543307
11
16.0625590551181112
21
-9.96071653543307
0
LINE
8
BLACK
6
CONTINUOUS
10
16.0625590551181112
20
-9.96071653543307
11
16.0625590551181112
21
-11.2205590551181107
0
LINE
8
BLACK
6
CONTINUOUS
10
16.0625590551181112
20
-11.2205590551181107
11
11.810590551181102
21
-11.2205590551181107
0
LINE
8
BLACK
6
CONTINUOUS
10
11.810590551181102
20
-11.2205590551181107
11
11.810590551181102
21
-9.96071653543307
0
LINE
8
BLACK
6
CONTINUOUS
10
0.3937007874015748
20
-0.3937007874015748
11
16.141299212598426
21
-0.3937007874015748
0
LINE
8
BLACK
6
CONTINUOUS
10
16.141299212598426
20
-0.3937007874015748
11
16.141299212598426
21
-11.2992992125984255
0
LINE
8
BLACK
6
CONTINUOUS
10
16.141299212598426
20
-11.2992992125984255
11
0.3937007874015748
21
-11.2992992125984255
0
LINE
8
BLACK
6
CONTINUOUS
10
0.3937007874015748
20
-11.2992992125984255
11
0.3937007874015748
21
-0.3937007874015748
0
LINE
8
BLACK
6
CONTINUOUS
10
0.4724409448818898
20
-0.4724409448818898
11
16.0625590551181112
21
-0.4724409448818898
0
LINE
8
BLACK
6
CONTINUOUS
10
16.0625590551181112
20
-0.4724409448818898
11
16.0625590551181112
21
-11.2205590551181107
0
LINE
8
BLACK
6
CONTINUOUS
10
16.0625590551181112
20
-11.2205590551181107
11
0.4724409448818898
21
-11.2205590551181107
0
LINE
8
BLACK
6
CONTINUOUS
10
0.4724409448818898
20
-11.2205590551181107
11
0.4724409448818898
21
-0.4724409448818898
0
LINE
8
BLACK
6
CONTINUOUS
10
2.3622047244094486
20
-0.4724409448818898
11
2.3622047244094486
21
-0.3937007874015748
0
LINE
8
BLACK
6
CONTINUOUS
10
4.3307086614173231
20
-0.4724409448818898
11
4.3307086614173231
21
-0.3937007874015748
0
LINE
8
BLACK
6
CONTINUOUS
10
6.2992125984251963
20
-0.4724409448818898
11
6.2992125984251963
21
-0.3937007874015748
0
LINE
8
BLACK
6
CONTINUOUS
10
8.2677165354330704
20
-0.4724409448818898
11
8.2677165354330704
21
-0.3937007874015748
0
LINE
8
BLACK
6
CONTINUOUS
10
10.2362204724409445
20
-0.4724409448818898
11
10.2362204724409445
21
-0.3937007874015748
0
LINE
8
BLACK
6
CONTINUOUS
10
12.2047244094488185
20
-0.4724409448818898
11
12.2047244094488185
21
-0.3937007874015748
0
LINE
8
BLACK
6
CONTINUOUS
10
14.1732283464566926
20
-0.4724409448818898
11
14.1732283464566926
21
-0.3937007874015748
0
LINE
8
BLACK
6
CONTINUOUS
10
1.4208330708661416
20
-0.4564411023622047
11
1.3915867322834645
21
-0.4564411023622047
0
LINE
8
BLACK
6
CONTINUOUS
10
1.4062098818897637
20
-0.4564411023622047
11
1.4062098818897637
21
-0.40526
0
LINE
8
BLACK
6
CONTINUOUS
10
1.4062098818897637
20
-0.40526
11
1.4013355118110236
21
-0.4125716141732284
0
LINE
8
BLACK
6
CONTINUOUS
10
1.4013355118110236
20
-0.4125716141732284
11
1.3964611023622047
21
-0.4174459842519685
0
LINE
8
BLACK
6
CONTINUOUS
10
1.3964611023622047
20
-0.4174459842519685
11
1.3915867322834645
21
-0.4198831889763779
0
LINE
8
BLACK
6
CONTINUOUS
10
3.3600906692913384
20
-0.4101344094488189
11
3.3625278346456691
21
-0.4076972047244095
0
LINE
8
BLACK
6
CONTINUOUS
10
3.3625278346456691
20
-0.4076972047244095
11
3.367402244094488
21
-0.40526
0
LINE
8
BLACK
6
CONTINUOUS
10
3.367402244094488
20
-0.40526
11
3.3795882283464564
21
-0.40526
0
LINE
8
BLACK
6
CONTINUOUS
10
3.3795882283464564
20
-0.40526
11
3.3844625984251966
21
-0.4076972047244095
0
LINE
8
BLACK
6
CONTINUOUS
10
3.3844625984251966
20
-0.4076972047244095
11
3.386899803149606
21
-0.4101344094488189
0
LINE
8
BLACK
6
CONTINUOUS
10
3.386899803149606
20
-0.4101344094488189
11
3.3893370078740155
21
-0.415008779527559
0
LINE
8
BLACK
6
CONTINUOUS
10
3.3893370078740155
20
-0.415008779527559
11
3.3893370078740155
21
-0.4198831889763779
0
LINE
8
BLACK
6
CONTINUOUS
10
3.3893370078740155
20
-0.4198831889763779
11
3.386899803149606
21
-0.4271947637795275
0
LINE
8
BLACK
6
CONTINUOUS
10
3.386899803149606
20
-0.4271947637795275
11
3.3576534645669289
21
-0.4564411023622047
0
LINE
8
BLACK
6
CONTINUOUS
10
3.3576534645669289
20
-0.4564411023622047
11
3.3893370078740155
21
-0.4564411023622047
0
LINE
8
BLACK
6
CONTINUOUS
10
5.326157401574803
20
-0.40526
11
5.3578409448818896
21
-0.40526
0
LINE
8
BLACK
6
CONTINUOUS
10
5.3578409448818896
20
-0.40526
11
5.3407805511811022
21
-0.4247575590551181
0
LINE
8
BLACK
6
CONTINUOUS
10
5.3407805511811022
20
-0.4247575590551181
11
5.3480921653543305
21
-0.4247575590551181
0
LINE
8
BLACK
6
CONTINUOUS
10
5.3480921653543305
20
-0.4247575590551181
11
5.3529665354330707
21
-0.4271947637795275
0
LINE
8
BLACK
6
CONTINUOUS
10
5.3529665354330707
20
-0.4271947637795275
11
5.3554037401574801
21
-0.429631968503937
0
LINE
8
BLACK
6
CONTINUOUS
10
5.3554037401574801
20
-0.429631968503937
11
5.3578409448818896
21
-0.4345063385826772
0
LINE
8
BLACK
6
CONTINUOUS
10
5.3578409448818896
20
-0.4345063385826772
11
5.3578409448818896
21
-0.4466923228346457
0
LINE
8
BLACK
6
CONTINUOUS
10
5.3578409448818896
20
-0.4466923228346457
11
5.3554037401574801
21
-0.4515667322834646
0
LINE
8
BLACK
6
CONTINUOUS
10
5.3554037401574801
20
-0.4515667322834646
11
5.3529665354330707
21
-0.454003937007874
0
LINE
8
BLACK
6
CONTINUOUS
10
5.3529665354330707
20
-0.454003937007874
11
5.3480921653543305
21
-0.4564411023622047
0
LINE
8
BLACK
6
CONTINUOUS
10
5.3480921653543305
20
-0.4564411023622047
11
5.3334689763779526
21
-0.4564411023622047
0
LINE
8
BLACK
6
CONTINUOUS
10
5.3334689763779526
20
-0.4564411023622047
11
5.3285946062992124
21
-0.454003937007874
0
LINE
8
BLACK
6
CONTINUOUS
10
5.3285946062992124
20
-0.454003937007874
11
5.326157401574803
21
-0.4515667322834646
0
LINE
8
BLACK
6
CONTINUOUS
10
7.3214704724409447
20
-0.4223203937007874
11
7.3214704724409447
21
-0.4564411023622047
0
LINE
8
BLACK
6
CONTINUOUS
10
7.3092844881889762
20
-0.4028228346456693
11
7.2970985433070865
21
-0.4393807480314961
0
LINE
8
BLACK
6
CONTINUOUS
10
7.2970985433070865
20
-0.4393807480314961
11
7.3287820472440943
21
-0.4393807480314961
0
LINE
8
BLACK
6
CONTINUOUS
10
9.2924116141732274
20
-0.40526
11
9.2680396456692904
21
-0.40526
0
LINE
8
BLACK
6
CONTINUOUS
10
9.2680396456692904
20
-0.40526
11
9.2656024803149606
21
-0.429631968503937
0
LINE
8
BLACK
6
CONTINUOUS
10
9.2656024803149606
20
-0.429631968503937
11
9.2680396456692904
21
-0.4271947637795275
0
LINE
8
BLACK
6
CONTINUOUS
10
9.2680396456692904
20
-0.4271947637795275
11
9.2729140551181093
21
-0.4247575590551181
0
LINE
8
BLACK
6
CONTINUOUS
10
9.2729140551181093
20
-0.4247575590551181
11
9.2851000393700787
21
-0.4247575590551181
0
LINE
8
BLACK
6
CONTINUOUS
10
9.2851000393700787
20
-0.4247575590551181
11
9.2899744094488188
21
-0.4271947637795275
0
LINE
8
BLACK
6
CONTINUOUS
10
9.2899744094488188
20
-0.4271947637795275
11
9.2924116141732274
21
-0.429631968503937
0
LINE
8
BLACK
6
CONTINUOUS
10
9.2924116141732274
20
-0.429631968503937
11
9.2948488188976377
21
-0.4345063385826772
0
LINE
8
BLACK
6
CONTINUOUS
10
9.2948488188976377
20
-0.4345063385826772
11
9.2948488188976377
21
-0.4466923228346457
0
LINE
8
BLACK
6
CONTINUOUS
10
9.2948488188976377
20
-0.4466923228346457
11
9.2924116141732274
21
-0.4515667322834646
0
LINE
8
BLACK
6
CONTINUOUS
10
9.2924116141732274
20
-0.4515667322834646
11
9.2899744094488188
21
-0.454003937007874
0
LINE
8
BLACK
6
CONTINUOUS
10
9.2899744094488188
20
-0.454003937007874
11
9.2851000393700787
21
-0.4564411023622047
0
LINE
8
BLACK
6
CONTINUOUS
10
9.2851000393700787
20
-0.4564411023622047
11
9.2729140551181093
21
-0.4564411023622047
0
LINE
8
BLACK
6
CONTINUOUS
10
9.2729140551181093
20
-0.4564411023622047
11
9.2680396456692904
21
-0.454003937007874
0
LINE
8
BLACK
6
CONTINUOUS
10
9.2680396456692904
20
-0.454003937007874
11
9.2656024803149606
21
-0.4515667322834646
0
LINE
8
BLACK
6
CONTINUOUS
10
11.2584783464566929
20
-0.40526
11
11.2487295669291338
21
-0.40526
0
LINE
8
BLACK
6
CONTINUOUS
10
11.2487295669291338
20
-0.40526
11
11.2438551968503937
21
-0.4076972047244095
0
LINE
8
BLACK
6
CONTINUOUS
10
11.2438551968503937
20
-0.4076972047244095
11
11.2414179921259834
21
-0.4101344094488189
0
LINE
8
BLACK
6
CONTINUOUS
10
11.2414179921259834
20
-0.4101344094488189
11
11.2365435826771645
21
-0.4174459842519685
0
LINE
8
BLACK
6
CONTINUOUS
10
11.2365435826771645
20
-0.4174459842519685
11
11.2341064173228347
21
-0.4271947637795275
0
LINE
8
BLACK
6
CONTINUOUS
10
11.2341064173228347
20
-0.4271947637795275
11
11.2341064173228347
21
-0.4466923228346457
0
LINE
8
BLACK
6
CONTINUOUS
10
11.2341064173228347
20
-0.4466923228346457
11
11.2365435826771645
21
-0.4515667322834646
0
LINE
8
BLACK
6
CONTINUOUS
10
11.2365435826771645
20
-0.4515667322834646
11
11.2389807874015748
21
-0.454003937007874
0
LINE
8
BLACK
6
CONTINUOUS
10
11.2389807874015748
20
-0.454003937007874
11
11.2438551968503937
21
-0.4564411023622047
0
LINE
8
BLACK
6
CONTINUOUS
10
11.2438551968503937
20
-0.4564411023622047
11
11.2536039763779527
21
-0.4564411023622047
0
LINE
8
BLACK
6
CONTINUOUS
10
11.2536039763779527
20
-0.4564411023622047
11
11.2584783464566929
21
-0.454003937007874
0
LINE
8
BLACK
6
CONTINUOUS
10
11.2584783464566929
20
-0.454003937007874
11
11.2609155511811014
21
-0.4515667322834646
0
LINE
8
BLACK
6
CONTINUOUS
10
11.2609155511811014
20
-0.4515667322834646
11
11.2633527559055118
21
-0.4466923228346457
0
LINE
8
BLACK
6
CONTINUOUS
10
11.2633527559055118
20
-0.4466923228346457
11
11.2633527559055118
21
-0.4345063385826772
0
LINE
8
BLACK
6
CONTINUOUS
10
11.2633527559055118
20
-0.4345063385826772
11
11.2609155511811014
21
-0.429631968503937
0
LINE
8
BLACK
6
CONTINUOUS
10
11.2609155511811014
20
-0.429631968503937
11
11.2584783464566929
21
-0.4271947637795275
0
LINE
8
BLACK
6
CONTINUOUS
10
11.2584783464566929
20
-0.4271947637795275
11
11.2536039763779527
21
-0.4247575590551181
0
LINE
8
BLACK
6
CONTINUOUS
10
11.2536039763779527
20
-0.4247575590551181
11
11.2438551968503937
21
-0.4247575590551181
0
LINE
8
BLACK
6
CONTINUOUS
10
11.2438551968503937
20
-0.4247575590551181
11
11.2389807874015748
21
-0.4271947637795275
0
LINE
8
BLACK
6
CONTINUOUS
10
11.2389807874015748
20
-0.4271947637795275
11
11.2365435826771645
21
-0.429631968503937
0
LINE
8
BLACK
6
CONTINUOUS
10
11.2365435826771645
20
-0.429631968503937
11
11.2341064173228347
21
-0.4345063385826772
0
LINE
8
BLACK
6
CONTINUOUS
10
13.2001731496062984
20
-0.40526
11
13.2342938582677156
21
-0.40526
0
LINE
8
BLACK
6
CONTINUOUS
10
13.2342938582677156
20
-0.40526
11
13.2123591338582678
21
-0.4564411023622047
0
LINE
8
BLACK
6
CONTINUOUS
10
15.1808630708661418
20
-0.4271947637795275
11
15.1759886614173229
21
-0.4247575590551181
0
LINE
8
BLACK
6
CONTINUOUS
10
15.1759886614173229
20
-0.4247575590551181
11
15.1735514566929126
21
-0.4223203937007874
0
LINE
8
BLACK
6
CONTINUOUS
10
15.1735514566929126
20
-0.4223203937007874
11
15.1711142913385828
21
-0.4174459842519685
0
LINE
8
BLACK
6
CONTINUOUS
10
15.1711142913385828
20
-0.4174459842519685
11
15.1711142913385828
21
-0.415008779527559
0
LINE
8
BLACK
6
CONTINUOUS
10
15.1711142913385828
20
-0.415008779527559
11
15.1735514566929126
21
-0.4101344094488189
0
LINE
8
BLACK
6
CONTINUOUS
10
15.1735514566929126
20
-0.4101344094488189
11
15.1759886614173229
21
-0.4076972047244095
0
LINE
8
BLACK
6
CONTINUOUS
10
15.1759886614173229
20
-0.4076972047244095
11
15.1808630708661418
21
-0.40526
0
LINE
8
BLACK
6
CONTINUOUS
10
15.1808630708661418
20
-0.40526
11
15.1906118503937009
21
-0.40526
0
LINE
8
BLACK
6
CONTINUOUS
10
15.1906118503937009
20
-0.40526
11
15.195486220472441
21
-0.4076972047244095
0
LINE
8
BLACK
6
CONTINUOUS
10
15.195486220472441
20
-0.4076972047244095
11
15.1979234251968496
21
-0.4101344094488189
0
LINE
8
BLACK
6
CONTINUOUS
10
15.1979234251968496
20
-0.4101344094488189
11
15.2003606299212599
21
-0.415008779527559
0
LINE
8
BLACK
6
CONTINUOUS
10
15.2003606299212599
20
-0.415008779527559
11
15.2003606299212599
21
-0.4174459842519685
0
LINE
8
BLACK
6
CONTINUOUS
10
15.2003606299212599
20
-0.4174459842519685
11
15.1979234251968496
21
-0.4223203937007874
0
LINE
8
BLACK
6
CONTINUOUS
10
15.1979234251968496
20
-0.4223203937007874
11
15.195486220472441
21
-0.4247575590551181
0
LINE
8
BLACK
6
CONTINUOUS
10
15.195486220472441
20
-0.4247575590551181
11
15.1906118503937009
21
-0.4271947637795275
0
LINE
8
BLACK
6
CONTINUOUS
10
15.1906118503937009
20
-0.4271947637795275
11
15.1808630708661418
21
-0.4271947637795275
0
LINE
8
BLACK
6
CONTINUOUS
10
15.1808630708661418
20
-0.4271947637795275
11
15.1759886614173229
21
-0.429631968503937
0
LINE
8
BLACK
6
CONTINUOUS
10
15.1759886614173229
20
-0.429631968503937
11
15.1735514566929126
21
-0.4320691732283464
0
LINE
8
BLACK
6
CONTINUOUS
10
15.1735514566929126
20
-0.4320691732283464
11
15.1711142913385828
21
-0.4369435433070866
0
LINE
8
BLACK
6
CONTINUOUS
10
15.1711142913385828
20
-0.4369435433070866
11
15.1711142913385828
21
-0.4466923228346457
0
LINE
8
BLACK
6
CONTINUOUS
10
15.1711142913385828
20
-0.4466923228346457
11
15.1735514566929126
21
-0.4515667322834646
0
LINE
8
BLACK
6
CONTINUOUS
10
15.1735514566929126
20
-0.4515667322834646
11
15.1759886614173229
21
-0.454003937007874
0
LINE
8
BLACK
6
CONTINUOUS
10
15.1759886614173229
20
-0.454003937007874
11
15.1808630708661418
21
-0.4564411023622047
0
LINE
8
BLACK
6
CONTINUOUS
10
15.1808630708661418
20
-0.4564411023622047
11
15.1906118503937009
21
-0.4564411023622047
0
LINE
8
BLACK
6
CONTINUOUS
10
15.1906118503937009
20
-0.4564411023622047
11
15.195486220472441
21
-0.454003937007874
0
LINE
8
BLACK
6
CONTINUOUS
10
15.195486220472441
20
-0.454003937007874
11
15.1979234251968496
21
-0.4515667322834646
0
LINE
8
BLACK
6
CONTINUOUS
10
15.1979234251968496
20
-0.4515667322834646
11
15.2003606299212599
21
-0.4466923228346457
0
LINE
8
BLACK
6
CONTINUOUS
10
15.2003606299212599
20
-0.4466923228346457
11
15.2003606299212599
21
-0.4369435433070866
0
LINE
8
BLACK
6
CONTINUOUS
10
15.2003606299212599
20
-0.4369435433070866
11
15.1979234251968496
21
-0.4320691732283464
0
LINE
8
BLACK
6
CONTINUOUS
10
15.1979234251968496
20
-0.4320691732283464
11
15.195486220472441
21
-0.429631968503937
0
LINE
8
BLACK
6
CONTINUOUS
10
15.195486220472441
20
-0.429631968503937
11
15.1906118503937009
21
-0.4271947637795275
0
LINE
8
BLACK
6
CONTINUOUS
10
2.3622047244094486
20
-11.2205590551181107
11
2.3622047244094486
21
-11.2992992125984255
0
LINE
8
BLACK
6
CONTINUOUS
10
4.3307086614173231
20
-11.2205590551181107
11
4.3307086614173231
21
-11.2992992125984255
0
LINE
8
BLACK
6
CONTINUOUS
10
6.2992125984251963
20
-11.2205590551181107
11
6.2992125984251963
21
-11.2992992125984255
0
LINE
8
BLACK
6
CONTINUOUS
10
8.2677165354330704
20
-11.2205590551181107
11
8.2677165354330704
21
-11.2992992125984255
0
LINE
8
BLACK
6
CONTINUOUS
10
10.2362204724409445
20
-11.2205590551181107
11
10.2362204724409445
21
-11.2992992125984255
0
LINE
8
BLACK
6
CONTINUOUS
10
12.2047244094488185
20
-11.2205590551181107
11
12.2047244094488185
21
-11.2992992125984255
0
LINE
8
BLACK
6
CONTINUOUS
10
14.1732283464566926
20
-11.2205590551181107
11
14.1732283464566926
21
-11.2992992125984255
0
LINE
8
BLACK
6
CONTINUOUS
10
1.4208330708661416
20
-11.2832993700787405
11
1.3915867322834645
21
-11.2832993700787405
0
LINE
8
BLACK
6
CONTINUOUS
10
1.4062098818897637
20
-11.2832993700787405
11
1.4062098818897637
21
-11.232118267716535
0
LINE
8
BLACK
6
CONTINUOUS
10
1.4062098818897637
20
-11.232118267716535
11
1.4013355118110236
21
-11.2394298818897642
0
LINE
8
BLACK
6
CONTINUOUS
10
1.4013355118110236
20
-11.2394298818897642
11
1.3964611023622047
21
-11.2443042519685044
0
LINE
8
BLACK
6
CONTINUOUS
10
1.3964611023622047
20
-11.2443042519685044
11
1.3915867322834645
21
-11.2467414566929129
0
LINE
8
BLACK
6
CONTINUOUS
10
3.3600906692913384
20
-11.2369926771653539
11
3.3625278346456691
21
-11.2345554724409453
0
LINE
8
BLACK
6
CONTINUOUS
10
3.3625278346456691
20
-11.2345554724409453
11
3.367402244094488
21
-11.232118267716535
0
LINE
8
BLACK
6
CONTINUOUS
10
3.367402244094488
20
-11.232118267716535
11
3.3795882283464564
21
-11.232118267716535
0
LINE
8
BLACK
6
CONTINUOUS
10
3.3795882283464564
20
-11.232118267716535
11
3.3844625984251966
21
-11.2345554724409453
0
LINE
8
BLACK
6
CONTINUOUS
10
3.3844625984251966
20
-11.2345554724409453
11
3.386899803149606
21
-11.2369926771653539
0
LINE
8
BLACK
6
CONTINUOUS
10
3.386899803149606
20
-11.2369926771653539
11
3.3893370078740155
21
-11.241867047244094
0
LINE
8
BLACK
6
CONTINUOUS
10
3.3893370078740155
20
-11.241867047244094
11
3.3893370078740155
21
-11.2467414566929129
0
LINE
8
BLACK
6
CONTINUOUS
10
3.3893370078740155
20
-11.2467414566929129
11
3.386899803149606
21
-11.2540530314960634
0
LINE
8
BLACK
6
CONTINUOUS
10
3.386899803149606
20
-11.2540530314960634
11
3.3576534645669289
21
-11.2832993700787405
0
LINE
8
BLACK
6
CONTINUOUS
10
3.3576534645669289
20
-11.2832993700787405
11
3.3893370078740155
21
-11.2832993700787405
0
LINE
8
BLACK
6
CONTINUOUS
10
5.326157401574803
20
-11.232118267716535
11
5.3578409448818896
21
-11.232118267716535
0
LINE
8
BLACK
6
CONTINUOUS
10
5.3578409448818896
20
-11.232118267716535
11
5.3407805511811022
21
-11.2516158267716531
0
LINE
8
BLACK
6
CONTINUOUS
10
5.3407805511811022
20
-11.2516158267716531
11
5.3480921653543305
21
-11.2516158267716531
0
LINE
8
BLACK
6
CONTINUOUS
10
5.3480921653543305
20
-11.2516158267716531
11
5.3529665354330707
21
-11.2540530314960634
0
LINE
8
BLACK
6
CONTINUOUS
10
5.3529665354330707
20
-11.2540530314960634
11
5.3554037401574801
21
-11.256490236220472
0
LINE
8
BLACK
6
CONTINUOUS
10
5.3554037401574801
20
-11.256490236220472
11
5.3578409448818896
21
-11.2613646062992121
0
LINE
8
BLACK
6
CONTINUOUS
10
5.3578409448818896
20
-11.2613646062992121
11
5.3578409448818896
21
-11.2735505905511815
0
LINE
8
BLACK
6
CONTINUOUS
10
5.3578409448818896
20
-11.2735505905511815
11
5.3554037401574801
21
-11.2784250000000004
0
LINE
8
BLACK
6
CONTINUOUS
10
5.3554037401574801
20
-11.2784250000000004
11
5.3529665354330707
21
-11.2808622047244089
0
LINE
8
BLACK
6
CONTINUOUS
10
5.3529665354330707
20
-11.2808622047244089
11
5.3480921653543305
21
-11.2832993700787405
0
LINE
8
BLACK
6
CONTINUOUS
10
5.3480921653543305
20
-11.2832993700787405
11
5.3334689763779526
21
-11.2832993700787405
0
LINE
8
BLACK
6
CONTINUOUS
10
5.3334689763779526
20
-11.2832993700787405
11
5.3285946062992124
21
-11.2808622047244089
0
LINE
8
BLACK
6
CONTINUOUS
10
5.3285946062992124
20
-11.2808622047244089
11
5.326157401574803
21
-11.2784250000000004
0
LINE
8
BLACK
6
CONTINUOUS
10
7.3214704724409447
20
-11.2491786614173233
11
7.3214704724409447
21
-11.2832993700787405
0
LINE
8
BLACK
6
CONTINUOUS
10
7.3092844881889762
20
-11.2296811023622052
11
7.2970985433070865
21
-11.266239015748031
0
LINE
8
BLACK
6
CONTINUOUS
10
7.2970985433070865
20
-11.266239015748031
11
7.3287820472440943
21
-11.266239015748031
0
LINE
8
BLACK
6
CONTINUOUS
10
9.2924116141732274
20
-11.232118267716535
11
9.2680396456692904
21
-11.232118267716535
0
LINE
8
BLACK
6
CONTINUOUS
10
9.2680396456692904
20
-11.232118267716535
11
9.2656024803149606
21
-11.256490236220472
0
LINE
8
BLACK
6
CONTINUOUS
10
9.2656024803149606
20
-11.256490236220472
11
9.2680396456692904
21
-11.2540530314960634
0
LINE
8
BLACK
6
CONTINUOUS
10
9.2680396456692904
20
-11.2540530314960634
11
9.2729140551181093
21
-11.2516158267716531
0
LINE
8
BLACK
6
CONTINUOUS
10
9.2729140551181093
20
-11.2516158267716531
11
9.2851000393700787
21
-11.2516158267716531
0
LINE
8
BLACK
6
CONTINUOUS
10
9.2851000393700787
20
-11.2516158267716531
11
9.2899744094488188
21
-11.2540530314960634
0
LINE
8
BLACK
6
CONTINUOUS
10
9.2899744094488188
20
-11.2540530314960634
11
9.2924116141732274
21
-11.256490236220472
0
LINE
8
BLACK
6
CONTINUOUS
10
9.2924116141732274
20
-11.256490236220472
11
9.2948488188976377
21
-11.2613646062992121
0
LINE
8
BLACK
6
CONTINUOUS
10
9.2948488188976377
20
-11.2613646062992121
11
9.2948488188976377
21
-11.2735505905511815
0
LINE
8
BLACK
6
CONTINUOUS
10
9.2948488188976377
20
-11.2735505905511815
11
9.2924116141732274
21
-11.2784250000000004
0
LINE
8
BLACK
6
CONTINUOUS
10
9.2924116141732274
20
-11.2784250000000004
11
9.2899744094488188
21
-11.2808622047244089
0
LINE
8
BLACK
6
CONTINUOUS
10
9.2899744094488188
20
-11.2808622047244089
11
9.2851000393700787
21
-11.2832993700787405
0
LINE
8
BLACK
6
CONTINUOUS
10
9.2851000393700787
20
-11.2832993700787405
11
9.2729140551181093
21
-11.2832993700787405
0
LINE
8
BLACK
6
CONTINUOUS
10
9.2729140551181093
20
-11.2832993700787405
11
9.2680396456692904
21
-11.2808622047244089
0
LINE
8
BLACK
6
CONTINUOUS
10
9.2680396456692904
20
-11.2808622047244089
11
9.2656024803149606
21
-11.2784250000000004
0
LINE
8
BLACK
6
CONTINUOUS
10
11.2584783464566929
20
-11.232118267716535
11
11.2487295669291338
21
-11.232118267716535
0
LINE
8
BLACK
6
CONTINUOUS
10
11.2487295669291338
20
-11.232118267716535
11
11.2438551968503937
21
-11.2345554724409453
0
LINE
8
BLACK
6
CONTINUOUS
10
11.2438551968503937
20
-11.2345554724409453
11
11.2414179921259834
21
-11.2369926771653539
0
LINE
8
BLACK
6
CONTINUOUS
10
11.2414179921259834
20
-11.2369926771653539
11
11.2365435826771645
21
-11.2443042519685044
0
LINE
8
BLACK
6
CONTINUOUS
10
11.2365435826771645
20
-11.2443042519685044
11
11.2341064173228347
21
-11.2540530314960634
0
LINE
8
BLACK
6
CONTINUOUS
10
11.2341064173228347
20
-11.2540530314960634
11
11.2341064173228347
21
-11.2735505905511815
0
LINE
8
BLACK
6
CONTINUOUS
10
11.2341064173228347
20
-11.2735505905511815
11
11.2365435826771645
21
-11.2784250000000004
0
LINE
8
BLACK
6
CONTINUOUS
10
11.2365435826771645
20
-11.2784250000000004
11
11.2389807874015748
21
-11.2808622047244089
0
LINE
8
BLACK
6
CONTINUOUS
10
11.2389807874015748
20
-11.2808622047244089
11
11.2438551968503937
21
-11.2832993700787405
0
LINE
8
BLACK
6
CONTINUOUS
10
11.2438551968503937
20
-11.2832993700787405
11
11.2536039763779527
21
-11.2832993700787405
0
LINE
8
BLACK
6
CONTINUOUS
10
11.2536039763779527
20
-11.2832993700787405
11
11.2584783464566929
21
-11.2808622047244089
0
LINE
8
BLACK
6
CONTINUOUS
10
11.2584783464566929
20
-11.2808622047244089
11
11.2609155511811014
21
-11.2784250000000004
0
LINE
8
BLACK
6
CONTINUOUS
10
11.2609155511811014
20
-11.2784250000000004
11
11.2633527559055118
21
-11.2735505905511815
0
LINE
8
BLACK
6
CONTINUOUS
10
11.2633527559055118
20
-11.2735505905511815
11
11.2633527559055118
21
-11.2613646062992121
0
LINE
8
BLACK
6
CONTINUOUS
10
11.2633527559055118
20
-11.2613646062992121
11
11.2609155511811014
21
-11.256490236220472
0
LINE
8
BLACK
6
CONTINUOUS
10
11.2609155511811014
20
-11.256490236220472
11
11.2584783464566929
21
-11.2540530314960634
0
LINE
8
BLACK
6
CONTINUOUS
10
11.2584783464566929
20
-11.2540530314960634
11
11.2536039763779527
21
-11.2516158267716531
0
LINE
8
BLACK
6
CONTINUOUS
10
11.2536039763779527
20
-11.2516158267716531
11
11.2438551968503937
21
-11.2516158267716531
0
LINE
8
BLACK
6
CONTINUOUS
10
11.2438551968503937
20
-11.2516158267716531
11
11.2389807874015748
21
-11.2540530314960634
0
LINE
8
BLACK
6
CONTINUOUS
10
11.2389807874015748
20
-11.2540530314960634
11
11.2365435826771645
21
-11.256490236220472
0
LINE
8
BLACK
6
CONTINUOUS
10
11.2365435826771645
20
-11.256490236220472
11
11.2341064173228347
21
-11.2613646062992121
0
LINE
8
BLACK
6
CONTINUOUS
10
13.2001731496062984
20
-11.232118267716535
11
13.2342938582677156
21
-11.232118267716535
0
LINE
8
BLACK
6
CONTINUOUS
10
13.2342938582677156
20
-11.232118267716535
11
13.2123591338582678
21
-11.2832993700787405
0
LINE
8
BLACK
6
CONTINUOUS
10
15.1808630708661418
20
-11.2540530314960634
11
15.1759886614173229
21
-11.2516158267716531
0
LINE
8
BLACK
6
CONTINUOUS
10
15.1759886614173229
20
-11.2516158267716531
11
15.1735514566929126
21
-11.2491786614173233
0
LINE
8
BLACK
6
CONTINUOUS
10
15.1735514566929126
20
-11.2491786614173233
11
15.1711142913385828
21
-11.2443042519685044
0
LINE
8
BLACK
6
CONTINUOUS
10
15.1711142913385828
20
-11.2443042519685044
11
15.1711142913385828
21
-11.241867047244094
0
LINE
8
BLACK
6
CONTINUOUS
10
15.1711142913385828
20
-11.241867047244094
11
15.1735514566929126
21
-11.2369926771653539
0
LINE
8
BLACK
6
CONTINUOUS
10
15.1735514566929126
20
-11.2369926771653539
11
15.1759886614173229
21
-11.2345554724409453
0
LINE
8
BLACK
6
CONTINUOUS
10
15.1759886614173229
20
-11.2345554724409453
11
15.1808630708661418
21
-11.232118267716535
0
LINE
8
BLACK
6
CONTINUOUS
10
15.1808630708661418
20
-11.232118267716535
11
15.1906118503937009
21
-11.232118267716535
0
LINE
8
BLACK
6
CONTINUOUS
10
15.1906118503937009
20
-11.232118267716535
11
15.195486220472441
21
-11.2345554724409453
0
LINE
8
BLACK
6
CONTINUOUS
10
15.195486220472441
20
-11.2345554724409453
11
15.1979234251968496
21
-11.2369926771653539
0
LINE
8
BLACK
6
CONTINUOUS
10
15.1979234251968496
20
-11.2369926771653539
11
15.2003606299212599
21
-11.241867047244094
0
LINE
8
BLACK
6
CONTINUOUS
10
15.2003606299212599
20
-11.241867047244094
11
15.2003606299212599
21
-11.2443042519685044
0
LINE
8
BLACK
6
CONTINUOUS
10
15.2003606299212599
20
-11.2443042519685044
11
15.1979234251968496
21
-11.2491786614173233
0
LINE
8
BLACK
6
CONTINUOUS
10
15.1979234251968496
20
-11.2491786614173233
11
15.195486220472441
21
-11.2516158267716531
0
LINE
8
BLACK
6
CONTINUOUS
10
15.195486220472441
20
-11.2516158267716531
11
15.1906118503937009
21
-11.2540530314960634
0
LINE
8
BLACK
6
CONTINUOUS
10
15.1906118503937009
20
-11.2540530314960634
11
15.1808630708661418
21
-11.2540530314960634
0
LINE
8
BLACK
6
CONTINUOUS
10
15.1808630708661418
20
-11.2540530314960634
11
15.1759886614173229
21
-11.256490236220472
0
LINE
8
BLACK
6
CONTINUOUS
10
15.1759886614173229
20
-11.256490236220472
11
15.1735514566929126
21
-11.2589274409448823
0
LINE
8
BLACK
6
CONTINUOUS
10
15.1735514566929126
20
-11.2589274409448823
11
15.1711142913385828
21
-11.2638018110236224
0
LINE
8
BLACK
6
CONTINUOUS
10
15.1711142913385828
20
-11.2638018110236224
11
15.1711142913385828
21
-11.2735505905511815
0
LINE
8
BLACK
6
CONTINUOUS
10
15.1711142913385828
20
-11.2735505905511815
11
15.1735514566929126
21
-11.2784250000000004
0
LINE
8
BLACK
6
CONTINUOUS
10
15.1735514566929126
20
-11.2784250000000004
11
15.1759886614173229
21
-11.2808622047244089
0
LINE
8
BLACK
6
CONTINUOUS
10
15.1759886614173229
20
-11.2808622047244089
11
15.1808630708661418
21
-11.2832993700787405
0
LINE
8
BLACK
6
CONTINUOUS
10
15.1808630708661418
20
-11.2832993700787405
11
15.1906118503937009
21
-11.2832993700787405
0
LINE
8
BLACK
6
CONTINUOUS
10
15.1906118503937009
20
-11.2832993700787405
11
15.195486220472441
21
-11.2808622047244089
0
LINE
8
BLACK
6
CONTINUOUS
10
15.195486220472441
20
-11.2808622047244089
11
15.1979234251968496
21
-11.2784250000000004
0
LINE
8
BLACK
6
CONTINUOUS
10
15.1979234251968496
20
-11.2784250000000004
11
15.2003606299212599
21
-11.2735505905511815
0
LINE
8
BLACK
6
CONTINUOUS
10
15.2003606299212599
20
-11.2735505905511815
11
15.2003606299212599
21
-11.2638018110236224
0
LINE
8
BLACK
6
CONTINUOUS
10
15.2003606299212599
20
-11.2638018110236224
11
15.1979234251968496
21
-11.2589274409448823
0
LINE
8
BLACK
6
CONTINUOUS
10
15.1979234251968496
20
-11.2589274409448823
11
15.195486220472441
21
-11.256490236220472
0
LINE
8
BLACK
6
CONTINUOUS
10
15.195486220472441
20
-11.256490236220472
11
15.1906118503937009
21
-11.2540530314960634
0
LINE
8
BLACK
6
CONTINUOUS
10
0.3937007874015748
20
-2.3622047244094486
11
0.4724409448818898
21
-2.3622047244094486
0
LINE
8
BLACK
6
CONTINUOUS
10
0.3937007874015748
20
-4.3307086614173231
11
0.4724409448818898
21
-4.3307086614173231
0
LINE
8
BLACK
6
CONTINUOUS
10
0.3937007874015748
20
-6.2992125984251963
11
0.4724409448818898
21
-6.2992125984251963
0
LINE
8
BLACK
6
CONTINUOUS
10
0.3937007874015748
20
-8.2677165354330704
11
0.4724409448818898
21
-8.2677165354330704
0
LINE
8
BLACK
6
CONTINUOUS
10
0.3937007874015748
20
-10.2362204724409445
11
0.4724409448818898
21
-10.2362204724409445
0
LINE
8
BLACK
6
CONTINUOUS
10
0.4208848818897638
20
-1.386699842519685
11
0.445256811023622
21
-1.386699842519685
0
LINE
8
BLACK
6
CONTINUOUS
10
0.4160104724409449
20
-1.4013229921259842
11
0.4330708267716535
21
-1.3501418897637796
0
LINE
8
BLACK
6
CONTINUOUS
10
0.4330708267716535
20
-1.3501418897637796
11
0.4501312204724409
21
-1.4013229921259842
0
LINE
8
BLACK
6
CONTINUOUS
10
0.4367266535433071
20
-3.3430177952755904
11
0.4440382283464567
21
-3.3454549999999998
0
LINE
8
BLACK
6
CONTINUOUS
10
0.4440382283464567
20
-3.3454549999999998
11
0.4464754330708661
21
-3.3478921653543305
0
LINE
8
BLACK
6
CONTINUOUS
10
0.4464754330708661
20
-3.3478921653543305
11
0.4489125984251968
21
-3.3527665748031494
0
LINE
8
BLACK
6
CONTINUOUS
10
0.4489125984251968
20
-3.3527665748031494
11
0.4489125984251968
21
-3.360078149606299
0
LINE
8
BLACK
6
CONTINUOUS
10
0.4489125984251968
20
-3.360078149606299
11
0.4464754330708661
21
-3.3649525590551179
0
LINE
8
BLACK
6
CONTINUOUS
10
0.4464754330708661
20
-3.3649525590551179
11
0.4440382283464567
21
-3.3673897637795274
0
LINE
8
BLACK
6
CONTINUOUS
10
0.4440382283464567
20
-3.3673897637795274
11
0.4391638188976378
21
-3.3698269291338581
0
LINE
8
BLACK
6
CONTINUOUS
10
0.4391638188976378
20
-3.3698269291338581
11
0.4196662598425197
21
-3.3698269291338581
0
LINE
8
BLACK
6
CONTINUOUS
10
0.4196662598425197
20
-3.3698269291338581
11
0.4196662598425197
21
-3.3186458267716534
0
LINE
8
BLACK
6
CONTINUOUS
10
0.4196662598425197
20
-3.3186458267716534
11
0.4367266535433071
21
-3.3186458267716534
0
LINE
8
BLACK
6
CONTINUOUS
10
0.4367266535433071
20
-3.3186458267716534
11
0.4416010236220472
21
-3.3210830314960629
0
LINE
8
BLACK
6
CONTINUOUS
10
0.4416010236220472
20
-3.3210830314960629
11
0.4440382283464567
21
-3.3235202362204723
0
LINE
8
BLACK
6
CONTINUOUS
10
0.4440382283464567
20
-3.3235202362204723
11
0.4464754330708661
21
-3.3283946062992125
0
LINE
8
BLACK
6
CONTINUOUS
10
0.4464754330708661
20
-3.3283946062992125
11
0.4464754330708661
21
-3.3332690157480314
0
LINE
8
BLACK
6
CONTINUOUS
10
0.4464754330708661
20
-3.3332690157480314
11
0.4440382283464567
21
-3.3381433858267715
0
LINE
8
BLACK
6
CONTINUOUS
10
0.4440382283464567
20
-3.3381433858267715
11
0.4416010236220472
21
-3.340580590551181
0
LINE
8
BLACK
6
CONTINUOUS
10
0.4416010236220472
20
-3.340580590551181
11
0.4367266535433071
21
-3.3430177952755904
0
LINE
8
BLACK
6
CONTINUOUS
10
0.4367266535433071
20
-3.3430177952755904
11
0.4196662598425197
21
-3.3430177952755904
0
LINE
8
BLACK
6
CONTINUOUS
10
0.4489125984251968
20
-5.3334564960629924
11
0.4464754330708661
21
-5.3358937007874019
0
LINE
8
BLACK
6
CONTINUOUS
10
0.4464754330708661
20
-5.3358937007874019
11
0.4391638188976378
21
-5.3383308661417326
0
LINE
8
BLACK
6
CONTINUOUS
10
0.4391638188976378
20
-5.3383308661417326
11
0.4342894488188976
21
-5.3383308661417326
0
LINE
8
BLACK
6
CONTINUOUS
10
0.4342894488188976
20
-5.3383308661417326
11
0.426977874015748
21
-5.3358937007874019
0
LINE
8
BLACK
6
CONTINUOUS
10
0.426977874015748
20
-5.3358937007874019
11
0.4221034645669291
21
-5.331019291338583
0
LINE
8
BLACK
6
CONTINUOUS
10
0.4221034645669291
20
-5.331019291338583
11
0.4196662598425197
21
-5.3261448818897641
0
LINE
8
BLACK
6
CONTINUOUS
10
0.4196662598425197
20
-5.3261448818897641
11
0.417229094488189
21
-5.3163961023622042
0
LINE
8
BLACK
6
CONTINUOUS
10
0.417229094488189
20
-5.3163961023622042
11
0.417229094488189
21
-5.3090845275590546
0
LINE
8
BLACK
6
CONTINUOUS
10
0.417229094488189
20
-5.3090845275590546
11
0.4196662598425197
21
-5.2993357480314955
0
LINE
8
BLACK
6
CONTINUOUS
10
0.4196662598425197
20
-5.2993357480314955
11
0.4221034645669291
21
-5.2944613779527554
0
LINE
8
BLACK
6
CONTINUOUS
10
0.4221034645669291
20
-5.2944613779527554
11
0.426977874015748
21
-5.2895869685039365
0
LINE
8
BLACK
6
CONTINUOUS
10
0.426977874015748
20
-5.2895869685039365
11
0.4342894488188976
21
-5.2871497637795271
0
LINE
8
BLACK
6
CONTINUOUS
10
0.4342894488188976
20
-5.2871497637795271
11
0.4391638188976378
21
-5.2871497637795271
0
LINE
8
BLACK
6
CONTINUOUS
10
0.4391638188976378
20
-5.2871497637795271
11
0.4464754330708661
21
-5.2895869685039365
0
LINE
8
BLACK
6
CONTINUOUS
10
0.4464754330708661
20
-5.2895869685039365
11
0.4489125984251968
21
-5.292024173228346
0
LINE
8
BLACK
6
CONTINUOUS
10
0.4196662598425197
20
-7.3068348031496058
11
0.4196662598425197
21
-7.2556537007874011
0
LINE
8
BLACK
6
CONTINUOUS
10
0.4196662598425197
20
-7.2556537007874011
11
0.4318522440944882
21
-7.2556537007874011
0
LINE
8
BLACK
6
CONTINUOUS
10
0.4318522440944882
20
-7.2556537007874011
11
0.4391638188976378
21
-7.2580909055118106
0
LINE
8
BLACK
6
CONTINUOUS
10
0.4391638188976378
20
-7.2580909055118106
11
0.4440382283464567
21
-7.2629653149606295
0
LINE
8
BLACK
6
CONTINUOUS
10
0.4440382283464567
20
-7.2629653149606295
11
0.4464754330708661
21
-7.2678396850393696
0
LINE
8
BLACK
6
CONTINUOUS
10
0.4464754330708661
20
-7.2678396850393696
11
0.4489125984251968
21
-7.2775884645669286
0
LINE
8
BLACK
6
CONTINUOUS
10
0.4489125984251968
20
-7.2775884645669286
11
0.4489125984251968
21
-7.2849000393700782
0
LINE
8
BLACK
6
CONTINUOUS
10
0.4489125984251968
20
-7.2849000393700782
11
0.4464754330708661
21
-7.2946488188976373
0
LINE
8
BLACK
6
CONTINUOUS
10
0.4464754330708661
20
-7.2946488188976373
11
0.4440382283464567
21
-7.2995232283464562
0
LINE
8
BLACK
6
CONTINUOUS
10
0.4440382283464567
20
-7.2995232283464562
11
0.4391638188976378
21
-7.3043976377952751
0
LINE
8
BLACK
6
CONTINUOUS
10
0.4391638188976378
20
-7.3043976377952751
11
0.4318522440944882
21
-7.3068348031496058
0
LINE
8
BLACK
6
CONTINUOUS
10
0.4318522440944882
20
-7.3068348031496058
11
0.4196662598425197
21
-7.3068348031496058
0
LINE
8
BLACK
6
CONTINUOUS
10
0.4221034645669291
20
-9.2485296062992131
11
0.4391638582677165
21
-9.2485296062992131
0
LINE
8
BLACK
6
CONTINUOUS
10
0.4464754330708661
20
-9.2753387401574798
11
0.4221034645669291
21
-9.2753387401574798
0
LINE
8
BLACK
6
CONTINUOUS
10
0.4221034645669291
20
-9.2753387401574798
11
0.4221034645669291
21
-9.2241576377952761
0
LINE
8
BLACK
6
CONTINUOUS
10
0.4221034645669291
20
-9.2241576377952761
11
0.4464754330708661
21
-9.2241576377952761
0
LINE
8
BLACK
6
CONTINUOUS
10
0.4403824409448819
20
-11.2170335433070871
11
0.4233220472440945
21
-11.2170335433070871
0
LINE
8
BLACK
6
CONTINUOUS
10
0.4233220472440945
20
-11.2438426771653539
11
0.4233220472440945
21
-11.1926615748031502
0
LINE
8
BLACK
6
CONTINUOUS
10
0.4233220472440945
20
-11.1926615748031502
11
0.4476940157480315
21
-11.1926615748031502
0
LINE
8
BLACK
6
CONTINUOUS
10
16.141299212598426
20
-2.3622047244094486
11
16.0625590551181112
21
-2.3622047244094486
0
LINE
8
BLACK
6
CONTINUOUS
10
16.141299212598426
20
-4.3307086614173231
11
16.0625590551181112
21
-4.3307086614173231
0
LINE
8
BLACK
6
CONTINUOUS
10
16.141299212598426
20
-6.2992125984251963
11
16.0625590551181112
21
-6.2992125984251963
0
LINE
8
BLACK
6
CONTINUOUS
10
16.141299212598426
20
-8.2677165354330704
11
16.0625590551181112
21
-8.2677165354330704
0
LINE
8
BLACK
6
CONTINUOUS
10
16.141299212598426
20
-10.2362204724409445
11
16.0625590551181112
21
-10.2362204724409445
0
LINE
8
BLACK
6
CONTINUOUS
10
16.0897431496062993
20
-1.386699842519685
11
16.1141150787401557
21
-1.386699842519685
0
LINE
8
BLACK
6
CONTINUOUS
10
16.0848687401574786
20
-1.4013229921259842
11
16.1019290944881881
21
-1.3501418897637796
0
LINE
8
BLACK
6
CONTINUOUS
10
16.1019290944881881
20
-1.3501418897637796
11
16.1189894881889764
21
-1.4013229921259842
0
LINE
8
BLACK
6
CONTINUOUS
10
16.1055849212598439
20
-3.3430177952755904
11
16.1128964960629908
21
-3.3454549999999998
0
LINE
8
BLACK
6
CONTINUOUS
10
16.1128964960629908
20
-3.3454549999999998
11
16.1153337007874029
21
-3.3478921653543305
0
LINE
8
BLACK
6
CONTINUOUS
10
16.1153337007874029
20
-3.3478921653543305
11
16.1177708661417327
21
-3.3527665748031494
0
LINE
8
BLACK
6
CONTINUOUS
10
16.1177708661417327
20
-3.3527665748031494
11
16.1177708661417327
21
-3.360078149606299
0
LINE
8
BLACK
6
CONTINUOUS
10
16.1177708661417327
20
-3.360078149606299
11
16.1153337007874029
21
-3.3649525590551179
0
LINE
8
BLACK
6
CONTINUOUS
10
16.1153337007874029
20
-3.3649525590551179
11
16.1128964960629908
21
-3.3673897637795274
0
LINE
8
BLACK
6
CONTINUOUS
10
16.1128964960629908
20
-3.3673897637795274
11
16.1080220866141737
21
-3.3698269291338581
0
LINE
8
BLACK
6
CONTINUOUS
10
16.1080220866141737
20
-3.3698269291338581
11
16.0885245275590556
21
-3.3698269291338581
0
LINE
8
BLACK
6
CONTINUOUS
10
16.0885245275590556
20
-3.3698269291338581
11
16.0885245275590556
21
-3.3186458267716534
0
LINE
8
BLACK
6
CONTINUOUS
10
16.0885245275590556
20
-3.3186458267716534
11
16.1055849212598439
21
-3.3186458267716534
0
LINE
8
BLACK
6
CONTINUOUS
10
16.1055849212598439
20
-3.3186458267716534
11
16.1104592913385822
21
-3.3210830314960629
0
LINE
8
BLACK
6
CONTINUOUS
10
16.1104592913385822
20
-3.3210830314960629
11
16.1128964960629908
21
-3.3235202362204723
0
LINE
8
BLACK
6
CONTINUOUS
10
16.1128964960629908
20
-3.3235202362204723
11
16.1153337007874029
21
-3.3283946062992125
0
LINE
8
BLACK
6
CONTINUOUS
10
16.1153337007874029
20
-3.3283946062992125
11
16.1153337007874029
21
-3.3332690157480314
0
LINE
8
BLACK
6
CONTINUOUS
10
16.1153337007874029
20
-3.3332690157480314
11
16.1128964960629908
21
-3.3381433858267715
0
LINE
8
BLACK
6
CONTINUOUS
10
16.1128964960629908
20
-3.3381433858267715
11
16.1104592913385822
21
-3.340580590551181
0
LINE
8
BLACK
6
CONTINUOUS
10
16.1104592913385822
20
-3.340580590551181
11
16.1055849212598439
21
-3.3430177952755904
0
LINE
8
BLACK
6
CONTINUOUS
10
16.1055849212598439
20
-3.3430177952755904
11
16.0885245275590556
21
-3.3430177952755904
0
LINE
8
BLACK
6
CONTINUOUS
10
16.1177708661417327
20
-5.3334564960629924
11
16.1153337007874029
21
-5.3358937007874019
0
LINE
8
BLACK
6
CONTINUOUS
10
16.1153337007874029
20
-5.3358937007874019
11
16.1080220866141737
21
-5.3383308661417326
0
LINE
8
BLACK
6
CONTINUOUS
10
16.1080220866141737
20
-5.3383308661417326
11
16.1031477165354318
21
-5.3383308661417326
0
LINE
8
BLACK
6
CONTINUOUS
10
16.1031477165354318
20
-5.3383308661417326
11
16.0958361417322848
21
-5.3358937007874019
0
LINE
8
BLACK
6
CONTINUOUS
10
16.0958361417322848
20
-5.3358937007874019
11
16.0909617322834642
21
-5.331019291338583
0
LINE
8
BLACK
6
CONTINUOUS
10
16.0909617322834642
20
-5.331019291338583
11
16.0885245275590556
21
-5.3261448818897641
0
LINE
8
BLACK
6
CONTINUOUS
10
16.0885245275590556
20
-5.3261448818897641
11
16.0860873622047258
21
-5.3163961023622042
0
LINE
8
BLACK
6
CONTINUOUS
10
16.0860873622047258
20
-5.3163961023622042
11
16.0860873622047258
21
-5.3090845275590546
0
LINE
8
BLACK
6
CONTINUOUS
10
16.0860873622047258
20
-5.3090845275590546
11
16.0885245275590556
21
-5.2993357480314955
0
LINE
8
BLACK
6
CONTINUOUS
10
16.0885245275590556
20
-5.2993357480314955
11
16.0909617322834642
21
-5.2944613779527554
0
LINE
8
BLACK
6
CONTINUOUS
10
16.0909617322834642
20
-5.2944613779527554
11
16.0958361417322848
21
-5.2895869685039365
0
LINE
8
BLACK
6
CONTINUOUS
10
16.0958361417322848
20
-5.2895869685039365
11
16.1031477165354318
21
-5.2871497637795271
0
LINE
8
BLACK
6
CONTINUOUS
10
16.1031477165354318
20
-5.2871497637795271
11
16.1080220866141737
21
-5.2871497637795271
0
LINE
8
BLACK
6
CONTINUOUS
10
16.1080220866141737
20
-5.2871497637795271
11
16.1153337007874029
21
-5.2895869685039365
0
LINE
8
BLACK
6
CONTINUOUS
10
16.1153337007874029
20
-5.2895869685039365
11
16.1177708661417327
21
-5.292024173228346
0
LINE
8
BLACK
6
CONTINUOUS
10
16.0885245275590556
20
-7.3068348031496058
11
16.0885245275590556
21
-7.2556537007874011
0
LINE
8
BLACK
6
CONTINUOUS
10
16.0885245275590556
20
-7.2556537007874011
11
16.1007105118110232
21
-7.2556537007874011
0
LINE
8
BLACK
6
CONTINUOUS
10
16.1007105118110232
20
-7.2556537007874011
11
16.1080220866141737
21
-7.2580909055118106
0
LINE
8
BLACK
6
CONTINUOUS
10
16.1080220866141737
20
-7.2580909055118106
11
16.1128964960629908
21
-7.2629653149606295
0
LINE
8
BLACK
6
CONTINUOUS
10
16.1128964960629908
20
-7.2629653149606295
11
16.1153337007874029
21
-7.2678396850393696
0
LINE
8
BLACK
6
CONTINUOUS
10
16.1153337007874029
20
-7.2678396850393696
11
16.1177708661417327
21
-7.2775884645669286
0
LINE
8
BLACK
6
CONTINUOUS
10
16.1177708661417327
20
-7.2775884645669286
11
16.1177708661417327
21
-7.2849000393700782
0
LINE
8
BLACK
6
CONTINUOUS
10
16.1177708661417327
20
-7.2849000393700782
11
16.1153337007874029
21
-7.2946488188976373
0
LINE
8
BLACK
6
CONTINUOUS
10
16.1153337007874029
20
-7.2946488188976373
11
16.1128964960629908
21
-7.2995232283464562
0
LINE
8
BLACK
6
CONTINUOUS
10
16.1128964960629908
20
-7.2995232283464562
11
16.1080220866141737
21
-7.3043976377952751
0
LINE
8
BLACK
6
CONTINUOUS
10
16.1080220866141737
20
-7.3043976377952751
11
16.1007105118110232
21
-7.3068348031496058
0
LINE
8
BLACK
6
CONTINUOUS
10
16.1007105118110232
20
-7.3068348031496058
11
16.0885245275590556
21
-7.3068348031496058
0
LINE
8
BLACK
6
CONTINUOUS
10
16.0909617322834642
20
-9.2485296062992131
11
16.1080221259842524
21
-9.2485296062992131
0
LINE
8
BLACK
6
CONTINUOUS
10
16.1153337007874029
20
-9.2753387401574798
11
16.0909617322834642
21
-9.2753387401574798
0
LINE
8
BLACK
6
CONTINUOUS
10
16.0909617322834642
20
-9.2753387401574798
11
16.0909617322834642
21
-9.2241576377952761
0
LINE
8
BLACK
6
CONTINUOUS
10
16.0909617322834642
20
-9.2241576377952761
11
16.1153337007874029
21
-9.2241576377952761
0
LINE
8
BLACK
6
CONTINUOUS
10
16.1092407086614173
20
-11.2170335433070871
11
16.0921803149606291
21
-11.2170335433070871
0
LINE
8
BLACK
6
CONTINUOUS
10
16.0921803149606291
20
-11.2438426771653539
11
16.0921803149606291
21
-11.1926615748031502
0
LINE
8
BLACK
6
CONTINUOUS
10
16.0921803149606291
20
-11.1926615748031502
11
16.1165522834645678
21
-11.1926615748031502
0
LINE
8
BLACK
6
CONTINUOUS
10
12.7340482677165348
20
-11.0546585826771651
11
12.7340482677165348
21
-10.9956034645669281
0
LINE
8
BLACK
6
CONTINUOUS
10
12.7340482677165348
20
-10.9956034645669281
11
12.7481090157480317
21
-10.9956034645669281
0
LINE
8
BLACK
6
CONTINUOUS
10
12.7481090157480317
20
-10.9956034645669281
11
12.7565454724409442
21
-10.9984156299212597
0
LINE
8
BLACK
6
CONTINUOUS
10
12.7565454724409442
20
-10.9984156299212597
11
12.7621697637795268
21
-11.0040399212598423
0
LINE
8
BLACK
6
CONTINUOUS
10
12.7621697637795268
20
-11.0040399212598423
11
12.7649819291338584
21
-11.009664212598425
0
LINE
8
BLACK
6
CONTINUOUS
10
12.7649819291338584
20
-11.009664212598425
11
12.7677940551181095
21
-11.0209127952755903
0
LINE
8
BLACK
6
CONTINUOUS
10
12.7677940551181095
20
-11.0209127952755903
11
12.7677940551181095
21
-11.0293492519685028
0
LINE
8
BLACK
6
CONTINUOUS
10
12.7677940551181095
20
-11.0293492519685028
11
12.7649819291338584
21
-11.0405978346456699
0
LINE
8
BLACK
6
CONTINUOUS
10
12.7649819291338584
20
-11.0405978346456699
11
12.7621697637795268
21
-11.0462221259842526
0
LINE
8
BLACK
6
CONTINUOUS
10
12.7621697637795268
20
-11.0462221259842526
11
12.7565454724409442
21
-11.051846456692914
0
LINE
8
BLACK
6
CONTINUOUS
10
12.7565454724409442
20
-11.051846456692914
11
12.7481090157480317
21
-11.0546585826771651
0
LINE
8
BLACK
6
CONTINUOUS
10
12.7481090157480317
20
-11.0546585826771651
11
12.7340482677165348
21
-11.0546585826771651
0
LINE
8
BLACK
6
CONTINUOUS
10
12.818412755905511
20
-11.0546585826771651
11
12.818412755905511
21
-11.0237249606299201
0
LINE
8
BLACK
6
CONTINUOUS
10
12.818412755905511
20
-11.0237249606299201
11
12.8156005905511812
21
-11.0181006692913375
0
LINE
8
BLACK
6
CONTINUOUS
10
12.8156005905511812
20
-11.0181006692913375
11
12.8099762992125985
21
-11.0152885039370076
0
LINE
8
BLACK
6
CONTINUOUS
10
12.8099762992125985
20
-11.0152885039370076
11
12.7987277165354332
21
-11.0152885039370076
0
LINE
8
BLACK
6
CONTINUOUS
10
12.7987277165354332
20
-11.0152885039370076
11
12.7931033858267718
21
-11.0181006692913375
0
LINE
8
BLACK
6
CONTINUOUS
10
12.818412755905511
20
-11.051846456692914
11
12.8127884251968496
21
-11.0546585826771651
0
LINE
8
BLACK
6
CONTINUOUS
10
12.8127884251968496
20
-11.0546585826771651
11
12.7987277165354332
21
-11.0546585826771651
0
LINE
8
BLACK
6
CONTINUOUS
10
12.7987277165354332
20
-11.0546585826771651
11
12.7931033858267718
21
-11.051846456692914
0
LINE
8
BLACK
6
CONTINUOUS
10
12.7931033858267718
20
-11.051846456692914
11
12.7902912598425189
21
-11.0462221259842526
0
LINE
8
BLACK
6
CONTINUOUS
10
12.7902912598425189
20
-11.0462221259842526
11
12.7902912598425189
21
-11.0405978346456699
0
LINE
8
BLACK
6
CONTINUOUS
10
12.7902912598425189
20
-11.0405978346456699
11
12.7931033858267718
21
-11.0349735433070872
0
LINE
8
BLACK
6
CONTINUOUS
10
12.7931033858267718
20
-11.0349735433070872
11
12.7987277165354332
21
-11.0321614173228344
0
LINE
8
BLACK
6
CONTINUOUS
10
12.7987277165354332
20
-11.0321614173228344
11
12.8127884251968496
21
-11.0321614173228344
0
LINE
8
BLACK
6
CONTINUOUS
10
12.8127884251968496
20
-11.0321614173228344
11
12.818412755905511
21
-11.0293492519685028
0
LINE
8
BLACK
6
CONTINUOUS
10
12.8380977952755906
20
-11.0152885039370076
11
12.8605949606299212
21
-11.0152885039370076
0
LINE
8
BLACK
6
CONTINUOUS
10
12.8465342125984243
20
-10.9956034645669281
11
12.8465342125984243
21
-11.0462221259842526
0
LINE
8
BLACK
6
CONTINUOUS
10
12.8465342125984243
20
-11.0462221259842526
11
12.8493463779527559
21
-11.051846456692914
0
LINE
8
BLACK
6
CONTINUOUS
10
12.8493463779527559
20
-11.051846456692914
11
12.8549706692913386
21
-11.0546585826771651
0
LINE
8
BLACK
6
CONTINUOUS
10
12.8549706692913386
20
-11.0546585826771651
11
12.8605949606299212
21
-11.0546585826771651
0
LINE
8
BLACK
6
CONTINUOUS
10
12.9027772047244085
20
-11.051846456692914
11
12.8971529133858258
21
-11.0546585826771651
0
LINE
8
BLACK
6
CONTINUOUS
10
12.8971529133858258
20
-11.0546585826771651
11
12.8859043307086605
21
-11.0546585826771651
0
LINE
8
BLACK
6
CONTINUOUS
10
12.8859043307086605
20
-11.0546585826771651
11
12.8802799999999991
21
-11.051846456692914
0
LINE
8
BLACK
6
CONTINUOUS
10
12.8802799999999991
20
-11.051846456692914
11
12.877467874015748
21
-11.0462221259842526
0
LINE
8
BLACK
6
CONTINUOUS
10
12.877467874015748
20
-11.0462221259842526
11
12.877467874015748
21
-11.0237249606299201
0
LINE
8
BLACK
6
CONTINUOUS
10
12.877467874015748
20
-11.0237249606299201
11
12.8802799999999991
21
-11.0181006692913375
0
LINE
8
BLACK
6
CONTINUOUS
10
12.8802799999999991
20
-11.0181006692913375
11
12.8859043307086605
21
-11.0152885039370076
0
LINE
8
BLACK
6
CONTINUOUS
10
12.8859043307086605
20
-11.0152885039370076
11
12.8971529133858258
21
-11.0152885039370076
0
LINE
8
BLACK
6
CONTINUOUS
10
12.8971529133858258
20
-11.0152885039370076
11
12.9027772047244085
21
-11.0181006692913375
0
LINE
8
BLACK
6
CONTINUOUS
10
12.9027772047244085
20
-11.0181006692913375
11
12.9055893700787401
21
-11.0237249606299201
0
LINE
8
BLACK
6
CONTINUOUS
10
12.9055893700787401
20
-11.0237249606299201
11
12.9055893700787401
21
-11.0293492519685028
0
LINE
8
BLACK
6
CONTINUOUS
10
12.9055893700787401
20
-11.0293492519685028
11
12.877467874015748
21
-11.0349735433070872
0
LINE
8
BLACK
6
CONTINUOUS
10
12.9308986614173218
20
-11.0490342913385824
11
12.9337108267716534
21
-11.051846456692914
0
LINE
8
BLACK
6
CONTINUOUS
10
12.9337108267716534
20
-11.051846456692914
11
12.9308986614173218
21
-11.0546585826771651
0
LINE
8
BLACK
6
CONTINUOUS
10
12.9308986614173218
20
-11.0546585826771651
11
12.9280865354330707
21
-11.051846456692914
0
LINE
8
BLACK
6
CONTINUOUS
10
12.9280865354330707
20
-11.051846456692914
11
12.9308986614173218
21
-11.0490342913385824
0
LINE
8
BLACK
6
CONTINUOUS
10
12.9308986614173218
20
-11.0490342913385824
11
12.9308986614173218
21
-11.0546585826771651
0
LINE
8
BLACK
6
CONTINUOUS
10
12.9308986614173218
20
-11.0181006692913375
11
12.9337108267716534
21
-11.0209127952755903
0
LINE
8
BLACK
6
CONTINUOUS
10
12.9337108267716534
20
-11.0209127952755903
11
12.9308986614173218
21
-11.0237249606299201
0
LINE
8
BLACK
6
CONTINUOUS
10
12.9308986614173218
20
-11.0237249606299201
11
12.9280865354330707
21
-11.0209127952755903
0
LINE
8
BLACK
6
CONTINUOUS
10
12.9280865354330707
20
-11.0209127952755903
11
12.9308986614173218
21
-11.0181006692913375
0
LINE
8
BLACK
6
CONTINUOUS
10
12.9308986614173218
20
-11.0181006692913375
11
12.9308986614173218
21
-11.0237249606299201
0
LINE
8
BLACK
6
CONTINUOUS
10
13.0349481889763776
20
-11.0546585826771651
11
13.0012024015748029
21
-11.0546585826771651
0
LINE
8
BLACK
6
CONTINUOUS
10
13.0180752755905509
20
-11.0546585826771651
11
13.0180752755905509
21
-10.9956034645669281
0
LINE
8
BLACK
6
CONTINUOUS
10
13.0180752755905509
20
-10.9956034645669281
11
13.0124509842519682
21
-11.0040399212598423
0
LINE
8
BLACK
6
CONTINUOUS
10
13.0124509842519682
20
-11.0040399212598423
11
13.0068266929133856
21
-11.009664212598425
0
LINE
8
BLACK
6
CONTINUOUS
10
13.0068266929133856
20
-11.009664212598425
11
13.0012024015748029
21
-11.0124763779527548
0
LINE
8
BLACK
6
CONTINUOUS
10
13.0883789763779532
20
-10.9956034645669281
11
13.0602574803149611
21
-10.9956034645669281
0
LINE
8
BLACK
6
CONTINUOUS
10
13.0602574803149611
20
-10.9956034645669281
11
13.0574453543307083
21
-11.0237249606299201
0
LINE
8
BLACK
6
CONTINUOUS
10
13.0574453543307083
20
-11.0237249606299201
11
13.0602574803149611
21
-11.0209127952755903
0
LINE
8
BLACK
6
CONTINUOUS
10
13.0602574803149611
20
-11.0209127952755903
11
13.0658818110236226
21
-11.0181006692913375
0
LINE
8
BLACK
6
CONTINUOUS
10
13.0658818110236226
20
-11.0181006692913375
11
13.079942519685039
21
-11.0181006692913375
0
LINE
8
BLACK
6
CONTINUOUS
10
13.079942519685039
20
-11.0181006692913375
11
13.0855668503937004
21
-11.0209127952755903
0
LINE
8
BLACK
6
CONTINUOUS
10
13.0855668503937004
20
-11.0209127952755903
11
13.0883789763779532
21
-11.0237249606299201
0
LINE
8
BLACK
6
CONTINUOUS
10
13.0883789763779532
20
-11.0237249606299201
11
13.091191141732283
21
-11.0293492519685028
0
LINE
8
BLACK
6
CONTINUOUS
10
13.091191141732283
20
-11.0293492519685028
11
13.091191141732283
21
-11.0434099999999997
0
LINE
8
BLACK
6
CONTINUOUS
10
13.091191141732283
20
-11.0434099999999997
11
13.0883789763779532
21
-11.0490342913385824
0
LINE
8
BLACK
6
CONTINUOUS
10
13.0883789763779532
20
-11.0490342913385824
11
13.0855668503937004
21
-11.051846456692914
0
LINE
8
BLACK
6
CONTINUOUS
10
13.0855668503937004
20
-11.051846456692914
11
13.079942519685039
21
-11.0546585826771651
0
LINE
8
BLACK
6
CONTINUOUS
10
13.079942519685039
20
-11.0546585826771651
11
13.0658818110236226
21
-11.0546585826771651
0
LINE
8
BLACK
6
CONTINUOUS
10
13.0658818110236226
20
-11.0546585826771651
11
13.0602574803149611
21
-11.051846456692914
0
LINE
8
BLACK
6
CONTINUOUS
10
13.0602574803149611
20
-11.051846456692914
11
13.0574453543307083
21
-11.0490342913385824
0
LINE
8
BLACK
6
CONTINUOUS
10
13.1614948031496066
20
-11.0152885039370076
11
13.1614948031496066
21
-11.0546585826771651
0
LINE
8
BLACK
6
CONTINUOUS
10
13.1614948031496066
20
-11.0209127952755903
11
13.1643069685039364
21
-11.0181006692913375
0
LINE
8
BLACK
6
CONTINUOUS
10
13.1643069685039364
20
-11.0181006692913375
11
13.1699312598425191
21
-11.0152885039370076
0
LINE
8
BLACK
6
CONTINUOUS
10
13.1699312598425191
20
-11.0152885039370076
11
13.1783677165354334
21
-11.0152885039370076
0
LINE
8
BLACK
6
CONTINUOUS
10
13.1783677165354334
20
-11.0152885039370076
11
13.183992007874016
21
-11.0181006692913375
0
LINE
8
BLACK
6
CONTINUOUS
10
13.183992007874016
20
-11.0181006692913375
11
13.1868041732283459
21
-11.0237249606299201
0
LINE
8
BLACK
6
CONTINUOUS
10
13.1868041732283459
20
-11.0237249606299201
11
13.1868041732283459
21
-11.0546585826771651
0
LINE
8
BLACK
6
CONTINUOUS
10
13.2233620866141734
20
-11.0546585826771651
11
13.2177377952755908
21
-11.051846456692914
0
LINE
8
BLACK
6
CONTINUOUS
10
13.2177377952755908
20
-11.051846456692914
11
13.2149256299212592
21
-11.0490342913385824
0
LINE
8
BLACK
6
CONTINUOUS
10
13.2149256299212592
20
-11.0490342913385824
11
13.2121135039370081
21
-11.0434099999999997
0
LINE
8
BLACK
6
CONTINUOUS
10
13.2121135039370081
20
-11.0434099999999997
11
13.2121135039370081
21
-11.026537086614173
0
LINE
8
BLACK
6
CONTINUOUS
10
13.2121135039370081
20
-11.026537086614173
11
13.2149256299212592
21
-11.0209127952755903
0
LINE
8
BLACK
6
CONTINUOUS
10
13.2149256299212592
20
-11.0209127952755903
11
13.2177377952755908
21
-11.0181006692913375
0
LINE
8
BLACK
6
CONTINUOUS
10
13.2177377952755908
20
-11.0181006692913375
11
13.2233620866141734
21
-11.0152885039370076
0
LINE
8
BLACK
6
CONTINUOUS
10
13.2233620866141734
20
-11.0152885039370076
11
13.2317985433070859
21
-11.0152885039370076
0
LINE
8
BLACK
6
CONTINUOUS
10
13.2317985433070859
20
-11.0152885039370076
11
13.2374228346456686
21
-11.0181006692913375
0
LINE
8
BLACK
6
CONTINUOUS
10
13.2374228346456686
20
-11.0181006692913375
11
13.2402350000000002
21
-11.0209127952755903
0
LINE
8
BLACK
6
CONTINUOUS
10
13.2402350000000002
20
-11.0209127952755903
11
13.2430471259842513
21
-11.026537086614173
0
LINE
8
BLACK
6
CONTINUOUS
10
13.2430471259842513
20
-11.026537086614173
11
13.2430471259842513
21
-11.0434099999999997
0
LINE
8
BLACK
6
CONTINUOUS
10
13.2430471259842513
20
-11.0434099999999997
11
13.2402350000000002
21
-11.0490342913385824
0
LINE
8
BLACK
6
CONTINUOUS
10
13.2402350000000002
20
-11.0490342913385824
11
13.2374228346456686
21
-11.051846456692914
0
LINE
8
BLACK
6
CONTINUOUS
10
13.2374228346456686
20
-11.051846456692914
11
13.2317985433070859
21
-11.0546585826771651
0
LINE
8
BLACK
6
CONTINUOUS
10
13.2317985433070859
20
-11.0546585826771651
11
13.2233620866141734
21
-11.0546585826771651
0
LINE
8
BLACK
6
CONTINUOUS
10
13.2627321653543309
20
-11.0152885039370076
11
13.276792913385826
21
-11.0546585826771651
0
LINE
8
BLACK
6
CONTINUOUS
10
13.276792913385826
20
-11.0546585826771651
11
13.2908536614173229
21
-11.0152885039370076
0
LINE
8
BLACK
6
CONTINUOUS
10
13.3555330708661408
20
-11.0012277559055107
11
13.3583451968503937
21
-10.9984156299212597
0
LINE
8
BLACK
6
CONTINUOUS
10
13.3583451968503937
20
-10.9984156299212597
11
13.3639695275590551
21
-10.9956034645669281
0
LINE
8
BLACK
6
CONTINUOUS
10
13.3639695275590551
20
-10.9956034645669281
11
13.3780302362204715
21
-10.9956034645669281
0
LINE
8
BLACK
6
CONTINUOUS
10
13.3780302362204715
20
-10.9956034645669281
11
13.3836545669291329
21
-10.9984156299212597
0
LINE
8
BLACK
6
CONTINUOUS
10
13.3836545669291329
20
-10.9984156299212597
11
13.3864666929133858
21
-11.0012277559055107
0
LINE
8
BLACK
6
CONTINUOUS
10
13.3864666929133858
20
-11.0012277559055107
11
13.3892788582677156
21
-11.0068520472440934
0
LINE
8
BLACK
6
CONTINUOUS
10
13.3892788582677156
20
-11.0068520472440934
11
13.3892788582677156
21
-11.0124763779527548
0
LINE
8
BLACK
6
CONTINUOUS
10
13.3892788582677156
20
-11.0124763779527548
11
13.3864666929133858
21
-11.0209127952755903
0
LINE
8
BLACK
6
CONTINUOUS
10
13.3864666929133858
20
-11.0209127952755903
11
13.352720905511811
21
-11.0546585826771651
0
LINE
8
BLACK
6
CONTINUOUS
10
13.352720905511811
20
-11.0546585826771651
11
13.3892788582677156
21
-11.0546585826771651
0
LINE
8
BLACK
6
CONTINUOUS
10
13.4258367716535432
20
-10.9956034645669281
11
13.4314610629921258
21
-10.9956034645669281
0
LINE
8
BLACK
6
CONTINUOUS
10
13.4314610629921258
20
-10.9956034645669281
11
13.4370853543307085
21
-10.9984156299212597
0
LINE
8
BLACK
6
CONTINUOUS
10
13.4370853543307085
20
-10.9984156299212597
11
13.4398975196850383
21
-11.0012277559055107
0
LINE
8
BLACK
6
CONTINUOUS
10
13.4398975196850383
20
-11.0012277559055107
11
13.4427096456692912
21
-11.0068520472440934
0
LINE
8
BLACK
6
CONTINUOUS
10
13.4427096456692912
20
-11.0068520472440934
11
13.445521811023621
21
-11.0181006692913375
0
LINE
8
BLACK
6
CONTINUOUS
10
13.445521811023621
20
-11.0181006692913375
11
13.445521811023621
21
-11.0321614173228344
0
LINE
8
BLACK
6
CONTINUOUS
10
13.445521811023621
20
-11.0321614173228344
11
13.4427096456692912
21
-11.0434099999999997
0
LINE
8
BLACK
6
CONTINUOUS
10
13.4427096456692912
20
-11.0434099999999997
11
13.4398975196850383
21
-11.0490342913385824
0
LINE
8
BLACK
6
CONTINUOUS
10
13.4398975196850383
20
-11.0490342913385824
11
13.4370853543307085
21
-11.051846456692914
0
LINE
8
BLACK
6
CONTINUOUS
10
13.4370853543307085
20
-11.051846456692914
11
13.4314610629921258
21
-11.0546585826771651
0
LINE
8
BLACK
6
CONTINUOUS
10
13.4314610629921258
20
-11.0546585826771651
11
13.4258367716535432
21
-11.0546585826771651
0
LINE
8
BLACK
6
CONTINUOUS
10
13.4258367716535432
20
-11.0546585826771651
11
13.4202124803149605
21
-11.051846456692914
0
LINE
8
BLACK
6
CONTINUOUS
10
13.4202124803149605
20
-11.051846456692914
11
13.4174003149606289
21
-11.0490342913385824
0
LINE
8
BLACK
6
CONTINUOUS
10
13.4174003149606289
20
-11.0490342913385824
11
13.4145881496062991
21
-11.0434099999999997
0
LINE
8
BLACK
6
CONTINUOUS
10
13.4145881496062991
20
-11.0434099999999997
11
13.4117760236220462
21
-11.0321614173228344
0
LINE
8
BLACK
6
CONTINUOUS
10
13.4117760236220462
20
-11.0321614173228344
11
13.4117760236220462
21
-11.0181006692913375
0
LINE
8
BLACK
6
CONTINUOUS
10
13.4117760236220462
20
-11.0181006692913375
11
13.4145881496062991
21
-11.0068520472440934
0
LINE
8
BLACK
6
CONTINUOUS
10
13.4145881496062991
20
-11.0068520472440934
11
13.4174003149606289
21
-11.0012277559055107
0
LINE
8
BLACK
6
CONTINUOUS
10
13.4174003149606289
20
-11.0012277559055107
11
13.4202124803149605
21
-10.9984156299212597
0
LINE
8
BLACK
6
CONTINUOUS
10
13.4202124803149605
20
-10.9984156299212597
11
13.4258367716535432
21
-10.9956034645669281
0
LINE
8
BLACK
6
CONTINUOUS
10
13.5017647637795264
20
-11.0546585826771651
11
13.4680189763779516
21
-11.0546585826771651
0
LINE
8
BLACK
6
CONTINUOUS
10
13.4848918503936996
20
-11.0546585826771651
11
13.4848918503936996
21
-10.9956034645669281
0
LINE
8
BLACK
6
CONTINUOUS
10
13.4848918503936996
20
-10.9956034645669281
11
13.479267559055117
21
-11.0040399212598423
0
LINE
8
BLACK
6
CONTINUOUS
10
13.479267559055117
20
-11.0040399212598423
11
13.4736432677165343
21
-11.009664212598425
0
LINE
8
BLACK
6
CONTINUOUS
10
13.4736432677165343
20
-11.009664212598425
11
13.4680189763779516
21
-11.0124763779527548
0
LINE
8
BLACK
6
CONTINUOUS
10
13.5242619291338588
20
-11.0012277559055107
11
13.5270740551181099
21
-10.9984156299212597
0
LINE
8
BLACK
6
CONTINUOUS
10
13.5270740551181099
20
-10.9984156299212597
11
13.5326983858267713
21
-10.9956034645669281
0
LINE
8
BLACK
6
CONTINUOUS
10
13.5326983858267713
20
-10.9956034645669281
11
13.5467590944881895
21
-10.9956034645669281
0
LINE
8
BLACK
6
CONTINUOUS
10
13.5467590944881895
20
-10.9956034645669281
11
13.5523834251968509
21
-10.9984156299212597
0
LINE
8
BLACK
6
CONTINUOUS
10
13.5523834251968509
20
-10.9984156299212597
11
13.555195551181102
21
-11.0012277559055107
0
LINE
8
BLACK
6
CONTINUOUS
10
13.555195551181102
20
-11.0012277559055107
11
13.5580077165354336
21
-11.0068520472440934
0
LINE
8
BLACK
6
CONTINUOUS
10
13.5580077165354336
20
-11.0068520472440934
11
13.5580077165354336
21
-11.0124763779527548
0
LINE
8
BLACK
6
CONTINUOUS
10
13.5580077165354336
20
-11.0124763779527548
11
13.555195551181102
21
-11.0209127952755903
0
LINE
8
BLACK
6
CONTINUOUS
10
13.555195551181102
20
-11.0209127952755903
11
13.5214497637795272
21
-11.0546585826771651
0
LINE
8
BLACK
6
CONTINUOUS
10
13.5214497637795272
20
-11.0546585826771651
11
13.5580077165354336
21
-11.0546585826771651
0
LINE
8
BLACK
6
CONTINUOUS
10
11.810590551181102
20
-11.0827637795275589
11
16.0625590551181112
21
-11.0827637795275589
0
LINE
8
BLACK
6
CONTINUOUS
10
11.8679065354330699
20
-11.1648948031496058
11
11.8679065354330699
21
-11.1058396850393706
0
LINE
8
BLACK
6
CONTINUOUS
10
11.9016523228346447
20
-11.1648948031496058
11
11.8763429921259842
21
-11.1311490157480311
0
LINE
8
BLACK
6
CONTINUOUS
10
11.9016523228346447
20
-11.1058396850393706
11
11.8679065354330699
21
-11.1395854724409453
0
LINE
8
BLACK
6
CONTINUOUS
10
11.926961653543307
20
-11.1648948031496058
11
11.926961653543307
21
-11.1255247244094484
0
LINE
8
BLACK
6
CONTINUOUS
10
11.926961653543307
20
-11.1058396850393706
11
11.9241495275590541
21
-11.1086518503937004
0
LINE
8
BLACK
6
CONTINUOUS
10
11.9241495275590541
20
-11.1086518503937004
11
11.926961653543307
21
-11.1114639763779532
0
LINE
8
BLACK
6
CONTINUOUS
10
11.926961653543307
20
-11.1114639763779532
11
11.9297738188976368
21
-11.1086518503937004
0
LINE
8
BLACK
6
CONTINUOUS
10
11.9297738188976368
20
-11.1086518503937004
11
11.926961653543307
21
-11.1058396850393706
0
LINE
8
BLACK
6
CONTINUOUS
10
11.926961653543307
20
-11.1058396850393706
11
11.926961653543307
21
-11.1114639763779532
0
LINE
8
BLACK
6
CONTINUOUS
10
11.9888289370078738
20
-11.1592705118110231
11
11.9860168110236209
21
-11.1620826771653547
0
LINE
8
BLACK
6
CONTINUOUS
10
11.9860168110236209
20
-11.1620826771653547
11
11.9775803543307084
21
-11.1648948031496058
0
LINE
8
BLACK
6
CONTINUOUS
10
11.9775803543307084
20
-11.1648948031496058
11
11.9719560629921258
21
-11.1648948031496058
0
LINE
8
BLACK
6
CONTINUOUS
10
11.9719560629921258
20
-11.1648948031496058
11
11.9635196062992115
21
-11.1620826771653547
0
LINE
8
BLACK
6
CONTINUOUS
10
11.9635196062992115
20
-11.1620826771653547
11
11.9578953149606289
21
-11.1564583464566933
0
LINE
8
BLACK
6
CONTINUOUS
10
11.9578953149606289
20
-11.1564583464566933
11
11.955083149606299
21
-11.1508340551181107
0
LINE
8
BLACK
6
CONTINUOUS
10
11.955083149606299
20
-11.1508340551181107
11
11.9522710236220462
21
-11.1395854724409453
0
LINE
8
BLACK
6
CONTINUOUS
10
11.9522710236220462
20
-11.1395854724409453
11
11.9522710236220462
21
-11.1311490157480311
0
LINE
8
BLACK
6
CONTINUOUS
10
11.9522710236220462
20
-11.1311490157480311
11
11.955083149606299
21
-11.1199004330708657
0
LINE
8
BLACK
6
CONTINUOUS
10
11.955083149606299
20
-11.1199004330708657
11
11.9578953149606289
21
-11.1142761417322831
0
LINE
8
BLACK
6
CONTINUOUS
10
11.9578953149606289
20
-11.1142761417322831
11
11.9635196062992115
21
-11.1086518503937004
0
LINE
8
BLACK
6
CONTINUOUS
10
11.9635196062992115
20
-11.1086518503937004
11
11.9719560629921258
21
-11.1058396850393706
0
LINE
8
BLACK
6
CONTINUOUS
10
11.9719560629921258
20
-11.1058396850393706
11
11.9775803543307084
21
-11.1058396850393706
0
LINE
8
BLACK
6
CONTINUOUS
10
11.9775803543307084
20
-11.1058396850393706
11
11.9860168110236209
21
-11.1086518503937004
0
LINE
8
BLACK
6
CONTINUOUS
10
11.9860168110236209
20
-11.1086518503937004
11
11.9888289370078738
21
-11.1114639763779532
0
LINE
8
BLACK
6
CONTINUOUS
10
12.0394476377952753
20
-11.1648948031496058
11
12.0394476377952753
21
-11.1339611811023627
0
LINE
8
BLACK
6
CONTINUOUS
10
12.0394476377952753
20
-11.1339611811023627
11
12.0366354724409454
21
-11.12833688976378
0
LINE
8
BLACK
6
CONTINUOUS
10
12.0366354724409454
20
-11.12833688976378
11
12.0310111811023628
21
-11.1255247244094484
0
LINE
8
BLACK
6
CONTINUOUS
10
12.0310111811023628
20
-11.1255247244094484
11
12.0197625984251975
21
-11.1255247244094484
0
LINE
8
BLACK
6
CONTINUOUS
10
12.0197625984251975
20
-11.1255247244094484
11
12.014138267716536
21
-11.12833688976378
0
LINE
8
BLACK
6
CONTINUOUS
10
12.0394476377952753
20
-11.1620826771653547
11
12.0338233070866139
21
-11.1648948031496058
0
LINE
8
BLACK
6
CONTINUOUS
10
12.0338233070866139
20
-11.1648948031496058
11
12.0197625984251975
21
-11.1648948031496058
0
LINE
8
BLACK
6
CONTINUOUS
10
12.0197625984251975
20
-11.1648948031496058
11
12.014138267716536
21
-11.1620826771653547
0
LINE
8
BLACK
6
CONTINUOUS
10
12.014138267716536
20
-11.1620826771653547
11
12.0113261417322832
21
-11.1564583464566933
0
LINE
8
BLACK
6
CONTINUOUS
10
12.0113261417322832
20
-11.1564583464566933
11
12.0113261417322832
21
-11.1508340551181107
0
LINE
8
BLACK
6
CONTINUOUS
10
12.0113261417322832
20
-11.1508340551181107
11
12.014138267716536
21
-11.145209763779528
0
LINE
8
BLACK
6
CONTINUOUS
10
12.014138267716536
20
-11.145209763779528
11
12.0197625984251975
21
-11.1423976377952751
0
LINE
8
BLACK
6
CONTINUOUS
10
12.0197625984251975
20
-11.1423976377952751
11
12.0338233070866139
21
-11.1423976377952751
0
LINE
8
BLACK
6
CONTINUOUS
10
12.0338233070866139
20
-11.1423976377952751
11
12.0394476377952753
21
-11.1395854724409453
0
LINE
8
BLACK
6
CONTINUOUS
10
12.0928784645669296
20
-11.1648948031496058
11
12.0928784645669296
21
-11.1058396850393706
0
LINE
8
BLACK
6
CONTINUOUS
10
12.0928784645669296
20
-11.1620826771653547
11
12.0872541338582682
21
-11.1648948031496058
0
LINE
8
BLACK
6
CONTINUOUS
10
12.0872541338582682
20
-11.1648948031496058
11
12.0760055511811029
21
-11.1648948031496058
0
LINE
8
BLACK
6
CONTINUOUS
10
12.0760055511811029
20
-11.1648948031496058
11
12.0703812598425202
21
-11.1620826771653547
0
LINE
8
BLACK
6
CONTINUOUS
10
12.0703812598425202
20
-11.1620826771653547
11
12.0675690944881886
21
-11.1592705118110231
0
LINE
8
BLACK
6
CONTINUOUS
10
12.0675690944881886
20
-11.1592705118110231
11
12.0647569685039375
21
-11.1536462204724405
0
LINE
8
BLACK
6
CONTINUOUS
10
12.0647569685039375
20
-11.1536462204724405
11
12.0647569685039375
21
-11.1367733070866137
0
LINE
8
BLACK
6
CONTINUOUS
10
12.0647569685039375
20
-11.1367733070866137
11
12.0675690944881886
21
-11.1311490157480311
0
LINE
8
BLACK
6
CONTINUOUS
10
12.0675690944881886
20
-11.1311490157480311
11
12.0703812598425202
21
-11.12833688976378
0
LINE
8
BLACK
6
CONTINUOUS
10
12.0703812598425202
20
-11.12833688976378
11
12.0760055511811029
21
-11.1255247244094484
0
LINE
8
BLACK
6
CONTINUOUS
10
12.0760055511811029
20
-11.1255247244094484
11
12.0872541338582682
21
-11.1255247244094484
0
LINE
8
BLACK
6
CONTINUOUS
10
12.0872541338582682
20
-11.1255247244094484
11
12.0928784645669296
21
-11.12833688976378
0
LINE
8
BLACK
6
CONTINUOUS
10
12.165994291338583
20
-11.1339611811023627
11
12.1856793307086608
21
-11.1339611811023627
0
LINE
8
BLACK
6
CONTINUOUS
10
12.1941157874015751
20
-11.1648948031496058
11
12.165994291338583
21
-11.1648948031496058
0
LINE
8
BLACK
6
CONTINUOUS
10
12.165994291338583
20
-11.1648948031496058
11
12.165994291338583
21
-11.1058396850393706
0
LINE
8
BLACK
6
CONTINUOUS
10
12.165994291338583
20
-11.1058396850393706
11
12.1941157874015751
21
-11.1058396850393706
0
LINE
8
BLACK
6
CONTINUOUS
10
12.2194251181102356
20
-11.1592705118110231
11
12.2222372834645672
21
-11.1620826771653547
0
LINE
8
BLACK
6
CONTINUOUS
10
12.2222372834645672
20
-11.1620826771653547
11
12.2194251181102356
21
-11.1648948031496058
0
LINE
8
BLACK
6
CONTINUOUS
10
12.2194251181102356
20
-11.1648948031496058
11
12.2166129921259845
21
-11.1620826771653547
0
LINE
8
BLACK
6
CONTINUOUS
10
12.2166129921259845
20
-11.1620826771653547
11
12.2194251181102356
21
-11.1592705118110231
0
LINE
8
BLACK
6
CONTINUOUS
10
12.2194251181102356
20
-11.1592705118110231
11
12.2194251181102356
21
-11.1648948031496058
0
LINE
8
BLACK
6
CONTINUOUS
10
12.2475466141732277
20
-11.1648948031496058
11
12.2475466141732277
21
-11.1058396850393706
0
LINE
8
BLACK
6
CONTINUOUS
10
12.2475466141732277
20
-11.1058396850393706
11
12.2616073622047246
21
-11.1058396850393706
0
LINE
8
BLACK
6
CONTINUOUS
10
12.2616073622047246
20
-11.1058396850393706
11
12.2700438188976371
21
-11.1086518503937004
0
LINE
8
BLACK
6
CONTINUOUS
10
12.2700438188976371
20
-11.1086518503937004
11
12.2756681102362197
21
-11.1142761417322831
0
LINE
8
BLACK
6
CONTINUOUS
10
12.2756681102362197
20
-11.1142761417322831
11
12.2784802755905513
21
-11.1199004330708657
0
LINE
8
BLACK
6
CONTINUOUS
10
12.2784802755905513
20
-11.1199004330708657
11
12.2812924015748024
21
-11.1311490157480311
0
LINE
8
BLACK
6
CONTINUOUS
10
12.2812924015748024
20
-11.1311490157480311
11
12.2812924015748024
21
-11.1395854724409453
0
LINE
8
BLACK
6
CONTINUOUS
10
12.2812924015748024
20
-11.1395854724409453
11
12.2784802755905513
21
-11.1508340551181107
0
LINE
8
BLACK
6
CONTINUOUS
10
12.2784802755905513
20
-11.1508340551181107
11
12.2756681102362197
21
-11.1564583464566933
0
LINE
8
BLACK
6
CONTINUOUS
10
12.2756681102362197
20
-11.1564583464566933
11
12.2700438188976371
21
-11.1620826771653547
0
LINE
8
BLACK
6
CONTINUOUS
10
12.2700438188976371
20
-11.1620826771653547
11
12.2616073622047246
21
-11.1648948031496058
0
LINE
8
BLACK
6
CONTINUOUS
10
12.2616073622047246
20
-11.1648948031496058
11
12.2475466141732277
21
-11.1648948031496058
0
LINE
8
BLACK
6
CONTINUOUS
10
12.3066017322834647
20
-11.1592705118110231
11
12.3094138976377945
21
-11.1620826771653547
0
LINE
8
BLACK
6
CONTINUOUS
10
12.3094138976377945
20
-11.1620826771653547
11
12.3066017322834647
21
-11.1648948031496058
0
LINE
8
BLACK
6
CONTINUOUS
10
12.3066017322834647
20
-11.1648948031496058
11
12.3037896062992118
21
-11.1620826771653547
0
LINE
8
BLACK
6
CONTINUOUS
10
12.3037896062992118
20
-11.1620826771653547
11
12.3066017322834647
21
-11.1592705118110231
0
LINE
8
BLACK
6
CONTINUOUS
10
12.3066017322834647
20
-11.1592705118110231
11
12.3066017322834647
21
-11.1648948031496058
0
LINE
8
BLACK
6
CONTINUOUS
10
12.3319111023622039
20
-11.1480219291338578
11
12.360032598425196
21
-11.1480219291338578
0
LINE
8
BLACK
6
CONTINUOUS
10
12.3262868110236212
20
-11.1648948031496058
11
12.3459718503937008
21
-11.1058396850393706
0
LINE
8
BLACK
6
CONTINUOUS
10
12.3459718503937008
20
-11.1058396850393706
11
12.3656568897637786
21
-11.1648948031496058
0
LINE
8
BLACK
6
CONTINUOUS
10
12.3853418897637795
20
-11.1592705118110231
11
12.3881540551181093
21
-11.1620826771653547
0
LINE
8
BLACK
6
CONTINUOUS
10
12.3881540551181093
20
-11.1620826771653547
11
12.3853418897637795
21
-11.1648948031496058
0
LINE
8
BLACK
6
CONTINUOUS
10
12.3853418897637795
20
-11.1648948031496058
11
12.3825297637795266
21
-11.1620826771653547
0
LINE
8
BLACK
6
CONTINUOUS
10
12.3825297637795266
20
-11.1620826771653547
11
12.3853418897637795
21
-11.1592705118110231
0
LINE
8
BLACK
6
CONTINUOUS
10
12.3853418897637795
20
-11.1592705118110231
11
12.3853418897637795
21
-11.1648948031496058
0
LINE
8
BLACK
6
CONTINUOUS
10
12.4612699212598415
20
-11.1648948031496058
11
12.4725185039370068
21
-11.1648948031496058
0
LINE
8
BLACK
6
CONTINUOUS
10
12.4725185039370068
20
-11.1648948031496058
11
12.4781427952755894
21
-11.1620826771653547
0
LINE
8
BLACK
6
CONTINUOUS
10
12.4781427952755894
20
-11.1620826771653547
11
12.480954960629921
21
-11.1592705118110231
0
LINE
8
BLACK
6
CONTINUOUS
10
12.480954960629921
20
-11.1592705118110231
11
12.4865792519685037
21
-11.1508340551181107
0
LINE
8
BLACK
6
CONTINUOUS
10
12.4865792519685037
20
-11.1508340551181107
11
12.4893914173228335
21
-11.1395854724409453
0
LINE
8
BLACK
6
CONTINUOUS
10
12.4893914173228335
20
-11.1395854724409453
11
12.4893914173228335
21
-11.1170882677165359
0
LINE
8
BLACK
6
CONTINUOUS
10
12.4893914173228335
20
-11.1170882677165359
11
12.4865792519685037
21
-11.1114639763779532
0
LINE
8
BLACK
6
CONTINUOUS
10
12.4865792519685037
20
-11.1114639763779532
11
12.4837671259842509
21
-11.1086518503937004
0
LINE
8
BLACK
6
CONTINUOUS
10
12.4837671259842509
20
-11.1086518503937004
11
12.4781427952755894
21
-11.1058396850393706
0
LINE
8
BLACK
6
CONTINUOUS
10
12.4781427952755894
20
-11.1058396850393706
11
12.4668942125984241
21
-11.1058396850393706
0
LINE
8
BLACK
6
CONTINUOUS
10
12.4668942125984241
20
-11.1058396850393706
11
12.4612699212598415
21
-11.1086518503937004
0
LINE
8
BLACK
6
CONTINUOUS
10
12.4612699212598415
20
-11.1086518503937004
11
12.4584577559055116
21
-11.1114639763779532
0
LINE
8
BLACK
6
CONTINUOUS
10
12.4584577559055116
20
-11.1114639763779532
11
12.4556456299212588
21
-11.1170882677165359
0
LINE
8
BLACK
6
CONTINUOUS
10
12.4556456299212588
20
-11.1170882677165359
11
12.4556456299212588
21
-11.1311490157480311
0
LINE
8
BLACK
6
CONTINUOUS
10
12.4556456299212588
20
-11.1311490157480311
11
12.4584577559055116
21
-11.1367733070866137
0
LINE
8
BLACK
6
CONTINUOUS
10
12.4584577559055116
20
-11.1367733070866137
11
12.4612699212598415
21
-11.1395854724409453
0
LINE
8
BLACK
6
CONTINUOUS
10
12.4612699212598415
20
-11.1395854724409453
11
12.4668942125984241
21
-11.1423976377952751
0
LINE
8
BLACK
6
CONTINUOUS
10
12.4668942125984241
20
-11.1423976377952751
11
12.4781427952755894
21
-11.1423976377952751
0
LINE
8
BLACK
6
CONTINUOUS
10
12.4781427952755894
20
-11.1423976377952751
11
12.4837671259842509
21
-11.1395854724409453
0
LINE
8
BLACK
6
CONTINUOUS
10
12.4837671259842509
20
-11.1395854724409453
11
12.4865792519685037
21
-11.1367733070866137
0
LINE
8
BLACK
6
CONTINUOUS
10
12.4865792519685037
20
-11.1367733070866137
11
12.4893914173228335
21
-11.1311490157480311
0
LINE
8
BLACK
6
CONTINUOUS
10
12.514700708661417
20
-11.1592705118110231
11
12.5175128740157469
21
-11.1620826771653547
0
LINE
8
BLACK
6
CONTINUOUS
10
12.5175128740157469
20
-11.1620826771653547
11
12.514700708661417
21
-11.1648948031496058
0
LINE
8
BLACK
6
CONTINUOUS
10
12.514700708661417
20
-11.1648948031496058
11
12.5118885826771642
21
-11.1620826771653547
0
LINE
8
BLACK
6
CONTINUOUS
10
12.5118885826771642
20
-11.1620826771653547
11
12.514700708661417
21
-11.1592705118110231
0
LINE
8
BLACK
6
CONTINUOUS
10
12.514700708661417
20
-11.1592705118110231
11
12.514700708661417
21
-11.1648948031496058
0
LINE
8
BLACK
6
CONTINUOUS
10
12.5540708267716532
20
-11.1058396850393706
11
12.5596951181102359
21
-11.1058396850393706
0
LINE
8
BLACK
6
CONTINUOUS
10
12.5596951181102359
20
-11.1058396850393706
11
12.5653194094488185
21
-11.1086518503937004
0
LINE
8
BLACK
6
CONTINUOUS
10
12.5653194094488185
20
-11.1086518503937004
11
12.5681315748031501
21
-11.1114639763779532
0
LINE
8
BLACK
6
CONTINUOUS
10
12.5681315748031501
20
-11.1114639763779532
11
12.5709437007874012
21
-11.1170882677165359
0
LINE
8
BLACK
6
CONTINUOUS
10
12.5709437007874012
20
-11.1170882677165359
11
12.5737558661417328
21
-11.12833688976378
0
LINE
8
BLACK
6
CONTINUOUS
10
12.5737558661417328
20
-11.12833688976378
11
12.5737558661417328
21
-11.1423976377952751
0
LINE
8
BLACK
6
CONTINUOUS
10
12.5737558661417328
20
-11.1423976377952751
11
12.5709437007874012
21
-11.1536462204724405
0
LINE
8
BLACK
6
CONTINUOUS
10
12.5709437007874012
20
-11.1536462204724405
11
12.5681315748031501
21
-11.1592705118110231
0
LINE
8
BLACK
6
CONTINUOUS
10
12.5681315748031501
20
-11.1592705118110231
11
12.5653194094488185
21
-11.1620826771653547
0
LINE
8
BLACK
6
CONTINUOUS
10
12.5653194094488185
20
-11.1620826771653547
11
12.5596951181102359
21
-11.1648948031496058
0
LINE
8
BLACK
6
CONTINUOUS
10
12.5596951181102359
20
-11.1648948031496058
11
12.5540708267716532
21
-11.1648948031496058
0
LINE
8
BLACK
6
CONTINUOUS
10
12.5540708267716532
20
-11.1648948031496058
11
12.5484465354330705
21
-11.1620826771653547
0
LINE
8
BLACK
6
CONTINUOUS
10
12.5484465354330705
20
-11.1620826771653547
11
12.5456343700787407
21
-11.1592705118110231
0
LINE
8
BLACK
6
CONTINUOUS
10
12.5456343700787407
20
-11.1592705118110231
11
12.5428222047244091
21
-11.1536462204724405
0
LINE
8
BLACK
6
CONTINUOUS
10
12.5428222047244091
20
-11.1536462204724405
11
12.5400100787401581
21
-11.1423976377952751
0
LINE
8
BLACK
6
CONTINUOUS
10
12.5400100787401581
20
-11.1423976377952751
11
12.5400100787401581
21
-11.12833688976378
0
LINE
8
BLACK
6
CONTINUOUS
10
12.5400100787401581
20
-11.12833688976378
11
12.5428222047244091
21
-11.1170882677165359
0
LINE
8
BLACK
6
CONTINUOUS
10
12.5428222047244091
20
-11.1170882677165359
11
12.5456343700787407
21
-11.1114639763779532
0
LINE
8
BLACK
6
CONTINUOUS
10
12.5456343700787407
20
-11.1114639763779532
11
12.5484465354330705
21
-11.1086518503937004
0
LINE
8
BLACK
6
CONTINUOUS
10
12.5484465354330705
20
-11.1086518503937004
11
12.5540708267716532
21
-11.1058396850393706
0
LINE
8
BLACK
6
CONTINUOUS
10
12.5990651574803145
20
-11.1592705118110231
11
12.6018773228346461
21
-11.1620826771653547
0
LINE
8
BLACK
6
CONTINUOUS
10
12.6018773228346461
20
-11.1620826771653547
11
12.5990651574803145
21
-11.1648948031496058
0
LINE
8
BLACK
6
CONTINUOUS
10
12.5990651574803145
20
-11.1648948031496058
11
12.5962530314960635
21
-11.1620826771653547
0
LINE
8
BLACK
6
CONTINUOUS
10
12.5962530314960635
20
-11.1620826771653547
11
12.5990651574803145
21
-11.1592705118110231
0
LINE
8
BLACK
6
CONTINUOUS
10
12.5990651574803145
20
-11.1592705118110231
11
12.5990651574803145
21
-11.1648948031496058
0
LINE
8
BLACK
6
CONTINUOUS
10
12.6215623622047239
20
-11.1058396850393706
11
12.6609324409448813
21
-11.1058396850393706
0
LINE
8
BLACK
6
CONTINUOUS
10
12.6609324409448813
20
-11.1058396850393706
11
12.6356231102362209
21
-11.1648948031496058
0
LINE
8
BLACK
6
CONTINUOUS
10
11.810590551181102
20
-10.9646535433070866
11
16.0625590551181112
21
-10.9646535433070866
0
LINE
8
BLACK
6
CONTINUOUS
10
15.251994212598424
20
-11.0543514960629921
11
15.2323091732283462
21
-11.02623
0
LINE
8
BLACK
6
CONTINUOUS
10
15.2182484251968493
20
-11.0543514960629921
11
15.2182484251968493
21
-10.9952963779527551
0
LINE
8
BLACK
6
CONTINUOUS
10
15.2182484251968493
20
-10.9952963779527551
11
15.2407456299212587
21
-10.9952963779527551
0
LINE
8
BLACK
6
CONTINUOUS
10
15.2407456299212587
20
-10.9952963779527551
11
15.2463699212598414
21
-10.9981085433070866
0
LINE
8
BLACK
6
CONTINUOUS
10
15.2463699212598414
20
-10.9981085433070866
11
15.249182086614173
21
-11.0009206692913377
0
LINE
8
BLACK
6
CONTINUOUS
10
15.249182086614173
20
-11.0009206692913377
11
15.251994212598424
21
-11.0065449606299204
0
LINE
8
BLACK
6
CONTINUOUS
10
15.251994212598424
20
-11.0065449606299204
11
15.251994212598424
21
-11.0149814173228346
0
LINE
8
BLACK
6
CONTINUOUS
10
15.251994212598424
20
-11.0149814173228346
11
15.249182086614173
21
-11.0206057086614173
0
LINE
8
BLACK
6
CONTINUOUS
10
15.249182086614173
20
-11.0206057086614173
11
15.2463699212598414
21
-11.0234178740157471
0
LINE
8
BLACK
6
CONTINUOUS
10
15.2463699212598414
20
-11.0234178740157471
11
15.2407456299212587
21
-11.02623
0
LINE
8
BLACK
6
CONTINUOUS
10
15.2407456299212587
20
-11.02623
11
15.2182484251968493
21
-11.02623
0
LINE
8
BLACK
6
CONTINUOUS
10
15.2998007480314957
20
-11.0515393700787392
11
15.294176456692913
21
-11.0543514960629921
0
LINE
8
BLACK
6
CONTINUOUS
10
15.294176456692913
20
-11.0543514960629921
11
15.2829278740157477
21
-11.0543514960629921
0
LINE
8
BLACK
6
CONTINUOUS
10
15.2829278740157477
20
-11.0543514960629921
11
15.2773035433070863
21
-11.0515393700787392
0
LINE
8
BLACK
6
CONTINUOUS
10
15.2773035433070863
20
-11.0515393700787392
11
15.2744914173228334
21
-11.0459150393700778
0
LINE
8
BLACK
6
CONTINUOUS
10
15.2744914173228334
20
-11.0459150393700778
11
15.2744914173228334
21
-11.0234178740157471
0
LINE
8
BLACK
6
CONTINUOUS
10
15.2744914173228334
20
-11.0234178740157471
11
15.2773035433070863
21
-11.0177935826771645
0
LINE
8
BLACK
6
CONTINUOUS
10
15.2773035433070863
20
-11.0177935826771645
11
15.2829278740157477
21
-11.0149814173228346
0
LINE
8
BLACK
6
CONTINUOUS
10
15.2829278740157477
20
-11.0149814173228346
11
15.294176456692913
21
-11.0149814173228346
0
LINE
8
BLACK
6
CONTINUOUS
10
15.294176456692913
20
-11.0149814173228346
11
15.2998007480314957
21
-11.0177935826771645
0
LINE
8
BLACK
6
CONTINUOUS
10
15.2998007480314957
20
-11.0177935826771645
11
15.3026129133858273
21
-11.0234178740157471
0
LINE
8
BLACK
6
CONTINUOUS
10
15.3026129133858273
20
-11.0234178740157471
11
15.3026129133858273
21
-11.0290421653543298
0
LINE
8
BLACK
6
CONTINUOUS
10
15.3026129133858273
20
-11.0290421653543298
11
15.2744914173228334
21
-11.0346664566929125
0
LINE
8
BLACK
6
CONTINUOUS
10
15.3222979133858264
20
-11.0149814173228346
11
15.3363586614173233
21
-11.0543514960629921
0
LINE
8
BLACK
6
CONTINUOUS
10
15.3363586614173233
20
-11.0543514960629921
11
15.3504194094488184
21
-11.0149814173228346
0
LINE
8
BLACK
6
CONTINUOUS
10
15.3729165748031491
20
-11.0487272047244094
11
15.3757287401574807
21
-11.0515393700787392
0
LINE
8
BLACK
6
CONTINUOUS
10
15.3757287401574807
20
-11.0515393700787392
11
15.3729165748031491
21
-11.0543514960629921
0
LINE
8
BLACK
6
CONTINUOUS
10
15.3729165748031491
20
-11.0543514960629921
11
15.370104448818898
21
-11.0515393700787392
0
LINE
8
BLACK
6
CONTINUOUS
10
15.370104448818898
20
-11.0515393700787392
11
15.3729165748031491
21
-11.0487272047244094
0
LINE
8
BLACK
6
CONTINUOUS
10
15.3729165748031491
20
-11.0487272047244094
11
15.3729165748031491
21
-11.0543514960629921
0
LINE
8
BLACK
6
CONTINUOUS
10
15.3729165748031491
20
-11.0177935826771645
11
15.3757287401574807
21
-11.0206057086614173
0
LINE
8
BLACK
6
CONTINUOUS
10
15.3757287401574807
20
-11.0206057086614173
11
15.3729165748031491
21
-11.0234178740157471
0
LINE
8
BLACK
6
CONTINUOUS
10
15.3729165748031491
20
-11.0234178740157471
11
15.370104448818898
21
-11.0206057086614173
0
LINE
8
BLACK
6
CONTINUOUS
10
15.370104448818898
20
-11.0206057086614173
11
15.3729165748031491
21
-11.0177935826771645
0
LINE
8
BLACK
6
CONTINUOUS
10
15.3729165748031491
20
-11.0177935826771645
11
15.3729165748031491
21
-11.0234178740157471
0
LINE
8
BLACK
6
CONTINUOUS
10
11.8650944094488189
20
-11.051846456692914
11
11.8735308661417314
21
-11.0546585826771651
0
LINE
8
BLACK
6
CONTINUOUS
10
11.8735308661417314
20
-11.0546585826771651
11
11.8875915748031495
21
-11.0546585826771651
0
LINE
8
BLACK
6
CONTINUOUS
10
11.8875915748031495
20
-11.0546585826771651
11
11.893215905511811
21
-11.051846456692914
0
LINE
8
BLACK
6
CONTINUOUS
10
11.893215905511811
20
-11.051846456692914
11
11.896028031496062
21
-11.0490342913385824
0
LINE
8
BLACK
6
CONTINUOUS
10
11.896028031496062
20
-11.0490342913385824
11
11.8988401968503936
21
-11.0434099999999997
0
LINE
8
BLACK
6
CONTINUOUS
10
11.8988401968503936
20
-11.0434099999999997
11
11.8988401968503936
21
-11.0377857086614171
0
LINE
8
BLACK
6
CONTINUOUS
10
11.8988401968503936
20
-11.0377857086614171
11
11.896028031496062
21
-11.0321614173228344
0
LINE
8
BLACK
6
CONTINUOUS
10
11.896028031496062
20
-11.0321614173228344
11
11.893215905511811
21
-11.0293492519685028
0
LINE
8
BLACK
6
CONTINUOUS
10
11.893215905511811
20
-11.0293492519685028
11
11.8875915748031495
21
-11.026537086614173
0
LINE
8
BLACK
6
CONTINUOUS
10
11.8875915748031495
20
-11.026537086614173
11
11.8763429921259842
21
-11.0237249606299201
0
LINE
8
BLACK
6
CONTINUOUS
10
11.8763429921259842
20
-11.0237249606299201
11
11.8707187007874015
21
-11.0209127952755903
0
LINE
8
BLACK
6
CONTINUOUS
10
11.8707187007874015
20
-11.0209127952755903
11
11.8679065354330699
21
-11.0181006692913375
0
LINE
8
BLACK
6
CONTINUOUS
10
11.8679065354330699
20
-11.0181006692913375
11
11.8650944094488189
21
-11.0124763779527548
0
LINE
8
BLACK
6
CONTINUOUS
10
11.8650944094488189
20
-11.0124763779527548
11
11.8650944094488189
21
-11.0068520472440934
0
LINE
8
BLACK
6
CONTINUOUS
10
11.8650944094488189
20
-11.0068520472440934
11
11.8679065354330699
21
-11.0012277559055107
0
LINE
8
BLACK
6
CONTINUOUS
10
11.8679065354330699
20
-11.0012277559055107
11
11.8707187007874015
21
-10.9984156299212597
0
LINE
8
BLACK
6
CONTINUOUS
10
11.8707187007874015
20
-10.9984156299212597
11
11.8763429921259842
21
-10.9956034645669281
0
LINE
8
BLACK
6
CONTINUOUS
10
11.8763429921259842
20
-10.9956034645669281
11
11.8904037401574794
21
-10.9956034645669281
0
LINE
8
BLACK
6
CONTINUOUS
10
11.8904037401574794
20
-10.9956034645669281
11
11.8988401968503936
21
-10.9984156299212597
0
LINE
8
BLACK
6
CONTINUOUS
10
11.9241494881889754
20
-11.0546585826771651
11
11.9241494881889754
21
-11.0152885039370076
0
LINE
8
BLACK
6
CONTINUOUS
10
11.9241494881889754
20
-10.9956034645669281
11
11.9213373622047243
21
-10.9984156299212597
0
LINE
8
BLACK
6
CONTINUOUS
10
11.9213373622047243
20
-10.9984156299212597
11
11.9241494881889754
21
-11.0012277559055107
0
LINE
8
BLACK
6
CONTINUOUS
10
11.9241494881889754
20
-11.0012277559055107
11
11.926961653543307
21
-10.9984156299212597
0
LINE
8
BLACK
6
CONTINUOUS
10
11.926961653543307
20
-10.9984156299212597
11
11.9241494881889754
21
-10.9956034645669281
0
LINE
8
BLACK
6
CONTINUOUS
10
11.9241494881889754
20
-10.9956034645669281
11
11.9241494881889754
21
-11.0012277559055107
0
LINE
8
BLACK
6
CONTINUOUS
10
11.9466466929133848
20
-11.0152885039370076
11
11.9775803543307084
21
-11.0152885039370076
0
LINE
8
BLACK
6
CONTINUOUS
10
11.9775803543307084
20
-11.0152885039370076
11
11.9466466929133848
21
-11.0546585826771651
0
LINE
8
BLACK
6
CONTINUOUS
10
11.9466466929133848
20
-11.0546585826771651
11
11.9775803543307084
21
-11.0546585826771651
0
LINE
8
BLACK
6
CONTINUOUS
10
12.0225747244094485
20
-11.051846456692914
11
12.0169504330708659
21
-11.0546585826771651
0
LINE
8
BLACK
6
CONTINUOUS
10
12.0169504330708659
20
-11.0546585826771651
11
12.0057018503937005
21
-11.0546585826771651
0
LINE
8
BLACK
6
CONTINUOUS
10
12.0057018503937005
20
-11.0546585826771651
11
12.0000775196850391
21
-11.051846456692914
0
LINE
8
BLACK
6
CONTINUOUS
10
12.0000775196850391
20
-11.051846456692914
11
11.9972653937007863
21
-11.0462221259842526
0
LINE
8
BLACK
6
CONTINUOUS
10
11.9972653937007863
20
-11.0462221259842526
11
11.9972653937007863
21
-11.0237249606299201
0
LINE
8
BLACK
6
CONTINUOUS
10
11.9972653937007863
20
-11.0237249606299201
11
12.0000775196850391
21
-11.0181006692913375
0
LINE
8
BLACK
6
CONTINUOUS
10
12.0000775196850391
20
-11.0181006692913375
11
12.0057018503937005
21
-11.0152885039370076
0
LINE
8
BLACK
6
CONTINUOUS
10
12.0057018503937005
20
-11.0152885039370076
11
12.0169504330708659
21
-11.0152885039370076
0
LINE
8
BLACK
6
CONTINUOUS
10
12.0169504330708659
20
-11.0152885039370076
11
12.0225747244094485
21
-11.0181006692913375
0
LINE
8
BLACK
6
CONTINUOUS
10
12.0225747244094485
20
-11.0181006692913375
11
12.0253868897637801
21
-11.0237249606299201
0
LINE
8
BLACK
6
CONTINUOUS
10
12.0253868897637801
20
-11.0237249606299201
11
12.0253868897637801
21
-11.0293492519685028
0
LINE
8
BLACK
6
CONTINUOUS
10
12.0253868897637801
20
-11.0293492519685028
11
11.9972653937007863
21
-11.0349735433070872
0
LINE
8
BLACK
6
CONTINUOUS
10
12.0506961811023618
20
-11.0490342913385824
11
12.0535083464566934
21
-11.051846456692914
0
LINE
8
BLACK
6
CONTINUOUS
10
12.0535083464566934
20
-11.051846456692914
11
12.0506961811023618
21
-11.0546585826771651
0
LINE
8
BLACK
6
CONTINUOUS
10
12.0506961811023618
20
-11.0546585826771651
11
12.0478840551181108
21
-11.051846456692914
0
LINE
8
BLACK
6
CONTINUOUS
10
12.0478840551181108
20
-11.051846456692914
11
12.0506961811023618
21
-11.0490342913385824
0
LINE
8
BLACK
6
CONTINUOUS
10
12.0506961811023618
20
-11.0490342913385824
11
12.0506961811023618
21
-11.0546585826771651
0
LINE
8
BLACK
6
CONTINUOUS
10
12.0506961811023618
20
-11.0181006692913375
11
12.0535083464566934
21
-11.0209127952755903
0
LINE
8
BLACK
6
CONTINUOUS
10
12.0535083464566934
20
-11.0209127952755903
11
12.0506961811023618
21
-11.0237249606299201
0
LINE
8
BLACK
6
CONTINUOUS
10
12.0506961811023618
20
-11.0237249606299201
11
12.0478840551181108
21
-11.0209127952755903
0
LINE
8
BLACK
6
CONTINUOUS
10
12.0478840551181108
20
-11.0209127952755903
11
12.0506961811023618
21
-11.0181006692913375
0
LINE
8
BLACK
6
CONTINUOUS
10
12.0506961811023618
20
-11.0181006692913375
11
12.0506961811023618
21
-11.0237249606299201
0
LINE
8
BLACK
6
CONTINUOUS
10
12.1209999212598429
20
-11.0377857086614171
11
12.149121417322835
21
-11.0377857086614171
0
LINE
8
BLACK
6
CONTINUOUS
10
12.1153756299212603
20
-11.0546585826771651
11
12.1350606692913381
21
-10.9956034645669281
0
LINE
8
BLACK
6
CONTINUOUS
10
12.1350606692913381
20
-10.9956034645669281
11
12.1547457086614177
21
-11.0546585826771651
0
LINE
8
BLACK
6
CONTINUOUS
10
12.1688064173228341
20
-10.9956034645669281
11
12.2053643700787404
21
-10.9956034645669281
0
LINE
8
BLACK
6
CONTINUOUS
10
12.2053643700787404
20
-10.9956034645669281
11
12.1856793307086608
21
-11.0181006692913375
0
LINE
8
BLACK
6
CONTINUOUS
10
12.1856793307086608
20
-11.0181006692913375
11
12.1941157480314963
21
-11.0181006692913375
0
LINE
8
BLACK
6
CONTINUOUS
10
12.1941157480314963
20
-11.0181006692913375
11
12.1997400787401578
21
-11.0209127952755903
0
LINE
8
BLACK
6
CONTINUOUS
10
12.1997400787401578
20
-11.0209127952755903
11
12.2025522047244088
21
-11.0237249606299201
0
LINE
8
BLACK
6
CONTINUOUS
10
12.2025522047244088
20
-11.0237249606299201
11
12.2053643700787404
21
-11.0293492519685028
0
LINE
8
BLACK
6
CONTINUOUS
10
12.2053643700787404
20
-11.0293492519685028
11
12.2053643700787404
21
-11.0434099999999997
0
LINE
8
BLACK
6
CONTINUOUS
10
12.2053643700787404
20
-11.0434099999999997
11
12.2025522047244088
21
-11.0490342913385824
0
LINE
8
BLACK
6
CONTINUOUS
10
12.2025522047244088
20
-11.0490342913385824
11
12.1997400787401578
21
-11.051846456692914
0
LINE
8
BLACK
6
CONTINUOUS
10
12.1997400787401578
20
-11.051846456692914
11
12.1941157480314963
21
-11.0546585826771651
0
LINE
8
BLACK
6
CONTINUOUS
10
12.1941157480314963
20
-11.0546585826771651
11
12.1772428740157483
21
-11.0546585826771651
0
LINE
8
BLACK
6
CONTINUOUS
10
12.1772428740157483
20
-11.0546585826771651
11
12.1716185826771657
21
-11.051846456692914
0
LINE
8
BLACK
6
CONTINUOUS
10
12.1716185826771657
20
-11.051846456692914
11
12.1688064173228341
21
-11.0490342913385824
0
LINE
8
BLACK
6
CONTINUOUS
10
15.2143632283464569
20
-11.1648948031496058
11
15.2143632283464569
21
-11.1058396850393706
0
LINE
8
BLACK
6
CONTINUOUS
10
15.2677940944881883
20
-11.1648948031496058
11
15.2677940944881883
21
-11.1058396850393706
0
LINE
8
BLACK
6
CONTINUOUS
10
15.2677940944881883
20
-11.1620826771653547
11
15.2621697637795268
21
-11.1648948031496058
0
LINE
8
BLACK
6
CONTINUOUS
10
15.2621697637795268
20
-11.1648948031496058
11
15.2509211811023615
21
-11.1648948031496058
0
LINE
8
BLACK
6
CONTINUOUS
10
15.2509211811023615
20
-11.1648948031496058
11
15.2452968897637788
21
-11.1620826771653547
0
LINE
8
BLACK
6
CONTINUOUS
10
15.2452968897637788
20
-11.1620826771653547
11
15.242484724409449
21
-11.1592705118110231
0
LINE
8
BLACK
6
CONTINUOUS
10
15.242484724409449
20
-11.1592705118110231
11
15.2396725984251962
21
-11.1536462204724405
0
LINE
8
BLACK
6
CONTINUOUS
10
15.2396725984251962
20
-11.1536462204724405
11
15.2396725984251962
21
-11.1367733070866137
0
LINE
8
BLACK
6
CONTINUOUS
10
15.2396725984251962
20
-11.1367733070866137
11
15.242484724409449
21
-11.1311490157480311
0
LINE
8
BLACK
6
CONTINUOUS
10
15.242484724409449
20
-11.1311490157480311
11
15.2452968897637788
21
-11.12833688976378
0
LINE
8
BLACK
6
CONTINUOUS
10
15.2452968897637788
20
-11.12833688976378
11
15.2509211811023615
21
-11.1255247244094484
0
LINE
8
BLACK
6
CONTINUOUS
10
15.2509211811023615
20
-11.1255247244094484
11
15.2621697637795268
21
-11.1255247244094484
0
LINE
8
BLACK
6
CONTINUOUS
10
15.2621697637795268
20
-11.1255247244094484
11
15.2677940944881883
21
-11.12833688976378
0
LINE
8
BLACK
6
CONTINUOUS
10
15.2959155511811016
20
-11.1592705118110231
11
15.2987277165354332
21
-11.1620826771653547
0
LINE
8
BLACK
6
CONTINUOUS
10
15.2987277165354332
20
-11.1620826771653547
11
15.2959155511811016
21
-11.1648948031496058
0
LINE
8
BLACK
6
CONTINUOUS
10
15.2959155511811016
20
-11.1648948031496058
11
15.2931034251968505
21
-11.1620826771653547
0
LINE
8
BLACK
6
CONTINUOUS
10
15.2931034251968505
20
-11.1620826771653547
11
15.2959155511811016
21
-11.1592705118110231
0
LINE
8
BLACK
6
CONTINUOUS
10
15.2959155511811016
20
-11.1592705118110231
11
15.2959155511811016
21
-11.1648948031496058
0
LINE
8
BLACK
6
CONTINUOUS
10
15.2959155511811016
20
-11.12833688976378
11
15.2987277165354332
21
-11.1311490157480311
0
LINE
8
BLACK
6
CONTINUOUS
10
15.2987277165354332
20
-11.1311490157480311
11
15.2959155511811016
21
-11.1339611811023627
0
LINE
8
BLACK
6
CONTINUOUS
10
15.2959155511811016
20
-11.1339611811023627
11
15.2931034251968505
21
-11.1311490157480311
0
LINE
8
BLACK
6
CONTINUOUS
10
15.2931034251968505
20
-11.1311490157480311
11
15.2959155511811016
21
-11.12833688976378
0
LINE
8
BLACK
6
CONTINUOUS
10
15.2959155511811016
20
-11.12833688976378
11
15.2959155511811016
21
-11.1339611811023627
0
LINE
8
BLACK
6
CONTINUOUS
10
15.3971529133858258
20
-11.1058396850393706
11
15.3690314173228337
21
-11.1058396850393706
0
LINE
8
BLACK
6
CONTINUOUS
10
15.3690314173228337
20
-11.1058396850393706
11
15.3662192913385827
21
-11.1339611811023627
0
LINE
8
BLACK
6
CONTINUOUS
10
15.3662192913385827
20
-11.1339611811023627
11
15.3690314173228337
21
-11.1311490157480311
0
LINE
8
BLACK
6
CONTINUOUS
10
15.3690314173228337
20
-11.1311490157480311
11
15.3746557480314952
21
-11.12833688976378
0
LINE
8
BLACK
6
CONTINUOUS
10
15.3746557480314952
20
-11.12833688976378
11
15.3887164566929133
21
-11.12833688976378
0
LINE
8
BLACK
6
CONTINUOUS
10
15.3887164566929133
20
-11.12833688976378
11
15.3943407874015747
21
-11.1311490157480311
0
LINE
8
BLACK
6
CONTINUOUS
10
15.3943407874015747
20
-11.1311490157480311
11
15.3971529133858258
21
-11.1339611811023627
0
LINE
8
BLACK
6
CONTINUOUS
10
15.3971529133858258
20
-11.1339611811023627
11
15.3999650787401574
21
-11.1395854724409453
0
LINE
8
BLACK
6
CONTINUOUS
10
15.3999650787401574
20
-11.1395854724409453
11
15.3999650787401574
21
-11.1536462204724405
0
LINE
8
BLACK
6
CONTINUOUS
10
15.3999650787401574
20
-11.1536462204724405
11
15.3971529133858258
21
-11.1592705118110231
0
LINE
8
BLACK
6
CONTINUOUS
10
15.3971529133858258
20
-11.1592705118110231
11
15.3943407874015747
21
-11.1620826771653547
0
LINE
8
BLACK
6
CONTINUOUS
10
15.3943407874015747
20
-11.1620826771653547
11
15.3887164566929133
21
-11.1648948031496058
0
LINE
8
BLACK
6
CONTINUOUS
10
15.3887164566929133
20
-11.1648948031496058
11
15.3746557480314952
21
-11.1648948031496058
0
LINE
8
BLACK
6
CONTINUOUS
10
15.3746557480314952
20
-11.1648948031496058
11
15.3690314173228337
21
-11.1620826771653547
0
LINE
8
BLACK
6
CONTINUOUS
10
15.3690314173228337
20
-11.1620826771653547
11
15.3662192913385827
21
-11.1592705118110231
0
LINE
8
BLACK
6
CONTINUOUS
10
15.4674566141732281
20
-11.1030275590551177
11
15.4168379527559054
21
-11.1789555511811027
0
LINE
8
BLACK
6
CONTINUOUS
10
15.515263149606298
20
-11.1058396850393706
11
15.487141653543306
21
-11.1058396850393706
0
LINE
8
BLACK
6
CONTINUOUS
10
15.487141653543306
20
-11.1058396850393706
11
15.4843295275590549
21
-11.1339611811023627
0
LINE
8
BLACK
6
CONTINUOUS
10
15.4843295275590549
20
-11.1339611811023627
11
15.487141653543306
21
-11.1311490157480311
0
LINE
8
BLACK
6
CONTINUOUS
10
15.487141653543306
20
-11.1311490157480311
11
15.4927659842519674
21
-11.12833688976378
0
LINE
8
BLACK
6
CONTINUOUS
10
15.4927659842519674
20
-11.12833688976378
11
15.5068266929133856
21
-11.12833688976378
0
LINE
8
BLACK
6
CONTINUOUS
10
15.5068266929133856
20
-11.12833688976378
11
15.512451023622047
21
-11.1311490157480311
0
LINE
8
BLACK
6
CONTINUOUS
10
15.512451023622047
20
-11.1311490157480311
11
15.515263149606298
21
-11.1339611811023627
0
LINE
8
BLACK
6
CONTINUOUS
10
15.515263149606298
20
-11.1339611811023627
11
15.5180753149606296
21
-11.1395854724409453
0
LINE
8
BLACK
6
CONTINUOUS
10
15.5180753149606296
20
-11.1395854724409453
11
15.5180753149606296
21
-11.1536462204724405
0
LINE
8
BLACK
6
CONTINUOUS
10
15.5180753149606296
20
-11.1536462204724405
11
15.515263149606298
21
-11.1592705118110231
0
LINE
8
BLACK
6
CONTINUOUS
10
15.515263149606298
20
-11.1592705118110231
11
15.512451023622047
21
-11.1620826771653547
0
LINE
8
BLACK
6
CONTINUOUS
10
15.512451023622047
20
-11.1620826771653547
11
15.5068266929133856
21
-11.1648948031496058
0
LINE
8
BLACK
6
CONTINUOUS
10
15.5068266929133856
20
-11.1648948031496058
11
15.4927659842519674
21
-11.1648948031496058
0
LINE
8
BLACK
6
CONTINUOUS
10
15.4927659842519674
20
-11.1648948031496058
11
15.487141653543306
21
-11.1620826771653547
0
LINE
8
BLACK
6
CONTINUOUS
10
15.487141653543306
20
-11.1620826771653547
11
15.4843295275590549
21
-11.1592705118110231
0
LINE
8
BLACK
6
CONTINUOUS
10
11.810590551181102
20
-10.807173228346457
11
16.0625590551181112
21
-10.807173228346457
0
LINE
8
BLACK
6
CONTINUOUS
10
11.8771940157480316
20
-10.8349070078740155
11
11.9221883858267717
21
-10.8349070078740155
0
LINE
8
BLACK
6
CONTINUOUS
10
11.8898487007874021
20
-10.9136471653543303
11
11.899691220472441
21
-10.8349070078740155
0
LINE
8
BLACK
6
CONTINUOUS
10
11.9385925984251973
20
-10.9136471653543303
11
11.9451542913385822
21
-10.8611537007874013
0
LINE
8
BLACK
6
CONTINUOUS
10
11.9484351181102362
20
-10.8349070078740155
11
11.9442168897637799
21
-10.8386565354330706
0
LINE
8
BLACK
6
CONTINUOUS
10
11.9442168897637799
20
-10.8386565354330706
11
11.9474977559055109
21
-10.8424060629921257
0
LINE
8
BLACK
6
CONTINUOUS
10
11.9474977559055109
20
-10.8424060629921257
11
11.9517159842519689
21
-10.8386565354330706
0
LINE
8
BLACK
6
CONTINUOUS
10
11.9517159842519689
20
-10.8386565354330706
11
11.9484351181102362
21
-10.8349070078740155
0
LINE
8
BLACK
6
CONTINUOUS
10
11.9484351181102362
20
-10.8349070078740155
11
11.9474977559055109
21
-10.8424060629921257
0
LINE
8
BLACK
6
CONTINUOUS
10
11.9714010236220467
20
-10.8611537007874013
11
12.0013972440944876
21
-10.8611537007874013
0
LINE
8
BLACK
6
CONTINUOUS
10
11.985930433070866
20
-10.8349070078740155
11
11.9774940157480305
21
-10.9023985433070862
0
LINE
8
BLACK
6
CONTINUOUS
10
11.9774940157480305
20
-10.9023985433070862
11
11.9803061417322834
21
-10.9098976377952752
0
LINE
8
BLACK
6
CONTINUOUS
10
11.9803061417322834
20
-10.9098976377952752
11
11.9873365354330712
21
-10.9136471653543303
0
LINE
8
BLACK
6
CONTINUOUS
10
11.9873365354330712
20
-10.9136471653543303
11
11.9948355905511814
21
-10.9136471653543303
0
LINE
8
BLACK
6
CONTINUOUS
10
12.0323309055118113
20
-10.9136471653543303
11
12.0253005118110234
21
-10.9098976377952752
0
LINE
8
BLACK
6
CONTINUOUS
10
12.0253005118110234
20
-10.9098976377952752
11
12.0224883858267706
21
-10.9023985433070862
0
LINE
8
BLACK
6
CONTINUOUS
10
12.0224883858267706
20
-10.9023985433070862
11
12.0309248031496061
21
-10.8349070078740155
0
LINE
8
BLACK
6
CONTINUOUS
10
12.0927920866141729
20
-10.9098976377952752
11
12.0848243307086616
21
-10.9136471653543303
0
LINE
8
BLACK
6
CONTINUOUS
10
12.0848243307086616
20
-10.9136471653543303
11
12.0698261811023624
21
-10.9136471653543303
0
LINE
8
BLACK
6
CONTINUOUS
10
12.0698261811023624
20
-10.9136471653543303
11
12.0627958267716533
21
-10.9098976377952752
0
LINE
8
BLACK
6
CONTINUOUS
10
12.0627958267716533
20
-10.9098976377952752
11
12.0599836614173217
21
-10.9023985433070862
0
LINE
8
BLACK
6
CONTINUOUS
10
12.0599836614173217
20
-10.9023985433070862
11
12.0637332283464556
21
-10.8724023228346454
0
LINE
8
BLACK
6
CONTINUOUS
10
12.0637332283464556
20
-10.8724023228346454
11
12.068420118110236
21
-10.8649032283464564
0
LINE
8
BLACK
6
CONTINUOUS
10
12.068420118110236
20
-10.8649032283464564
11
12.0763878740157473
21
-10.8611537007874013
0
LINE
8
BLACK
6
CONTINUOUS
10
12.0763878740157473
20
-10.8611537007874013
11
12.0913859842519678
21
-10.8611537007874013
0
LINE
8
BLACK
6
CONTINUOUS
10
12.0913859842519678
20
-10.8611537007874013
11
12.0984163779527556
21
-10.8649032283464564
0
LINE
8
BLACK
6
CONTINUOUS
10
12.0984163779527556
20
-10.8649032283464564
11
12.1012285039370084
21
-10.8724023228346454
0
LINE
8
BLACK
6
CONTINUOUS
10
12.1012285039370084
20
-10.8724023228346454
11
12.1002911417322832
21
-10.8799013779527556
0
LINE
8
BLACK
6
CONTINUOUS
10
12.1002911417322832
20
-10.8799013779527556
11
12.0618584251968493
21
-10.8874004330708658
0
LINE
8
BLACK
6
CONTINUOUS
10
12.1307561023622039
20
-10.9061480708661414
11
12.1340369291338579
21
-10.9098976377952752
0
LINE
8
BLACK
6
CONTINUOUS
10
12.1340369291338579
20
-10.9098976377952752
11
12.1298187007874017
21
-10.9136471653543303
0
LINE
8
BLACK
6
CONTINUOUS
10
12.1298187007874017
20
-10.9136471653543303
11
12.1265378740157477
21
-10.9098976377952752
0
LINE
8
BLACK
6
CONTINUOUS
10
12.1265378740157477
20
-10.9098976377952752
11
12.1307561023622039
21
-10.9061480708661414
0
LINE
8
BLACK
6
CONTINUOUS
10
12.1307561023622039
20
-10.9061480708661414
11
12.1298187007874017
21
-10.9136471653543303
0
LINE
8
BLACK
6
CONTINUOUS
10
12.1359116929133855
20
-10.8649032283464564
11
12.1391925196850394
21
-10.8686527559055115
0
LINE
8
BLACK
6
CONTINUOUS
10
12.1391925196850394
20
-10.8686527559055115
11
12.1349743307086619
21
-10.8724023228346454
0
LINE
8
BLACK
6
CONTINUOUS
10
12.1349743307086619
20
-10.8724023228346454
11
12.1316934645669292
21
-10.8686527559055115
0
LINE
8
BLACK
6
CONTINUOUS
10
12.1316934645669292
20
-10.8686527559055115
11
12.1359116929133855
21
-10.8649032283464564
0
LINE
8
BLACK
6
CONTINUOUS
10
12.1359116929133855
20
-10.8649032283464564
11
12.1349743307086619
21
-10.8724023228346454
0
LINE
8
BLACK
6
CONTINUOUS
10
11.8875915748031495
20
-10.7323863779527553
11
11.8679065354330699
21
-10.7323863779527553
0
LINE
8
BLACK
6
CONTINUOUS
10
11.8679065354330699
20
-10.7633200000000002
11
11.8679065354330699
21
-10.7042648818897632
0
LINE
8
BLACK
6
CONTINUOUS
10
11.8679065354330699
20
-10.7042648818897632
11
11.896028031496062
21
-10.7042648818897632
0
LINE
8
BLACK
6
CONTINUOUS
10
11.9185251968503927
20
-10.7633200000000002
11
11.9185251968503927
21
-10.7239499212598428
0
LINE
8
BLACK
6
CONTINUOUS
10
11.9185251968503927
20
-10.7042648818897632
11
11.9157130708661416
21
-10.7070770472440948
0
LINE
8
BLACK
6
CONTINUOUS
10
11.9157130708661416
20
-10.7070770472440948
11
11.9185251968503927
21
-10.7098891732283459
0
LINE
8
BLACK
6
CONTINUOUS
10
11.9185251968503927
20
-10.7098891732283459
11
11.9213373622047243
21
-10.7070770472440948
0
LINE
8
BLACK
6
CONTINUOUS
10
11.9213373622047243
20
-10.7070770472440948
11
11.9185251968503927
21
-10.7042648818897632
0
LINE
8
BLACK
6
CONTINUOUS
10
11.9185251968503927
20
-10.7042648818897632
11
11.9185251968503927
21
-10.7098891732283459
0
LINE
8
BLACK
6
CONTINUOUS
10
11.955083149606299
20
-10.7633200000000002
11
11.9494588582677164
21
-10.7605078740157474
0
LINE
8
BLACK
6
CONTINUOUS
10
11.9494588582677164
20
-10.7605078740157474
11
11.9466466929133848
21
-10.754883543307086
0
LINE
8
BLACK
6
CONTINUOUS
10
11.9466466929133848
20
-10.754883543307086
11
11.9466466929133848
21
-10.7042648818897632
0
LINE
8
BLACK
6
CONTINUOUS
10
12.0000775196850391
20
-10.7605078740157474
11
11.9944532283464564
21
-10.7633200000000002
0
LINE
8
BLACK
6
CONTINUOUS
10
11.9944532283464564
20
-10.7633200000000002
11
11.9832046456692911
21
-10.7633200000000002
0
LINE
8
BLACK
6
CONTINUOUS
10
11.9832046456692911
20
-10.7633200000000002
11
11.9775803149606297
21
-10.7605078740157474
0
LINE
8
BLACK
6
CONTINUOUS
10
11.9775803149606297
20
-10.7605078740157474
11
11.9747681889763768
21
-10.754883543307086
0
LINE
8
BLACK
6
CONTINUOUS
10
11.9747681889763768
20
-10.754883543307086
11
11.9747681889763768
21
-10.7323863779527553
0
LINE
8
BLACK
6
CONTINUOUS
10
11.9747681889763768
20
-10.7323863779527553
11
11.9775803149606297
21
-10.7267620866141726
0
LINE
8
BLACK
6
CONTINUOUS
10
11.9775803149606297
20
-10.7267620866141726
11
11.9832046456692911
21
-10.7239499212598428
0
LINE
8
BLACK
6
CONTINUOUS
10
11.9832046456692911
20
-10.7239499212598428
11
11.9944532283464564
21
-10.7239499212598428
0
LINE
8
BLACK
6
CONTINUOUS
10
11.9944532283464564
20
-10.7239499212598428
11
12.0000775196850391
21
-10.7267620866141726
0
LINE
8
BLACK
6
CONTINUOUS
10
12.0000775196850391
20
-10.7267620866141726
11
12.0028896850393689
21
-10.7323863779527553
0
LINE
8
BLACK
6
CONTINUOUS
10
12.0028896850393689
20
-10.7323863779527553
11
12.0028896850393689
21
-10.738010669291338
0
LINE
8
BLACK
6
CONTINUOUS
10
12.0028896850393689
20
-10.738010669291338
11
11.9747681889763768
21
-10.7436349606299206
0
LINE
8
BLACK
6
CONTINUOUS
10
12.0281989763779524
20
-10.7576957086614176
11
12.031011141732284
21
-10.7605078740157474
0
LINE
8
BLACK
6
CONTINUOUS
10
12.031011141732284
20
-10.7605078740157474
11
12.0281989763779524
21
-10.7633200000000002
0
LINE
8
BLACK
6
CONTINUOUS
10
12.0281989763779524
20
-10.7633200000000002
11
12.0253868503937014
21
-10.7605078740157474
0
LINE
8
BLACK
6
CONTINUOUS
10
12.0253868503937014
20
-10.7605078740157474
11
12.0281989763779524
21
-10.7576957086614176
0
LINE
8
BLACK
6
CONTINUOUS
10
12.0281989763779524
20
-10.7576957086614176
11
12.0281989763779524
21
-10.7633200000000002
0
LINE
8
BLACK
6
CONTINUOUS
10
12.0281989763779524
20
-10.7267620866141726
11
12.031011141732284
21
-10.7295742125984255
0
LINE
8
BLACK
6
CONTINUOUS
10
12.031011141732284
20
-10.7295742125984255
11
12.0281989763779524
21
-10.7323863779527553
0
LINE
8
BLACK
6
CONTINUOUS
10
12.0281989763779524
20
-10.7323863779527553
11
12.0253868503937014
21
-10.7295742125984255
0
LINE
8
BLACK
6
CONTINUOUS
10
12.0253868503937014
20
-10.7295742125984255
11
12.0281989763779524
21
-10.7267620866141726
0
LINE
8
BLACK
6
CONTINUOUS
10
12.0281989763779524
20
-10.7267620866141726
11
12.0281989763779524
21
-10.7323863779527553
0
LINE
8
BLACK
6
CONTINUOUS
10
12.0985027165354335
20
-10.7605078740157474
11
12.106939173228346
21
-10.7633200000000002
0
LINE
8
BLACK
6
CONTINUOUS
10
12.106939173228346
20
-10.7633200000000002
11
12.1209998818897642
21
-10.7633200000000002
0
LINE
8
BLACK
6
CONTINUOUS
10
12.1209998818897642
20
-10.7633200000000002
11
12.1266242125984256
21
-10.7605078740157474
0
LINE
8
BLACK
6
CONTINUOUS
10
12.1266242125984256
20
-10.7605078740157474
11
12.1294363385826767
21
-10.7576957086614176
0
LINE
8
BLACK
6
CONTINUOUS
10
12.1294363385826767
20
-10.7576957086614176
11
12.1322485039370083
21
-10.7520714173228349
0
LINE
8
BLACK
6
CONTINUOUS
10
12.1322485039370083
20
-10.7520714173228349
11
12.1322485039370083
21
-10.7464471259842522
0
LINE
8
BLACK
6
CONTINUOUS
10
12.1322485039370083
20
-10.7464471259842522
11
12.1294363385826767
21
-10.7408228346456696
0
LINE
8
BLACK
6
CONTINUOUS
10
12.1294363385826767
20
-10.7408228346456696
11
12.1266242125984256
21
-10.738010669291338
0
LINE
8
BLACK
6
CONTINUOUS
10
12.1266242125984256
20
-10.738010669291338
11
12.1209998818897642
21
-10.7351985039370081
0
LINE
8
BLACK
6
CONTINUOUS
10
12.1209998818897642
20
-10.7351985039370081
11
12.1097512992125989
21
-10.7323863779527553
0
LINE
8
BLACK
6
CONTINUOUS
10
12.1097512992125989
20
-10.7323863779527553
11
12.1041270078740162
21
-10.7295742125984255
0
LINE
8
BLACK
6
CONTINUOUS
10
12.1041270078740162
20
-10.7295742125984255
11
12.1013148425196846
21
-10.7267620866141726
0
LINE
8
BLACK
6
CONTINUOUS
10
12.1013148425196846
20
-10.7267620866141726
11
12.0985027165354335
21
-10.72113779527559
0
LINE
8
BLACK
6
CONTINUOUS
10
12.0985027165354335
20
-10.72113779527559
11
12.0985027165354335
21
-10.7155134645669285
0
LINE
8
BLACK
6
CONTINUOUS
10
12.0985027165354335
20
-10.7155134645669285
11
12.1013148425196846
21
-10.7098891732283459
0
LINE
8
BLACK
6
CONTINUOUS
10
12.1013148425196846
20
-10.7098891732283459
11
12.1041270078740162
21
-10.7070770472440948
0
LINE
8
BLACK
6
CONTINUOUS
10
12.1041270078740162
20
-10.7070770472440948
11
12.1097512992125989
21
-10.7042648818897632
0
LINE
8
BLACK
6
CONTINUOUS
10
12.1097512992125989
20
-10.7042648818897632
11
12.123812047244094
21
-10.7042648818897632
0
LINE
8
BLACK
6
CONTINUOUS
10
12.123812047244094
20
-10.7042648818897632
11
12.1322485039370083
21
-10.7070770472440948
0
LINE
8
BLACK
6
CONTINUOUS
10
12.15755779527559
20
-10.7408228346456696
11
12.2025522047244088
21
-10.7408228346456696
0
LINE
8
BLACK
6
CONTINUOUS
10
12.2306736614173222
20
-10.7633200000000002
11
12.2306736614173222
21
-10.7042648818897632
0
LINE
8
BLACK
6
CONTINUOUS
10
12.2306736614173222
20
-10.7042648818897632
11
12.2531708661417316
21
-10.7042648818897632
0
LINE
8
BLACK
6
CONTINUOUS
10
12.2531708661417316
20
-10.7042648818897632
11
12.2587951574803142
21
-10.7070770472440948
0
LINE
8
BLACK
6
CONTINUOUS
10
12.2587951574803142
20
-10.7070770472440948
11
12.2616073228346458
21
-10.7098891732283459
0
LINE
8
BLACK
6
CONTINUOUS
10
12.2616073228346458
20
-10.7098891732283459
11
12.2644194488188969
21
-10.7155134645669285
0
LINE
8
BLACK
6
CONTINUOUS
10
12.2644194488188969
20
-10.7155134645669285
11
12.2644194488188969
21
-10.7239499212598428
0
LINE
8
BLACK
6
CONTINUOUS
10
12.2644194488188969
20
-10.7239499212598428
11
12.2616073228346458
21
-10.7295742125984255
0
LINE
8
BLACK
6
CONTINUOUS
10
12.2616073228346458
20
-10.7295742125984255
11
12.2587951574803142
21
-10.7323863779527553
0
LINE
8
BLACK
6
CONTINUOUS
10
12.2587951574803142
20
-10.7323863779527553
11
12.2531708661417316
21
-10.7351985039370081
0
LINE
8
BLACK
6
CONTINUOUS
10
12.2531708661417316
20
-10.7351985039370081
11
12.2306736614173222
21
-10.7351985039370081
0
LINE
8
BLACK
6
CONTINUOUS
10
12.3234745669291339
20
-10.7576957086614176
11
12.3206624409448811
21
-10.7605078740157474
0
LINE
8
BLACK
6
CONTINUOUS
10
12.3206624409448811
20
-10.7605078740157474
11
12.3122259842519686
21
-10.7633200000000002
0
LINE
8
BLACK
6
CONTINUOUS
10
12.3122259842519686
20
-10.7633200000000002
11
12.3066016929133859
21
-10.7633200000000002
0
LINE
8
BLACK
6
CONTINUOUS
10
12.3066016929133859
20
-10.7633200000000002
11
12.2981652362204716
21
-10.7605078740157474
0
LINE
8
BLACK
6
CONTINUOUS
10
12.2981652362204716
20
-10.7605078740157474
11
12.292540944881889
21
-10.754883543307086
0
LINE
8
BLACK
6
CONTINUOUS
10
12.292540944881889
20
-10.754883543307086
11
12.2897287795275592
21
-10.7492592519685033
0
LINE
8
BLACK
6
CONTINUOUS
10
12.2897287795275592
20
-10.7492592519685033
11
12.2869166535433063
21
-10.738010669291338
0
LINE
8
BLACK
6
CONTINUOUS
10
12.2869166535433063
20
-10.738010669291338
11
12.2869166535433063
21
-10.7295742125984255
0
LINE
8
BLACK
6
CONTINUOUS
10
12.2869166535433063
20
-10.7295742125984255
11
12.2897287795275592
21
-10.7183256299212601
0
LINE
8
BLACK
6
CONTINUOUS
10
12.2897287795275592
20
-10.7183256299212601
11
12.292540944881889
21
-10.7127013385826775
0
LINE
8
BLACK
6
CONTINUOUS
10
12.292540944881889
20
-10.7127013385826775
11
12.2981652362204716
21
-10.7070770472440948
0
LINE
8
BLACK
6
CONTINUOUS
10
12.2981652362204716
20
-10.7070770472440948
11
12.3066016929133859
21
-10.7042648818897632
0
LINE
8
BLACK
6
CONTINUOUS
10
12.3066016929133859
20
-10.7042648818897632
11
12.3122259842519686
21
-10.7042648818897632
0
LINE
8
BLACK
6
CONTINUOUS
10
12.3122259842519686
20
-10.7042648818897632
11
12.3206624409448811
21
-10.7070770472440948
0
LINE
8
BLACK
6
CONTINUOUS
10
12.3206624409448811
20
-10.7070770472440948
11
12.3234745669291339
21
-10.7098891732283459
0
LINE
8
BLACK
6
CONTINUOUS
10
12.368468937007874
20
-10.7323863779527553
11
12.3769053937007865
21
-10.7351985039370081
0
LINE
8
BLACK
6
CONTINUOUS
10
12.3769053937007865
20
-10.7351985039370081
11
12.3797175590551181
21
-10.738010669291338
0
LINE
8
BLACK
6
CONTINUOUS
10
12.3797175590551181
20
-10.738010669291338
11
12.3825296850393691
21
-10.7436349606299206
0
LINE
8
BLACK
6
CONTINUOUS
10
12.3825296850393691
20
-10.7436349606299206
11
12.3825296850393691
21
-10.7520714173228349
0
LINE
8
BLACK
6
CONTINUOUS
10
12.3825296850393691
20
-10.7520714173228349
11
12.3797175590551181
21
-10.7576957086614176
0
LINE
8
BLACK
6
CONTINUOUS
10
12.3797175590551181
20
-10.7576957086614176
11
12.3769053937007865
21
-10.7605078740157474
0
LINE
8
BLACK
6
CONTINUOUS
10
12.3769053937007865
20
-10.7605078740157474
11
12.3712811023622038
21
-10.7633200000000002
0
LINE
8
BLACK
6
CONTINUOUS
10
12.3712811023622038
20
-10.7633200000000002
11
12.3487838976377944
21
-10.7633200000000002
0
LINE
8
BLACK
6
CONTINUOUS
10
12.3487838976377944
20
-10.7633200000000002
11
12.3487838976377944
21
-10.7042648818897632
0
LINE
8
BLACK
6
CONTINUOUS
10
12.3487838976377944
20
-10.7042648818897632
11
12.368468937007874
21
-10.7042648818897632
0
LINE
8
BLACK
6
CONTINUOUS
10
12.368468937007874
20
-10.7042648818897632
11
12.3740932677165354
21
-10.7070770472440948
0
LINE
8
BLACK
6
CONTINUOUS
10
12.3740932677165354
20
-10.7070770472440948
11
12.3769053937007865
21
-10.7098891732283459
0
LINE
8
BLACK
6
CONTINUOUS
10
12.3769053937007865
20
-10.7098891732283459
11
12.3797175590551181
21
-10.7155134645669285
0
LINE
8
BLACK
6
CONTINUOUS
10
12.3797175590551181
20
-10.7155134645669285
11
12.3797175590551181
21
-10.72113779527559
0
LINE
8
BLACK
6
CONTINUOUS
10
12.3797175590551181
20
-10.72113779527559
11
12.3769053937007865
21
-10.7267620866141726
0
LINE
8
BLACK
6
CONTINUOUS
10
12.3769053937007865
20
-10.7267620866141726
11
12.3740932677165354
21
-10.7295742125984255
0
LINE
8
BLACK
6
CONTINUOUS
10
12.3740932677165354
20
-10.7295742125984255
11
12.368468937007874
21
-10.7323863779527553
0
LINE
8
BLACK
6
CONTINUOUS
10
12.368468937007874
20
-10.7323863779527553
11
12.3487838976377944
21
-10.7323863779527553
0
LINE
8
BLACK
6
CONTINUOUS
10
12.4050268897637785
20
-10.7464471259842522
11
12.4331483858267706
21
-10.7464471259842522
0
LINE
8
BLACK
6
CONTINUOUS
10
12.3994025984251959
20
-10.7633200000000002
11
12.4190876377952755
21
-10.7042648818897632
0
LINE
8
BLACK
6
CONTINUOUS
10
12.4190876377952755
20
-10.7042648818897632
11
12.4387726771653533
21
-10.7633200000000002
0
LINE
8
BLACK
6
CONTINUOUS
10
12.4556455511811013
20
-10.7605078740157474
11
12.4640820078740155
21
-10.7633200000000002
0
LINE
8
BLACK
6
CONTINUOUS
10
12.4640820078740155
20
-10.7633200000000002
11
12.4781427165354319
21
-10.7633200000000002
0
LINE
8
BLACK
6
CONTINUOUS
10
12.4781427165354319
20
-10.7633200000000002
11
12.4837670472440934
21
-10.7605078740157474
0
LINE
8
BLACK
6
CONTINUOUS
10
12.4837670472440934
20
-10.7605078740157474
11
12.4865791732283462
21
-10.7576957086614176
0
LINE
8
BLACK
6
CONTINUOUS
10
12.4865791732283462
20
-10.7576957086614176
11
12.489391338582676
21
-10.7520714173228349
0
LINE
8
BLACK
6
CONTINUOUS
10
12.489391338582676
20
-10.7520714173228349
11
12.489391338582676
21
-10.7464471259842522
0
LINE
8
BLACK
6
CONTINUOUS
10
12.489391338582676
20
-10.7464471259842522
11
12.4865791732283462
21
-10.7408228346456696
0
LINE
8
BLACK
6
CONTINUOUS
10
12.4865791732283462
20
-10.7408228346456696
11
12.4837670472440934
21
-10.738010669291338
0
LINE
8
BLACK
6
CONTINUOUS
10
12.4837670472440934
20
-10.738010669291338
11
12.4781427165354319
21
-10.7351985039370081
0
LINE
8
BLACK
6
CONTINUOUS
10
12.4781427165354319
20
-10.7351985039370081
11
12.4668941338582666
21
-10.7323863779527553
0
LINE
8
BLACK
6
CONTINUOUS
10
12.4668941338582666
20
-10.7323863779527553
11
12.4612698425196839
21
-10.7295742125984255
0
LINE
8
BLACK
6
CONTINUOUS
10
12.4612698425196839
20
-10.7295742125984255
11
12.4584576771653541
21
-10.7267620866141726
0
LINE
8
BLACK
6
CONTINUOUS
10
12.4584576771653541
20
-10.7267620866141726
11
12.4556455511811013
21
-10.72113779527559
0
LINE
8
BLACK
6
CONTINUOUS
10
12.4556455511811013
20
-10.72113779527559
11
12.4556455511811013
21
-10.7155134645669285
0
LINE
8
BLACK
6
CONTINUOUS
10
12.4556455511811013
20
-10.7155134645669285
11
12.4584576771653541
21
-10.7098891732283459
0
LINE
8
BLACK
6
CONTINUOUS
10
12.4584576771653541
20
-10.7098891732283459
11
12.4612698425196839
21
-10.7070770472440948
0
LINE
8
BLACK
6
CONTINUOUS
10
12.4612698425196839
20
-10.7070770472440948
11
12.4668941338582666
21
-10.7042648818897632
0
LINE
8
BLACK
6
CONTINUOUS
10
12.4668941338582666
20
-10.7042648818897632
11
12.4809548818897635
21
-10.7042648818897632
0
LINE
8
BLACK
6
CONTINUOUS
10
12.4809548818897635
20
-10.7042648818897632
11
12.489391338582676
21
-10.7070770472440948
0
LINE
8
BLACK
6
CONTINUOUS
10
12.5118885039370085
20
-10.7605078740157474
11
12.520324960629921
21
-10.7633200000000002
0
LINE
8
BLACK
6
CONTINUOUS
10
12.520324960629921
20
-10.7633200000000002
11
12.5343856692913391
21
-10.7633200000000002
0
LINE
8
BLACK
6
CONTINUOUS
10
12.5343856692913391
20
-10.7633200000000002
11
12.5400100000000005
21
-10.7605078740157474
0
LINE
8
BLACK
6
CONTINUOUS
10
12.5400100000000005
20
-10.7605078740157474
11
12.5428221259842516
21
-10.7576957086614176
0
LINE
8
BLACK
6
CONTINUOUS
10
12.5428221259842516
20
-10.7576957086614176
11
12.5456342913385832
21
-10.7520714173228349
0
LINE
8
BLACK
6
CONTINUOUS
10
12.5456342913385832
20
-10.7520714173228349
11
12.5456342913385832
21
-10.7464471259842522
0
LINE
8
BLACK
6
CONTINUOUS
10
12.5456342913385832
20
-10.7464471259842522
11
12.5428221259842516
21
-10.7408228346456696
0
LINE
8
BLACK
6
CONTINUOUS
10
12.5428221259842516
20
-10.7408228346456696
11
12.5400100000000005
21
-10.738010669291338
0
LINE
8
BLACK
6
CONTINUOUS
10
12.5400100000000005
20
-10.738010669291338
11
12.5343856692913391
21
-10.7351985039370081
0
LINE
8
BLACK
6
CONTINUOUS
10
12.5343856692913391
20
-10.7351985039370081
11
12.5231370866141738
21
-10.7323863779527553
0
LINE
8
BLACK
6
CONTINUOUS
10
12.5231370866141738
20
-10.7323863779527553
11
12.5175127952755911
21
-10.7295742125984255
0
LINE
8
BLACK
6
CONTINUOUS
10
12.5175127952755911
20
-10.7295742125984255
11
12.5147006299212595
21
-10.7267620866141726
0
LINE
8
BLACK
6
CONTINUOUS
10
12.5147006299212595
20
-10.7267620866141726
11
12.5118885039370085
21
-10.72113779527559
0
LINE
8
BLACK
6
CONTINUOUS
10
12.5118885039370085
20
-10.72113779527559
11
12.5118885039370085
21
-10.7155134645669285
0
LINE
8
BLACK
6
CONTINUOUS
10
12.5118885039370085
20
-10.7155134645669285
11
12.5147006299212595
21
-10.7098891732283459
0
LINE
8
BLACK
6
CONTINUOUS
10
12.5147006299212595
20
-10.7098891732283459
11
12.5175127952755911
21
-10.7070770472440948
0
LINE
8
BLACK
6
CONTINUOUS
10
12.5175127952755911
20
-10.7070770472440948
11
12.5231370866141738
21
-10.7042648818897632
0
LINE
8
BLACK
6
CONTINUOUS
10
12.5231370866141738
20
-10.7042648818897632
11
12.5371978346456689
21
-10.7042648818897632
0
LINE
8
BLACK
6
CONTINUOUS
10
12.5371978346456689
20
-10.7042648818897632
11
12.5456342913385832
21
-10.7070770472440948
0
LINE
8
BLACK
6
CONTINUOUS
10
12.582192204724409
20
-10.7351985039370081
11
12.582192204724409
21
-10.7633200000000002
0
LINE
8
BLACK
6
CONTINUOUS
10
12.5625071653543312
20
-10.7042648818897632
11
12.582192204724409
21
-10.7351985039370081
0
LINE
8
BLACK
6
CONTINUOUS
10
12.582192204724409
20
-10.7351985039370081
11
12.6018772440944886
21
-10.7042648818897632
0
LINE
8
BLACK
6
CONTINUOUS
10
12.6215622440944877
20
-10.7408228346456696
11
12.6665566535433065
21
-10.7408228346456696
0
LINE
8
BLACK
6
CONTINUOUS
10
12.7059267322834639
20
-10.7042648818897632
11
12.7115510236220466
21
-10.7042648818897632
0
LINE
8
BLACK
6
CONTINUOUS
10
12.7115510236220466
20
-10.7042648818897632
11
12.7171753149606293
21
-10.7070770472440948
0
LINE
8
BLACK
6
CONTINUOUS
10
12.7171753149606293
20
-10.7070770472440948
11
12.7199874803149608
21
-10.7098891732283459
0
LINE
8
BLACK
6
CONTINUOUS
10
12.7199874803149608
20
-10.7098891732283459
11
12.7227996062992119
21
-10.7155134645669285
0
LINE
8
BLACK
6
CONTINUOUS
10
12.7227996062992119
20
-10.7155134645669285
11
12.7256117716535435
21
-10.7267620866141726
0
LINE
8
BLACK
6
CONTINUOUS
10
12.7256117716535435
20
-10.7267620866141726
11
12.7256117716535435
21
-10.7408228346456696
0
LINE
8
BLACK
6
CONTINUOUS
10
12.7256117716535435
20
-10.7408228346456696
11
12.7227996062992119
21
-10.7520714173228349
0
LINE
8
BLACK
6
CONTINUOUS
10
12.7227996062992119
20
-10.7520714173228349
11
12.7199874803149608
21
-10.7576957086614176
0
LINE
8
BLACK
6
CONTINUOUS
10
12.7199874803149608
20
-10.7576957086614176
11
12.7171753149606293
21
-10.7605078740157474
0
LINE
8
BLACK
6
CONTINUOUS
10
12.7171753149606293
20
-10.7605078740157474
11
12.7115510236220466
21
-10.7633200000000002
0
LINE
8
BLACK
6
CONTINUOUS
10
12.7115510236220466
20
-10.7633200000000002
11
12.7059267322834639
21
-10.7633200000000002
0
LINE
8
BLACK
6
CONTINUOUS
10
12.7059267322834639
20
-10.7633200000000002
11
12.7003024409448813
21
-10.7605078740157474
0
LINE
8
BLACK
6
CONTINUOUS
10
12.7003024409448813
20
-10.7605078740157474
11
12.6974902755905514
21
-10.7576957086614176
0
LINE
8
BLACK
6
CONTINUOUS
10
12.6974902755905514
20
-10.7576957086614176
11
12.6946781102362198
21
-10.7520714173228349
0
LINE
8
BLACK
6
CONTINUOUS
10
12.6946781102362198
20
-10.7520714173228349
11
12.6918659842519688
21
-10.7408228346456696
0
LINE
8
BLACK
6
CONTINUOUS
10
12.6918659842519688
20
-10.7408228346456696
11
12.6918659842519688
21
-10.7267620866141726
0
LINE
8
BLACK
6
CONTINUOUS
10
12.6918659842519688
20
-10.7267620866141726
11
12.6946781102362198
21
-10.7155134645669285
0
LINE
8
BLACK
6
CONTINUOUS
10
12.6946781102362198
20
-10.7155134645669285
11
12.6974902755905514
21
-10.7098891732283459
0
LINE
8
BLACK
6
CONTINUOUS
10
12.6974902755905514
20
-10.7098891732283459
11
12.7003024409448813
21
-10.7070770472440948
0
LINE
8
BLACK
6
CONTINUOUS
10
12.7003024409448813
20
-10.7070770472440948
11
12.7059267322834639
21
-10.7042648818897632
0
LINE
8
BLACK
6
CONTINUOUS
10
12.7621696850393693
20
-10.7042648818897632
11
12.767793976377952
21
-10.7042648818897632
0
LINE
8
BLACK
6
CONTINUOUS
10
12.767793976377952
20
-10.7042648818897632
11
12.7734182677165347
21
-10.7070770472440948
0
LINE
8
BLACK
6
CONTINUOUS
10
12.7734182677165347
20
-10.7070770472440948
11
12.7762304330708663
21
-10.7098891732283459
0
LINE
8
BLACK
6
CONTINUOUS
10
12.7762304330708663
20
-10.7098891732283459
11
12.7790425590551173
21
-10.7155134645669285
0
LINE
8
BLACK
6
CONTINUOUS
10
12.7790425590551173
20
-10.7155134645669285
11
12.7818547244094489
21
-10.7267620866141726
0
LINE
8
BLACK
6
CONTINUOUS
10
12.7818547244094489
20
-10.7267620866141726
11
12.7818547244094489
21
-10.7408228346456696
0
LINE
8
BLACK
6
CONTINUOUS
10
12.7818547244094489
20
-10.7408228346456696
11
12.7790425590551173
21
-10.7520714173228349
0
LINE
8
BLACK
6
CONTINUOUS
10
12.7790425590551173
20
-10.7520714173228349
11
12.7762304330708663
21
-10.7576957086614176
0
LINE
8
BLACK
6
CONTINUOUS
10
12.7762304330708663
20
-10.7576957086614176
11
12.7734182677165347
21
-10.7605078740157474
0
LINE
8
BLACK
6
CONTINUOUS
10
12.7734182677165347
20
-10.7605078740157474
11
12.767793976377952
21
-10.7633200000000002
0
LINE
8
BLACK
6
CONTINUOUS
10
12.767793976377952
20
-10.7633200000000002
11
12.7621696850393693
21
-10.7633200000000002
0
LINE
8
BLACK
6
CONTINUOUS
10
12.7621696850393693
20
-10.7633200000000002
11
12.7565453937007867
21
-10.7605078740157474
0
LINE
8
BLACK
6
CONTINUOUS
10
12.7565453937007867
20
-10.7605078740157474
11
12.7537332283464568
21
-10.7576957086614176
0
LINE
8
BLACK
6
CONTINUOUS
10
12.7537332283464568
20
-10.7576957086614176
11
12.7509210629921252
21
-10.7520714173228349
0
LINE
8
BLACK
6
CONTINUOUS
10
12.7509210629921252
20
-10.7520714173228349
11
12.7481089370078742
21
-10.7408228346456696
0
LINE
8
BLACK
6
CONTINUOUS
10
12.7481089370078742
20
-10.7408228346456696
11
12.7481089370078742
21
-10.7267620866141726
0
LINE
8
BLACK
6
CONTINUOUS
10
12.7481089370078742
20
-10.7267620866141726
11
12.7509210629921252
21
-10.7155134645669285
0
LINE
8
BLACK
6
CONTINUOUS
10
12.7509210629921252
20
-10.7155134645669285
11
12.7537332283464568
21
-10.7098891732283459
0
LINE
8
BLACK
6
CONTINUOUS
10
12.7537332283464568
20
-10.7098891732283459
11
12.7565453937007867
21
-10.7070770472440948
0
LINE
8
BLACK
6
CONTINUOUS
10
12.7565453937007867
20
-10.7070770472440948
11
12.7621696850393693
21
-10.7042648818897632
0
LINE
8
BLACK
6
CONTINUOUS
10
12.8380976771653543
20
-10.7633200000000002
11
12.8043518897637796
21
-10.7633200000000002
0
LINE
8
BLACK
6
CONTINUOUS
10
12.8212247637795276
20
-10.7633200000000002
11
12.8212247637795276
21
-10.7042648818897632
0
LINE
8
BLACK
6
CONTINUOUS
10
12.8212247637795276
20
-10.7042648818897632
11
12.8156004724409449
21
-10.7127013385826775
0
LINE
8
BLACK
6
CONTINUOUS
10
12.8156004724409449
20
-10.7127013385826775
11
12.8099761811023622
21
-10.7183256299212601
0
LINE
8
BLACK
6
CONTINUOUS
10
12.8099761811023622
20
-10.7183256299212601
11
12.8043518897637796
21
-10.72113779527559
0
LINE
8
BLACK
6
CONTINUOUS
10
12.8634069685039361
20
-10.7408228346456696
11
12.9084013779527549
21
-10.7408228346456696
0
LINE
8
BLACK
6
CONTINUOUS
10
12.9477714566929123
20
-10.7042648818897632
11
12.953395748031495
21
-10.7042648818897632
0
LINE
8
BLACK
6
CONTINUOUS
10
12.953395748031495
20
-10.7042648818897632
11
12.9590200393700776
21
-10.7070770472440948
0
LINE
8
BLACK
6
CONTINUOUS
10
12.9590200393700776
20
-10.7070770472440948
11
12.9618322047244092
21
-10.7098891732283459
0
LINE
8
BLACK
6
CONTINUOUS
10
12.9618322047244092
20
-10.7098891732283459
11
12.9646443307086603
21
-10.7155134645669285
0
LINE
8
BLACK
6
CONTINUOUS
10
12.9646443307086603
20
-10.7155134645669285
11
12.9674564960629919
21
-10.7267620866141726
0
LINE
8
BLACK
6
CONTINUOUS
10
12.9674564960629919
20
-10.7267620866141726
11
12.9674564960629919
21
-10.7408228346456696
0
LINE
8
BLACK
6
CONTINUOUS
10
12.9674564960629919
20
-10.7408228346456696
11
12.9646443307086603
21
-10.7520714173228349
0
LINE
8
BLACK
6
CONTINUOUS
10
12.9646443307086603
20
-10.7520714173228349
11
12.9618322047244092
21
-10.7576957086614176
0
LINE
8
BLACK
6
CONTINUOUS
10
12.9618322047244092
20
-10.7576957086614176
11
12.9590200393700776
21
-10.7605078740157474
0
LINE
8
BLACK
6
CONTINUOUS
10
12.9590200393700776
20
-10.7605078740157474
11
12.953395748031495
21
-10.7633200000000002
0
LINE
8
BLACK
6
CONTINUOUS
10
12.953395748031495
20
-10.7633200000000002
11
12.9477714566929123
21
-10.7633200000000002
0
LINE
8
BLACK
6
CONTINUOUS
10
12.9477714566929123
20
-10.7633200000000002
11
12.9421471653543296
21
-10.7605078740157474
0
LINE
8
BLACK
6
CONTINUOUS
10
12.9421471653543296
20
-10.7605078740157474
11
12.9393349999999998
21
-10.7576957086614176
0
LINE
8
BLACK
6
CONTINUOUS
10
12.9393349999999998
20
-10.7576957086614176
11
12.9365228346456682
21
-10.7520714173228349
0
LINE
8
BLACK
6
CONTINUOUS
10
12.9365228346456682
20
-10.7520714173228349
11
12.9337107086614171
21
-10.7408228346456696
0
LINE
8
BLACK
6
CONTINUOUS
10
12.9337107086614171
20
-10.7408228346456696
11
12.9337107086614171
21
-10.7267620866141726
0
LINE
8
BLACK
6
CONTINUOUS
10
12.9337107086614171
20
-10.7267620866141726
11
12.9365228346456682
21
-10.7155134645669285
0
LINE
8
BLACK
6
CONTINUOUS
10
12.9365228346456682
20
-10.7155134645669285
11
12.9393349999999998
21
-10.7098891732283459
0
LINE
8
BLACK
6
CONTINUOUS
10
12.9393349999999998
20
-10.7098891732283459
11
12.9421471653543296
21
-10.7070770472440948
0
LINE
8
BLACK
6
CONTINUOUS
10
12.9421471653543296
20
-10.7070770472440948
11
12.9477714566929123
21
-10.7042648818897632
0
LINE
8
BLACK
6
CONTINUOUS
10
13.0236994488188973
20
-10.7633200000000002
11
12.9899536614173226
21
-10.7633200000000002
0
LINE
8
BLACK
6
CONTINUOUS
10
13.0068265354330705
20
-10.7633200000000002
11
13.0068265354330705
21
-10.7042648818897632
0
LINE
8
BLACK
6
CONTINUOUS
10
13.0068265354330705
20
-10.7042648818897632
11
13.0012022440944879
21
-10.7127013385826775
0
LINE
8
BLACK
6
CONTINUOUS
10
13.0012022440944879
20
-10.7127013385826775
11
12.9955779527559052
21
-10.7183256299212601
0
LINE
8
BLACK
6
CONTINUOUS
10
12.9955779527559052
20
-10.7183256299212601
11
12.9899536614173226
21
-10.72113779527559
0
LINE
8
BLACK
6
CONTINUOUS
10
13.0490087401574808
20
-10.7576957086614176
11
13.0518209055118106
21
-10.7605078740157474
0
LINE
8
BLACK
6
CONTINUOUS
10
13.0518209055118106
20
-10.7605078740157474
11
13.0490087401574808
21
-10.7633200000000002
0
LINE
8
BLACK
6
CONTINUOUS
10
13.0490087401574808
20
-10.7633200000000002
11
13.046196614173228
21
-10.7605078740157474
0
LINE
8
BLACK
6
CONTINUOUS
10
13.046196614173228
20
-10.7605078740157474
11
13.0490087401574808
21
-10.7576957086614176
0
LINE
8
BLACK
6
CONTINUOUS
10
13.0490087401574808
20
-10.7576957086614176
11
13.0490087401574808
21
-10.7633200000000002
0
LINE
8
BLACK
6
CONTINUOUS
10
13.0771302362204729
20
-10.7633200000000002
11
13.0771302362204729
21
-10.7042648818897632
0
LINE
8
BLACK
6
CONTINUOUS
10
13.0827545669291343
20
-10.7408228346456696
11
13.0996274409448823
21
-10.7633200000000002
0
LINE
8
BLACK
6
CONTINUOUS
10
13.0996274409448823
20
-10.7239499212598428
11
13.0771302362204729
21
-10.7464471259842522
0
LINE
8
BLACK
6
CONTINUOUS
10
13.1249367716535428
20
-10.7633200000000002
11
13.1249367716535428
21
-10.7239499212598428
0
LINE
8
BLACK
6
CONTINUOUS
10
13.1249367716535428
20
-10.7042648818897632
11
13.1221246456692917
21
-10.7070770472440948
0
LINE
8
BLACK
6
CONTINUOUS
10
13.1221246456692917
20
-10.7070770472440948
11
13.1249367716535428
21
-10.7098891732283459
0
LINE
8
BLACK
6
CONTINUOUS
10
13.1249367716535428
20
-10.7098891732283459
11
13.1277489370078744
21
-10.7070770472440948
0
LINE
8
BLACK
6
CONTINUOUS
10
13.1277489370078744
20
-10.7070770472440948
11
13.1249367716535428
21
-10.7042648818897632
0
LINE
8
BLACK
6
CONTINUOUS
10
13.1249367716535428
20
-10.7042648818897632
11
13.1249367716535428
21
-10.7098891732283459
0
LINE
8
BLACK
6
CONTINUOUS
10
13.1783676377952759
20
-10.7605078740157474
11
13.1727433070866145
21
-10.7633200000000002
0
LINE
8
BLACK
6
CONTINUOUS
10
13.1727433070866145
20
-10.7633200000000002
11
13.1614947244094491
21
-10.7633200000000002
0
LINE
8
BLACK
6
CONTINUOUS
10
13.1614947244094491
20
-10.7633200000000002
11
13.1558704330708665
21
-10.7605078740157474
0
LINE
8
BLACK
6
CONTINUOUS
10
13.1558704330708665
20
-10.7605078740157474
11
13.1530582677165349
21
-10.7576957086614176
0
LINE
8
BLACK
6
CONTINUOUS
10
13.1530582677165349
20
-10.7576957086614176
11
13.1502461417322838
21
-10.7520714173228349
0
LINE
8
BLACK
6
CONTINUOUS
10
13.1502461417322838
20
-10.7520714173228349
11
13.1502461417322838
21
-10.7351985039370081
0
LINE
8
BLACK
6
CONTINUOUS
10
13.1502461417322838
20
-10.7351985039370081
11
13.1530582677165349
21
-10.7295742125984255
0
LINE
8
BLACK
6
CONTINUOUS
10
13.1530582677165349
20
-10.7295742125984255
11
13.1558704330708665
21
-10.7267620866141726
0
LINE
8
BLACK
6
CONTINUOUS
10
13.1558704330708665
20
-10.7267620866141726
11
13.1614947244094491
21
-10.7239499212598428
0
LINE
8
BLACK
6
CONTINUOUS
10
13.1614947244094491
20
-10.7239499212598428
11
13.1727433070866145
21
-10.7239499212598428
0
LINE
8
BLACK
6
CONTINUOUS
10
13.1727433070866145
20
-10.7239499212598428
11
13.1783676377952759
21
-10.7267620866141726
0
LINE
8
BLACK
6
CONTINUOUS
10
13.2289862992125986
20
-10.7633200000000002
11
13.2289862992125986
21
-10.7323863779527553
0
LINE
8
BLACK
6
CONTINUOUS
10
13.2289862992125986
20
-10.7323863779527553
11
13.226174133858267
21
-10.7267620866141726
0
LINE
8
BLACK
6
CONTINUOUS
10
13.226174133858267
20
-10.7267620866141726
11
13.2205498425196843
21
-10.7239499212598428
0
LINE
8
BLACK
6
CONTINUOUS
10
13.2205498425196843
20
-10.7239499212598428
11
13.209301259842519
21
-10.7239499212598428
0
LINE
8
BLACK
6
CONTINUOUS
10
13.209301259842519
20
-10.7239499212598428
11
13.2036769291338576
21
-10.7267620866141726
0
LINE
8
BLACK
6
CONTINUOUS
10
13.2289862992125986
20
-10.7605078740157474
11
13.2233619685039372
21
-10.7633200000000002
0
LINE
8
BLACK
6
CONTINUOUS
10
13.2233619685039372
20
-10.7633200000000002
11
13.209301259842519
21
-10.7633200000000002
0
LINE
8
BLACK
6
CONTINUOUS
10
13.209301259842519
20
-10.7633200000000002
11
13.2036769291338576
21
-10.7605078740157474
0
LINE
8
BLACK
6
CONTINUOUS
10
13.2036769291338576
20
-10.7605078740157474
11
13.2008648031496065
21
-10.754883543307086
0
LINE
8
BLACK
6
CONTINUOUS
10
13.2008648031496065
20
-10.754883543307086
11
13.2008648031496065
21
-10.7492592519685033
0
LINE
8
BLACK
6
CONTINUOUS
10
13.2008648031496065
20
-10.7492592519685033
11
13.2036769291338576
21
-10.7436349606299206
0
LINE
8
BLACK
6
CONTINUOUS
10
13.2036769291338576
20
-10.7436349606299206
11
13.209301259842519
21
-10.7408228346456696
0
LINE
8
BLACK
6
CONTINUOUS
10
13.209301259842519
20
-10.7408228346456696
11
13.2233619685039372
21
-10.7408228346456696
0
LINE
8
BLACK
6
CONTINUOUS
10
13.2233619685039372
20
-10.7408228346456696
11
13.2289862992125986
21
-10.738010669291338
0
LINE
8
BLACK
6
CONTINUOUS
10
13.2824171259842512
20
-10.7633200000000002
11
13.2824171259842512
21
-10.7042648818897632
0
LINE
8
BLACK
6
CONTINUOUS
10
13.2824171259842512
20
-10.7605078740157474
11
13.2767927952755898
21
-10.7633200000000002
0
LINE
8
BLACK
6
CONTINUOUS
10
13.2767927952755898
20
-10.7633200000000002
11
13.2655442125984244
21
-10.7633200000000002
0
LINE
8
BLACK
6
CONTINUOUS
10
13.2655442125984244
20
-10.7633200000000002
11
13.2599199212598418
21
-10.7605078740157474
0
LINE
8
BLACK
6
CONTINUOUS
10
13.2599199212598418
20
-10.7605078740157474
11
13.2571077559055119
21
-10.7576957086614176
0
LINE
8
BLACK
6
CONTINUOUS
10
13.2571077559055119
20
-10.7576957086614176
11
13.2542956299212591
21
-10.7520714173228349
0
LINE
8
BLACK
6
CONTINUOUS
10
13.2542956299212591
20
-10.7520714173228349
11
13.2542956299212591
21
-10.7351985039370081
0
LINE
8
BLACK
6
CONTINUOUS
10
13.2542956299212591
20
-10.7351985039370081
11
13.2571077559055119
21
-10.7295742125984255
0
LINE
8
BLACK
6
CONTINUOUS
10
13.2571077559055119
20
-10.7295742125984255
11
13.2599199212598418
21
-10.7267620866141726
0
LINE
8
BLACK
6
CONTINUOUS
10
13.2599199212598418
20
-10.7267620866141726
11
13.2655442125984244
21
-10.7239499212598428
0
LINE
8
BLACK
6
CONTINUOUS
10
13.2655442125984244
20
-10.7239499212598428
11
13.2767927952755898
21
-10.7239499212598428
0
LINE
8
BLACK
6
CONTINUOUS
10
13.2767927952755898
20
-10.7239499212598428
11
13.2824171259842512
21
-10.7267620866141726
0
LINE
8
BLACK
6
CONTINUOUS
10
13.2964778740157481
20
-10.7689442913385829
11
13.3414722440944882
21
-10.7689442913385829
0
LINE
8
BLACK
6
CONTINUOUS
10
13.3555329527559046
20
-10.7239499212598428
11
13.3555329527559046
21
-10.783005039370078
0
LINE
8
BLACK
6
CONTINUOUS
10
13.3555329527559046
20
-10.7267620866141726
11
13.361157283464566
21
-10.7239499212598428
0
LINE
8
BLACK
6
CONTINUOUS
10
13.361157283464566
20
-10.7239499212598428
11
13.3724058661417313
21
-10.7239499212598428
0
LINE
8
BLACK
6
CONTINUOUS
10
13.3724058661417313
20
-10.7239499212598428
11
13.378030157480314
21
-10.7267620866141726
0
LINE
8
BLACK
6
CONTINUOUS
10
13.378030157480314
20
-10.7267620866141726
11
13.3808423228346456
21
-10.7295742125984255
0
LINE
8
BLACK
6
CONTINUOUS
10
13.3808423228346456
20
-10.7295742125984255
11
13.3836544488188967
21
-10.7351985039370081
0
LINE
8
BLACK
6
CONTINUOUS
10
13.3836544488188967
20
-10.7351985039370081
11
13.3836544488188967
21
-10.7520714173228349
0
LINE
8
BLACK
6
CONTINUOUS
10
13.3836544488188967
20
-10.7520714173228349
11
13.3808423228346456
21
-10.7576957086614176
0
LINE
8
BLACK
6
CONTINUOUS
10
13.3808423228346456
20
-10.7576957086614176
11
13.378030157480314
21
-10.7605078740157474
0
LINE
8
BLACK
6
CONTINUOUS
10
13.378030157480314
20
-10.7605078740157474
11
13.3724058661417313
21
-10.7633200000000002
0
LINE
8
BLACK
6
CONTINUOUS
10
13.3724058661417313
20
-10.7633200000000002
11
13.361157283464566
21
-10.7633200000000002
0
LINE
8
BLACK
6
CONTINUOUS
10
13.361157283464566
20
-10.7633200000000002
11
13.3555329527559046
21
-10.7605078740157474
0
LINE
8
BLACK
6
CONTINUOUS
10
13.4342731496062981
20
-10.7605078740157474
11
13.4286488188976367
21
-10.7633200000000002
0
LINE
8
BLACK
6
CONTINUOUS
10
13.4286488188976367
20
-10.7633200000000002
11
13.4174002362204714
21
-10.7633200000000002
0
LINE
8
BLACK
6
CONTINUOUS
10
13.4174002362204714
20
-10.7633200000000002
11
13.4117759448818887
21
-10.7605078740157474
0
LINE
8
BLACK
6
CONTINUOUS
10
13.4117759448818887
20
-10.7605078740157474
11
13.4089637795275589
21
-10.7576957086614176
0
LINE
8
BLACK
6
CONTINUOUS
10
13.4089637795275589
20
-10.7576957086614176
11
13.4061516535433061
21
-10.7520714173228349
0
LINE
8
BLACK
6
CONTINUOUS
10
13.4061516535433061
20
-10.7520714173228349
11
13.4061516535433061
21
-10.7351985039370081
0
LINE
8
BLACK
6
CONTINUOUS
10
13.4061516535433061
20
-10.7351985039370081
11
13.4089637795275589
21
-10.7295742125984255
0
LINE
8
BLACK
6
CONTINUOUS
10
13.4089637795275589
20
-10.7295742125984255
11
13.4117759448818887
21
-10.7267620866141726
0
LINE
8
BLACK
6
CONTINUOUS
10
13.4117759448818887
20
-10.7267620866141726
11
13.4174002362204714
21
-10.7239499212598428
0
LINE
8
BLACK
6
CONTINUOUS
10
13.4174002362204714
20
-10.7239499212598428
11
13.4286488188976367
21
-10.7239499212598428
0
LINE
8
BLACK
6
CONTINUOUS
10
13.4286488188976367
20
-10.7239499212598428
11
13.4342731496062981
21
-10.7267620866141726
0
LINE
8
BLACK
6
CONTINUOUS
10
13.4595824409448817
20
-10.7633200000000002
11
13.4595824409448817
21
-10.7042648818897632
0
LINE
8
BLACK
6
CONTINUOUS
10
13.4595824409448817
20
-10.7267620866141726
11
13.4652067716535431
21
-10.7239499212598428
0
LINE
8
BLACK
6
CONTINUOUS
10
13.4652067716535431
20
-10.7239499212598428
11
13.4764553543307084
21
-10.7239499212598428
0
LINE
8
BLACK
6
CONTINUOUS
10
13.4764553543307084
20
-10.7239499212598428
11
13.4820796456692911
21
-10.7267620866141726
0
LINE
8
BLACK
6
CONTINUOUS
10
13.4820796456692911
20
-10.7267620866141726
11
13.4848918110236209
21
-10.7295742125984255
0
LINE
8
BLACK
6
CONTINUOUS
10
13.4848918110236209
20
-10.7295742125984255
11
13.4877039370078737
21
-10.7351985039370081
0
LINE
8
BLACK
6
CONTINUOUS
10
13.4877039370078737
20
-10.7351985039370081
11
13.4877039370078737
21
-10.7520714173228349
0
LINE
8
BLACK
6
CONTINUOUS
10
13.4877039370078737
20
-10.7520714173228349
11
13.4848918110236209
21
-10.7576957086614176
0
LINE
8
BLACK
6
CONTINUOUS
10
13.4848918110236209
20
-10.7576957086614176
11
13.4820796456692911
21
-10.7605078740157474
0
LINE
8
BLACK
6
CONTINUOUS
10
13.4820796456692911
20
-10.7605078740157474
11
13.4764553543307084
21
-10.7633200000000002
0
LINE
8
BLACK
6
CONTINUOUS
10
13.4764553543307084
20
-10.7633200000000002
11
13.4652067716535431
21
-10.7633200000000002
0
LINE
8
BLACK
6
CONTINUOUS
10
13.4652067716535431
20
-10.7633200000000002
11
13.4595824409448817
21
-10.7605078740157474
0
LINE
8
BLACK
6
CONTINUOUS
10
11.810590551181102
20
-10.5709527559055108
11
16.0625590551181112
21
-10.5709527559055108
0
LINE
8
BLACK
6
CONTINUOUS
10
11.8650944094488189
20
-10.6542086614173233
11
11.8735308661417314
21
-10.6570207874015743
0
LINE
8
BLACK
6
CONTINUOUS
10
11.8735308661417314
20
-10.6570207874015743
11
11.8875915748031495
21
-10.6570207874015743
0
LINE
8
BLACK
6
CONTINUOUS
10
11.8875915748031495
20
-10.6570207874015743
11
11.893215905511811
21
-10.6542086614173233
0
LINE
8
BLACK
6
CONTINUOUS
10
11.893215905511811
20
-10.6542086614173233
11
11.896028031496062
21
-10.6513964960629917
0
LINE
8
BLACK
6
CONTINUOUS
10
11.896028031496062
20
-10.6513964960629917
11
11.8988401968503936
21
-10.645772204724409
0
LINE
8
BLACK
6
CONTINUOUS
10
11.8988401968503936
20
-10.645772204724409
11
11.8988401968503936
21
-10.6401479133858263
0
LINE
8
BLACK
6
CONTINUOUS
10
11.8988401968503936
20
-10.6401479133858263
11
11.896028031496062
21
-10.6345236220472437
0
LINE
8
BLACK
6
CONTINUOUS
10
11.896028031496062
20
-10.6345236220472437
11
11.893215905511811
21
-10.6317114566929138
0
LINE
8
BLACK
6
CONTINUOUS
10
11.893215905511811
20
-10.6317114566929138
11
11.8875915748031495
21
-10.6288992913385822
0
LINE
8
BLACK
6
CONTINUOUS
10
11.8875915748031495
20
-10.6288992913385822
11
11.8763429921259842
21
-10.6260871653543312
0
LINE
8
BLACK
6
CONTINUOUS
10
11.8763429921259842
20
-10.6260871653543312
11
11.8707187007874015
21
-10.6232749999999996
0
LINE
8
BLACK
6
CONTINUOUS
10
11.8707187007874015
20
-10.6232749999999996
11
11.8679065354330699
21
-10.6204628740157485
0
LINE
8
BLACK
6
CONTINUOUS
10
11.8679065354330699
20
-10.6204628740157485
11
11.8650944094488189
21
-10.6148385826771658
0
LINE
8
BLACK
6
CONTINUOUS
10
11.8650944094488189
20
-10.6148385826771658
11
11.8650944094488189
21
-10.6092142519685044
0
LINE
8
BLACK
6
CONTINUOUS
10
11.8650944094488189
20
-10.6092142519685044
11
11.8679065354330699
21
-10.6035899606299218
0
LINE
8
BLACK
6
CONTINUOUS
10
11.8679065354330699
20
-10.6035899606299218
11
11.8707187007874015
21
-10.6007778346456689
0
LINE
8
BLACK
6
CONTINUOUS
10
11.8707187007874015
20
-10.6007778346456689
11
11.8763429921259842
21
-10.5979656692913391
0
LINE
8
BLACK
6
CONTINUOUS
10
11.8763429921259842
20
-10.5979656692913391
11
11.8904037401574794
21
-10.5979656692913391
0
LINE
8
BLACK
6
CONTINUOUS
10
11.8904037401574794
20
-10.5979656692913391
11
11.8988401968503936
21
-10.6007778346456689
0
LINE
8
BLACK
6
CONTINUOUS
10
11.9241494881889754
20
-10.6570207874015743
11
11.9241494881889754
21
-10.5979656692913391
0
LINE
8
BLACK
6
CONTINUOUS
10
11.9494588582677164
20
-10.6570207874015743
11
11.9494588582677164
21
-10.6260871653543312
0
LINE
8
BLACK
6
CONTINUOUS
10
11.9494588582677164
20
-10.6260871653543312
11
11.9466466929133848
21
-10.6204628740157485
0
LINE
8
BLACK
6
CONTINUOUS
10
11.9466466929133848
20
-10.6204628740157485
11
11.9410224015748021
21
-10.6176507086614169
0
LINE
8
BLACK
6
CONTINUOUS
10
11.9410224015748021
20
-10.6176507086614169
11
11.9325859448818896
21
-10.6176507086614169
0
LINE
8
BLACK
6
CONTINUOUS
10
11.9325859448818896
20
-10.6176507086614169
11
11.926961653543307
21
-10.6204628740157485
0
LINE
8
BLACK
6
CONTINUOUS
10
11.926961653543307
20
-10.6204628740157485
11
11.9241494881889754
21
-10.6232749999999996
0
LINE
8
BLACK
6
CONTINUOUS
10
12.0000775196850391
20
-10.6542086614173233
11
11.9944532283464564
21
-10.6570207874015743
0
LINE
8
BLACK
6
CONTINUOUS
10
11.9944532283464564
20
-10.6570207874015743
11
11.9832046456692911
21
-10.6570207874015743
0
LINE
8
BLACK
6
CONTINUOUS
10
11.9832046456692911
20
-10.6570207874015743
11
11.9775803149606297
21
-10.6542086614173233
0
LINE
8
BLACK
6
CONTINUOUS
10
11.9775803149606297
20
-10.6542086614173233
11
11.9747681889763768
21
-10.6485843307086618
0
LINE
8
BLACK
6
CONTINUOUS
10
11.9747681889763768
20
-10.6485843307086618
11
11.9747681889763768
21
-10.6260871653543312
0
LINE
8
BLACK
6
CONTINUOUS
10
11.9747681889763768
20
-10.6260871653543312
11
11.9775803149606297
21
-10.6204628740157485
0
LINE
8
BLACK
6
CONTINUOUS
10
11.9775803149606297
20
-10.6204628740157485
11
11.9832046456692911
21
-10.6176507086614169
0
LINE
8
BLACK
6
CONTINUOUS
10
11.9832046456692911
20
-10.6176507086614169
11
11.9944532283464564
21
-10.6176507086614169
0
LINE
8
BLACK
6
CONTINUOUS
10
11.9944532283464564
20
-10.6176507086614169
11
12.0000775196850391
21
-10.6204628740157485
0
LINE
8
BLACK
6
CONTINUOUS
10
12.0000775196850391
20
-10.6204628740157485
11
12.0028896850393689
21
-10.6260871653543312
0
LINE
8
BLACK
6
CONTINUOUS
10
12.0028896850393689
20
-10.6260871653543312
11
12.0028896850393689
21
-10.6317114566929138
0
LINE
8
BLACK
6
CONTINUOUS
10
12.0028896850393689
20
-10.6317114566929138
11
11.9747681889763768
21
-10.6373357480314965
0
LINE
8
BLACK
6
CONTINUOUS
10
12.0506961811023618
20
-10.6542086614173233
11
12.0450718897637792
21
-10.6570207874015743
0
LINE
8
BLACK
6
CONTINUOUS
10
12.0450718897637792
20
-10.6570207874015743
11
12.0338233070866139
21
-10.6570207874015743
0
LINE
8
BLACK
6
CONTINUOUS
10
12.0338233070866139
20
-10.6570207874015743
11
12.0281989763779524
21
-10.6542086614173233
0
LINE
8
BLACK
6
CONTINUOUS
10
12.0281989763779524
20
-10.6542086614173233
11
12.0253868503937014
21
-10.6485843307086618
0
LINE
8
BLACK
6
CONTINUOUS
10
12.0253868503937014
20
-10.6485843307086618
11
12.0253868503937014
21
-10.6260871653543312
0
LINE
8
BLACK
6
CONTINUOUS
10
12.0253868503937014
20
-10.6260871653543312
11
12.0281989763779524
21
-10.6204628740157485
0
LINE
8
BLACK
6
CONTINUOUS
10
12.0281989763779524
20
-10.6204628740157485
11
12.0338233070866139
21
-10.6176507086614169
0
LINE
8
BLACK
6
CONTINUOUS
10
12.0338233070866139
20
-10.6176507086614169
11
12.0450718897637792
21
-10.6176507086614169
0
LINE
8
BLACK
6
CONTINUOUS
10
12.0450718897637792
20
-10.6176507086614169
11
12.0506961811023618
21
-10.6204628740157485
0
LINE
8
BLACK
6
CONTINUOUS
10
12.0506961811023618
20
-10.6204628740157485
11
12.0535083464566934
21
-10.6260871653543312
0
LINE
8
BLACK
6
CONTINUOUS
10
12.0535083464566934
20
-10.6260871653543312
11
12.0535083464566934
21
-10.6317114566929138
0
LINE
8
BLACK
6
CONTINUOUS
10
12.0535083464566934
20
-10.6317114566929138
11
12.0253868503937014
21
-10.6373357480314965
0
LINE
8
BLACK
6
CONTINUOUS
10
12.0703812204724414
20
-10.6176507086614169
11
12.0928783858267721
21
-10.6176507086614169
0
LINE
8
BLACK
6
CONTINUOUS
10
12.0788176377952752
20
-10.5979656692913391
11
12.0788176377952752
21
-10.6485843307086618
0
LINE
8
BLACK
6
CONTINUOUS
10
12.0788176377952752
20
-10.6485843307086618
11
12.0816298031496068
21
-10.6542086614173233
0
LINE
8
BLACK
6
CONTINUOUS
10
12.0816298031496068
20
-10.6542086614173233
11
12.0872540944881894
21
-10.6570207874015743
0
LINE
8
BLACK
6
CONTINUOUS
10
12.0872540944881894
20
-10.6570207874015743
11
12.0928783858267721
21
-10.6570207874015743
0
LINE
8
BLACK
6
CONTINUOUS
10
12.1125634251968499
20
-10.6513964960629917
11
12.1153755905511815
21
-10.6542086614173233
0
LINE
8
BLACK
6
CONTINUOUS
10
12.1153755905511815
20
-10.6542086614173233
11
12.1125634251968499
21
-10.6570207874015743
0
LINE
8
BLACK
6
CONTINUOUS
10
12.1125634251968499
20
-10.6570207874015743
11
12.1097512992125989
21
-10.6542086614173233
0
LINE
8
BLACK
6
CONTINUOUS
10
12.1097512992125989
20
-10.6542086614173233
11
12.1125634251968499
21
-10.6513964960629917
0
LINE
8
BLACK
6
CONTINUOUS
10
12.1125634251968499
20
-10.6513964960629917
11
12.1125634251968499
21
-10.6570207874015743
0
LINE
8
BLACK
6
CONTINUOUS
10
12.1125634251968499
20
-10.6204628740157485
11
12.1153755905511815
21
-10.6232749999999996
0
LINE
8
BLACK
6
CONTINUOUS
10
12.1153755905511815
20
-10.6232749999999996
11
12.1125634251968499
21
-10.6260871653543312
0
LINE
8
BLACK
6
CONTINUOUS
10
12.1125634251968499
20
-10.6260871653543312
11
12.1097512992125989
21
-10.6232749999999996
0
LINE
8
BLACK
6
CONTINUOUS
10
12.1097512992125989
20
-10.6232749999999996
11
12.1125634251968499
21
-10.6204628740157485
0
LINE
8
BLACK
6
CONTINUOUS
10
12.1125634251968499
20
-10.6204628740157485
11
12.1125634251968499
21
-10.6260871653543312
0
LINE
8
BLACK
6
CONTINUOUS
10
12.597992125984252
20
-10.9646535433070866
11
12.597992125984252
21
-11.0827637795275589
0
LINE
8
BLACK
6
CONTINUOUS
10
15.1176771653543298
20
-10.9646535433070866
11
15.1176771653543298
21
-11.2205590551181107
0
LINE
8
BLACK
6
CONTINUOUS
10
5.7199742519685035
20
-3.149215866141732
11
5.7270875984251965
21
-3.1519716141732284
0
LINE
8
BLACK
6
CONTINUOUS
10
5.7270875984251965
20
-3.1519716141732284
11
5.7335734645669287
21
-3.1559874803149603
0
LINE
8
BLACK
6
CONTINUOUS
10
5.7335734645669287
20
-3.1559874803149603
11
5.7392109842519687
21
-3.1611267716535432
0
LINE
8
BLACK
6
CONTINUOUS
10
5.7392109842519687
20
-3.1611267716535432
11
5.7438081889763781
21
-3.1672144094488188
0
LINE
8
BLACK
6
CONTINUOUS
10
5.7438081889763781
20
-3.1672144094488188
11
5.7472085039370073
21
-3.1740431496062991
0
LINE
8
BLACK
6
CONTINUOUS
10
5.7472085039370073
20
-3.1740431496062991
11
5.749296141732283
21
-3.1813804330708662
0
LINE
8
BLACK
6
CONTINUOUS
10
5.749296141732283
20
-3.1813804330708662
11
5.75
21
-3.188976377952756
0
LINE
8
BLACK
6
CONTINUOUS
10
5.75
20
-3.188976377952756
11
5.75
21
-3.7795275590551181
0
LINE
8
BLACK
6
CONTINUOUS
10
5.75
20
-3.7795275590551181
11
5.749296141732283
21
-3.7871235039370079
0
LINE
8
BLACK
6
CONTINUOUS
10
5.749296141732283
20
-3.7871235039370079
11
5.7472085039370073
21
-3.7944607874015746
0
LINE
8
BLACK
6
CONTINUOUS
10
5.7472085039370073
20
-3.7944607874015746
11
5.7438081889763781
21
-3.8012895275590552
0
LINE
8
BLACK
6
CONTINUOUS
10
5.7438081889763781
20
-3.8012895275590552
11
5.7392109842519687
21
-3.8073771653543305
0
LINE
8
BLACK
6
CONTINUOUS
10
5.7392109842519687
20
-3.8073771653543305
11
5.7335734645669287
21
-3.8125164566929133
0
LINE
8
BLACK
6
CONTINUOUS
10
5.7335734645669287
20
-3.8125164566929133
11
5.7270875984251965
21
-3.8165323228346457
0
LINE
8
BLACK
6
CONTINUOUS
10
5.7270875984251965
20
-3.8165323228346457
11
5.7199742519685035
21
-3.8192880708661416
0
LINE
8
BLACK
6
CONTINUOUS
10
5.7199742519685035
20
-3.8192880708661416
11
5.7124756692913383
21
-3.8206898031496062
0
LINE
8
BLACK
6
CONTINUOUS
10
5.7124756692913383
20
-3.8206898031496062
11
5.7048471653543302
21
-3.8206898031496062
0
LINE
8
BLACK
6
CONTINUOUS
10
5.7048471653543302
20
-3.8206898031496062
11
5.697348582677165
21
-3.8192880708661416
0
LINE
8
BLACK
6
CONTINUOUS
10
5.697348582677165
20
-3.8192880708661416
11
5.690235236220472
21
-3.8165323228346457
0
LINE
8
BLACK
6
CONTINUOUS
10
5.690235236220472
20
-3.8165323228346457
11
5.6837493700787398
21
-3.8125164566929133
0
LINE
8
BLACK
6
CONTINUOUS
10
5.6837493700787398
20
-3.8125164566929133
11
5.6781118503937007
21
-3.8073771653543305
0
LINE
8
BLACK
6
CONTINUOUS
10
5.6781118503937007
20
-3.8073771653543305
11
5.6735146456692913
21
-3.8012895275590552
0
LINE
8
BLACK
6
CONTINUOUS
10
5.6735146456692913
20
-3.8012895275590552
11
5.6701143307086612
21
-3.7944607874015746
0
LINE
8
BLACK
6
CONTINUOUS
10
5.6701143307086612
20
-3.7944607874015746
11
5.6680266929133856
21
-3.7871235039370079
0
LINE
8
BLACK
6
CONTINUOUS
10
5.6680266929133856
20
-3.7871235039370079
11
5.6673228346456694
21
-3.7795275590551181
0
LINE
8
BLACK
6
CONTINUOUS
10
5.6673228346456694
20
-3.7795275590551181
11
5.6673228346456694
21
-3.188976377952756
0
LINE
8
BLACK
6
CONTINUOUS
10
5.6673228346456694
20
-3.188976377952756
11
5.6680266929133856
21
-3.1813804330708662
0
LINE
8
BLACK
6
CONTINUOUS
10
5.6680266929133856
20
-3.1813804330708662
11
5.6701143307086612
21
-3.1740431496062991
0
LINE
8
BLACK
6
CONTINUOUS
10
5.6701143307086612
20
-3.1740431496062991
11
5.6735146456692913
21
-3.1672144094488188
0
LINE
8
BLACK
6
CONTINUOUS
10
5.6735146456692913
20
-3.1672144094488188
11
5.6781118503937007
21
-3.1611267716535432
0
LINE
8
BLACK
6
CONTINUOUS
10
5.6781118503937007
20
-3.1611267716535432
11
5.6837493700787398
21
-3.1559874803149603
0
LINE
8
BLACK
6
CONTINUOUS
10
5.6837493700787398
20
-3.1559874803149603
11
5.690235236220472
21
-3.1519716141732284
0
LINE
8
BLACK
6
CONTINUOUS
10
5.690235236220472
20
-3.1519716141732284
11
5.697348582677165
21
-3.149215866141732
0
LINE
8
BLACK
6
CONTINUOUS
10
5.697348582677165
20
-3.149215866141732
11
5.7048471653543302
21
-3.1478141338582675
0
LINE
8
BLACK
6
CONTINUOUS
10
5.7048471653543302
20
-3.1478141338582675
11
5.7124756692913383
21
-3.1478141338582675
0
LINE
8
BLACK
6
CONTINUOUS
10
5.7124756692913383
20
-3.1478141338582675
11
5.7199742519685035
21
-3.149215866141732
0
LINE
8
BLACK
6
CONTINUOUS
10
5.6977517716535431
20
-3.1530121259842518
11
5.6909451181102364
21
-3.1558315354330708
0
LINE
8
BLACK
6
CONTINUOUS
10
5.6909451181102364
20
-3.1558315354330708
11
5.6848192913385827
21
-3.1599246850393699
0
LINE
8
BLACK
6
CONTINUOUS
10
5.6848192913385827
20
-3.1599246850393699
11
5.679609724409449
21
-3.165134251968504
0
LINE
8
BLACK
6
CONTINUOUS
10
5.679609724409449
20
-3.165134251968504
11
5.6755165748031491
21
-3.1712600787401573
0
LINE
8
BLACK
6
CONTINUOUS
10
5.6755165748031491
20
-3.1712600787401573
11
5.6726971653543306
21
-3.1780667322834644
0
LINE
8
BLACK
6
CONTINUOUS
10
5.6726971653543306
20
-3.1780667322834644
11
5.6712598425196852
21
-3.1852926377952757
0
LINE
8
BLACK
6
CONTINUOUS
10
5.6712598425196852
20
-3.1852926377952757
11
5.6712598425196852
21
-3.188976377952756
0
LINE
8
BLACK
6
CONTINUOUS
10
5.6712598425196852
20
-3.188976377952756
11
5.6712598425196852
21
-3.7795275590551181
0
LINE
8
BLACK
6
CONTINUOUS
10
5.6712598425196852
20
-3.7795275590551181
11
5.6712598425196852
21
-3.7832112992125984
0
LINE
8
BLACK
6
CONTINUOUS
10
5.6712598425196852
20
-3.7832112992125984
11
5.6726971653543306
21
-3.7904372047244093
0
LINE
8
BLACK
6
CONTINUOUS
10
5.6726971653543306
20
-3.7904372047244093
11
5.6755165748031491
21
-3.7972438582677164
0
LINE
8
BLACK
6
CONTINUOUS
10
5.6755165748031491
20
-3.7972438582677164
11
5.679609724409449
21
-3.8033696850393701
0
LINE
8
BLACK
6
CONTINUOUS
10
5.679609724409449
20
-3.8033696850393701
11
5.6848192913385827
21
-3.8085792519685038
0
LINE
8
BLACK
6
CONTINUOUS
10
5.6848192913385827
20
-3.8085792519685038
11
5.6909451181102364
21
-3.8126724015748032
0
LINE
8
BLACK
6
CONTINUOUS
10
5.6909451181102364
20
-3.8126724015748032
11
5.6977517716535431
21
-3.8154918110236218
0
LINE
8
BLACK
6
CONTINUOUS
10
5.6977517716535431
20
-3.8154918110236218
11
5.7049776771653544
21
-3.8169291338582676
0
LINE
8
BLACK
6
CONTINUOUS
10
5.7049776771653544
20
-3.8169291338582676
11
5.712345157480315
21
-3.8169291338582676
0
LINE
8
BLACK
6
CONTINUOUS
10
5.712345157480315
20
-3.8169291338582676
11
5.7195710629921255
21
-3.8154918110236218
0
LINE
8
BLACK
6
CONTINUOUS
10
5.7195710629921255
20
-3.8154918110236218
11
5.726377716535433
21
-3.8126724015748032
0
LINE
8
BLACK
6
CONTINUOUS
10
5.726377716535433
20
-3.8126724015748032
11
5.7325035433070868
21
-3.8085792519685038
0
LINE
8
BLACK
6
CONTINUOUS
10
5.7325035433070868
20
-3.8085792519685038
11
5.7377131102362204
21
-3.8033696850393701
0
LINE
8
BLACK
6
CONTINUOUS
10
5.7377131102362204
20
-3.8033696850393701
11
5.7418062598425195
21
-3.7972438582677164
0
LINE
8
BLACK
6
CONTINUOUS
10
5.7418062598425195
20
-3.7972438582677164
11
5.7446256692913389
21
-3.7904372047244093
0
LINE
8
BLACK
6
CONTINUOUS
10
5.7446256692913389
20
-3.7904372047244093
11
5.7460629921259843
21
-3.7832112992125984
0
LINE
8
BLACK
6
CONTINUOUS
10
5.7460629921259843
20
-3.7832112992125984
11
5.7460629921259843
21
-3.7795275590551181
0
LINE
8
BLACK
6
CONTINUOUS
10
5.7460629921259843
20
-3.7795275590551181
11
5.7460629921259843
21
-3.188976377952756
0
LINE
8
BLACK
6
CONTINUOUS
10
5.7460629921259843
20
-3.188976377952756
11
5.7460629921259843
21
-3.1852926377952757
0
LINE
8
BLACK
6
CONTINUOUS
10
5.7460629921259843
20
-3.1852926377952757
11
5.7446256692913389
21
-3.1780667322834644
0
LINE
8
BLACK
6
CONTINUOUS
10
5.7446256692913389
20
-3.1780667322834644
11
5.7418062598425195
21
-3.1712600787401573
0
LINE
8
BLACK
6
CONTINUOUS
10
5.7418062598425195
20
-3.1712600787401573
11
5.7377131102362204
21
-3.165134251968504
0
LINE
8
BLACK
6
CONTINUOUS
10
5.7377131102362204
20
-3.165134251968504
11
5.7325035433070868
21
-3.1599246850393699
0
LINE
8
BLACK
6
CONTINUOUS
10
5.7325035433070868
20
-3.1599246850393699
11
5.726377716535433
21
-3.1558315354330708
0
LINE
8
BLACK
6
CONTINUOUS
10
5.726377716535433
20
-3.1558315354330708
11
5.7195710629921255
21
-3.1530121259842518
0
LINE
8
BLACK
6
CONTINUOUS
10
5.7195710629921255
20
-3.1530121259842518
11
5.712345157480315
21
-3.151574803149606
0
LINE
8
BLACK
6
CONTINUOUS
10
5.712345157480315
20
-3.151574803149606
11
5.7049776771653544
21
-3.151574803149606
0
LINE
8
BLACK
6
CONTINUOUS
10
5.7049776771653544
20
-3.151574803149606
11
5.6977517716535431
21
-3.1530121259842518
0
LINE
8
BLACK
6
CONTINUOUS
10
6.377952755905512
20
-1.7303149606299213
11
6.3905044094488188
21
-1.7309727559055117
0
LINE
8
BLACK
6
CONTINUOUS
10
6.3905044094488188
20
-1.7309727559055117
11
6.4029185433070861
21
-1.7329389763779528
0
LINE
8
BLACK
6
CONTINUOUS
10
6.4029185433070861
20
-1.7329389763779528
11
6.4150591338582679
21
-1.7361920472440944
0
LINE
8
BLACK
6
CONTINUOUS
10
6.4150591338582679
20
-1.7361920472440944
11
6.4267931889763776
21
-1.7406962992125983
0
LINE
8
BLACK
6
CONTINUOUS
10
6.4267931889763776
20
-1.7406962992125983
11
6.4379921259842519
21
-1.7464024803149605
0
LINE
8
BLACK
6
CONTINUOUS
10
6.4379921259842519
20
-1.7464024803149605
11
6.4485332677165355
21
-1.7532479527559055
0
LINE
8
BLACK
6
CONTINUOUS
10
6.4485332677165355
20
-1.7532479527559055
11
6.4583011023622046
21
-1.7611577952755906
0
LINE
8
BLACK
6
CONTINUOUS
10
6.4583011023622046
20
-1.7611577952755906
11
6.4671886614173228
21
-1.7700453543307086
0
LINE
8
BLACK
6
CONTINUOUS
10
6.4671886614173228
20
-1.7700453543307086
11
6.4750985039370077
21
-1.779813188976378
0
LINE
8
BLACK
6
CONTINUOUS
10
6.4750985039370077
20
-1.779813188976378
11
6.4819439763779529
21
-1.7903543307086613
0
LINE
8
BLACK
6
CONTINUOUS
10
6.4819439763779529
20
-1.7903543307086613
11
6.4876501574803145
21
-1.8015532677165353
0
LINE
8
BLACK
6
CONTINUOUS
10
6.4876501574803145
20
-1.8015532677165353
11
6.4921544094488191
21
-1.8132873228346456
0
LINE
8
BLACK
6
CONTINUOUS
10
6.4921544094488191
20
-1.8132873228346456
11
6.4954074803149604
21
-1.8254279133858267
0
LINE
8
BLACK
6
CONTINUOUS
10
6.4954074803149604
20
-1.8254279133858267
11
6.4973737007874011
21
-1.8378420472440944
0
LINE
8
BLACK
6
CONTINUOUS
10
6.4973737007874011
20
-1.8378420472440944
11
6.4980314960629917
21
-1.8503937007874016
0
LINE
8
BLACK
6
CONTINUOUS
10
6.4980314960629917
20
-1.8503937007874016
11
6.4980314960629917
21
-3.8188976377952755
0
LINE
8
BLACK
6
CONTINUOUS
10
6.4980314960629917
20
-3.8188976377952755
11
6.4973737007874011
21
-3.8314492913385827
0
LINE
8
BLACK
6
CONTINUOUS
10
6.4973737007874011
20
-3.8314492913385827
11
6.4954074803149604
21
-3.8438634251968504
0
LINE
8
BLACK
6
CONTINUOUS
10
6.4954074803149604
20
-3.8438634251968504
11
6.4921544094488191
21
-3.8560040157480313
0
LINE
8
BLACK
6
CONTINUOUS
10
6.4921544094488191
20
-3.8560040157480313
11
6.4876501574803145
21
-3.8677380708661415
0
LINE
8
BLACK
6
CONTINUOUS
10
6.4876501574803145
20
-3.8677380708661415
11
6.4819439763779529
21
-3.8789370078740157
0
LINE
8
BLACK
6
CONTINUOUS
10
6.4819439763779529
20
-3.8789370078740157
11
6.4750985039370077
21
-3.8894781496062993
0
LINE
8
BLACK
6
CONTINUOUS
10
6.4750985039370077
20
-3.8894781496062993
11
6.4671886614173228
21
-3.8992459842519684
0
LINE
8
BLACK
6
CONTINUOUS
10
6.4671886614173228
20
-3.8992459842519684
11
6.4583011023622046
21
-3.9081335433070867
0
LINE
8
BLACK
6
CONTINUOUS
10
6.4583011023622046
20
-3.9081335433070867
11
6.4485332677165355
21
-3.9160433858267716
0
LINE
8
BLACK
6
CONTINUOUS
10
6.4485332677165355
20
-3.9160433858267716
11
6.4379921259842519
21
-3.9228888582677164
0
LINE
8
BLACK
6
CONTINUOUS
10
6.4379921259842519
20
-3.9228888582677164
11
6.4267931889763776
21
-3.9285950393700788
0
LINE
8
BLACK
6
CONTINUOUS
10
6.4267931889763776
20
-3.9285950393700788
11
6.4150591338582679
21
-3.9330992913385825
0
LINE
8
BLACK
6
CONTINUOUS
10
6.4150591338582679
20
-3.9330992913385825
11
6.4029185433070861
21
-3.9363523622047243
0
LINE
8
BLACK
6
CONTINUOUS
10
6.4029185433070861
20
-3.9363523622047243
11
6.3905044094488188
21
-3.9383185826771654
0
LINE
8
BLACK
6
CONTINUOUS
10
6.3905044094488188
20
-3.9383185826771654
11
6.377952755905512
21
-3.938976377952756
0
LINE
8
BLACK
6
CONTINUOUS
10
6.377952755905512
20
-3.938976377952756
11
4.0551181102362204
21
-3.938976377952756
0
LINE
8
BLACK
6
CONTINUOUS
10
4.0551181102362204
20
-3.938976377952756
11
4.0425664566929136
21
-3.9383185826771654
0
LINE
8
BLACK
6
CONTINUOUS
10
4.0425664566929136
20
-3.9383185826771654
11
4.0301523228346454
21
-3.9363523622047243
0
LINE
8
BLACK
6
CONTINUOUS
10
4.0301523228346454
20
-3.9363523622047243
11
4.0180117322834645
21
-3.9330992913385825
0
LINE
8
BLACK
6
CONTINUOUS
10
4.0180117322834645
20
-3.9330992913385825
11
4.0062776771653539
21
-3.9285950393700788
0
LINE
8
BLACK
6
CONTINUOUS
10
4.0062776771653539
20
-3.9285950393700788
11
3.9950787401574801
21
-3.9228888582677164
0
LINE
8
BLACK
6
CONTINUOUS
10
3.9950787401574801
20
-3.9228888582677164
11
3.9845375984251969
21
-3.9160433858267716
0
LINE
8
BLACK
6
CONTINUOUS
10
3.9845375984251969
20
-3.9160433858267716
11
3.9747697637795274
21
-3.9081335433070867
0
LINE
8
BLACK
6
CONTINUOUS
10
3.9747697637795274
20
-3.9081335433070867
11
3.9658822047244096
21
-3.8992459842519684
0
LINE
8
BLACK
6
CONTINUOUS
10
3.9658822047244096
20
-3.8992459842519684
11
3.9579723622047243
21
-3.8894781496062993
0
LINE
8
BLACK
6
CONTINUOUS
10
3.9579723622047243
20
-3.8894781496062993
11
3.9511268897637795
21
-3.8789370078740157
0
LINE
8
BLACK
6
CONTINUOUS
10
3.9511268897637795
20
-3.8789370078740157
11
3.945420708661417
21
-3.8677380708661415
0
LINE
8
BLACK
6
CONTINUOUS
10
3.945420708661417
20
-3.8677380708661415
11
3.9409164566929133
21
-3.8560040157480313
0
LINE
8
BLACK
6
CONTINUOUS
10
3.9409164566929133
20
-3.8560040157480313
11
3.9376633858267716
21
-3.8438634251968504
0
LINE
8
BLACK
6
CONTINUOUS
10
3.9376633858267716
20
-3.8438634251968504
11
3.9356971653543305
21
-3.8314492913385827
0
LINE
8
BLACK
6
CONTINUOUS
10
3.9356971653543305
20
-3.8314492913385827
11
3.9350393700787403
21
-3.8188976377952755
0
LINE
8
BLACK
6
CONTINUOUS
10
3.9350393700787403
20
-3.8188976377952755
11
3.9350393700787403
21
-3.188976377952756
0
LINE
8
BLACK
6
CONTINUOUS
10
3.9350393700787403
20
-3.188976377952756
11
3.9355810629921257
21
-3.1841632677165355
0
LINE
8
BLACK
6
CONTINUOUS
10
3.9355810629921257
20
-3.1841632677165355
11
3.9371790551181101
21
-3.1795909842519685
0
LINE
8
BLACK
6
CONTINUOUS
10
3.9371790551181101
20
-3.1795909842519685
11
3.9397533858267715
21
-3.1754882677165353
0
LINE
8
BLACK
6
CONTINUOUS
10
3.9397533858267715
20
-3.1754882677165353
11
3.9431752755905509
21
-3.1720604330708659
0
LINE
8
BLACK
6
CONTINUOUS
10
3.9431752755905509
20
-3.1720604330708659
11
3.947273464566929
21
-3.1694789370078738
0
LINE
8
BLACK
6
CONTINUOUS
10
3.947273464566929
20
-3.1694789370078738
11
3.9518429527559054
21
-3.1678729527559053
0
LINE
8
BLACK
6
CONTINUOUS
10
3.9518429527559054
20
-3.1678729527559053
11
3.9566551181102363
21
-3.1673228740157477
0
LINE
8
BLACK
6
CONTINUOUS
10
3.9566551181102363
20
-3.1673228740157477
11
3.9566694094488186
21
-3.1673274803149605
0
LINE
8
BLACK
6
CONTINUOUS
10
3.9566694094488186
20
-3.1673274803149605
11
3.9566929133858268
21
-3.1673228346456694
0
LINE
8
BLACK
6
CONTINUOUS
10
3.9566929133858268
20
-3.1673228346456694
11
4.1141732283464565
21
-3.1673228346456694
0
LINE
8
BLACK
6
CONTINUOUS
10
4.1141732283464565
20
-3.1673228346456694
11
4.1165056692913389
21
-3.1673228346456694
0
LINE
8
BLACK
6
CONTINUOUS
10
4.1165056692913389
20
-3.1673228346456694
11
4.1210115748031493
21
-3.1661154724409446
0
LINE
8
BLACK
6
CONTINUOUS
10
4.1210115748031493
20
-3.1661154724409446
11
4.125051417322835
21
-3.1637830708661419
0
LINE
8
BLACK
6
CONTINUOUS
10
4.125051417322835
20
-3.1637830708661419
11
4.1283500000000002
21
-3.1604844881889762
0
LINE
8
BLACK
6
CONTINUOUS
10
4.1283500000000002
20
-3.1604844881889762
11
4.1306824015748029
21
-3.1564446456692914
0
LINE
8
BLACK
6
CONTINUOUS
10
4.1306824015748029
20
-3.1564446456692914
11
4.1318897637795278
21
-3.1519387401574801
0
LINE
8
BLACK
6
CONTINUOUS
10
4.1318897637795278
20
-3.1519387401574801
11
4.1318897637795278
21
-3.1496062992125982
0
LINE
8
BLACK
6
CONTINUOUS
10
4.1318897637795278
20
-3.1496062992125982
11
4.1318897637795278
21
-2.5196850393700787
0
LINE
8
BLACK
6
CONTINUOUS
10
4.1318897637795278
20
-2.5196850393700787
11
4.1318897637795278
21
-2.5173525984251968
0
LINE
8
BLACK
6
CONTINUOUS
10
4.1318897637795278
20
-2.5173525984251968
11
4.1306824015748029
21
-2.5128466929133859
0
LINE
8
BLACK
6
CONTINUOUS
10
4.1306824015748029
20
-2.5128466929133859
11
4.1283500000000002
21
-2.5088068503937007
0
LINE
8
BLACK
6
CONTINUOUS
10
4.1283500000000002
20
-2.5088068503937007
11
4.125051417322835
21
-2.5055082677165355
0
LINE
8
BLACK
6
CONTINUOUS
10
4.125051417322835
20
-2.5055082677165355
11
4.1210115748031493
21
-2.5031758661417323
0
LINE
8
BLACK
6
CONTINUOUS
10
4.1210115748031493
20
-2.5031758661417323
11
4.1165056692913389
21
-2.5019685039370079
0
LINE
8
BLACK
6
CONTINUOUS
10
4.1165056692913389
20
-2.5019685039370079
11
4.1141732283464565
21
-2.5019685039370079
0
LINE
8
BLACK
6
CONTINUOUS
10
4.1141732283464565
20
-2.5019685039370079
11
3.9566929133858268
21
-2.5019685039370079
0
LINE
8
BLACK
6
CONTINUOUS
10
3.9566929133858268
20
-2.5019685039370079
11
3.9518745275590552
21
-2.5014255905511811
0
LINE
8
BLACK
6
CONTINUOUS
10
3.9518745275590552
20
-2.5014255905511811
11
3.9472977952755905
21
-2.4998241338582678
0
LINE
8
BLACK
6
CONTINUOUS
10
3.9472977952755905
20
-2.4998241338582678
11
3.9431921653543305
21
-2.4972443700787399
0
LINE
8
BLACK
6
CONTINUOUS
10
3.9431921653543305
20
-2.4972443700787399
11
3.9397635039370078
21
-2.4938157086614172
0
LINE
8
BLACK
6
CONTINUOUS
10
3.9397635039370078
20
-2.4938157086614172
11
3.9371837401574803
21
-2.4897100787401576
0
LINE
8
BLACK
6
CONTINUOUS
10
3.9371837401574803
20
-2.4897100787401576
11
3.9355822834645666
21
-2.4851333464566929
0
LINE
8
BLACK
6
CONTINUOUS
10
3.9355822834645666
20
-2.4851333464566929
11
3.9350393700787403
21
-2.4803149606299213
0
LINE
8
BLACK
6
CONTINUOUS
10
3.9350393700787403
20
-2.4803149606299213
11
3.9350393700787403
21
-1.8503937007874016
0
LINE
8
BLACK
6
CONTINUOUS
10
3.9350393700787403
20
-1.8503937007874016
11
3.9356971653543305
21
-1.8378420472440944
0
LINE
8
BLACK
6
CONTINUOUS
10
3.9356971653543305
20
-1.8378420472440944
11
3.9376633858267716
21
-1.8254279133858267
0
LINE
8
BLACK
6
CONTINUOUS
10
3.9376633858267716
20
-1.8254279133858267
11
3.9409164566929133
21
-1.8132873228346456
0
LINE
8
BLACK
6
CONTINUOUS
10
3.9409164566929133
20
-1.8132873228346456
11
3.945420708661417
21
-1.8015532677165353
0
LINE
8
BLACK
6
CONTINUOUS
10
3.945420708661417
20
-1.8015532677165353
11
3.9511268897637795
21
-1.7903543307086613
0
LINE
8
BLACK
6
CONTINUOUS
10
3.9511268897637795
20
-1.7903543307086613
11
3.9579723622047243
21
-1.779813188976378
0
LINE
8
BLACK
6
CONTINUOUS
10
3.9579723622047243
20
-1.779813188976378
11
3.9658822047244096
21
-1.7700453543307086
0
LINE
8
BLACK
6
CONTINUOUS
10
3.9658822047244096
20
-1.7700453543307086
11
3.9747697637795274
21
-1.7611577952755906
0
LINE
8
BLACK
6
CONTINUOUS
10
3.9747697637795274
20
-1.7611577952755906
11
3.9845375984251969
21
-1.7532479527559055
0
LINE
8
BLACK
6
CONTINUOUS
10
3.9845375984251969
20
-1.7532479527559055
11
3.9950787401574801
21
-1.7464024803149605
0
LINE
8
BLACK
6
CONTINUOUS
10
3.9950787401574801
20
-1.7464024803149605
11
4.0062776771653539
21
-1.7406962992125983
0
LINE
8
BLACK
6
CONTINUOUS
10
4.0062776771653539
20
-1.7406962992125983
11
4.0180117322834645
21
-1.7361920472440944
0
LINE
8
BLACK
6
CONTINUOUS
10
4.0180117322834645
20
-1.7361920472440944
11
4.0301523228346454
21
-1.7329389763779528
0
LINE
8
BLACK
6
CONTINUOUS
10
4.0301523228346454
20
-1.7329389763779528
11
4.0425664566929136
21
-1.7309727559055117
0
LINE
8
BLACK
6
CONTINUOUS
10
4.0425664566929136
20
-1.7309727559055117
11
4.0551181102362204
21
-1.7303149606299213
0
LINE
8
BLACK
6
CONTINUOUS
10
4.0551181102362204
20
-1.7303149606299213
11
6.377952755905512
21
-1.7303149606299213
0
LINE
8
BLACK
6
CONTINUOUS
10
4.0551181102362204
20
-1.734251968503937
11
4.048595748031496
21
-1.734251968503937
0
LINE
8
BLACK
6
CONTINUOUS
10
4.048595748031496
20
-1.734251968503937
11
4.0356329921259846
21
-1.7357125196850394
0
LINE
8
BLACK
6
CONTINUOUS
10
4.0356329921259846
20
-1.7357125196850394
11
4.0229153149606303
21
-1.7386152755905511
0
LINE
8
BLACK
6
CONTINUOUS
10
4.0229153149606303
20
-1.7386152755905511
11
4.0106025590551182
21
-1.7429236614173227
0
LINE
8
BLACK
6
CONTINUOUS
10
4.0106025590551182
20
-1.7429236614173227
11
3.9988496456692912
21
-1.7485835826771654
0
LINE
8
BLACK
6
CONTINUOUS
10
3.9988496456692912
20
-1.7485835826771654
11
3.9878043307086615
21
-1.7555238188976376
0
LINE
8
BLACK
6
CONTINUOUS
10
3.9878043307086615
20
-1.7555238188976376
11
3.9776055118110234
21
-1.7636570866141732
0
LINE
8
BLACK
6
CONTINUOUS
10
3.9776055118110234
20
-1.7636570866141732
11
3.968381496062992
21
-1.7728811023622046
0
LINE
8
BLACK
6
CONTINUOUS
10
3.968381496062992
20
-1.7728811023622046
11
3.9602482283464564
21
-1.7830799212598425
0
LINE
8
BLACK
6
CONTINUOUS
10
3.9602482283464564
20
-1.7830799212598425
11
3.9533079921259842
21
-1.7941252362204725
0
LINE
8
BLACK
6
CONTINUOUS
10
3.9533079921259842
20
-1.7941252362204725
11
3.9476480708661414
21
-1.8058781496062992
0
LINE
8
BLACK
6
CONTINUOUS
10
3.9476480708661414
20
-1.8058781496062992
11
3.94333968503937
21
-1.8181909055118111
0
LINE
8
BLACK
6
CONTINUOUS
10
3.94333968503937
20
-1.8181909055118111
11
3.9404369291338583
21
-1.8309085826771654
0
LINE
8
BLACK
6
CONTINUOUS
10
3.9404369291338583
20
-1.8309085826771654
11
3.938976377952756
21
-1.843871338582677
0
LINE
8
BLACK
6
CONTINUOUS
10
3.938976377952756
20
-1.843871338582677
11
3.938976377952756
21
-1.8503937007874016
0
LINE
8
BLACK
6
CONTINUOUS
10
3.938976377952756
20
-1.8503937007874016
11
3.938976377952756
21
-2.4803149606299213
0
LINE
8
BLACK
6
CONTINUOUS
10
3.938976377952756
20
-2.4803149606299213
11
3.938976377952756
21
-2.4826474015748032
0
LINE
8
BLACK
6
CONTINUOUS
10
3.938976377952756
20
-2.4826474015748032
11
3.9401837401574804
21
-2.4871533070866141
0
LINE
8
BLACK
6
CONTINUOUS
10
3.9401837401574804
20
-2.4871533070866141
11
3.9425161417322836
21
-2.4911931496062993
0
LINE
8
BLACK
6
CONTINUOUS
10
3.9425161417322836
20
-2.4911931496062993
11
3.9458147244094488
21
-2.4944917322834645
0
LINE
8
BLACK
6
CONTINUOUS
10
3.9458147244094488
20
-2.4944917322834645
11
3.9498545669291336
21
-2.4968241338582677
0
LINE
8
BLACK
6
CONTINUOUS
10
3.9498545669291336
20
-2.4968241338582677
11
3.9543604724409449
21
-2.4980314960629921
0
LINE
8
BLACK
6
CONTINUOUS
10
3.9543604724409449
20
-2.4980314960629921
11
3.9566929133858268
21
-2.4980314960629921
0
LINE
8
BLACK
6
CONTINUOUS
10
3.9566929133858268
20
-2.4980314960629921
11
4.1141732283464565
21
-2.4980314960629921
0
LINE
8
BLACK
6
CONTINUOUS
10
4.1141732283464565
20
-2.4980314960629921
11
4.1189916141732281
21
-2.4985744094488189
0
LINE
8
BLACK
6
CONTINUOUS
10
4.1189916141732281
20
-2.4985744094488189
11
4.1235683464566932
21
-2.5001758661417322
0
LINE
8
BLACK
6
CONTINUOUS
10
4.1235683464566932
20
-2.5001758661417322
11
4.1276739763779524
21
-2.5027556299212597
0
LINE
8
BLACK
6
CONTINUOUS
10
4.1276739763779524
20
-2.5027556299212597
11
4.1311026377952755
21
-2.5061842913385828
0
LINE
8
BLACK
6
CONTINUOUS
10
4.1311026377952755
20
-2.5061842913385828
11
4.133682401574803
21
-2.5102899212598424
0
LINE
8
BLACK
6
CONTINUOUS
10
4.133682401574803
20
-2.5102899212598424
11
4.1352838582677167
21
-2.5148666535433071
0
LINE
8
BLACK
6
CONTINUOUS
10
4.1352838582677167
20
-2.5148666535433071
11
4.1358267716535435
21
-2.5196850393700787
0
LINE
8
BLACK
6
CONTINUOUS
10
4.1358267716535435
20
-2.5196850393700787
11
4.1358267716535435
21
-3.1496062992125982
0
LINE
8
BLACK
6
CONTINUOUS
10
4.1358267716535435
20
-3.1496062992125982
11
4.1352838582677167
21
-3.1544246850393698
0
LINE
8
BLACK
6
CONTINUOUS
10
4.1352838582677167
20
-3.1544246850393698
11
4.133682401574803
21
-3.1590014173228345
0
LINE
8
BLACK
6
CONTINUOUS
10
4.133682401574803
20
-3.1590014173228345
11
4.1311026377952755
21
-3.1631070472440945
0
LINE
8
BLACK
6
CONTINUOUS
10
4.1311026377952755
20
-3.1631070472440945
11
4.1276739763779524
21
-3.1665357086614172
0
LINE
8
BLACK
6
CONTINUOUS
10
4.1276739763779524
20
-3.1665357086614172
11
4.1235683464566932
21
-3.1691154724409447
0
LINE
8
BLACK
6
CONTINUOUS
10
4.1235683464566932
20
-3.1691154724409447
11
4.1189916141732281
21
-3.1707169291338584
0
LINE
8
BLACK
6
CONTINUOUS
10
4.1189916141732281
20
-3.1707169291338584
11
4.1141732283464565
21
-3.1712598425196852
0
LINE
8
BLACK
6
CONTINUOUS
10
4.1141732283464565
20
-3.1712598425196852
11
3.9566929133858268
21
-3.1712598425196852
0
LINE
8
BLACK
6
CONTINUOUS
10
3.9566929133858268
20
-3.1712598425196852
11
3.9566737401574801
21
-3.1712560236220471
0
LINE
8
BLACK
6
CONTINUOUS
10
3.9566737401574801
20
-3.1712560236220471
11
3.956661968503937
21
-3.1712598818897635
0
LINE
8
BLACK
6
CONTINUOUS
10
3.956661968503937
20
-3.1712598818897635
11
3.9543321259842519
21
-3.1712635826771653
0
LINE
8
BLACK
6
CONTINUOUS
10
3.9543321259842519
20
-3.1712635826771653
11
3.9498329921259843
21
-3.1724761811023621
0
LINE
8
BLACK
6
CONTINUOUS
10
3.9498329921259843
20
-3.1724761811023621
11
3.945800275590551
21
-3.1748107086614175
0
LINE
8
BLACK
6
CONTINUOUS
10
3.945800275590551
20
-3.1748107086614175
11
3.9425082283464565
21
-3.1781085039370076
0
LINE
8
BLACK
6
CONTINUOUS
10
3.9425082283464565
20
-3.1781085039370076
11
3.9401807480314961
21
-3.182145275590551
0
LINE
8
BLACK
6
CONTINUOUS
10
3.9401807480314961
20
-3.182145275590551
11
3.9389760236220472
21
-3.1866465354330709
0
LINE
8
BLACK
6
CONTINUOUS
10
3.9389760236220472
20
-3.1866465354330709
11
3.938976377952756
21
-3.188976377952756
0
LINE
8
BLACK
6
CONTINUOUS
10
3.938976377952756
20
-3.188976377952756
11
3.938976377952756
21
-3.8188976377952755
0
LINE
8
BLACK
6
CONTINUOUS
10
3.938976377952756
20
-3.8188976377952755
11
3.938976377952756
21
-3.8254199999999998
0
LINE
8
BLACK
6
CONTINUOUS
10
3.938976377952756
20
-3.8254199999999998
11
3.9404369291338583
21
-3.8383827559055117
0
LINE
8
BLACK
6
CONTINUOUS
10
3.9404369291338583
20
-3.8383827559055117
11
3.94333968503937
21
-3.851100433070866
0
LINE
8
BLACK
6
CONTINUOUS
10
3.94333968503937
20
-3.851100433070866
11
3.9476480708661414
21
-3.8634131889763776
0
LINE
8
BLACK
6
CONTINUOUS
10
3.9476480708661414
20
-3.8634131889763776
11
3.9533079921259842
21
-3.8751661023622046
0
LINE
8
BLACK
6
CONTINUOUS
10
3.9533079921259842
20
-3.8751661023622046
11
3.9602482283464564
21
-3.8862114173228344
0
LINE
8
BLACK
6
CONTINUOUS
10
3.9602482283464564
20
-3.8862114173228344
11
3.968381496062992
21
-3.8964102362204724
0
LINE
8
BLACK
6
CONTINUOUS
10
3.968381496062992
20
-3.8964102362204724
11
3.9776055118110234
21
-3.9056342519685039
0
LINE
8
BLACK
6
CONTINUOUS
10
3.9776055118110234
20
-3.9056342519685039
11
3.9878043307086615
21
-3.9137675196850394
0
LINE
8
BLACK
6
CONTINUOUS
10
3.9878043307086615
20
-3.9137675196850394
11
3.9988496456692912
21
-3.9207077559055117
0
LINE
8
BLACK
6
CONTINUOUS
10
3.9988496456692912
20
-3.9207077559055117
11
4.0106025590551182
21
-3.9263676771653544
0
LINE
8
BLACK
6
CONTINUOUS
10
4.0106025590551182
20
-3.9263676771653544
11
4.0229153149606303
21
-3.9306760629921258
0
LINE
8
BLACK
6
CONTINUOUS
10
4.0229153149606303
20
-3.9306760629921258
11
4.0356329921259846
21
-3.9335788188976375
0
LINE
8
BLACK
6
CONTINUOUS
10
4.0356329921259846
20
-3.9335788188976375
11
4.048595748031496
21
-3.9350393700787403
0
LINE
8
BLACK
6
CONTINUOUS
10
4.048595748031496
20
-3.9350393700787403
11
4.0551181102362204
21
-3.9350393700787403
0
LINE
8
BLACK
6
CONTINUOUS
10
4.0551181102362204
20
-3.9350393700787403
11
6.377952755905512
21
-3.9350393700787403
0
LINE
8
BLACK
6
CONTINUOUS
10
6.377952755905512
20
-3.9350393700787403
11
6.3844751181102364
21
-3.9350393700787403
0
LINE
8
BLACK
6
CONTINUOUS
10
6.3844751181102364
20
-3.9350393700787403
11
6.3974378740157478
21
-3.9335788188976375
0
LINE
8
BLACK
6
CONTINUOUS
10
6.3974378740157478
20
-3.9335788188976375
11
6.4101555511811021
21
-3.9306760629921258
0
LINE
8
BLACK
6
CONTINUOUS
10
6.4101555511811021
20
-3.9306760629921258
11
6.4224683070866142
21
-3.9263676771653544
0
LINE
8
BLACK
6
CONTINUOUS
10
6.4224683070866142
20
-3.9263676771653544
11
6.4342212204724412
21
-3.9207077559055117
0
LINE
8
BLACK
6
CONTINUOUS
10
6.4342212204724412
20
-3.9207077559055117
11
6.4452665354330705
21
-3.9137675196850394
0
LINE
8
BLACK
6
CONTINUOUS
10
6.4452665354330705
20
-3.9137675196850394
11
6.4554653543307081
21
-3.9056342519685039
0
LINE
8
BLACK
6
CONTINUOUS
10
6.4554653543307081
20
-3.9056342519685039
11
6.46468937007874
21
-3.8964102362204724
0
LINE
8
BLACK
6
CONTINUOUS
10
6.46468937007874
20
-3.8964102362204724
11
6.4728226377952751
21
-3.8862114173228344
0
LINE
8
BLACK
6
CONTINUOUS
10
6.4728226377952751
20
-3.8862114173228344
11
6.4797628740157478
21
-3.8751661023622046
0
LINE
8
BLACK
6
CONTINUOUS
10
6.4797628740157478
20
-3.8751661023622046
11
6.4854227952755901
21
-3.8634131889763776
0
LINE
8
BLACK
6
CONTINUOUS
10
6.4854227952755901
20
-3.8634131889763776
11
6.4897311811023624
21
-3.851100433070866
0
LINE
8
BLACK
6
CONTINUOUS
10
6.4897311811023624
20
-3.851100433070866
11
6.4926339370078736
21
-3.8383827559055117
0
LINE
8
BLACK
6
CONTINUOUS
10
6.4926339370078736
20
-3.8383827559055117
11
6.4940944881889759
21
-3.8254199999999998
0
LINE
8
BLACK
6
CONTINUOUS
10
6.4940944881889759
20
-3.8254199999999998
11
6.4940944881889759
21
-3.8188976377952755
0
LINE
8
BLACK
6
CONTINUOUS
10
6.4940944881889759
20
-3.8188976377952755
11
6.4940944881889759
21
-1.8503937007874016
0
LINE
8
BLACK
6
CONTINUOUS
10
6.4940944881889759
20
-1.8503937007874016
11
6.4940944881889759
21
-1.843871338582677
0
LINE
8
BLACK
6
CONTINUOUS
10
6.4940944881889759
20
-1.843871338582677
11
6.4926339370078736
21
-1.8309085826771654
0
LINE
8
BLACK
6
CONTINUOUS
10
6.4926339370078736
20
-1.8309085826771654
11
6.4897311811023624
21
-1.8181909055118111
0
LINE
8
BLACK
6
CONTINUOUS
10
6.4897311811023624
20
-1.8181909055118111
11
6.4854227952755901
21
-1.8058781496062992
0
LINE
8
BLACK
6
CONTINUOUS
10
6.4854227952755901
20
-1.8058781496062992
11
6.4797628740157478
21
-1.7941252362204725
0
LINE
8
BLACK
6
CONTINUOUS
10
6.4797628740157478
20
-1.7941252362204725
11
6.4728226377952751
21
-1.7830799212598425
0
LINE
8
BLACK
6
CONTINUOUS
10
6.4728226377952751
20
-1.7830799212598425
11
6.46468937007874
21
-1.7728811023622046
0
LINE
8
BLACK
6
CONTINUOUS
10
6.46468937007874
20
-1.7728811023622046
11
6.4554653543307081
21
-1.7636570866141732
0
LINE
8
BLACK
6
CONTINUOUS
10
6.4554653543307081
20
-1.7636570866141732
11
6.4452665354330705
21
-1.7555238188976376
0
LINE
8
BLACK
6
CONTINUOUS
10
6.4452665354330705
20
-1.7555238188976376
11
6.4342212204724412
21
-1.7485835826771654
0
LINE
8
BLACK
6
CONTINUOUS
10
6.4342212204724412
20
-1.7485835826771654
11
6.4224683070866142
21
-1.7429236614173227
0
LINE
8
BLACK
6
CONTINUOUS
10
6.4224683070866142
20
-1.7429236614173227
11
6.4101555511811021
21
-1.7386152755905511
0
LINE
8
BLACK
6
CONTINUOUS
10
6.4101555511811021
20
-1.7386152755905511
11
6.3974378740157478
21
-1.7357125196850394
0
LINE
8
BLACK
6
CONTINUOUS
10
6.3974378740157478
20
-1.7357125196850394
11
6.3844751181102364
21
-1.734251968503937
0
LINE
8
BLACK
6
CONTINUOUS
10
6.3844751181102364
20
-1.734251968503937
11
6.377952755905512
21
-1.734251968503937
0
LINE
8
BLACK
6
CONTINUOUS
10
6.377952755905512
20
-1.734251968503937
11
4.0551181102362204
21
-1.734251968503937
0
CIRCLE
8
BLACK
10
6.3582677165354333
20
-1.8700787401574803
40
0.0531496062992126
0
CIRCLE
8
BLACK
10
4.0748031496062991
20
-3.7992125984251968
40
0.0531496062992126
0
CIRCLE
8
BLACK
10
4.0748031496062991
20
-1.8700787401574803
40
0.0531496062992126
0
CIRCLE
8
BLACK
10
6.3582677165354333
20
-3.7992125984251968
40
0.0531496062992126
0
CIRCLE
8
BLACK
10
4.2665354330708665
20
-1.9200787401574804
40
0.0196850393700787
0
CIRCLE
8
BLACK
10
4.2665354330708665
20
-1.8200787401574803
40
0.0196850393700787
0
CIRCLE
8
BLACK
10
4.3665354330708661
20
-1.9200787401574804
40
0.0196850393700787
0
CIRCLE
8
BLACK
10
4.3665354330708661
20
-1.8200787401574803
40
0.0196850393700787
0
CIRCLE
8
BLACK
10
4.4665354330708658
20
-1.9200787401574804
40
0.0196850393700787
0
CIRCLE
8
BLACK
10
4.4665354330708658
20
-1.8200787401574803
40
0.0196850393700787
0
CIRCLE
8
BLACK
10
4.5665354330708663
20
-1.9200787401574804
40
0.0196850393700787
0
CIRCLE
8
BLACK
10
4.5665354330708663
20
-1.8200787401574803
40
0.0196850393700787
0
CIRCLE
8
BLACK
10
4.6665354330708659
20
-1.9200787401574804
40
0.0196850393700787
0
CIRCLE
8
BLACK
10
4.6665354330708659
20
-1.8200787401574803
40
0.0196850393700787
0
CIRCLE
8
BLACK
10
4.7665354330708665
20
-1.9200787401574804
40
0.0196850393700787
0
CIRCLE
8
BLACK
10
4.7665354330708665
20
-1.8200787401574803
40
0.0196850393700787
0
CIRCLE
8
BLACK
10
4.8665354330708661
20
-1.9200787401574804
40
0.0196850393700787
0
CIRCLE
8
BLACK
10
4.8665354330708661
20
-1.8200787401574803
40
0.0196850393700787
0
CIRCLE
8
BLACK
10
4.9665354330708658
20
-1.9200787401574804
40
0.0196850393700787
0
CIRCLE
8
BLACK
10
4.9665354330708658
20
-1.8200787401574803
40
0.0196850393700787
0
CIRCLE
8
BLACK
10
5.0665354330708663
20
-1.9200787401574804
40
0.0196850393700787
0
CIRCLE
8
BLACK
10
5.0665354330708663
20
-1.8200787401574803
40
0.0196850393700787
0
CIRCLE
8
BLACK
10
5.1665354330708659
20
-1.9200787401574804
40
0.0196850393700787
0
CIRCLE
8
BLACK
10
5.1665354330708659
20
-1.8200787401574803
40
0.0196850393700787
0
CIRCLE
8
BLACK
10
5.2665354330708656
20
-1.9200787401574804
40
0.0196850393700787
0
CIRCLE
8
BLACK
10
5.2665354330708656
20
-1.8200787401574803
40
0.0196850393700787
0
CIRCLE
8
BLACK
10
5.3665354330708661
20
-1.9200787401574804
40
0.0196850393700787
0
CIRCLE
8
BLACK
10
5.3665354330708661
20
-1.8200787401574803
40
0.0196850393700787
0
CIRCLE
8
BLACK
10
5.4665354330708658
20
-1.9200787401574804
40
0.0196850393700787
0
CIRCLE
8
BLACK
10
5.4665354330708658
20
-1.8200787401574803
40
0.0196850393700787
0
CIRCLE
8
BLACK
10
5.5665354330708663
20
-1.9200787401574804
40
0.0196850393700787
0
CIRCLE
8
BLACK
10
5.5665354330708663
20
-1.8200787401574803
40
0.0196850393700787
0
CIRCLE
8
BLACK
10
5.6665354330708659
20
-1.9200787401574804
40
0.0196850393700787
0
CIRCLE
8
BLACK
10
5.6665354330708659
20
-1.8200787401574803
40
0.0196850393700787
0
CIRCLE
8
BLACK
10
5.7665354330708656
20
-1.9200787401574804
40
0.0196850393700787
0
CIRCLE
8
BLACK
10
5.7665354330708656
20
-1.8200787401574803
40
0.0196850393700787
0
CIRCLE
8
BLACK
10
5.8665354330708661
20
-1.9200787401574804
40
0.0196850393700787
0
CIRCLE
8
BLACK
10
5.8665354330708661
20
-1.8200787401574803
40
0.0196850393700787
0
CIRCLE
8
BLACK
10
5.9665354330708658
20
-1.9200787401574804
40
0.0196850393700787
0
CIRCLE
8
BLACK
10
5.9665354330708658
20
-1.8200787401574803
40
0.0196850393700787
0
CIRCLE
8
BLACK
10
6.0665354330708663
20
-1.9200787401574804
40
0.0196850393700787
0
CIRCLE
8
BLACK
10
6.0665354330708663
20
-1.8200787401574803
40
0.0196850393700787
0
CIRCLE
8
BLACK
10
6.1665354330708659
20
-1.9200787401574804
40
0.0196850393700787
0
CIRCLE
8
BLACK
10
6.1665354330708659
20
-1.8200787401574803
40
0.0196850393700787
0
CIRCLE
8
BLACK
10
6.3582677165354333
20
-1.8700787401574803
40
0.0531495669291339
0
CIRCLE
8
BLACK
10
4.0748031496062991
20
-3.7992125984251968
40
0.0531495669291339
0
CIRCLE
8
BLACK
10
4.0748031496062991
20
-1.8700787401574803
40
0.0531495669291339
0
CIRCLE
8
BLACK
10
6.3582677165354333
20
-3.7992125984251968
40
0.0531495669291339
0
CIRCLE
8
BLACK
10
4.2665354330708665
20
-1.9200787401574804
40
0.0196850393700787
0
CIRCLE
8
BLACK
10
4.2665354330708665
20
-1.8200787401574803
40
0.0196850393700787
0
CIRCLE
8
BLACK
10
4.3665354330708661
20
-1.9200787401574804
40
0.0196850393700787
0
CIRCLE
8
BLACK
10
4.3665354330708661
20
-1.8200787401574803
40
0.0196850393700787
0
CIRCLE
8
BLACK
10
4.4665354330708658
20
-1.9200787401574804
40
0.0196850393700787
0
CIRCLE
8
BLACK
10
4.4665354330708658
20
-1.8200787401574803
40
0.0196850393700787
0
CIRCLE
8
BLACK
10
4.5665354330708663
20
-1.9200787401574804
40
0.0196850393700787
0
CIRCLE
8
BLACK
10
4.5665354330708663
20
-1.8200787401574803
40
0.0196850393700787
0
CIRCLE
8
BLACK
10
4.6665354330708659
20
-1.9200787401574804
40
0.0196850393700787
0
CIRCLE
8
BLACK
10
4.6665354330708659
20
-1.8200787401574803
40
0.0196850393700787
0
CIRCLE
8
BLACK
10
4.7665354330708665
20
-1.9200787401574804
40
0.0196850393700787
0
CIRCLE
8
BLACK
10
4.7665354330708665
20
-1.8200787401574803
40
0.0196850393700787
0
CIRCLE
8
BLACK
10
4.8665354330708661
20
-1.9200787401574804
40
0.0196850393700787
0
CIRCLE
8
BLACK
10
4.8665354330708661
20
-1.8200787401574803
40
0.0196850393700787
0
CIRCLE
8
BLACK
10
4.9665354330708658
20
-1.9200787401574804
40
0.0196850393700787
0
CIRCLE
8
BLACK
10
4.9665354330708658
20
-1.8200787401574803
40
0.0196850393700787
0
CIRCLE
8
BLACK
10
5.0665354330708663
20
-1.9200787401574804
40
0.0196850393700787
0
CIRCLE
8
BLACK
10
5.0665354330708663
20
-1.8200787401574803
40
0.0196850393700787
0
CIRCLE
8
BLACK
10
5.1665354330708659
20
-1.9200787401574804
40
0.0196850393700787
0
CIRCLE
8
BLACK
10
5.1665354330708659
20
-1.8200787401574803
40
0.0196850393700787
0
CIRCLE
8
BLACK
10
5.2665354330708656
20
-1.9200787401574804
40
0.0196850393700787
0
CIRCLE
8
BLACK
10
5.2665354330708656
20
-1.8200787401574803
40
0.0196850393700787
0
CIRCLE
8
BLACK
10
5.3665354330708661
20
-1.9200787401574804
40
0.0196850393700787
0
CIRCLE
8
BLACK
10
5.3665354330708661
20
-1.8200787401574803
40
0.0196850393700787
0
CIRCLE
8
BLACK
10
5.4665354330708658
20
-1.9200787401574804
40
0.0196850393700787
0
CIRCLE
8
BLACK
10
5.4665354330708658
20
-1.8200787401574803
40
0.0196850393700787
0
CIRCLE
8
BLACK
10
5.5665354330708663
20
-1.9200787401574804
40
0.0196850393700787
0
CIRCLE
8
BLACK
10
5.5665354330708663
20
-1.8200787401574803
40
0.0196850393700787
0
CIRCLE
8
BLACK
10
5.6665354330708659
20
-1.9200787401574804
40
0.0196850393700787
0
CIRCLE
8
BLACK
10
5.6665354330708659
20
-1.8200787401574803
40
0.0196850393700787
0
CIRCLE
8
BLACK
10
5.7665354330708656
20
-1.9200787401574804
40
0.0196850393700787
0
CIRCLE
8
BLACK
10
5.7665354330708656
20
-1.8200787401574803
40
0.0196850393700787
0
CIRCLE
8
BLACK
10
5.8665354330708661
20
-1.9200787401574804
40
0.0196850393700787
0
CIRCLE
8
BLACK
10
5.8665354330708661
20
-1.8200787401574803
40
0.0196850393700787
0
CIRCLE
8
BLACK
10
5.9665354330708658
20
-1.9200787401574804
40
0.0196850393700787
0
CIRCLE
8
BLACK
10
5.9665354330708658
20
-1.8200787401574803
40
0.0196850393700787
0
CIRCLE
8
BLACK
10
6.0665354330708663
20
-1.9200787401574804
40
0.0196850393700787
0
CIRCLE
8
BLACK
10
6.0665354330708663
20
-1.8200787401574803
40
0.0196850393700787
0
CIRCLE
8
BLACK
10
6.1665354330708659
20
-1.9200787401574804
40
0.0196850393700787
0
CIRCLE
8
BLACK
10
6.1665354330708659
20
-1.8200787401574803
40
0.0196850393700787
  0
ENDSEC
  0
EOF
